G04 #@! TF.GenerationSoftware,KiCad,Pcbnew,(2017-06-12 revision 19d5cc754)-master*
G04 #@! TF.CreationDate,2017-12-09T12:00:16+01:00*
G04 #@! TF.ProjectId,RPi_Hat,5250695F4861742E6B696361645F7063,rev?*
G04 #@! TF.FileFunction,Legend,Bot*
G04 #@! TF.FilePolarity,Positive*
%FSLAX46Y46*%
G04 Gerber Fmt 4.6, Leading zero omitted, Abs format (unit mm)*
G04 Created by KiCad (PCBNEW (2017-06-12 revision 19d5cc754)-master) date 2017 December 09, Saturday 12:00:16*
%MOMM*%
%LPD*%
G01*
G04 APERTURE LIST*
%ADD10C,0.100000*%
%ADD11C,0.150000*%
%ADD12C,0.127000*%
%ADD13C,0.101600*%
G04 APERTURE END LIST*
D10*
D11*
X78350000Y6500000D02*
X78350000Y5500000D01*
X76650000Y5500000D02*
X76650000Y6500000D01*
X37325000Y-8500000D02*
X37325000Y-9500000D01*
X38675000Y-9500000D02*
X38675000Y-8500000D01*
X40675000Y-9500000D02*
X40675000Y-8500000D01*
X39325000Y-8500000D02*
X39325000Y-9500000D01*
X43325000Y-8500000D02*
X43325000Y-9500000D01*
X44675000Y-9500000D02*
X44675000Y-8500000D01*
X32675000Y500000D02*
X32675000Y1500000D01*
X31325000Y1500000D02*
X31325000Y500000D01*
X36675000Y500000D02*
X36675000Y1500000D01*
X35325000Y1500000D02*
X35325000Y500000D01*
X38675000Y500000D02*
X38675000Y1500000D01*
X37325000Y1500000D02*
X37325000Y500000D01*
X41325000Y1500000D02*
X41325000Y500000D01*
X42675000Y500000D02*
X42675000Y1500000D01*
X27325000Y1500000D02*
X27325000Y500000D01*
X28675000Y500000D02*
X28675000Y1500000D01*
X30675000Y500000D02*
X30675000Y1500000D01*
X29325000Y1500000D02*
X29325000Y500000D01*
X33325000Y1500000D02*
X33325000Y500000D01*
X34675000Y500000D02*
X34675000Y1500000D01*
X40675000Y500000D02*
X40675000Y1500000D01*
X39325000Y1500000D02*
X39325000Y500000D01*
X42675000Y-9500000D02*
X42675000Y-8500000D01*
X41325000Y-8500000D02*
X41325000Y-9500000D01*
X35325000Y-8500000D02*
X35325000Y-9500000D01*
X36675000Y-9500000D02*
X36675000Y-8500000D01*
X32675000Y-9500000D02*
X32675000Y-8500000D01*
X31325000Y-8500000D02*
X31325000Y-9500000D01*
X29325000Y-8500000D02*
X29325000Y-9500000D01*
X30675000Y-9500000D02*
X30675000Y-8500000D01*
X34675000Y-9500000D02*
X34675000Y-8500000D01*
X33325000Y-8500000D02*
X33325000Y-9500000D01*
X13000000Y-350000D02*
X12000000Y-350000D01*
X12000000Y1350000D02*
X13000000Y1350000D01*
D12*
X95000000Y6750000D02*
X95000000Y1750000D01*
X95000000Y6750000D02*
X92486920Y6750000D01*
X81000000Y7249740D02*
X81000000Y1250260D01*
X92500000Y7250000D02*
X92500000Y1250000D01*
X92500000Y7250000D02*
X91500000Y7250000D01*
X86501140Y7250000D02*
X85000000Y7250000D01*
X83000000Y7250000D02*
X81000000Y7250000D01*
X88500000Y1250000D02*
X89500000Y1250000D01*
X95000000Y1750000D02*
X92486920Y1750000D01*
X92500000Y1250000D02*
X91500000Y1250000D01*
X86602120Y1250260D02*
X85100980Y1250260D01*
X88500000Y7250000D02*
X89500000Y7250000D01*
X83000000Y1250000D02*
X81000000Y1250000D01*
D11*
X34250000Y-47210000D02*
X34250000Y-51790000D01*
X34250000Y-51790000D02*
X40750000Y-51790000D01*
X40750000Y-47210000D02*
X40750000Y-51790000D01*
X34250000Y-47210000D02*
X40750000Y-47210000D01*
X40000000Y-48000000D02*
X40750000Y-48000000D01*
X40000000Y-47210000D02*
X40000000Y-48000000D01*
X40000000Y-42210000D02*
X40000000Y-43000000D01*
X40000000Y-43000000D02*
X40750000Y-43000000D01*
X34250000Y-42210000D02*
X40750000Y-42210000D01*
X40750000Y-42210000D02*
X40750000Y-46790000D01*
X34250000Y-46790000D02*
X40750000Y-46790000D01*
X34250000Y-42210000D02*
X34250000Y-46790000D01*
X34250000Y-37210000D02*
X34250000Y-41790000D01*
X34250000Y-41790000D02*
X40750000Y-41790000D01*
X40750000Y-37210000D02*
X40750000Y-41790000D01*
X34250000Y-37210000D02*
X40750000Y-37210000D01*
X40000000Y-38000000D02*
X40750000Y-38000000D01*
X40000000Y-37210000D02*
X40000000Y-38000000D01*
X40000000Y-32210000D02*
X40000000Y-33000000D01*
X40000000Y-33000000D02*
X40750000Y-33000000D01*
X34250000Y-32210000D02*
X40750000Y-32210000D01*
X40750000Y-32210000D02*
X40750000Y-36790000D01*
X34250000Y-36790000D02*
X40750000Y-36790000D01*
X34250000Y-32210000D02*
X34250000Y-36790000D01*
X34250000Y-27210000D02*
X34250000Y-31790000D01*
X34250000Y-31790000D02*
X40750000Y-31790000D01*
X40750000Y-27210000D02*
X40750000Y-31790000D01*
X34250000Y-27210000D02*
X40750000Y-27210000D01*
X40000000Y-28000000D02*
X40750000Y-28000000D01*
X40000000Y-27210000D02*
X40000000Y-28000000D01*
X40000000Y-22210000D02*
X40000000Y-23000000D01*
X40000000Y-23000000D02*
X40750000Y-23000000D01*
X34250000Y-22210000D02*
X40750000Y-22210000D01*
X40750000Y-22210000D02*
X40750000Y-26790000D01*
X34250000Y-26790000D02*
X40750000Y-26790000D01*
X34250000Y-22210000D02*
X34250000Y-26790000D01*
X34250000Y-17210000D02*
X34250000Y-21790000D01*
X34250000Y-21790000D02*
X40750000Y-21790000D01*
X40750000Y-17210000D02*
X40750000Y-21790000D01*
X34250000Y-17210000D02*
X40750000Y-17210000D01*
X40000000Y-18000000D02*
X40750000Y-18000000D01*
X40000000Y-17210000D02*
X40000000Y-18000000D01*
X40000000Y-12210000D02*
X40000000Y-13000000D01*
X40000000Y-13000000D02*
X40750000Y-13000000D01*
X34250000Y-12210000D02*
X40750000Y-12210000D01*
X40750000Y-12210000D02*
X40750000Y-16790000D01*
X34250000Y-16790000D02*
X40750000Y-16790000D01*
X34250000Y-12210000D02*
X34250000Y-16790000D01*
D12*
X-15500000Y-42311510D02*
X-13500000Y-42311510D01*
X-21000000Y-48311510D02*
X-22000000Y-48311510D01*
X-19102120Y-42311770D02*
X-17600980Y-42311770D01*
X-25000000Y-42311510D02*
X-24000000Y-42311510D01*
X-27500000Y-42811510D02*
X-24986920Y-42811510D01*
X-21000000Y-42311510D02*
X-22000000Y-42311510D01*
X-15500000Y-48311510D02*
X-13500000Y-48311510D01*
X-19001140Y-48311510D02*
X-17500000Y-48311510D01*
X-25000000Y-48311510D02*
X-24000000Y-48311510D01*
X-25000000Y-48311510D02*
X-25000000Y-42311510D01*
X-13500000Y-48311250D02*
X-13500000Y-42311770D01*
X-27500000Y-47811510D02*
X-24986920Y-47811510D01*
X-27500000Y-47811510D02*
X-27500000Y-42811510D01*
X-27500000Y-17811510D02*
X-27500000Y-12811510D01*
X-27500000Y-17811510D02*
X-24986920Y-17811510D01*
X-13500000Y-18311250D02*
X-13500000Y-12311770D01*
X-25000000Y-18311510D02*
X-25000000Y-12311510D01*
X-25000000Y-18311510D02*
X-24000000Y-18311510D01*
X-19001140Y-18311510D02*
X-17500000Y-18311510D01*
X-15500000Y-18311510D02*
X-13500000Y-18311510D01*
X-21000000Y-12311510D02*
X-22000000Y-12311510D01*
X-27500000Y-12811510D02*
X-24986920Y-12811510D01*
X-25000000Y-12311510D02*
X-24000000Y-12311510D01*
X-19102120Y-12311770D02*
X-17600980Y-12311770D01*
X-21000000Y-18311510D02*
X-22000000Y-18311510D01*
X-15500000Y-12311510D02*
X-13500000Y-12311510D01*
X-15500000Y-22311510D02*
X-13500000Y-22311510D01*
X-21000000Y-28311510D02*
X-22000000Y-28311510D01*
X-19102120Y-22311770D02*
X-17600980Y-22311770D01*
X-25000000Y-22311510D02*
X-24000000Y-22311510D01*
X-27500000Y-22811510D02*
X-24986920Y-22811510D01*
X-21000000Y-22311510D02*
X-22000000Y-22311510D01*
X-15500000Y-28311510D02*
X-13500000Y-28311510D01*
X-19001140Y-28311510D02*
X-17500000Y-28311510D01*
X-25000000Y-28311510D02*
X-24000000Y-28311510D01*
X-25000000Y-28311510D02*
X-25000000Y-22311510D01*
X-13500000Y-28311250D02*
X-13500000Y-22311770D01*
X-27500000Y-27811510D02*
X-24986920Y-27811510D01*
X-27500000Y-27811510D02*
X-27500000Y-22811510D01*
X-27500000Y-37811510D02*
X-27500000Y-32811510D01*
X-27500000Y-37811510D02*
X-24986920Y-37811510D01*
X-13500000Y-38311250D02*
X-13500000Y-32311770D01*
X-25000000Y-38311510D02*
X-25000000Y-32311510D01*
X-25000000Y-38311510D02*
X-24000000Y-38311510D01*
X-19001140Y-38311510D02*
X-17500000Y-38311510D01*
X-15500000Y-38311510D02*
X-13500000Y-38311510D01*
X-21000000Y-32311510D02*
X-22000000Y-32311510D01*
X-27500000Y-32811510D02*
X-24986920Y-32811510D01*
X-25000000Y-32311510D02*
X-24000000Y-32311510D01*
X-19102120Y-32311770D02*
X-17600980Y-32311770D01*
X-21000000Y-38311510D02*
X-22000000Y-38311510D01*
X-15500000Y-32311510D02*
X-13500000Y-32311510D01*
D11*
X-14500000Y-65350000D02*
X-14500000Y-56350000D01*
X-14500000Y-56350000D02*
X-27500000Y-56350000D01*
X-27500000Y-65350000D02*
X-14500000Y-65350000D01*
X20500000Y-50900000D02*
X24040000Y-50900000D01*
X20500000Y-49100000D02*
X24040000Y-49100000D01*
X22182500Y-50508000D02*
X22182500Y-49492000D01*
X22817500Y-49619000D02*
X22182500Y-50000000D01*
X22817500Y-50381000D02*
X22817500Y-49619000D01*
X22182500Y-50000000D02*
X22817500Y-50381000D01*
X21801500Y-50000000D02*
X22182500Y-50000000D01*
X22817500Y-50000000D02*
X23198500Y-50000000D01*
X20500000Y-45900000D02*
X24040000Y-45900000D01*
X20500000Y-44100000D02*
X24040000Y-44100000D01*
X22182500Y-45508000D02*
X22182500Y-44492000D01*
X22817500Y-44619000D02*
X22182500Y-45000000D01*
X22817500Y-45381000D02*
X22817500Y-44619000D01*
X22182500Y-45000000D02*
X22817500Y-45381000D01*
X21801500Y-45000000D02*
X22182500Y-45000000D01*
X22817500Y-45000000D02*
X23198500Y-45000000D01*
X22817500Y-40000000D02*
X23198500Y-40000000D01*
X21801500Y-40000000D02*
X22182500Y-40000000D01*
X22182500Y-40000000D02*
X22817500Y-40381000D01*
X22817500Y-40381000D02*
X22817500Y-39619000D01*
X22817500Y-39619000D02*
X22182500Y-40000000D01*
X22182500Y-40508000D02*
X22182500Y-39492000D01*
X20500000Y-39100000D02*
X24040000Y-39100000D01*
X20500000Y-40900000D02*
X24040000Y-40900000D01*
X20500000Y-35900000D02*
X24040000Y-35900000D01*
X20500000Y-34100000D02*
X24040000Y-34100000D01*
X22182500Y-35508000D02*
X22182500Y-34492000D01*
X22817500Y-34619000D02*
X22182500Y-35000000D01*
X22817500Y-35381000D02*
X22817500Y-34619000D01*
X22182500Y-35000000D02*
X22817500Y-35381000D01*
X21801500Y-35000000D02*
X22182500Y-35000000D01*
X22817500Y-35000000D02*
X23198500Y-35000000D01*
X20500000Y-30900000D02*
X24040000Y-30900000D01*
X20500000Y-29100000D02*
X24040000Y-29100000D01*
X22182500Y-30508000D02*
X22182500Y-29492000D01*
X22817500Y-29619000D02*
X22182500Y-30000000D01*
X22817500Y-30381000D02*
X22817500Y-29619000D01*
X22182500Y-30000000D02*
X22817500Y-30381000D01*
X21801500Y-30000000D02*
X22182500Y-30000000D01*
X22817500Y-30000000D02*
X23198500Y-30000000D01*
X22817500Y-25000000D02*
X23198500Y-25000000D01*
X21801500Y-25000000D02*
X22182500Y-25000000D01*
X22182500Y-25000000D02*
X22817500Y-25381000D01*
X22817500Y-25381000D02*
X22817500Y-24619000D01*
X22817500Y-24619000D02*
X22182500Y-25000000D01*
X22182500Y-25508000D02*
X22182500Y-24492000D01*
X20500000Y-24100000D02*
X24040000Y-24100000D01*
X20500000Y-25900000D02*
X24040000Y-25900000D01*
X22817500Y-20000000D02*
X23198500Y-20000000D01*
X21801500Y-20000000D02*
X22182500Y-20000000D01*
X22182500Y-20000000D02*
X22817500Y-20381000D01*
X22817500Y-20381000D02*
X22817500Y-19619000D01*
X22817500Y-19619000D02*
X22182500Y-20000000D01*
X22182500Y-20508000D02*
X22182500Y-19492000D01*
X20500000Y-19100000D02*
X24040000Y-19100000D01*
X20500000Y-20900000D02*
X24040000Y-20900000D01*
X22817500Y-15000000D02*
X23198500Y-15000000D01*
X21801500Y-15000000D02*
X22182500Y-15000000D01*
X22182500Y-15000000D02*
X22817500Y-15381000D01*
X22817500Y-15381000D02*
X22817500Y-14619000D01*
X22817500Y-14619000D02*
X22182500Y-15000000D01*
X22182500Y-15508000D02*
X22182500Y-14492000D01*
X20500000Y-14100000D02*
X24040000Y-14100000D01*
X20500000Y-15900000D02*
X24040000Y-15900000D01*
X-5193680Y-51800000D02*
X-5193680Y-51600200D01*
X-5650720Y-51750000D02*
X-5650720Y-51601000D01*
X-9796160Y-51800000D02*
X-9796160Y-51651000D01*
X-5198760Y-48200000D02*
X-5198760Y-48349000D01*
X-5650720Y-48200000D02*
X-5650720Y-48349000D01*
X-9801240Y-48200000D02*
X-9801240Y-48349000D01*
X-5650720Y-51948980D02*
X-5650720Y-51750860D01*
X-5650720Y-48001020D02*
X-5650720Y-48199140D01*
X-9796160Y-51996440D02*
X-9796160Y-51798320D01*
X-5193680Y-51996440D02*
X-9796160Y-51996440D01*
X-5193680Y-51996440D02*
X-5193680Y-51798320D01*
X-5198760Y-48001020D02*
X-5198760Y-48199140D01*
X-5198760Y-48001020D02*
X-9801240Y-48001020D01*
X-9801240Y-48001020D02*
X-9801240Y-48199140D01*
X-5193680Y-44300000D02*
X-5193680Y-44100200D01*
X-5650720Y-44250000D02*
X-5650720Y-44101000D01*
X-9796160Y-44300000D02*
X-9796160Y-44151000D01*
X-5198760Y-40700000D02*
X-5198760Y-40849000D01*
X-5650720Y-40700000D02*
X-5650720Y-40849000D01*
X-9801240Y-40700000D02*
X-9801240Y-40849000D01*
X-5650720Y-44448980D02*
X-5650720Y-44250860D01*
X-5650720Y-40501020D02*
X-5650720Y-40699140D01*
X-9796160Y-44496440D02*
X-9796160Y-44298320D01*
X-5193680Y-44496440D02*
X-9796160Y-44496440D01*
X-5193680Y-44496440D02*
X-5193680Y-44298320D01*
X-5198760Y-40501020D02*
X-5198760Y-40699140D01*
X-5198760Y-40501020D02*
X-9801240Y-40501020D01*
X-9801240Y-40501020D02*
X-9801240Y-40699140D01*
X-9801240Y-33001020D02*
X-9801240Y-33199140D01*
X-5198760Y-33001020D02*
X-9801240Y-33001020D01*
X-5198760Y-33001020D02*
X-5198760Y-33199140D01*
X-5193680Y-36996440D02*
X-5193680Y-36798320D01*
X-5193680Y-36996440D02*
X-9796160Y-36996440D01*
X-9796160Y-36996440D02*
X-9796160Y-36798320D01*
X-5650720Y-33001020D02*
X-5650720Y-33199140D01*
X-5650720Y-36948980D02*
X-5650720Y-36750860D01*
X-9801240Y-33200000D02*
X-9801240Y-33349000D01*
X-5650720Y-33200000D02*
X-5650720Y-33349000D01*
X-5198760Y-33200000D02*
X-5198760Y-33349000D01*
X-9796160Y-36800000D02*
X-9796160Y-36651000D01*
X-5650720Y-36750000D02*
X-5650720Y-36601000D01*
X-5193680Y-36800000D02*
X-5193680Y-36600200D01*
X-9801240Y-25501020D02*
X-9801240Y-25699140D01*
X-5198760Y-25501020D02*
X-9801240Y-25501020D01*
X-5198760Y-25501020D02*
X-5198760Y-25699140D01*
X-5193680Y-29496440D02*
X-5193680Y-29298320D01*
X-5193680Y-29496440D02*
X-9796160Y-29496440D01*
X-9796160Y-29496440D02*
X-9796160Y-29298320D01*
X-5650720Y-25501020D02*
X-5650720Y-25699140D01*
X-5650720Y-29448980D02*
X-5650720Y-29250860D01*
X-9801240Y-25700000D02*
X-9801240Y-25849000D01*
X-5650720Y-25700000D02*
X-5650720Y-25849000D01*
X-5198760Y-25700000D02*
X-5198760Y-25849000D01*
X-9796160Y-29300000D02*
X-9796160Y-29151000D01*
X-5650720Y-29250000D02*
X-5650720Y-29101000D01*
X-5193680Y-29300000D02*
X-5193680Y-29100200D01*
X-5193680Y-21800000D02*
X-5193680Y-21600200D01*
X-5650720Y-21750000D02*
X-5650720Y-21601000D01*
X-9796160Y-21800000D02*
X-9796160Y-21651000D01*
X-5198760Y-18200000D02*
X-5198760Y-18349000D01*
X-5650720Y-18200000D02*
X-5650720Y-18349000D01*
X-9801240Y-18200000D02*
X-9801240Y-18349000D01*
X-5650720Y-21948980D02*
X-5650720Y-21750860D01*
X-5650720Y-18001020D02*
X-5650720Y-18199140D01*
X-9796160Y-21996440D02*
X-9796160Y-21798320D01*
X-5193680Y-21996440D02*
X-9796160Y-21996440D01*
X-5193680Y-21996440D02*
X-5193680Y-21798320D01*
X-5198760Y-18001020D02*
X-5198760Y-18199140D01*
X-5198760Y-18001020D02*
X-9801240Y-18001020D01*
X-9801240Y-18001020D02*
X-9801240Y-18199140D01*
X-5193680Y-14300000D02*
X-5193680Y-14100200D01*
X-5650720Y-14250000D02*
X-5650720Y-14101000D01*
X-9796160Y-14300000D02*
X-9796160Y-14151000D01*
X-5198760Y-10700000D02*
X-5198760Y-10849000D01*
X-5650720Y-10700000D02*
X-5650720Y-10849000D01*
X-9801240Y-10700000D02*
X-9801240Y-10849000D01*
X-5650720Y-14448980D02*
X-5650720Y-14250860D01*
X-5650720Y-10501020D02*
X-5650720Y-10699140D01*
X-9796160Y-14496440D02*
X-9796160Y-14298320D01*
X-5193680Y-14496440D02*
X-9796160Y-14496440D01*
X-5193680Y-14496440D02*
X-5193680Y-14298320D01*
X-5198760Y-10501020D02*
X-5198760Y-10699140D01*
X-5198760Y-10501020D02*
X-9801240Y-10501020D01*
X-9801240Y-10501020D02*
X-9801240Y-10699140D01*
X-19801240Y-3001020D02*
X-19801240Y-3199140D01*
X-15198760Y-3001020D02*
X-19801240Y-3001020D01*
X-15198760Y-3001020D02*
X-15198760Y-3199140D01*
X-15193680Y-6996440D02*
X-15193680Y-6798320D01*
X-15193680Y-6996440D02*
X-19796160Y-6996440D01*
X-19796160Y-6996440D02*
X-19796160Y-6798320D01*
X-15650720Y-3001020D02*
X-15650720Y-3199140D01*
X-15650720Y-6948980D02*
X-15650720Y-6750860D01*
X-19801240Y-3200000D02*
X-19801240Y-3349000D01*
X-15650720Y-3200000D02*
X-15650720Y-3349000D01*
X-15198760Y-3200000D02*
X-15198760Y-3349000D01*
X-19796160Y-6800000D02*
X-19796160Y-6651000D01*
X-15650720Y-6750000D02*
X-15650720Y-6601000D01*
X-15193680Y-6800000D02*
X-15193680Y-6600200D01*
X-19801240Y4498980D02*
X-19801240Y4300860D01*
X-15198760Y4498980D02*
X-19801240Y4498980D01*
X-15198760Y4498980D02*
X-15198760Y4300860D01*
X-15193680Y503560D02*
X-15193680Y701680D01*
X-15193680Y503560D02*
X-19796160Y503560D01*
X-19796160Y503560D02*
X-19796160Y701680D01*
X-15650720Y4498980D02*
X-15650720Y4300860D01*
X-15650720Y551020D02*
X-15650720Y749140D01*
X-19801240Y4300000D02*
X-19801240Y4151000D01*
X-15650720Y4300000D02*
X-15650720Y4151000D01*
X-15198760Y4300000D02*
X-15198760Y4151000D01*
X-19796160Y700000D02*
X-19796160Y849000D01*
X-15650720Y750000D02*
X-15650720Y899000D01*
X-15193680Y700000D02*
X-15193680Y899800D01*
X9682500Y-60000000D02*
X9301500Y-60000000D01*
X10698500Y-60000000D02*
X10317500Y-60000000D01*
X10317500Y-60000000D02*
X9682500Y-59619000D01*
X9682500Y-59619000D02*
X9682500Y-60381000D01*
X9682500Y-60381000D02*
X10317500Y-60000000D01*
X10317500Y-59492000D02*
X10317500Y-60508000D01*
X12000000Y-60900000D02*
X8460000Y-60900000D01*
X12000000Y-59100000D02*
X8460000Y-59100000D01*
X16499820Y-50650240D02*
X16499820Y-49949200D01*
X16299160Y-50650240D02*
X16499820Y-50650240D01*
X13500180Y-50650240D02*
X13749100Y-50650240D01*
X13500180Y-49949200D02*
X13500180Y-50650240D01*
X16299160Y-50650240D02*
X16250900Y-50650240D01*
X16299160Y-45650240D02*
X16250900Y-45650240D01*
X13500180Y-44949200D02*
X13500180Y-45650240D01*
X13500180Y-45650240D02*
X13749100Y-45650240D01*
X16299160Y-45650240D02*
X16499820Y-45650240D01*
X16499820Y-45650240D02*
X16499820Y-44949200D01*
X16299160Y-40650240D02*
X16250900Y-40650240D01*
X13500180Y-39949200D02*
X13500180Y-40650240D01*
X13500180Y-40650240D02*
X13749100Y-40650240D01*
X16299160Y-40650240D02*
X16499820Y-40650240D01*
X16499820Y-40650240D02*
X16499820Y-39949200D01*
X16299160Y-35650240D02*
X16250900Y-35650240D01*
X13500180Y-34949200D02*
X13500180Y-35650240D01*
X13500180Y-35650240D02*
X13749100Y-35650240D01*
X16299160Y-35650240D02*
X16499820Y-35650240D01*
X16499820Y-35650240D02*
X16499820Y-34949200D01*
X16499820Y-30650240D02*
X16499820Y-29949200D01*
X16299160Y-30650240D02*
X16499820Y-30650240D01*
X13500180Y-30650240D02*
X13749100Y-30650240D01*
X13500180Y-29949200D02*
X13500180Y-30650240D01*
X16299160Y-30650240D02*
X16250900Y-30650240D01*
X16499820Y-25650240D02*
X16499820Y-24949200D01*
X16299160Y-25650240D02*
X16499820Y-25650240D01*
X13500180Y-25650240D02*
X13749100Y-25650240D01*
X13500180Y-24949200D02*
X13500180Y-25650240D01*
X16299160Y-25650240D02*
X16250900Y-25650240D01*
X16299160Y-20650240D02*
X16250900Y-20650240D01*
X13500180Y-19949200D02*
X13500180Y-20650240D01*
X13500180Y-20650240D02*
X13749100Y-20650240D01*
X16299160Y-20650240D02*
X16499820Y-20650240D01*
X16499820Y-20650240D02*
X16499820Y-19949200D01*
X16499820Y-15650240D02*
X16499820Y-14949200D01*
X16299160Y-15650240D02*
X16499820Y-15650240D01*
X13500180Y-15650240D02*
X13749100Y-15650240D01*
X13500180Y-14949200D02*
X13500180Y-15650240D01*
X16299160Y-15650240D02*
X16250900Y-15650240D01*
X45500000Y-49825000D02*
X44500000Y-49825000D01*
X44500000Y-51175000D02*
X45500000Y-51175000D01*
X45500000Y-44825000D02*
X44500000Y-44825000D01*
X44500000Y-46175000D02*
X45500000Y-46175000D01*
X45500000Y-39825000D02*
X44500000Y-39825000D01*
X44500000Y-41175000D02*
X45500000Y-41175000D01*
X45500000Y-34825000D02*
X44500000Y-34825000D01*
X44500000Y-36175000D02*
X45500000Y-36175000D01*
X45500000Y-29825000D02*
X44500000Y-29825000D01*
X44500000Y-31175000D02*
X45500000Y-31175000D01*
X45500000Y-24825000D02*
X44500000Y-24825000D01*
X44500000Y-26175000D02*
X45500000Y-26175000D01*
X45500000Y-19825000D02*
X44500000Y-19825000D01*
X44500000Y-21175000D02*
X45500000Y-21175000D01*
X45500000Y-14825000D02*
X44500000Y-14825000D01*
X44500000Y-16175000D02*
X45500000Y-16175000D01*
X29500000Y-50675000D02*
X30500000Y-50675000D01*
X30500000Y-49325000D02*
X29500000Y-49325000D01*
X29500000Y-45675000D02*
X30500000Y-45675000D01*
X30500000Y-44325000D02*
X29500000Y-44325000D01*
X29500000Y-40675000D02*
X30500000Y-40675000D01*
X30500000Y-39325000D02*
X29500000Y-39325000D01*
X29500000Y-35675000D02*
X30500000Y-35675000D01*
X30500000Y-34325000D02*
X29500000Y-34325000D01*
X29500000Y-30675000D02*
X30500000Y-30675000D01*
X30500000Y-29325000D02*
X29500000Y-29325000D01*
X29500000Y-25675000D02*
X30500000Y-25675000D01*
X30500000Y-24325000D02*
X29500000Y-24325000D01*
X29500000Y-20675000D02*
X30500000Y-20675000D01*
X30500000Y-19325000D02*
X29500000Y-19325000D01*
X29500000Y-15675000D02*
X30500000Y-15675000D01*
X30500000Y-14325000D02*
X29500000Y-14325000D01*
X2500000Y-48675000D02*
X3500000Y-48675000D01*
X3500000Y-47325000D02*
X2500000Y-47325000D01*
X3500000Y-43325000D02*
X2500000Y-43325000D01*
X2500000Y-44675000D02*
X3500000Y-44675000D01*
X3500000Y-38325000D02*
X2500000Y-38325000D01*
X2500000Y-39675000D02*
X3500000Y-39675000D01*
X2500000Y-34675000D02*
X3500000Y-34675000D01*
X3500000Y-33325000D02*
X2500000Y-33325000D01*
X2500000Y-29675000D02*
X3500000Y-29675000D01*
X3500000Y-28325000D02*
X2500000Y-28325000D01*
X2500000Y-24675000D02*
X3500000Y-24675000D01*
X3500000Y-23325000D02*
X2500000Y-23325000D01*
X3500000Y-18325000D02*
X2500000Y-18325000D01*
X2500000Y-19675000D02*
X3500000Y-19675000D01*
X3500000Y-13325000D02*
X2500000Y-13325000D01*
X2500000Y-14675000D02*
X3500000Y-14675000D01*
X75757142Y6166666D02*
X75804761Y6214285D01*
X75852380Y6357142D01*
X75852380Y6452380D01*
X75804761Y6595238D01*
X75709523Y6690476D01*
X75614285Y6738095D01*
X75423809Y6785714D01*
X75280952Y6785714D01*
X75090476Y6738095D01*
X74995238Y6690476D01*
X74900000Y6595238D01*
X74852380Y6452380D01*
X74852380Y6357142D01*
X74900000Y6214285D01*
X74947619Y6166666D01*
X74852380Y5833333D02*
X74852380Y5214285D01*
X75233333Y5547619D01*
X75233333Y5404761D01*
X75280952Y5309523D01*
X75328571Y5261904D01*
X75423809Y5214285D01*
X75661904Y5214285D01*
X75757142Y5261904D01*
X75804761Y5309523D01*
X75852380Y5404761D01*
X75852380Y5690476D01*
X75804761Y5785714D01*
X75757142Y5833333D01*
X28452380Y-8357142D02*
X27976190Y-8023809D01*
X28452380Y-7785714D02*
X27452380Y-7785714D01*
X27452380Y-8166666D01*
X27500000Y-8261904D01*
X27547619Y-8309523D01*
X27642857Y-8357142D01*
X27785714Y-8357142D01*
X27880952Y-8309523D01*
X27928571Y-8261904D01*
X27976190Y-8166666D01*
X27976190Y-7785714D01*
X27452380Y-8690476D02*
X27452380Y-9309523D01*
X27833333Y-8976190D01*
X27833333Y-9119047D01*
X27880952Y-9214285D01*
X27928571Y-9261904D01*
X28023809Y-9309523D01*
X28261904Y-9309523D01*
X28357142Y-9261904D01*
X28404761Y-9214285D01*
X28452380Y-9119047D01*
X28452380Y-8833333D01*
X28404761Y-8738095D01*
X28357142Y-8690476D01*
X27785714Y-10166666D02*
X28452380Y-10166666D01*
X27404761Y-9928571D02*
X28119047Y-9690476D01*
X28119047Y-10309523D01*
X46452380Y-8357142D02*
X45976190Y-8023809D01*
X46452380Y-7785714D02*
X45452380Y-7785714D01*
X45452380Y-8166666D01*
X45500000Y-8261904D01*
X45547619Y-8309523D01*
X45642857Y-8357142D01*
X45785714Y-8357142D01*
X45880952Y-8309523D01*
X45928571Y-8261904D01*
X45976190Y-8166666D01*
X45976190Y-7785714D01*
X45452380Y-8690476D02*
X45452380Y-9309523D01*
X45833333Y-8976190D01*
X45833333Y-9119047D01*
X45880952Y-9214285D01*
X45928571Y-9261904D01*
X46023809Y-9309523D01*
X46261904Y-9309523D01*
X46357142Y-9261904D01*
X46404761Y-9214285D01*
X46452380Y-9119047D01*
X46452380Y-8833333D01*
X46404761Y-8738095D01*
X46357142Y-8690476D01*
X45452380Y-10214285D02*
X45452380Y-9738095D01*
X45928571Y-9690476D01*
X45880952Y-9738095D01*
X45833333Y-9833333D01*
X45833333Y-10071428D01*
X45880952Y-10166666D01*
X45928571Y-10214285D01*
X46023809Y-10261904D01*
X46261904Y-10261904D01*
X46357142Y-10214285D01*
X46404761Y-10166666D01*
X46452380Y-10071428D01*
X46452380Y-9833333D01*
X46404761Y-9738095D01*
X46357142Y-9690476D01*
X50452380Y-8357142D02*
X49976190Y-8023809D01*
X50452380Y-7785714D02*
X49452380Y-7785714D01*
X49452380Y-8166666D01*
X49500000Y-8261904D01*
X49547619Y-8309523D01*
X49642857Y-8357142D01*
X49785714Y-8357142D01*
X49880952Y-8309523D01*
X49928571Y-8261904D01*
X49976190Y-8166666D01*
X49976190Y-7785714D01*
X49452380Y-8690476D02*
X49452380Y-9309523D01*
X49833333Y-8976190D01*
X49833333Y-9119047D01*
X49880952Y-9214285D01*
X49928571Y-9261904D01*
X50023809Y-9309523D01*
X50261904Y-9309523D01*
X50357142Y-9261904D01*
X50404761Y-9214285D01*
X50452380Y-9119047D01*
X50452380Y-8833333D01*
X50404761Y-8738095D01*
X50357142Y-8690476D01*
X49452380Y-10166666D02*
X49452380Y-9976190D01*
X49500000Y-9880952D01*
X49547619Y-9833333D01*
X49690476Y-9738095D01*
X49880952Y-9690476D01*
X50261904Y-9690476D01*
X50357142Y-9738095D01*
X50404761Y-9785714D01*
X50452380Y-9880952D01*
X50452380Y-10071428D01*
X50404761Y-10166666D01*
X50357142Y-10214285D01*
X50261904Y-10261904D01*
X50023809Y-10261904D01*
X49928571Y-10214285D01*
X49880952Y-10166666D01*
X49833333Y-10071428D01*
X49833333Y-9880952D01*
X49880952Y-9785714D01*
X49928571Y-9738095D01*
X50023809Y-9690476D01*
X32452380Y4642857D02*
X31976190Y4976190D01*
X32452380Y5214285D02*
X31452380Y5214285D01*
X31452380Y4833333D01*
X31500000Y4738095D01*
X31547619Y4690476D01*
X31642857Y4642857D01*
X31785714Y4642857D01*
X31880952Y4690476D01*
X31928571Y4738095D01*
X31976190Y4833333D01*
X31976190Y5214285D01*
X31452380Y4309523D02*
X31452380Y3690476D01*
X31833333Y4023809D01*
X31833333Y3880952D01*
X31880952Y3785714D01*
X31928571Y3738095D01*
X32023809Y3690476D01*
X32261904Y3690476D01*
X32357142Y3738095D01*
X32404761Y3785714D01*
X32452380Y3880952D01*
X32452380Y4166666D01*
X32404761Y4261904D01*
X32357142Y4309523D01*
X31452380Y3357142D02*
X31452380Y2690476D01*
X32452380Y3119047D01*
X36452380Y4642857D02*
X35976190Y4976190D01*
X36452380Y5214285D02*
X35452380Y5214285D01*
X35452380Y4833333D01*
X35500000Y4738095D01*
X35547619Y4690476D01*
X35642857Y4642857D01*
X35785714Y4642857D01*
X35880952Y4690476D01*
X35928571Y4738095D01*
X35976190Y4833333D01*
X35976190Y5214285D01*
X35452380Y4309523D02*
X35452380Y3690476D01*
X35833333Y4023809D01*
X35833333Y3880952D01*
X35880952Y3785714D01*
X35928571Y3738095D01*
X36023809Y3690476D01*
X36261904Y3690476D01*
X36357142Y3738095D01*
X36404761Y3785714D01*
X36452380Y3880952D01*
X36452380Y4166666D01*
X36404761Y4261904D01*
X36357142Y4309523D01*
X35880952Y3119047D02*
X35833333Y3214285D01*
X35785714Y3261904D01*
X35690476Y3309523D01*
X35642857Y3309523D01*
X35547619Y3261904D01*
X35500000Y3214285D01*
X35452380Y3119047D01*
X35452380Y2928571D01*
X35500000Y2833333D01*
X35547619Y2785714D01*
X35642857Y2738095D01*
X35690476Y2738095D01*
X35785714Y2785714D01*
X35833333Y2833333D01*
X35880952Y2928571D01*
X35880952Y3119047D01*
X35928571Y3214285D01*
X35976190Y3261904D01*
X36071428Y3309523D01*
X36261904Y3309523D01*
X36357142Y3261904D01*
X36404761Y3214285D01*
X36452380Y3119047D01*
X36452380Y2928571D01*
X36404761Y2833333D01*
X36357142Y2785714D01*
X36261904Y2738095D01*
X36071428Y2738095D01*
X35976190Y2785714D01*
X35928571Y2833333D01*
X35880952Y2928571D01*
X38452380Y4642857D02*
X37976190Y4976190D01*
X38452380Y5214285D02*
X37452380Y5214285D01*
X37452380Y4833333D01*
X37500000Y4738095D01*
X37547619Y4690476D01*
X37642857Y4642857D01*
X37785714Y4642857D01*
X37880952Y4690476D01*
X37928571Y4738095D01*
X37976190Y4833333D01*
X37976190Y5214285D01*
X37452380Y4309523D02*
X37452380Y3690476D01*
X37833333Y4023809D01*
X37833333Y3880952D01*
X37880952Y3785714D01*
X37928571Y3738095D01*
X38023809Y3690476D01*
X38261904Y3690476D01*
X38357142Y3738095D01*
X38404761Y3785714D01*
X38452380Y3880952D01*
X38452380Y4166666D01*
X38404761Y4261904D01*
X38357142Y4309523D01*
X38452380Y3214285D02*
X38452380Y3023809D01*
X38404761Y2928571D01*
X38357142Y2880952D01*
X38214285Y2785714D01*
X38023809Y2738095D01*
X37642857Y2738095D01*
X37547619Y2785714D01*
X37500000Y2833333D01*
X37452380Y2928571D01*
X37452380Y3119047D01*
X37500000Y3214285D01*
X37547619Y3261904D01*
X37642857Y3309523D01*
X37880952Y3309523D01*
X37976190Y3261904D01*
X38023809Y3214285D01*
X38071428Y3119047D01*
X38071428Y2928571D01*
X38023809Y2833333D01*
X37976190Y2785714D01*
X37880952Y2738095D01*
X42452380Y4642857D02*
X41976190Y4976190D01*
X42452380Y5214285D02*
X41452380Y5214285D01*
X41452380Y4833333D01*
X41500000Y4738095D01*
X41547619Y4690476D01*
X41642857Y4642857D01*
X41785714Y4642857D01*
X41880952Y4690476D01*
X41928571Y4738095D01*
X41976190Y4833333D01*
X41976190Y5214285D01*
X41785714Y3785714D02*
X42452380Y3785714D01*
X41404761Y4023809D02*
X42119047Y4261904D01*
X42119047Y3642857D01*
X41452380Y3071428D02*
X41452380Y2976190D01*
X41500000Y2880952D01*
X41547619Y2833333D01*
X41642857Y2785714D01*
X41833333Y2738095D01*
X42071428Y2738095D01*
X42261904Y2785714D01*
X42357142Y2833333D01*
X42404761Y2880952D01*
X42452380Y2976190D01*
X42452380Y3071428D01*
X42404761Y3166666D01*
X42357142Y3214285D01*
X42261904Y3261904D01*
X42071428Y3309523D01*
X41833333Y3309523D01*
X41642857Y3261904D01*
X41547619Y3214285D01*
X41500000Y3166666D01*
X41452380Y3071428D01*
X28452380Y4642857D02*
X27976190Y4976190D01*
X28452380Y5214285D02*
X27452380Y5214285D01*
X27452380Y4833333D01*
X27500000Y4738095D01*
X27547619Y4690476D01*
X27642857Y4642857D01*
X27785714Y4642857D01*
X27880952Y4690476D01*
X27928571Y4738095D01*
X27976190Y4833333D01*
X27976190Y5214285D01*
X27547619Y4261904D02*
X27500000Y4214285D01*
X27452380Y4119047D01*
X27452380Y3880952D01*
X27500000Y3785714D01*
X27547619Y3738095D01*
X27642857Y3690476D01*
X27738095Y3690476D01*
X27880952Y3738095D01*
X28452380Y4309523D01*
X28452380Y3690476D01*
X27452380Y2785714D02*
X27452380Y3261904D01*
X27928571Y3309523D01*
X27880952Y3261904D01*
X27833333Y3166666D01*
X27833333Y2928571D01*
X27880952Y2833333D01*
X27928571Y2785714D01*
X28023809Y2738095D01*
X28261904Y2738095D01*
X28357142Y2785714D01*
X28404761Y2833333D01*
X28452380Y2928571D01*
X28452380Y3166666D01*
X28404761Y3261904D01*
X28357142Y3309523D01*
X30452380Y4642857D02*
X29976190Y4976190D01*
X30452380Y5214285D02*
X29452380Y5214285D01*
X29452380Y4833333D01*
X29500000Y4738095D01*
X29547619Y4690476D01*
X29642857Y4642857D01*
X29785714Y4642857D01*
X29880952Y4690476D01*
X29928571Y4738095D01*
X29976190Y4833333D01*
X29976190Y5214285D01*
X29547619Y4261904D02*
X29500000Y4214285D01*
X29452380Y4119047D01*
X29452380Y3880952D01*
X29500000Y3785714D01*
X29547619Y3738095D01*
X29642857Y3690476D01*
X29738095Y3690476D01*
X29880952Y3738095D01*
X30452380Y4309523D01*
X30452380Y3690476D01*
X29452380Y2833333D02*
X29452380Y3023809D01*
X29500000Y3119047D01*
X29547619Y3166666D01*
X29690476Y3261904D01*
X29880952Y3309523D01*
X30261904Y3309523D01*
X30357142Y3261904D01*
X30404761Y3214285D01*
X30452380Y3119047D01*
X30452380Y2928571D01*
X30404761Y2833333D01*
X30357142Y2785714D01*
X30261904Y2738095D01*
X30023809Y2738095D01*
X29928571Y2785714D01*
X29880952Y2833333D01*
X29833333Y2928571D01*
X29833333Y3119047D01*
X29880952Y3214285D01*
X29928571Y3261904D01*
X30023809Y3309523D01*
X34452380Y4642857D02*
X33976190Y4976190D01*
X34452380Y5214285D02*
X33452380Y5214285D01*
X33452380Y4833333D01*
X33500000Y4738095D01*
X33547619Y4690476D01*
X33642857Y4642857D01*
X33785714Y4642857D01*
X33880952Y4690476D01*
X33928571Y4738095D01*
X33976190Y4833333D01*
X33976190Y5214285D01*
X33547619Y4261904D02*
X33500000Y4214285D01*
X33452380Y4119047D01*
X33452380Y3880952D01*
X33500000Y3785714D01*
X33547619Y3738095D01*
X33642857Y3690476D01*
X33738095Y3690476D01*
X33880952Y3738095D01*
X34452380Y4309523D01*
X34452380Y3690476D01*
X33452380Y3357142D02*
X33452380Y2690476D01*
X34452380Y3119047D01*
X40452380Y4642857D02*
X39976190Y4976190D01*
X40452380Y5214285D02*
X39452380Y5214285D01*
X39452380Y4833333D01*
X39500000Y4738095D01*
X39547619Y4690476D01*
X39642857Y4642857D01*
X39785714Y4642857D01*
X39880952Y4690476D01*
X39928571Y4738095D01*
X39976190Y4833333D01*
X39976190Y5214285D01*
X39547619Y4261904D02*
X39500000Y4214285D01*
X39452380Y4119047D01*
X39452380Y3880952D01*
X39500000Y3785714D01*
X39547619Y3738095D01*
X39642857Y3690476D01*
X39738095Y3690476D01*
X39880952Y3738095D01*
X40452380Y4309523D01*
X40452380Y3690476D01*
X39880952Y3119047D02*
X39833333Y3214285D01*
X39785714Y3261904D01*
X39690476Y3309523D01*
X39642857Y3309523D01*
X39547619Y3261904D01*
X39500000Y3214285D01*
X39452380Y3119047D01*
X39452380Y2928571D01*
X39500000Y2833333D01*
X39547619Y2785714D01*
X39642857Y2738095D01*
X39690476Y2738095D01*
X39785714Y2785714D01*
X39833333Y2833333D01*
X39880952Y2928571D01*
X39880952Y3119047D01*
X39928571Y3214285D01*
X39976190Y3261904D01*
X40071428Y3309523D01*
X40261904Y3309523D01*
X40357142Y3261904D01*
X40404761Y3214285D01*
X40452380Y3119047D01*
X40452380Y2928571D01*
X40404761Y2833333D01*
X40357142Y2785714D01*
X40261904Y2738095D01*
X40071428Y2738095D01*
X39976190Y2785714D01*
X39928571Y2833333D01*
X39880952Y2928571D01*
X48452380Y-8357142D02*
X47976190Y-8023809D01*
X48452380Y-7785714D02*
X47452380Y-7785714D01*
X47452380Y-8166666D01*
X47500000Y-8261904D01*
X47547619Y-8309523D01*
X47642857Y-8357142D01*
X47785714Y-8357142D01*
X47880952Y-8309523D01*
X47928571Y-8261904D01*
X47976190Y-8166666D01*
X47976190Y-7785714D01*
X47547619Y-8738095D02*
X47500000Y-8785714D01*
X47452380Y-8880952D01*
X47452380Y-9119047D01*
X47500000Y-9214285D01*
X47547619Y-9261904D01*
X47642857Y-9309523D01*
X47738095Y-9309523D01*
X47880952Y-9261904D01*
X48452380Y-8690476D01*
X48452380Y-9309523D01*
X48452380Y-9785714D02*
X48452380Y-9976190D01*
X48404761Y-10071428D01*
X48357142Y-10119047D01*
X48214285Y-10214285D01*
X48023809Y-10261904D01*
X47642857Y-10261904D01*
X47547619Y-10214285D01*
X47500000Y-10166666D01*
X47452380Y-10071428D01*
X47452380Y-9880952D01*
X47500000Y-9785714D01*
X47547619Y-9738095D01*
X47642857Y-9690476D01*
X47880952Y-9690476D01*
X47976190Y-9738095D01*
X48023809Y-9785714D01*
X48071428Y-9880952D01*
X48071428Y-10071428D01*
X48023809Y-10166666D01*
X47976190Y-10214285D01*
X47880952Y-10261904D01*
X26452380Y-8357142D02*
X25976190Y-8023809D01*
X26452380Y-7785714D02*
X25452380Y-7785714D01*
X25452380Y-8166666D01*
X25500000Y-8261904D01*
X25547619Y-8309523D01*
X25642857Y-8357142D01*
X25785714Y-8357142D01*
X25880952Y-8309523D01*
X25928571Y-8261904D01*
X25976190Y-8166666D01*
X25976190Y-7785714D01*
X25452380Y-8690476D02*
X25452380Y-9309523D01*
X25833333Y-8976190D01*
X25833333Y-9119047D01*
X25880952Y-9214285D01*
X25928571Y-9261904D01*
X26023809Y-9309523D01*
X26261904Y-9309523D01*
X26357142Y-9261904D01*
X26404761Y-9214285D01*
X26452380Y-9119047D01*
X26452380Y-8833333D01*
X26404761Y-8738095D01*
X26357142Y-8690476D01*
X25452380Y-9928571D02*
X25452380Y-10023809D01*
X25500000Y-10119047D01*
X25547619Y-10166666D01*
X25642857Y-10214285D01*
X25833333Y-10261904D01*
X26071428Y-10261904D01*
X26261904Y-10214285D01*
X26357142Y-10166666D01*
X26404761Y-10119047D01*
X26452380Y-10023809D01*
X26452380Y-9928571D01*
X26404761Y-9833333D01*
X26357142Y-9785714D01*
X26261904Y-9738095D01*
X26071428Y-9690476D01*
X25833333Y-9690476D01*
X25642857Y-9738095D01*
X25547619Y-9785714D01*
X25500000Y-9833333D01*
X25452380Y-9928571D01*
X22452380Y-8357142D02*
X21976190Y-8023809D01*
X22452380Y-7785714D02*
X21452380Y-7785714D01*
X21452380Y-8166666D01*
X21500000Y-8261904D01*
X21547619Y-8309523D01*
X21642857Y-8357142D01*
X21785714Y-8357142D01*
X21880952Y-8309523D01*
X21928571Y-8261904D01*
X21976190Y-8166666D01*
X21976190Y-7785714D01*
X21452380Y-8690476D02*
X21452380Y-9309523D01*
X21833333Y-8976190D01*
X21833333Y-9119047D01*
X21880952Y-9214285D01*
X21928571Y-9261904D01*
X22023809Y-9309523D01*
X22261904Y-9309523D01*
X22357142Y-9261904D01*
X22404761Y-9214285D01*
X22452380Y-9119047D01*
X22452380Y-8833333D01*
X22404761Y-8738095D01*
X22357142Y-8690476D01*
X22452380Y-10261904D02*
X22452380Y-9690476D01*
X22452380Y-9976190D02*
X21452380Y-9976190D01*
X21595238Y-9880952D01*
X21690476Y-9785714D01*
X21738095Y-9690476D01*
X20452380Y-8357142D02*
X19976190Y-8023809D01*
X20452380Y-7785714D02*
X19452380Y-7785714D01*
X19452380Y-8166666D01*
X19500000Y-8261904D01*
X19547619Y-8309523D01*
X19642857Y-8357142D01*
X19785714Y-8357142D01*
X19880952Y-8309523D01*
X19928571Y-8261904D01*
X19976190Y-8166666D01*
X19976190Y-7785714D01*
X19452380Y-8690476D02*
X19452380Y-9309523D01*
X19833333Y-8976190D01*
X19833333Y-9119047D01*
X19880952Y-9214285D01*
X19928571Y-9261904D01*
X20023809Y-9309523D01*
X20261904Y-9309523D01*
X20357142Y-9261904D01*
X20404761Y-9214285D01*
X20452380Y-9119047D01*
X20452380Y-8833333D01*
X20404761Y-8738095D01*
X20357142Y-8690476D01*
X19547619Y-9690476D02*
X19500000Y-9738095D01*
X19452380Y-9833333D01*
X19452380Y-10071428D01*
X19500000Y-10166666D01*
X19547619Y-10214285D01*
X19642857Y-10261904D01*
X19738095Y-10261904D01*
X19880952Y-10214285D01*
X20452380Y-9642857D01*
X20452380Y-10261904D01*
X24452380Y-8357142D02*
X23976190Y-8023809D01*
X24452380Y-7785714D02*
X23452380Y-7785714D01*
X23452380Y-8166666D01*
X23500000Y-8261904D01*
X23547619Y-8309523D01*
X23642857Y-8357142D01*
X23785714Y-8357142D01*
X23880952Y-8309523D01*
X23928571Y-8261904D01*
X23976190Y-8166666D01*
X23976190Y-7785714D01*
X23452380Y-8690476D02*
X23452380Y-9309523D01*
X23833333Y-8976190D01*
X23833333Y-9119047D01*
X23880952Y-9214285D01*
X23928571Y-9261904D01*
X24023809Y-9309523D01*
X24261904Y-9309523D01*
X24357142Y-9261904D01*
X24404761Y-9214285D01*
X24452380Y-9119047D01*
X24452380Y-8833333D01*
X24404761Y-8738095D01*
X24357142Y-8690476D01*
X23452380Y-9642857D02*
X23452380Y-10261904D01*
X23833333Y-9928571D01*
X23833333Y-10071428D01*
X23880952Y-10166666D01*
X23928571Y-10214285D01*
X24023809Y-10261904D01*
X24261904Y-10261904D01*
X24357142Y-10214285D01*
X24404761Y-10166666D01*
X24452380Y-10071428D01*
X24452380Y-9785714D01*
X24404761Y-9690476D01*
X24357142Y-9642857D01*
X12666666Y-1957142D02*
X12714285Y-2004761D01*
X12857142Y-2052380D01*
X12952380Y-2052380D01*
X13095238Y-2004761D01*
X13190476Y-1909523D01*
X13238095Y-1814285D01*
X13285714Y-1623809D01*
X13285714Y-1480952D01*
X13238095Y-1290476D01*
X13190476Y-1195238D01*
X13095238Y-1100000D01*
X12952380Y-1052380D01*
X12857142Y-1052380D01*
X12714285Y-1100000D01*
X12666666Y-1147619D01*
X11809523Y-1385714D02*
X11809523Y-2052380D01*
X12047619Y-1004761D02*
X12285714Y-1719047D01*
X11666666Y-1719047D01*
D13*
X79796333Y6736833D02*
X79796333Y6101833D01*
X79838666Y5974833D01*
X79923333Y5890166D01*
X80050333Y5847833D01*
X80135000Y5847833D01*
X79415333Y6652166D02*
X79373000Y6694500D01*
X79288333Y6736833D01*
X79076666Y6736833D01*
X78992000Y6694500D01*
X78949666Y6652166D01*
X78907333Y6567500D01*
X78907333Y6482833D01*
X78949666Y6355833D01*
X79457666Y5847833D01*
X78907333Y5847833D01*
D11*
X-25190476Y-39452380D02*
X-25190476Y-40166666D01*
X-25142857Y-40309523D01*
X-25047619Y-40404761D01*
X-24904761Y-40452380D01*
X-24809523Y-40452380D01*
X-26190476Y-40452380D02*
X-25619047Y-40452380D01*
X-25904761Y-40452380D02*
X-25904761Y-39452380D01*
X-25809523Y-39595238D01*
X-25714285Y-39690476D01*
X-25619047Y-39738095D01*
X-26571428Y-39547619D02*
X-26619047Y-39500000D01*
X-26714285Y-39452380D01*
X-26952380Y-39452380D01*
X-27047619Y-39500000D01*
X-27095238Y-39547619D01*
X-27142857Y-39642857D01*
X-27142857Y-39738095D01*
X-27095238Y-39880952D01*
X-26523809Y-40452380D01*
X-27142857Y-40452380D01*
X-25190476Y-31628738D02*
X-25190476Y-32343024D01*
X-25142857Y-32485881D01*
X-25047619Y-32581119D01*
X-24904761Y-32628738D01*
X-24809523Y-32628738D01*
X-26190476Y-32628738D02*
X-25619047Y-32628738D01*
X-25904761Y-32628738D02*
X-25904761Y-31628738D01*
X-25809523Y-31771596D01*
X-25714285Y-31866834D01*
X-25619047Y-31914453D01*
X-26523809Y-31628738D02*
X-27142857Y-31628738D01*
X-26809523Y-32009691D01*
X-26952380Y-32009691D01*
X-27047619Y-32057310D01*
X-27095238Y-32104929D01*
X-27142857Y-32200167D01*
X-27142857Y-32438262D01*
X-27095238Y-32533500D01*
X-27047619Y-32581119D01*
X-26952380Y-32628738D01*
X-26666666Y-32628738D01*
X-26571428Y-32581119D01*
X-26523809Y-32533500D01*
X-25190476Y-23452380D02*
X-25190476Y-24166666D01*
X-25142857Y-24309523D01*
X-25047619Y-24404761D01*
X-24904761Y-24452380D01*
X-24809523Y-24452380D01*
X-26190476Y-24452380D02*
X-25619047Y-24452380D01*
X-25904761Y-24452380D02*
X-25904761Y-23452380D01*
X-25809523Y-23595238D01*
X-25714285Y-23690476D01*
X-25619047Y-23738095D01*
X-27047619Y-23785714D02*
X-27047619Y-24452380D01*
X-26809523Y-23404761D02*
X-26571428Y-24119047D01*
X-27190476Y-24119047D01*
X-25190476Y-15452380D02*
X-25190476Y-16166666D01*
X-25142857Y-16309523D01*
X-25047619Y-16404761D01*
X-24904761Y-16452380D01*
X-24809523Y-16452380D01*
X-26190476Y-16452380D02*
X-25619047Y-16452380D01*
X-25904761Y-16452380D02*
X-25904761Y-15452380D01*
X-25809523Y-15595238D01*
X-25714285Y-15690476D01*
X-25619047Y-15738095D01*
X-27095238Y-15452380D02*
X-26619047Y-15452380D01*
X-26571428Y-15928571D01*
X-26619047Y-15880952D01*
X-26714285Y-15833333D01*
X-26952380Y-15833333D01*
X-27047619Y-15880952D01*
X-27095238Y-15928571D01*
X-27142857Y-16023809D01*
X-27142857Y-16261904D01*
X-27095238Y-16357142D01*
X-27047619Y-16404761D01*
X-26952380Y-16452380D01*
X-26714285Y-16452380D01*
X-26619047Y-16404761D01*
X-26571428Y-16357142D01*
X38261904Y-49452380D02*
X38261904Y-50261904D01*
X38214285Y-50357142D01*
X38166666Y-50404761D01*
X38071428Y-50452380D01*
X37880952Y-50452380D01*
X37785714Y-50404761D01*
X37738095Y-50357142D01*
X37690476Y-50261904D01*
X37690476Y-49452380D01*
X36690476Y-50452380D02*
X37261904Y-50452380D01*
X36976190Y-50452380D02*
X36976190Y-49452380D01*
X37071428Y-49595238D01*
X37166666Y-49690476D01*
X37261904Y-49738095D01*
X38261904Y-44452380D02*
X38261904Y-45261904D01*
X38214285Y-45357142D01*
X38166666Y-45404761D01*
X38071428Y-45452380D01*
X37880952Y-45452380D01*
X37785714Y-45404761D01*
X37738095Y-45357142D01*
X37690476Y-45261904D01*
X37690476Y-44452380D01*
X37261904Y-44547619D02*
X37214285Y-44500000D01*
X37119047Y-44452380D01*
X36880952Y-44452380D01*
X36785714Y-44500000D01*
X36738095Y-44547619D01*
X36690476Y-44642857D01*
X36690476Y-44738095D01*
X36738095Y-44880952D01*
X37309523Y-45452380D01*
X36690476Y-45452380D01*
X38261904Y-39452380D02*
X38261904Y-40261904D01*
X38214285Y-40357142D01*
X38166666Y-40404761D01*
X38071428Y-40452380D01*
X37880952Y-40452380D01*
X37785714Y-40404761D01*
X37738095Y-40357142D01*
X37690476Y-40261904D01*
X37690476Y-39452380D01*
X37309523Y-39452380D02*
X36690476Y-39452380D01*
X37023809Y-39833333D01*
X36880952Y-39833333D01*
X36785714Y-39880952D01*
X36738095Y-39928571D01*
X36690476Y-40023809D01*
X36690476Y-40261904D01*
X36738095Y-40357142D01*
X36785714Y-40404761D01*
X36880952Y-40452380D01*
X37166666Y-40452380D01*
X37261904Y-40404761D01*
X37309523Y-40357142D01*
X38261904Y-34452380D02*
X38261904Y-35261904D01*
X38214285Y-35357142D01*
X38166666Y-35404761D01*
X38071428Y-35452380D01*
X37880952Y-35452380D01*
X37785714Y-35404761D01*
X37738095Y-35357142D01*
X37690476Y-35261904D01*
X37690476Y-34452380D01*
X36785714Y-34785714D02*
X36785714Y-35452380D01*
X37023809Y-34404761D02*
X37261904Y-35119047D01*
X36642857Y-35119047D01*
X38261904Y-29452380D02*
X38261904Y-30261904D01*
X38214285Y-30357142D01*
X38166666Y-30404761D01*
X38071428Y-30452380D01*
X37880952Y-30452380D01*
X37785714Y-30404761D01*
X37738095Y-30357142D01*
X37690476Y-30261904D01*
X37690476Y-29452380D01*
X36738095Y-29452380D02*
X37214285Y-29452380D01*
X37261904Y-29928571D01*
X37214285Y-29880952D01*
X37119047Y-29833333D01*
X36880952Y-29833333D01*
X36785714Y-29880952D01*
X36738095Y-29928571D01*
X36690476Y-30023809D01*
X36690476Y-30261904D01*
X36738095Y-30357142D01*
X36785714Y-30404761D01*
X36880952Y-30452380D01*
X37119047Y-30452380D01*
X37214285Y-30404761D01*
X37261904Y-30357142D01*
X38261904Y-24452380D02*
X38261904Y-25261904D01*
X38214285Y-25357142D01*
X38166666Y-25404761D01*
X38071428Y-25452380D01*
X37880952Y-25452380D01*
X37785714Y-25404761D01*
X37738095Y-25357142D01*
X37690476Y-25261904D01*
X37690476Y-24452380D01*
X36785714Y-24452380D02*
X36976190Y-24452380D01*
X37071428Y-24500000D01*
X37119047Y-24547619D01*
X37214285Y-24690476D01*
X37261904Y-24880952D01*
X37261904Y-25261904D01*
X37214285Y-25357142D01*
X37166666Y-25404761D01*
X37071428Y-25452380D01*
X36880952Y-25452380D01*
X36785714Y-25404761D01*
X36738095Y-25357142D01*
X36690476Y-25261904D01*
X36690476Y-25023809D01*
X36738095Y-24928571D01*
X36785714Y-24880952D01*
X36880952Y-24833333D01*
X37071428Y-24833333D01*
X37166666Y-24880952D01*
X37214285Y-24928571D01*
X37261904Y-25023809D01*
X38261904Y-19452380D02*
X38261904Y-20261904D01*
X38214285Y-20357142D01*
X38166666Y-20404761D01*
X38071428Y-20452380D01*
X37880952Y-20452380D01*
X37785714Y-20404761D01*
X37738095Y-20357142D01*
X37690476Y-20261904D01*
X37690476Y-19452380D01*
X37309523Y-19452380D02*
X36642857Y-19452380D01*
X37071428Y-20452380D01*
X38261904Y-14452380D02*
X38261904Y-15261904D01*
X38214285Y-15357142D01*
X38166666Y-15404761D01*
X38071428Y-15452380D01*
X37880952Y-15452380D01*
X37785714Y-15404761D01*
X37738095Y-15357142D01*
X37690476Y-15261904D01*
X37690476Y-14452380D01*
X37071428Y-14880952D02*
X37166666Y-14833333D01*
X37214285Y-14785714D01*
X37261904Y-14690476D01*
X37261904Y-14642857D01*
X37214285Y-14547619D01*
X37166666Y-14500000D01*
X37071428Y-14452380D01*
X36880952Y-14452380D01*
X36785714Y-14500000D01*
X36738095Y-14547619D01*
X36690476Y-14642857D01*
X36690476Y-14690476D01*
X36738095Y-14785714D01*
X36785714Y-14833333D01*
X36880952Y-14880952D01*
X37071428Y-14880952D01*
X37166666Y-14928571D01*
X37214285Y-14976190D01*
X37261904Y-15071428D01*
X37261904Y-15261904D01*
X37214285Y-15357142D01*
X37166666Y-15404761D01*
X37071428Y-15452380D01*
X36880952Y-15452380D01*
X36785714Y-15404761D01*
X36738095Y-15357142D01*
X36690476Y-15261904D01*
X36690476Y-15071428D01*
X36738095Y-14976190D01*
X36785714Y-14928571D01*
X36880952Y-14880952D01*
D13*
X-11703666Y-46824676D02*
X-11703666Y-47459676D01*
X-11661333Y-47586676D01*
X-11576666Y-47671343D01*
X-11449666Y-47713676D01*
X-11365000Y-47713676D01*
X-12042333Y-46824676D02*
X-12635000Y-46824676D01*
X-12254000Y-47713676D01*
X-11280333Y-16824676D02*
X-11280333Y-17459676D01*
X-11238000Y-17586676D01*
X-11153333Y-17671343D01*
X-11026333Y-17713676D01*
X-10941666Y-17713676D01*
X-12169333Y-17713676D02*
X-11661333Y-17713676D01*
X-11915333Y-17713676D02*
X-11915333Y-16824676D01*
X-11830666Y-16951676D01*
X-11746000Y-17036343D01*
X-11661333Y-17078676D01*
X-12719666Y-16824676D02*
X-12804333Y-16824676D01*
X-12889000Y-16867010D01*
X-12931333Y-16909343D01*
X-12973666Y-16994010D01*
X-13016000Y-17163343D01*
X-13016000Y-17375010D01*
X-12973666Y-17544343D01*
X-12931333Y-17629010D01*
X-12889000Y-17671343D01*
X-12804333Y-17713676D01*
X-12719666Y-17713676D01*
X-12635000Y-17671343D01*
X-12592666Y-17629010D01*
X-12550333Y-17544343D01*
X-12508000Y-17375010D01*
X-12508000Y-17163343D01*
X-12550333Y-16994010D01*
X-12592666Y-16909343D01*
X-12635000Y-16867010D01*
X-12719666Y-16824676D01*
X-11703666Y-26824676D02*
X-11703666Y-27459676D01*
X-11661333Y-27586676D01*
X-11576666Y-27671343D01*
X-11449666Y-27713676D01*
X-11365000Y-27713676D01*
X-12169333Y-27713676D02*
X-12338666Y-27713676D01*
X-12423333Y-27671343D01*
X-12465666Y-27629010D01*
X-12550333Y-27502010D01*
X-12592666Y-27332676D01*
X-12592666Y-26994010D01*
X-12550333Y-26909343D01*
X-12508000Y-26867010D01*
X-12423333Y-26824676D01*
X-12254000Y-26824676D01*
X-12169333Y-26867010D01*
X-12127000Y-26909343D01*
X-12084666Y-26994010D01*
X-12084666Y-27205676D01*
X-12127000Y-27290343D01*
X-12169333Y-27332676D01*
X-12254000Y-27375010D01*
X-12423333Y-27375010D01*
X-12508000Y-27332676D01*
X-12550333Y-27290343D01*
X-12592666Y-27205676D01*
X-11703666Y-36824676D02*
X-11703666Y-37459676D01*
X-11661333Y-37586676D01*
X-11576666Y-37671343D01*
X-11449666Y-37713676D01*
X-11365000Y-37713676D01*
X-12254000Y-37205676D02*
X-12169333Y-37163343D01*
X-12127000Y-37121010D01*
X-12084666Y-37036343D01*
X-12084666Y-36994010D01*
X-12127000Y-36909343D01*
X-12169333Y-36867010D01*
X-12254000Y-36824676D01*
X-12423333Y-36824676D01*
X-12508000Y-36867010D01*
X-12550333Y-36909343D01*
X-12592666Y-36994010D01*
X-12592666Y-37036343D01*
X-12550333Y-37121010D01*
X-12508000Y-37163343D01*
X-12423333Y-37205676D01*
X-12254000Y-37205676D01*
X-12169333Y-37248010D01*
X-12127000Y-37290343D01*
X-12084666Y-37375010D01*
X-12084666Y-37544343D01*
X-12127000Y-37629010D01*
X-12169333Y-37671343D01*
X-12254000Y-37713676D01*
X-12423333Y-37713676D01*
X-12508000Y-37671343D01*
X-12550333Y-37629010D01*
X-12592666Y-37544343D01*
X-12592666Y-37375010D01*
X-12550333Y-37290343D01*
X-12508000Y-37248010D01*
X-12423333Y-37205676D01*
D11*
X-12666666Y-63802380D02*
X-12666666Y-64516666D01*
X-12619047Y-64659523D01*
X-12523809Y-64754761D01*
X-12380952Y-64802380D01*
X-12285714Y-64802380D01*
X-13666666Y-64802380D02*
X-13095238Y-64802380D01*
X-13380952Y-64802380D02*
X-13380952Y-63802380D01*
X-13285714Y-63945238D01*
X-13190476Y-64040476D01*
X-13095238Y-64088095D01*
X23238095Y-52452380D02*
X23238095Y-51452380D01*
X23000000Y-51452380D01*
X22857142Y-51500000D01*
X22761904Y-51595238D01*
X22714285Y-51690476D01*
X22666666Y-51880952D01*
X22666666Y-52023809D01*
X22714285Y-52214285D01*
X22761904Y-52309523D01*
X22857142Y-52404761D01*
X23000000Y-52452380D01*
X23238095Y-52452380D01*
X21714285Y-52452380D02*
X22285714Y-52452380D01*
X22000000Y-52452380D02*
X22000000Y-51452380D01*
X22095238Y-51595238D01*
X22190476Y-51690476D01*
X22285714Y-51738095D01*
X23238095Y-47452380D02*
X23238095Y-46452380D01*
X23000000Y-46452380D01*
X22857142Y-46500000D01*
X22761904Y-46595238D01*
X22714285Y-46690476D01*
X22666666Y-46880952D01*
X22666666Y-47023809D01*
X22714285Y-47214285D01*
X22761904Y-47309523D01*
X22857142Y-47404761D01*
X23000000Y-47452380D01*
X23238095Y-47452380D01*
X22285714Y-46547619D02*
X22238095Y-46500000D01*
X22142857Y-46452380D01*
X21904761Y-46452380D01*
X21809523Y-46500000D01*
X21761904Y-46547619D01*
X21714285Y-46642857D01*
X21714285Y-46738095D01*
X21761904Y-46880952D01*
X22333333Y-47452380D01*
X21714285Y-47452380D01*
X23238095Y-42452380D02*
X23238095Y-41452380D01*
X23000000Y-41452380D01*
X22857142Y-41500000D01*
X22761904Y-41595238D01*
X22714285Y-41690476D01*
X22666666Y-41880952D01*
X22666666Y-42023809D01*
X22714285Y-42214285D01*
X22761904Y-42309523D01*
X22857142Y-42404761D01*
X23000000Y-42452380D01*
X23238095Y-42452380D01*
X22333333Y-41452380D02*
X21714285Y-41452380D01*
X22047619Y-41833333D01*
X21904761Y-41833333D01*
X21809523Y-41880952D01*
X21761904Y-41928571D01*
X21714285Y-42023809D01*
X21714285Y-42261904D01*
X21761904Y-42357142D01*
X21809523Y-42404761D01*
X21904761Y-42452380D01*
X22190476Y-42452380D01*
X22285714Y-42404761D01*
X22333333Y-42357142D01*
X23238095Y-37452380D02*
X23238095Y-36452380D01*
X23000000Y-36452380D01*
X22857142Y-36500000D01*
X22761904Y-36595238D01*
X22714285Y-36690476D01*
X22666666Y-36880952D01*
X22666666Y-37023809D01*
X22714285Y-37214285D01*
X22761904Y-37309523D01*
X22857142Y-37404761D01*
X23000000Y-37452380D01*
X23238095Y-37452380D01*
X21809523Y-36785714D02*
X21809523Y-37452380D01*
X22047619Y-36404761D02*
X22285714Y-37119047D01*
X21666666Y-37119047D01*
X23238095Y-32452380D02*
X23238095Y-31452380D01*
X23000000Y-31452380D01*
X22857142Y-31500000D01*
X22761904Y-31595238D01*
X22714285Y-31690476D01*
X22666666Y-31880952D01*
X22666666Y-32023809D01*
X22714285Y-32214285D01*
X22761904Y-32309523D01*
X22857142Y-32404761D01*
X23000000Y-32452380D01*
X23238095Y-32452380D01*
X21761904Y-31452380D02*
X22238095Y-31452380D01*
X22285714Y-31928571D01*
X22238095Y-31880952D01*
X22142857Y-31833333D01*
X21904761Y-31833333D01*
X21809523Y-31880952D01*
X21761904Y-31928571D01*
X21714285Y-32023809D01*
X21714285Y-32261904D01*
X21761904Y-32357142D01*
X21809523Y-32404761D01*
X21904761Y-32452380D01*
X22142857Y-32452380D01*
X22238095Y-32404761D01*
X22285714Y-32357142D01*
X23238095Y-27452380D02*
X23238095Y-26452380D01*
X23000000Y-26452380D01*
X22857142Y-26500000D01*
X22761904Y-26595238D01*
X22714285Y-26690476D01*
X22666666Y-26880952D01*
X22666666Y-27023809D01*
X22714285Y-27214285D01*
X22761904Y-27309523D01*
X22857142Y-27404761D01*
X23000000Y-27452380D01*
X23238095Y-27452380D01*
X21809523Y-26452380D02*
X22000000Y-26452380D01*
X22095238Y-26500000D01*
X22142857Y-26547619D01*
X22238095Y-26690476D01*
X22285714Y-26880952D01*
X22285714Y-27261904D01*
X22238095Y-27357142D01*
X22190476Y-27404761D01*
X22095238Y-27452380D01*
X21904761Y-27452380D01*
X21809523Y-27404761D01*
X21761904Y-27357142D01*
X21714285Y-27261904D01*
X21714285Y-27023809D01*
X21761904Y-26928571D01*
X21809523Y-26880952D01*
X21904761Y-26833333D01*
X22095238Y-26833333D01*
X22190476Y-26880952D01*
X22238095Y-26928571D01*
X22285714Y-27023809D01*
X23238095Y-22452380D02*
X23238095Y-21452380D01*
X23000000Y-21452380D01*
X22857142Y-21500000D01*
X22761904Y-21595238D01*
X22714285Y-21690476D01*
X22666666Y-21880952D01*
X22666666Y-22023809D01*
X22714285Y-22214285D01*
X22761904Y-22309523D01*
X22857142Y-22404761D01*
X23000000Y-22452380D01*
X23238095Y-22452380D01*
X22333333Y-21452380D02*
X21666666Y-21452380D01*
X22095238Y-22452380D01*
X23238095Y-17452380D02*
X23238095Y-16452380D01*
X23000000Y-16452380D01*
X22857142Y-16500000D01*
X22761904Y-16595238D01*
X22714285Y-16690476D01*
X22666666Y-16880952D01*
X22666666Y-17023809D01*
X22714285Y-17214285D01*
X22761904Y-17309523D01*
X22857142Y-17404761D01*
X23000000Y-17452380D01*
X23238095Y-17452380D01*
X22095238Y-16880952D02*
X22190476Y-16833333D01*
X22238095Y-16785714D01*
X22285714Y-16690476D01*
X22285714Y-16642857D01*
X22238095Y-16547619D01*
X22190476Y-16500000D01*
X22095238Y-16452380D01*
X21904761Y-16452380D01*
X21809523Y-16500000D01*
X21761904Y-16547619D01*
X21714285Y-16642857D01*
X21714285Y-16690476D01*
X21761904Y-16785714D01*
X21809523Y-16833333D01*
X21904761Y-16880952D01*
X22095238Y-16880952D01*
X22190476Y-16928571D01*
X22238095Y-16976190D01*
X22285714Y-17071428D01*
X22285714Y-17261904D01*
X22238095Y-17357142D01*
X22190476Y-17404761D01*
X22095238Y-17452380D01*
X21904761Y-17452380D01*
X21809523Y-17404761D01*
X21761904Y-17357142D01*
X21714285Y-17261904D01*
X21714285Y-17071428D01*
X21761904Y-16976190D01*
X21809523Y-16928571D01*
X21904761Y-16880952D01*
X-6811904Y-47352380D02*
X-6811904Y-46352380D01*
X-7050000Y-46352380D01*
X-7192857Y-46400000D01*
X-7288095Y-46495238D01*
X-7335714Y-46590476D01*
X-7383333Y-46780952D01*
X-7383333Y-46923809D01*
X-7335714Y-47114285D01*
X-7288095Y-47209523D01*
X-7192857Y-47304761D01*
X-7050000Y-47352380D01*
X-6811904Y-47352380D01*
X-7859523Y-47352380D02*
X-8049999Y-47352380D01*
X-8145238Y-47304761D01*
X-8192857Y-47257142D01*
X-8288095Y-47114285D01*
X-8335714Y-46923809D01*
X-8335714Y-46542857D01*
X-8288095Y-46447619D01*
X-8240476Y-46400000D01*
X-8145238Y-46352380D01*
X-7954761Y-46352380D01*
X-7859523Y-46400000D01*
X-7811904Y-46447619D01*
X-7764285Y-46542857D01*
X-7764285Y-46780952D01*
X-7811904Y-46876190D01*
X-7859523Y-46923809D01*
X-7954761Y-46971428D01*
X-8145238Y-46971428D01*
X-8240476Y-46923809D01*
X-8288095Y-46876190D01*
X-8335714Y-46780952D01*
X-3988095Y-53752380D02*
X-3988095Y-52752380D01*
X-4559523Y-53752380D02*
X-4130952Y-53180952D01*
X-4559523Y-52752380D02*
X-3988095Y-53323809D01*
X-10261904Y-53366666D02*
X-10738095Y-53366666D01*
X-10166666Y-53652380D02*
X-10500000Y-52652380D01*
X-10833333Y-53652380D01*
X-6335714Y-39852380D02*
X-6335714Y-38852380D01*
X-6573809Y-38852380D01*
X-6716666Y-38900000D01*
X-6811904Y-38995238D01*
X-6859523Y-39090476D01*
X-6907142Y-39280952D01*
X-6907142Y-39423809D01*
X-6859523Y-39614285D01*
X-6811904Y-39709523D01*
X-6716666Y-39804761D01*
X-6573809Y-39852380D01*
X-6335714Y-39852380D01*
X-7859523Y-39852380D02*
X-7288095Y-39852380D01*
X-7573809Y-39852380D02*
X-7573809Y-38852380D01*
X-7478571Y-38995238D01*
X-7383333Y-39090476D01*
X-7288095Y-39138095D01*
X-8478571Y-38852380D02*
X-8573809Y-38852380D01*
X-8669047Y-38900000D01*
X-8716666Y-38947619D01*
X-8764285Y-39042857D01*
X-8811904Y-39233333D01*
X-8811904Y-39471428D01*
X-8764285Y-39661904D01*
X-8716666Y-39757142D01*
X-8669047Y-39804761D01*
X-8573809Y-39852380D01*
X-8478571Y-39852380D01*
X-8383333Y-39804761D01*
X-8335714Y-39757142D01*
X-8288095Y-39661904D01*
X-8240476Y-39471428D01*
X-8240476Y-39233333D01*
X-8288095Y-39042857D01*
X-8335714Y-38947619D01*
X-8383333Y-38900000D01*
X-8478571Y-38852380D01*
X-3988095Y-46252380D02*
X-3988095Y-45252380D01*
X-4559523Y-46252380D02*
X-4130952Y-45680952D01*
X-4559523Y-45252380D02*
X-3988095Y-45823809D01*
X-10261904Y-45866666D02*
X-10738095Y-45866666D01*
X-10166666Y-46152380D02*
X-10500000Y-45152380D01*
X-10833333Y-46152380D01*
X-6335714Y-32352380D02*
X-6335714Y-31352380D01*
X-6573809Y-31352380D01*
X-6716666Y-31400000D01*
X-6811904Y-31495238D01*
X-6859523Y-31590476D01*
X-6907142Y-31780952D01*
X-6907142Y-31923809D01*
X-6859523Y-32114285D01*
X-6811904Y-32209523D01*
X-6716666Y-32304761D01*
X-6573809Y-32352380D01*
X-6335714Y-32352380D01*
X-7859523Y-32352380D02*
X-7288095Y-32352380D01*
X-7573809Y-32352380D02*
X-7573809Y-31352380D01*
X-7478571Y-31495238D01*
X-7383333Y-31590476D01*
X-7288095Y-31638095D01*
X-8811904Y-32352380D02*
X-8240476Y-32352380D01*
X-8526190Y-32352380D02*
X-8526190Y-31352380D01*
X-8430952Y-31495238D01*
X-8335714Y-31590476D01*
X-8240476Y-31638095D01*
X-10261904Y-38366666D02*
X-10738095Y-38366666D01*
X-10166666Y-38652380D02*
X-10500000Y-37652380D01*
X-10833333Y-38652380D01*
X-3988095Y-38752380D02*
X-3988095Y-37752380D01*
X-4559523Y-38752380D02*
X-4130952Y-38180952D01*
X-4559523Y-37752380D02*
X-3988095Y-38323809D01*
X-6335714Y-24852380D02*
X-6335714Y-23852380D01*
X-6573809Y-23852380D01*
X-6716666Y-23900000D01*
X-6811904Y-23995238D01*
X-6859523Y-24090476D01*
X-6907142Y-24280952D01*
X-6907142Y-24423809D01*
X-6859523Y-24614285D01*
X-6811904Y-24709523D01*
X-6716666Y-24804761D01*
X-6573809Y-24852380D01*
X-6335714Y-24852380D01*
X-7859523Y-24852380D02*
X-7288095Y-24852380D01*
X-7573809Y-24852380D02*
X-7573809Y-23852380D01*
X-7478571Y-23995238D01*
X-7383333Y-24090476D01*
X-7288095Y-24138095D01*
X-8240476Y-23947619D02*
X-8288095Y-23900000D01*
X-8383333Y-23852380D01*
X-8621428Y-23852380D01*
X-8716666Y-23900000D01*
X-8764285Y-23947619D01*
X-8811904Y-24042857D01*
X-8811904Y-24138095D01*
X-8764285Y-24280952D01*
X-8192857Y-24852380D01*
X-8811904Y-24852380D01*
X-10261904Y-30866666D02*
X-10738095Y-30866666D01*
X-10166666Y-31152380D02*
X-10500000Y-30152380D01*
X-10833333Y-31152380D01*
X-3988095Y-31252380D02*
X-3988095Y-30252380D01*
X-4559523Y-31252380D02*
X-4130952Y-30680952D01*
X-4559523Y-30252380D02*
X-3988095Y-30823809D01*
X-6335714Y-17352380D02*
X-6335714Y-16352380D01*
X-6573809Y-16352380D01*
X-6716666Y-16400000D01*
X-6811904Y-16495238D01*
X-6859523Y-16590476D01*
X-6907142Y-16780952D01*
X-6907142Y-16923809D01*
X-6859523Y-17114285D01*
X-6811904Y-17209523D01*
X-6716666Y-17304761D01*
X-6573809Y-17352380D01*
X-6335714Y-17352380D01*
X-7859523Y-17352380D02*
X-7288095Y-17352380D01*
X-7573809Y-17352380D02*
X-7573809Y-16352380D01*
X-7478571Y-16495238D01*
X-7383333Y-16590476D01*
X-7288095Y-16638095D01*
X-8192857Y-16352380D02*
X-8811904Y-16352380D01*
X-8478571Y-16733333D01*
X-8621428Y-16733333D01*
X-8716666Y-16780952D01*
X-8764285Y-16828571D01*
X-8811904Y-16923809D01*
X-8811904Y-17161904D01*
X-8764285Y-17257142D01*
X-8716666Y-17304761D01*
X-8621428Y-17352380D01*
X-8335714Y-17352380D01*
X-8240476Y-17304761D01*
X-8192857Y-17257142D01*
X-3988095Y-23752380D02*
X-3988095Y-22752380D01*
X-4559523Y-23752380D02*
X-4130952Y-23180952D01*
X-4559523Y-22752380D02*
X-3988095Y-23323809D01*
X-10261904Y-23366666D02*
X-10738095Y-23366666D01*
X-10166666Y-23652380D02*
X-10500000Y-22652380D01*
X-10833333Y-23652380D01*
X-6335714Y-9852380D02*
X-6335714Y-8852380D01*
X-6573809Y-8852380D01*
X-6716666Y-8900000D01*
X-6811904Y-8995238D01*
X-6859523Y-9090476D01*
X-6907142Y-9280952D01*
X-6907142Y-9423809D01*
X-6859523Y-9614285D01*
X-6811904Y-9709523D01*
X-6716666Y-9804761D01*
X-6573809Y-9852380D01*
X-6335714Y-9852380D01*
X-7859523Y-9852380D02*
X-7288095Y-9852380D01*
X-7573809Y-9852380D02*
X-7573809Y-8852380D01*
X-7478571Y-8995238D01*
X-7383333Y-9090476D01*
X-7288095Y-9138095D01*
X-8716666Y-9185714D02*
X-8716666Y-9852380D01*
X-8478571Y-8804761D02*
X-8240476Y-9519047D01*
X-8859523Y-9519047D01*
X-3988095Y-16252380D02*
X-3988095Y-15252380D01*
X-4559523Y-16252380D02*
X-4130952Y-15680952D01*
X-4559523Y-15252380D02*
X-3988095Y-15823809D01*
X-10261904Y-15866666D02*
X-10738095Y-15866666D01*
X-10166666Y-16152380D02*
X-10500000Y-15152380D01*
X-10833333Y-16152380D01*
X-16335714Y-2352380D02*
X-16335714Y-1352380D01*
X-16573809Y-1352380D01*
X-16716666Y-1400000D01*
X-16811904Y-1495238D01*
X-16859523Y-1590476D01*
X-16907142Y-1780952D01*
X-16907142Y-1923809D01*
X-16859523Y-2114285D01*
X-16811904Y-2209523D01*
X-16716666Y-2304761D01*
X-16573809Y-2352380D01*
X-16335714Y-2352380D01*
X-17859523Y-2352380D02*
X-17288095Y-2352380D01*
X-17573809Y-2352380D02*
X-17573809Y-1352380D01*
X-17478571Y-1495238D01*
X-17383333Y-1590476D01*
X-17288095Y-1638095D01*
X-18764285Y-1352380D02*
X-18288095Y-1352380D01*
X-18240476Y-1828571D01*
X-18288095Y-1780952D01*
X-18383333Y-1733333D01*
X-18621428Y-1733333D01*
X-18716666Y-1780952D01*
X-18764285Y-1828571D01*
X-18811904Y-1923809D01*
X-18811904Y-2161904D01*
X-18764285Y-2257142D01*
X-18716666Y-2304761D01*
X-18621428Y-2352380D01*
X-18383333Y-2352380D01*
X-18288095Y-2304761D01*
X-18240476Y-2257142D01*
X-20261904Y-8366666D02*
X-20738095Y-8366666D01*
X-20166666Y-8652380D02*
X-20500000Y-7652380D01*
X-20833333Y-8652380D01*
X-13988095Y-8752380D02*
X-13988095Y-7752380D01*
X-14559523Y-8752380D02*
X-14130952Y-8180952D01*
X-14559523Y-7752380D02*
X-13988095Y-8323809D01*
X-16335714Y5147619D02*
X-16335714Y6147619D01*
X-16573809Y6147619D01*
X-16716666Y6100000D01*
X-16811904Y6004761D01*
X-16859523Y5909523D01*
X-16907142Y5719047D01*
X-16907142Y5576190D01*
X-16859523Y5385714D01*
X-16811904Y5290476D01*
X-16716666Y5195238D01*
X-16573809Y5147619D01*
X-16335714Y5147619D01*
X-17859523Y5147619D02*
X-17288095Y5147619D01*
X-17573809Y5147619D02*
X-17573809Y6147619D01*
X-17478571Y6004761D01*
X-17383333Y5909523D01*
X-17288095Y5861904D01*
X-18716666Y6147619D02*
X-18526190Y6147619D01*
X-18430952Y6100000D01*
X-18383333Y6052380D01*
X-18288095Y5909523D01*
X-18240476Y5719047D01*
X-18240476Y5338095D01*
X-18288095Y5242857D01*
X-18335714Y5195238D01*
X-18430952Y5147619D01*
X-18621428Y5147619D01*
X-18716666Y5195238D01*
X-18764285Y5242857D01*
X-18811904Y5338095D01*
X-18811904Y5576190D01*
X-18764285Y5671428D01*
X-18716666Y5719047D01*
X-18621428Y5766666D01*
X-18430952Y5766666D01*
X-18335714Y5719047D01*
X-18288095Y5671428D01*
X-18240476Y5576190D01*
X-20261904Y-866666D02*
X-20738095Y-866666D01*
X-20166666Y-1152380D02*
X-20500000Y-152380D01*
X-20833333Y-1152380D01*
X-13988095Y-1252380D02*
X-13988095Y-252380D01*
X-14559523Y-1252380D02*
X-14130952Y-680952D01*
X-14559523Y-252380D02*
X-13988095Y-823809D01*
X11214285Y-58452380D02*
X11214285Y-57452380D01*
X10976190Y-57452380D01*
X10833333Y-57500000D01*
X10738095Y-57595238D01*
X10690476Y-57690476D01*
X10642857Y-57880952D01*
X10642857Y-58023809D01*
X10690476Y-58214285D01*
X10738095Y-58309523D01*
X10833333Y-58404761D01*
X10976190Y-58452380D01*
X11214285Y-58452380D01*
X10261904Y-57547619D02*
X10214285Y-57500000D01*
X10119047Y-57452380D01*
X9880952Y-57452380D01*
X9785714Y-57500000D01*
X9738095Y-57547619D01*
X9690476Y-57642857D01*
X9690476Y-57738095D01*
X9738095Y-57880952D01*
X10309523Y-58452380D01*
X9690476Y-58452380D01*
X8785714Y-57452380D02*
X9261904Y-57452380D01*
X9309523Y-57928571D01*
X9261904Y-57880952D01*
X9166666Y-57833333D01*
X8928571Y-57833333D01*
X8833333Y-57880952D01*
X8785714Y-57928571D01*
X8738095Y-58023809D01*
X8738095Y-58261904D01*
X8785714Y-58357142D01*
X8833333Y-58404761D01*
X8928571Y-58452380D01*
X9166666Y-58452380D01*
X9261904Y-58404761D01*
X9309523Y-58357142D01*
X15095238Y-52797619D02*
X15190476Y-52750000D01*
X15285714Y-52654761D01*
X15428571Y-52511904D01*
X15523809Y-52464285D01*
X15619047Y-52464285D01*
X15571428Y-52702380D02*
X15666666Y-52654761D01*
X15761904Y-52559523D01*
X15809523Y-52369047D01*
X15809523Y-52035714D01*
X15761904Y-51845238D01*
X15666666Y-51750000D01*
X15571428Y-51702380D01*
X15380952Y-51702380D01*
X15285714Y-51750000D01*
X15190476Y-51845238D01*
X15142857Y-52035714D01*
X15142857Y-52369047D01*
X15190476Y-52559523D01*
X15285714Y-52654761D01*
X15380952Y-52702380D01*
X15571428Y-52702380D01*
X14190476Y-52702380D02*
X14761904Y-52702380D01*
X14476190Y-52702380D02*
X14476190Y-51702380D01*
X14571428Y-51845238D01*
X14666666Y-51940476D01*
X14761904Y-51988095D01*
X15095238Y-47797619D02*
X15190476Y-47750000D01*
X15285714Y-47654761D01*
X15428571Y-47511904D01*
X15523809Y-47464285D01*
X15619047Y-47464285D01*
X15571428Y-47702380D02*
X15666666Y-47654761D01*
X15761904Y-47559523D01*
X15809523Y-47369047D01*
X15809523Y-47035714D01*
X15761904Y-46845238D01*
X15666666Y-46750000D01*
X15571428Y-46702380D01*
X15380952Y-46702380D01*
X15285714Y-46750000D01*
X15190476Y-46845238D01*
X15142857Y-47035714D01*
X15142857Y-47369047D01*
X15190476Y-47559523D01*
X15285714Y-47654761D01*
X15380952Y-47702380D01*
X15571428Y-47702380D01*
X14761904Y-46797619D02*
X14714285Y-46750000D01*
X14619047Y-46702380D01*
X14380952Y-46702380D01*
X14285714Y-46750000D01*
X14238095Y-46797619D01*
X14190476Y-46892857D01*
X14190476Y-46988095D01*
X14238095Y-47130952D01*
X14809523Y-47702380D01*
X14190476Y-47702380D01*
X15095238Y-42797619D02*
X15190476Y-42750000D01*
X15285714Y-42654761D01*
X15428571Y-42511904D01*
X15523809Y-42464285D01*
X15619047Y-42464285D01*
X15571428Y-42702380D02*
X15666666Y-42654761D01*
X15761904Y-42559523D01*
X15809523Y-42369047D01*
X15809523Y-42035714D01*
X15761904Y-41845238D01*
X15666666Y-41750000D01*
X15571428Y-41702380D01*
X15380952Y-41702380D01*
X15285714Y-41750000D01*
X15190476Y-41845238D01*
X15142857Y-42035714D01*
X15142857Y-42369047D01*
X15190476Y-42559523D01*
X15285714Y-42654761D01*
X15380952Y-42702380D01*
X15571428Y-42702380D01*
X14809523Y-41702380D02*
X14190476Y-41702380D01*
X14523809Y-42083333D01*
X14380952Y-42083333D01*
X14285714Y-42130952D01*
X14238095Y-42178571D01*
X14190476Y-42273809D01*
X14190476Y-42511904D01*
X14238095Y-42607142D01*
X14285714Y-42654761D01*
X14380952Y-42702380D01*
X14666666Y-42702380D01*
X14761904Y-42654761D01*
X14809523Y-42607142D01*
X15095238Y-37797619D02*
X15190476Y-37750000D01*
X15285714Y-37654761D01*
X15428571Y-37511904D01*
X15523809Y-37464285D01*
X15619047Y-37464285D01*
X15571428Y-37702380D02*
X15666666Y-37654761D01*
X15761904Y-37559523D01*
X15809523Y-37369047D01*
X15809523Y-37035714D01*
X15761904Y-36845238D01*
X15666666Y-36750000D01*
X15571428Y-36702380D01*
X15380952Y-36702380D01*
X15285714Y-36750000D01*
X15190476Y-36845238D01*
X15142857Y-37035714D01*
X15142857Y-37369047D01*
X15190476Y-37559523D01*
X15285714Y-37654761D01*
X15380952Y-37702380D01*
X15571428Y-37702380D01*
X14285714Y-37035714D02*
X14285714Y-37702380D01*
X14523809Y-36654761D02*
X14761904Y-37369047D01*
X14142857Y-37369047D01*
X15095238Y-32797619D02*
X15190476Y-32750000D01*
X15285714Y-32654761D01*
X15428571Y-32511904D01*
X15523809Y-32464285D01*
X15619047Y-32464285D01*
X15571428Y-32702380D02*
X15666666Y-32654761D01*
X15761904Y-32559523D01*
X15809523Y-32369047D01*
X15809523Y-32035714D01*
X15761904Y-31845238D01*
X15666666Y-31750000D01*
X15571428Y-31702380D01*
X15380952Y-31702380D01*
X15285714Y-31750000D01*
X15190476Y-31845238D01*
X15142857Y-32035714D01*
X15142857Y-32369047D01*
X15190476Y-32559523D01*
X15285714Y-32654761D01*
X15380952Y-32702380D01*
X15571428Y-32702380D01*
X14238095Y-31702380D02*
X14714285Y-31702380D01*
X14761904Y-32178571D01*
X14714285Y-32130952D01*
X14619047Y-32083333D01*
X14380952Y-32083333D01*
X14285714Y-32130952D01*
X14238095Y-32178571D01*
X14190476Y-32273809D01*
X14190476Y-32511904D01*
X14238095Y-32607142D01*
X14285714Y-32654761D01*
X14380952Y-32702380D01*
X14619047Y-32702380D01*
X14714285Y-32654761D01*
X14761904Y-32607142D01*
X15095238Y-27797619D02*
X15190476Y-27750000D01*
X15285714Y-27654761D01*
X15428571Y-27511904D01*
X15523809Y-27464285D01*
X15619047Y-27464285D01*
X15571428Y-27702380D02*
X15666666Y-27654761D01*
X15761904Y-27559523D01*
X15809523Y-27369047D01*
X15809523Y-27035714D01*
X15761904Y-26845238D01*
X15666666Y-26750000D01*
X15571428Y-26702380D01*
X15380952Y-26702380D01*
X15285714Y-26750000D01*
X15190476Y-26845238D01*
X15142857Y-27035714D01*
X15142857Y-27369047D01*
X15190476Y-27559523D01*
X15285714Y-27654761D01*
X15380952Y-27702380D01*
X15571428Y-27702380D01*
X14285714Y-26702380D02*
X14476190Y-26702380D01*
X14571428Y-26750000D01*
X14619047Y-26797619D01*
X14714285Y-26940476D01*
X14761904Y-27130952D01*
X14761904Y-27511904D01*
X14714285Y-27607142D01*
X14666666Y-27654761D01*
X14571428Y-27702380D01*
X14380952Y-27702380D01*
X14285714Y-27654761D01*
X14238095Y-27607142D01*
X14190476Y-27511904D01*
X14190476Y-27273809D01*
X14238095Y-27178571D01*
X14285714Y-27130952D01*
X14380952Y-27083333D01*
X14571428Y-27083333D01*
X14666666Y-27130952D01*
X14714285Y-27178571D01*
X14761904Y-27273809D01*
X15095238Y-22797619D02*
X15190476Y-22750000D01*
X15285714Y-22654761D01*
X15428571Y-22511904D01*
X15523809Y-22464285D01*
X15619047Y-22464285D01*
X15571428Y-22702380D02*
X15666666Y-22654761D01*
X15761904Y-22559523D01*
X15809523Y-22369047D01*
X15809523Y-22035714D01*
X15761904Y-21845238D01*
X15666666Y-21750000D01*
X15571428Y-21702380D01*
X15380952Y-21702380D01*
X15285714Y-21750000D01*
X15190476Y-21845238D01*
X15142857Y-22035714D01*
X15142857Y-22369047D01*
X15190476Y-22559523D01*
X15285714Y-22654761D01*
X15380952Y-22702380D01*
X15571428Y-22702380D01*
X14809523Y-21702380D02*
X14142857Y-21702380D01*
X14571428Y-22702380D01*
X15095238Y-17797619D02*
X15190476Y-17750000D01*
X15285714Y-17654761D01*
X15428571Y-17511904D01*
X15523809Y-17464285D01*
X15619047Y-17464285D01*
X15571428Y-17702380D02*
X15666666Y-17654761D01*
X15761904Y-17559523D01*
X15809523Y-17369047D01*
X15809523Y-17035714D01*
X15761904Y-16845238D01*
X15666666Y-16750000D01*
X15571428Y-16702380D01*
X15380952Y-16702380D01*
X15285714Y-16750000D01*
X15190476Y-16845238D01*
X15142857Y-17035714D01*
X15142857Y-17369047D01*
X15190476Y-17559523D01*
X15285714Y-17654761D01*
X15380952Y-17702380D01*
X15571428Y-17702380D01*
X14571428Y-17130952D02*
X14666666Y-17083333D01*
X14714285Y-17035714D01*
X14761904Y-16940476D01*
X14761904Y-16892857D01*
X14714285Y-16797619D01*
X14666666Y-16750000D01*
X14571428Y-16702380D01*
X14380952Y-16702380D01*
X14285714Y-16750000D01*
X14238095Y-16797619D01*
X14190476Y-16892857D01*
X14190476Y-16940476D01*
X14238095Y-17035714D01*
X14285714Y-17083333D01*
X14380952Y-17130952D01*
X14571428Y-17130952D01*
X14666666Y-17178571D01*
X14714285Y-17226190D01*
X14761904Y-17321428D01*
X14761904Y-17511904D01*
X14714285Y-17607142D01*
X14666666Y-17654761D01*
X14571428Y-17702380D01*
X14380952Y-17702380D01*
X14285714Y-17654761D01*
X14238095Y-17607142D01*
X14190476Y-17511904D01*
X14190476Y-17321428D01*
X14238095Y-17226190D01*
X14285714Y-17178571D01*
X14380952Y-17130952D01*
X45166666Y-52852380D02*
X45500000Y-52376190D01*
X45738095Y-52852380D02*
X45738095Y-51852380D01*
X45357142Y-51852380D01*
X45261904Y-51900000D01*
X45214285Y-51947619D01*
X45166666Y-52042857D01*
X45166666Y-52185714D01*
X45214285Y-52280952D01*
X45261904Y-52328571D01*
X45357142Y-52376190D01*
X45738095Y-52376190D01*
X44214285Y-52852380D02*
X44785714Y-52852380D01*
X44500000Y-52852380D02*
X44500000Y-51852380D01*
X44595238Y-51995238D01*
X44690476Y-52090476D01*
X44785714Y-52138095D01*
X45166666Y-47852380D02*
X45500000Y-47376190D01*
X45738095Y-47852380D02*
X45738095Y-46852380D01*
X45357142Y-46852380D01*
X45261904Y-46900000D01*
X45214285Y-46947619D01*
X45166666Y-47042857D01*
X45166666Y-47185714D01*
X45214285Y-47280952D01*
X45261904Y-47328571D01*
X45357142Y-47376190D01*
X45738095Y-47376190D01*
X44785714Y-46947619D02*
X44738095Y-46900000D01*
X44642857Y-46852380D01*
X44404761Y-46852380D01*
X44309523Y-46900000D01*
X44261904Y-46947619D01*
X44214285Y-47042857D01*
X44214285Y-47138095D01*
X44261904Y-47280952D01*
X44833333Y-47852380D01*
X44214285Y-47852380D01*
X45166666Y-42852380D02*
X45500000Y-42376190D01*
X45738095Y-42852380D02*
X45738095Y-41852380D01*
X45357142Y-41852380D01*
X45261904Y-41900000D01*
X45214285Y-41947619D01*
X45166666Y-42042857D01*
X45166666Y-42185714D01*
X45214285Y-42280952D01*
X45261904Y-42328571D01*
X45357142Y-42376190D01*
X45738095Y-42376190D01*
X44833333Y-41852380D02*
X44214285Y-41852380D01*
X44547619Y-42233333D01*
X44404761Y-42233333D01*
X44309523Y-42280952D01*
X44261904Y-42328571D01*
X44214285Y-42423809D01*
X44214285Y-42661904D01*
X44261904Y-42757142D01*
X44309523Y-42804761D01*
X44404761Y-42852380D01*
X44690476Y-42852380D01*
X44785714Y-42804761D01*
X44833333Y-42757142D01*
X45166666Y-37852380D02*
X45500000Y-37376190D01*
X45738095Y-37852380D02*
X45738095Y-36852380D01*
X45357142Y-36852380D01*
X45261904Y-36900000D01*
X45214285Y-36947619D01*
X45166666Y-37042857D01*
X45166666Y-37185714D01*
X45214285Y-37280952D01*
X45261904Y-37328571D01*
X45357142Y-37376190D01*
X45738095Y-37376190D01*
X44309523Y-37185714D02*
X44309523Y-37852380D01*
X44547619Y-36804761D02*
X44785714Y-37519047D01*
X44166666Y-37519047D01*
X45166666Y-32852380D02*
X45500000Y-32376190D01*
X45738095Y-32852380D02*
X45738095Y-31852380D01*
X45357142Y-31852380D01*
X45261904Y-31900000D01*
X45214285Y-31947619D01*
X45166666Y-32042857D01*
X45166666Y-32185714D01*
X45214285Y-32280952D01*
X45261904Y-32328571D01*
X45357142Y-32376190D01*
X45738095Y-32376190D01*
X44261904Y-31852380D02*
X44738095Y-31852380D01*
X44785714Y-32328571D01*
X44738095Y-32280952D01*
X44642857Y-32233333D01*
X44404761Y-32233333D01*
X44309523Y-32280952D01*
X44261904Y-32328571D01*
X44214285Y-32423809D01*
X44214285Y-32661904D01*
X44261904Y-32757142D01*
X44309523Y-32804761D01*
X44404761Y-32852380D01*
X44642857Y-32852380D01*
X44738095Y-32804761D01*
X44785714Y-32757142D01*
X45166666Y-27852380D02*
X45500000Y-27376190D01*
X45738095Y-27852380D02*
X45738095Y-26852380D01*
X45357142Y-26852380D01*
X45261904Y-26900000D01*
X45214285Y-26947619D01*
X45166666Y-27042857D01*
X45166666Y-27185714D01*
X45214285Y-27280952D01*
X45261904Y-27328571D01*
X45357142Y-27376190D01*
X45738095Y-27376190D01*
X44309523Y-26852380D02*
X44500000Y-26852380D01*
X44595238Y-26900000D01*
X44642857Y-26947619D01*
X44738095Y-27090476D01*
X44785714Y-27280952D01*
X44785714Y-27661904D01*
X44738095Y-27757142D01*
X44690476Y-27804761D01*
X44595238Y-27852380D01*
X44404761Y-27852380D01*
X44309523Y-27804761D01*
X44261904Y-27757142D01*
X44214285Y-27661904D01*
X44214285Y-27423809D01*
X44261904Y-27328571D01*
X44309523Y-27280952D01*
X44404761Y-27233333D01*
X44595238Y-27233333D01*
X44690476Y-27280952D01*
X44738095Y-27328571D01*
X44785714Y-27423809D01*
X45166666Y-22852380D02*
X45500000Y-22376190D01*
X45738095Y-22852380D02*
X45738095Y-21852380D01*
X45357142Y-21852380D01*
X45261904Y-21900000D01*
X45214285Y-21947619D01*
X45166666Y-22042857D01*
X45166666Y-22185714D01*
X45214285Y-22280952D01*
X45261904Y-22328571D01*
X45357142Y-22376190D01*
X45738095Y-22376190D01*
X44833333Y-21852380D02*
X44166666Y-21852380D01*
X44595238Y-22852380D01*
X45166666Y-17852380D02*
X45500000Y-17376190D01*
X45738095Y-17852380D02*
X45738095Y-16852380D01*
X45357142Y-16852380D01*
X45261904Y-16900000D01*
X45214285Y-16947619D01*
X45166666Y-17042857D01*
X45166666Y-17185714D01*
X45214285Y-17280952D01*
X45261904Y-17328571D01*
X45357142Y-17376190D01*
X45738095Y-17376190D01*
X44595238Y-17280952D02*
X44690476Y-17233333D01*
X44738095Y-17185714D01*
X44785714Y-17090476D01*
X44785714Y-17042857D01*
X44738095Y-16947619D01*
X44690476Y-16900000D01*
X44595238Y-16852380D01*
X44404761Y-16852380D01*
X44309523Y-16900000D01*
X44261904Y-16947619D01*
X44214285Y-17042857D01*
X44214285Y-17090476D01*
X44261904Y-17185714D01*
X44309523Y-17233333D01*
X44404761Y-17280952D01*
X44595238Y-17280952D01*
X44690476Y-17328571D01*
X44738095Y-17376190D01*
X44785714Y-17471428D01*
X44785714Y-17661904D01*
X44738095Y-17757142D01*
X44690476Y-17804761D01*
X44595238Y-17852380D01*
X44404761Y-17852380D01*
X44309523Y-17804761D01*
X44261904Y-17757142D01*
X44214285Y-17661904D01*
X44214285Y-17471428D01*
X44261904Y-17376190D01*
X44309523Y-17328571D01*
X44404761Y-17280952D01*
X30166666Y-52352380D02*
X30500000Y-51876190D01*
X30738095Y-52352380D02*
X30738095Y-51352380D01*
X30357142Y-51352380D01*
X30261904Y-51400000D01*
X30214285Y-51447619D01*
X30166666Y-51542857D01*
X30166666Y-51685714D01*
X30214285Y-51780952D01*
X30261904Y-51828571D01*
X30357142Y-51876190D01*
X30738095Y-51876190D01*
X29690476Y-52352380D02*
X29500000Y-52352380D01*
X29404761Y-52304761D01*
X29357142Y-52257142D01*
X29261904Y-52114285D01*
X29214285Y-51923809D01*
X29214285Y-51542857D01*
X29261904Y-51447619D01*
X29309523Y-51400000D01*
X29404761Y-51352380D01*
X29595238Y-51352380D01*
X29690476Y-51400000D01*
X29738095Y-51447619D01*
X29785714Y-51542857D01*
X29785714Y-51780952D01*
X29738095Y-51876190D01*
X29690476Y-51923809D01*
X29595238Y-51971428D01*
X29404761Y-51971428D01*
X29309523Y-51923809D01*
X29261904Y-51876190D01*
X29214285Y-51780952D01*
X30642857Y-47352380D02*
X30976190Y-46876190D01*
X31214285Y-47352380D02*
X31214285Y-46352380D01*
X30833333Y-46352380D01*
X30738095Y-46400000D01*
X30690476Y-46447619D01*
X30642857Y-46542857D01*
X30642857Y-46685714D01*
X30690476Y-46780952D01*
X30738095Y-46828571D01*
X30833333Y-46876190D01*
X31214285Y-46876190D01*
X29690476Y-47352380D02*
X30261904Y-47352380D01*
X29976190Y-47352380D02*
X29976190Y-46352380D01*
X30071428Y-46495238D01*
X30166666Y-46590476D01*
X30261904Y-46638095D01*
X29071428Y-46352380D02*
X28976190Y-46352380D01*
X28880952Y-46400000D01*
X28833333Y-46447619D01*
X28785714Y-46542857D01*
X28738095Y-46733333D01*
X28738095Y-46971428D01*
X28785714Y-47161904D01*
X28833333Y-47257142D01*
X28880952Y-47304761D01*
X28976190Y-47352380D01*
X29071428Y-47352380D01*
X29166666Y-47304761D01*
X29214285Y-47257142D01*
X29261904Y-47161904D01*
X29309523Y-46971428D01*
X29309523Y-46733333D01*
X29261904Y-46542857D01*
X29214285Y-46447619D01*
X29166666Y-46400000D01*
X29071428Y-46352380D01*
X30642857Y-42352380D02*
X30976190Y-41876190D01*
X31214285Y-42352380D02*
X31214285Y-41352380D01*
X30833333Y-41352380D01*
X30738095Y-41400000D01*
X30690476Y-41447619D01*
X30642857Y-41542857D01*
X30642857Y-41685714D01*
X30690476Y-41780952D01*
X30738095Y-41828571D01*
X30833333Y-41876190D01*
X31214285Y-41876190D01*
X29690476Y-42352380D02*
X30261904Y-42352380D01*
X29976190Y-42352380D02*
X29976190Y-41352380D01*
X30071428Y-41495238D01*
X30166666Y-41590476D01*
X30261904Y-41638095D01*
X28738095Y-42352380D02*
X29309523Y-42352380D01*
X29023809Y-42352380D02*
X29023809Y-41352380D01*
X29119047Y-41495238D01*
X29214285Y-41590476D01*
X29309523Y-41638095D01*
X30642857Y-37352380D02*
X30976190Y-36876190D01*
X31214285Y-37352380D02*
X31214285Y-36352380D01*
X30833333Y-36352380D01*
X30738095Y-36400000D01*
X30690476Y-36447619D01*
X30642857Y-36542857D01*
X30642857Y-36685714D01*
X30690476Y-36780952D01*
X30738095Y-36828571D01*
X30833333Y-36876190D01*
X31214285Y-36876190D01*
X29690476Y-37352380D02*
X30261904Y-37352380D01*
X29976190Y-37352380D02*
X29976190Y-36352380D01*
X30071428Y-36495238D01*
X30166666Y-36590476D01*
X30261904Y-36638095D01*
X29309523Y-36447619D02*
X29261904Y-36400000D01*
X29166666Y-36352380D01*
X28928571Y-36352380D01*
X28833333Y-36400000D01*
X28785714Y-36447619D01*
X28738095Y-36542857D01*
X28738095Y-36638095D01*
X28785714Y-36780952D01*
X29357142Y-37352380D01*
X28738095Y-37352380D01*
X30642857Y-32352380D02*
X30976190Y-31876190D01*
X31214285Y-32352380D02*
X31214285Y-31352380D01*
X30833333Y-31352380D01*
X30738095Y-31400000D01*
X30690476Y-31447619D01*
X30642857Y-31542857D01*
X30642857Y-31685714D01*
X30690476Y-31780952D01*
X30738095Y-31828571D01*
X30833333Y-31876190D01*
X31214285Y-31876190D01*
X29690476Y-32352380D02*
X30261904Y-32352380D01*
X29976190Y-32352380D02*
X29976190Y-31352380D01*
X30071428Y-31495238D01*
X30166666Y-31590476D01*
X30261904Y-31638095D01*
X29357142Y-31352380D02*
X28738095Y-31352380D01*
X29071428Y-31733333D01*
X28928571Y-31733333D01*
X28833333Y-31780952D01*
X28785714Y-31828571D01*
X28738095Y-31923809D01*
X28738095Y-32161904D01*
X28785714Y-32257142D01*
X28833333Y-32304761D01*
X28928571Y-32352380D01*
X29214285Y-32352380D01*
X29309523Y-32304761D01*
X29357142Y-32257142D01*
X30642857Y-27352380D02*
X30976190Y-26876190D01*
X31214285Y-27352380D02*
X31214285Y-26352380D01*
X30833333Y-26352380D01*
X30738095Y-26400000D01*
X30690476Y-26447619D01*
X30642857Y-26542857D01*
X30642857Y-26685714D01*
X30690476Y-26780952D01*
X30738095Y-26828571D01*
X30833333Y-26876190D01*
X31214285Y-26876190D01*
X29690476Y-27352380D02*
X30261904Y-27352380D01*
X29976190Y-27352380D02*
X29976190Y-26352380D01*
X30071428Y-26495238D01*
X30166666Y-26590476D01*
X30261904Y-26638095D01*
X28833333Y-26685714D02*
X28833333Y-27352380D01*
X29071428Y-26304761D02*
X29309523Y-27019047D01*
X28690476Y-27019047D01*
X30642857Y-22352380D02*
X30976190Y-21876190D01*
X31214285Y-22352380D02*
X31214285Y-21352380D01*
X30833333Y-21352380D01*
X30738095Y-21400000D01*
X30690476Y-21447619D01*
X30642857Y-21542857D01*
X30642857Y-21685714D01*
X30690476Y-21780952D01*
X30738095Y-21828571D01*
X30833333Y-21876190D01*
X31214285Y-21876190D01*
X29690476Y-22352380D02*
X30261904Y-22352380D01*
X29976190Y-22352380D02*
X29976190Y-21352380D01*
X30071428Y-21495238D01*
X30166666Y-21590476D01*
X30261904Y-21638095D01*
X28785714Y-21352380D02*
X29261904Y-21352380D01*
X29309523Y-21828571D01*
X29261904Y-21780952D01*
X29166666Y-21733333D01*
X28928571Y-21733333D01*
X28833333Y-21780952D01*
X28785714Y-21828571D01*
X28738095Y-21923809D01*
X28738095Y-22161904D01*
X28785714Y-22257142D01*
X28833333Y-22304761D01*
X28928571Y-22352380D01*
X29166666Y-22352380D01*
X29261904Y-22304761D01*
X29309523Y-22257142D01*
X30642857Y-17352380D02*
X30976190Y-16876190D01*
X31214285Y-17352380D02*
X31214285Y-16352380D01*
X30833333Y-16352380D01*
X30738095Y-16400000D01*
X30690476Y-16447619D01*
X30642857Y-16542857D01*
X30642857Y-16685714D01*
X30690476Y-16780952D01*
X30738095Y-16828571D01*
X30833333Y-16876190D01*
X31214285Y-16876190D01*
X29690476Y-17352380D02*
X30261904Y-17352380D01*
X29976190Y-17352380D02*
X29976190Y-16352380D01*
X30071428Y-16495238D01*
X30166666Y-16590476D01*
X30261904Y-16638095D01*
X28833333Y-16352380D02*
X29023809Y-16352380D01*
X29119047Y-16400000D01*
X29166666Y-16447619D01*
X29261904Y-16590476D01*
X29309523Y-16780952D01*
X29309523Y-17161904D01*
X29261904Y-17257142D01*
X29214285Y-17304761D01*
X29119047Y-17352380D01*
X28928571Y-17352380D01*
X28833333Y-17304761D01*
X28785714Y-17257142D01*
X28738095Y-17161904D01*
X28738095Y-16923809D01*
X28785714Y-16828571D01*
X28833333Y-16780952D01*
X28928571Y-16733333D01*
X29119047Y-16733333D01*
X29214285Y-16780952D01*
X29261904Y-16828571D01*
X29309523Y-16923809D01*
X3642857Y-50452380D02*
X3976190Y-49976190D01*
X4214285Y-50452380D02*
X4214285Y-49452380D01*
X3833333Y-49452380D01*
X3738095Y-49500000D01*
X3690476Y-49547619D01*
X3642857Y-49642857D01*
X3642857Y-49785714D01*
X3690476Y-49880952D01*
X3738095Y-49928571D01*
X3833333Y-49976190D01*
X4214285Y-49976190D01*
X2690476Y-50452380D02*
X3261904Y-50452380D01*
X2976190Y-50452380D02*
X2976190Y-49452380D01*
X3071428Y-49595238D01*
X3166666Y-49690476D01*
X3261904Y-49738095D01*
X2357142Y-49452380D02*
X1690476Y-49452380D01*
X2119047Y-50452380D01*
X3642857Y-46352380D02*
X3976190Y-45876190D01*
X4214285Y-46352380D02*
X4214285Y-45352380D01*
X3833333Y-45352380D01*
X3738095Y-45400000D01*
X3690476Y-45447619D01*
X3642857Y-45542857D01*
X3642857Y-45685714D01*
X3690476Y-45780952D01*
X3738095Y-45828571D01*
X3833333Y-45876190D01*
X4214285Y-45876190D01*
X2690476Y-46352380D02*
X3261904Y-46352380D01*
X2976190Y-46352380D02*
X2976190Y-45352380D01*
X3071428Y-45495238D01*
X3166666Y-45590476D01*
X3261904Y-45638095D01*
X2119047Y-45780952D02*
X2214285Y-45733333D01*
X2261904Y-45685714D01*
X2309523Y-45590476D01*
X2309523Y-45542857D01*
X2261904Y-45447619D01*
X2214285Y-45400000D01*
X2119047Y-45352380D01*
X1928571Y-45352380D01*
X1833333Y-45400000D01*
X1785714Y-45447619D01*
X1738095Y-45542857D01*
X1738095Y-45590476D01*
X1785714Y-45685714D01*
X1833333Y-45733333D01*
X1928571Y-45780952D01*
X2119047Y-45780952D01*
X2214285Y-45828571D01*
X2261904Y-45876190D01*
X2309523Y-45971428D01*
X2309523Y-46161904D01*
X2261904Y-46257142D01*
X2214285Y-46304761D01*
X2119047Y-46352380D01*
X1928571Y-46352380D01*
X1833333Y-46304761D01*
X1785714Y-46257142D01*
X1738095Y-46161904D01*
X1738095Y-45971428D01*
X1785714Y-45876190D01*
X1833333Y-45828571D01*
X1928571Y-45780952D01*
X3642857Y-41352380D02*
X3976190Y-40876190D01*
X4214285Y-41352380D02*
X4214285Y-40352380D01*
X3833333Y-40352380D01*
X3738095Y-40400000D01*
X3690476Y-40447619D01*
X3642857Y-40542857D01*
X3642857Y-40685714D01*
X3690476Y-40780952D01*
X3738095Y-40828571D01*
X3833333Y-40876190D01*
X4214285Y-40876190D01*
X2690476Y-41352380D02*
X3261904Y-41352380D01*
X2976190Y-41352380D02*
X2976190Y-40352380D01*
X3071428Y-40495238D01*
X3166666Y-40590476D01*
X3261904Y-40638095D01*
X2214285Y-41352380D02*
X2023809Y-41352380D01*
X1928571Y-41304761D01*
X1880952Y-41257142D01*
X1785714Y-41114285D01*
X1738095Y-40923809D01*
X1738095Y-40542857D01*
X1785714Y-40447619D01*
X1833333Y-40400000D01*
X1928571Y-40352380D01*
X2119047Y-40352380D01*
X2214285Y-40400000D01*
X2261904Y-40447619D01*
X2309523Y-40542857D01*
X2309523Y-40780952D01*
X2261904Y-40876190D01*
X2214285Y-40923809D01*
X2119047Y-40971428D01*
X1928571Y-40971428D01*
X1833333Y-40923809D01*
X1785714Y-40876190D01*
X1738095Y-40780952D01*
X3642857Y-36352380D02*
X3976190Y-35876190D01*
X4214285Y-36352380D02*
X4214285Y-35352380D01*
X3833333Y-35352380D01*
X3738095Y-35400000D01*
X3690476Y-35447619D01*
X3642857Y-35542857D01*
X3642857Y-35685714D01*
X3690476Y-35780952D01*
X3738095Y-35828571D01*
X3833333Y-35876190D01*
X4214285Y-35876190D01*
X3261904Y-35447619D02*
X3214285Y-35400000D01*
X3119047Y-35352380D01*
X2880952Y-35352380D01*
X2785714Y-35400000D01*
X2738095Y-35447619D01*
X2690476Y-35542857D01*
X2690476Y-35638095D01*
X2738095Y-35780952D01*
X3309523Y-36352380D01*
X2690476Y-36352380D01*
X2071428Y-35352380D02*
X1976190Y-35352380D01*
X1880952Y-35400000D01*
X1833333Y-35447619D01*
X1785714Y-35542857D01*
X1738095Y-35733333D01*
X1738095Y-35971428D01*
X1785714Y-36161904D01*
X1833333Y-36257142D01*
X1880952Y-36304761D01*
X1976190Y-36352380D01*
X2071428Y-36352380D01*
X2166666Y-36304761D01*
X2214285Y-36257142D01*
X2261904Y-36161904D01*
X2309523Y-35971428D01*
X2309523Y-35733333D01*
X2261904Y-35542857D01*
X2214285Y-35447619D01*
X2166666Y-35400000D01*
X2071428Y-35352380D01*
X3642857Y-31352380D02*
X3976190Y-30876190D01*
X4214285Y-31352380D02*
X4214285Y-30352380D01*
X3833333Y-30352380D01*
X3738095Y-30400000D01*
X3690476Y-30447619D01*
X3642857Y-30542857D01*
X3642857Y-30685714D01*
X3690476Y-30780952D01*
X3738095Y-30828571D01*
X3833333Y-30876190D01*
X4214285Y-30876190D01*
X3261904Y-30447619D02*
X3214285Y-30400000D01*
X3119047Y-30352380D01*
X2880952Y-30352380D01*
X2785714Y-30400000D01*
X2738095Y-30447619D01*
X2690476Y-30542857D01*
X2690476Y-30638095D01*
X2738095Y-30780952D01*
X3309523Y-31352380D01*
X2690476Y-31352380D01*
X1738095Y-31352380D02*
X2309523Y-31352380D01*
X2023809Y-31352380D02*
X2023809Y-30352380D01*
X2119047Y-30495238D01*
X2214285Y-30590476D01*
X2309523Y-30638095D01*
X3642857Y-26352380D02*
X3976190Y-25876190D01*
X4214285Y-26352380D02*
X4214285Y-25352380D01*
X3833333Y-25352380D01*
X3738095Y-25400000D01*
X3690476Y-25447619D01*
X3642857Y-25542857D01*
X3642857Y-25685714D01*
X3690476Y-25780952D01*
X3738095Y-25828571D01*
X3833333Y-25876190D01*
X4214285Y-25876190D01*
X3261904Y-25447619D02*
X3214285Y-25400000D01*
X3119047Y-25352380D01*
X2880952Y-25352380D01*
X2785714Y-25400000D01*
X2738095Y-25447619D01*
X2690476Y-25542857D01*
X2690476Y-25638095D01*
X2738095Y-25780952D01*
X3309523Y-26352380D01*
X2690476Y-26352380D01*
X2309523Y-25447619D02*
X2261904Y-25400000D01*
X2166666Y-25352380D01*
X1928571Y-25352380D01*
X1833333Y-25400000D01*
X1785714Y-25447619D01*
X1738095Y-25542857D01*
X1738095Y-25638095D01*
X1785714Y-25780952D01*
X2357142Y-26352380D01*
X1738095Y-26352380D01*
X3642857Y-21352380D02*
X3976190Y-20876190D01*
X4214285Y-21352380D02*
X4214285Y-20352380D01*
X3833333Y-20352380D01*
X3738095Y-20400000D01*
X3690476Y-20447619D01*
X3642857Y-20542857D01*
X3642857Y-20685714D01*
X3690476Y-20780952D01*
X3738095Y-20828571D01*
X3833333Y-20876190D01*
X4214285Y-20876190D01*
X3261904Y-20447619D02*
X3214285Y-20400000D01*
X3119047Y-20352380D01*
X2880952Y-20352380D01*
X2785714Y-20400000D01*
X2738095Y-20447619D01*
X2690476Y-20542857D01*
X2690476Y-20638095D01*
X2738095Y-20780952D01*
X3309523Y-21352380D01*
X2690476Y-21352380D01*
X2357142Y-20352380D02*
X1738095Y-20352380D01*
X2071428Y-20733333D01*
X1928571Y-20733333D01*
X1833333Y-20780952D01*
X1785714Y-20828571D01*
X1738095Y-20923809D01*
X1738095Y-21161904D01*
X1785714Y-21257142D01*
X1833333Y-21304761D01*
X1928571Y-21352380D01*
X2214285Y-21352380D01*
X2309523Y-21304761D01*
X2357142Y-21257142D01*
X3642857Y-16352380D02*
X3976190Y-15876190D01*
X4214285Y-16352380D02*
X4214285Y-15352380D01*
X3833333Y-15352380D01*
X3738095Y-15400000D01*
X3690476Y-15447619D01*
X3642857Y-15542857D01*
X3642857Y-15685714D01*
X3690476Y-15780952D01*
X3738095Y-15828571D01*
X3833333Y-15876190D01*
X4214285Y-15876190D01*
X3261904Y-15447619D02*
X3214285Y-15400000D01*
X3119047Y-15352380D01*
X2880952Y-15352380D01*
X2785714Y-15400000D01*
X2738095Y-15447619D01*
X2690476Y-15542857D01*
X2690476Y-15638095D01*
X2738095Y-15780952D01*
X3309523Y-16352380D01*
X2690476Y-16352380D01*
X1833333Y-15685714D02*
X1833333Y-16352380D01*
X2071428Y-15304761D02*
X2309523Y-16019047D01*
X1690476Y-16019047D01*
M02*
