G04 #@! TF.GenerationSoftware,KiCad,Pcbnew,(2017-06-12 revision 19d5cc754)-master*
G04 #@! TF.CreationDate,2017-12-09T12:00:16+01:00*
G04 #@! TF.ProjectId,RPi_Hat,5250695F4861742E6B696361645F7063,rev?*
G04 #@! TF.FileFunction,Copper,L1,Top,Signal*
G04 #@! TF.FilePolarity,Positive*
%FSLAX46Y46*%
G04 Gerber Fmt 4.6, Leading zero omitted, Abs format (unit mm)*
G04 Created by KiCad (PCBNEW (2017-06-12 revision 19d5cc754)-master) date 2017 December 09, Saturday 12:00:16*
%MOMM*%
%LPD*%
G01*
G04 APERTURE LIST*
%ADD10C,0.100000*%
%ADD11C,1.500000*%
%ADD12O,1.700000X1.200000*%
%ADD13R,1.700000X1.200000*%
%ADD14R,1.500000X1.500000*%
%ADD15O,4.000000X2.000000*%
%ADD16O,2.000000X4.500000*%
%ADD17R,1.727200X1.727200*%
%ADD18O,1.727200X1.727200*%
%ADD19R,1.300000X1.300000*%
%ADD20C,1.300000*%
%ADD21R,0.797560X0.797560*%
%ADD22C,0.900000*%
%ADD23C,0.600000*%
%ADD24C,0.400000*%
%ADD25C,0.900000*%
%ADD26C,0.250000*%
%ADD27C,0.254000*%
G04 APERTURE END LIST*
D10*
D11*
X90000000Y4250000D03*
X84000000Y4250000D03*
D12*
X-26000000Y-53500000D03*
X-26000000Y-51500000D03*
D13*
X-26000000Y-49500000D03*
X-26000000Y-41500000D03*
D12*
X-26000000Y-43500000D03*
X-26000000Y-45500000D03*
X-26000000Y-37500000D03*
X-26000000Y-35500000D03*
D13*
X-26000000Y-33500000D03*
X-26000000Y-25500000D03*
D12*
X-26000000Y-27500000D03*
X-26000000Y-29500000D03*
X-26000000Y-21500000D03*
X-26000000Y-19500000D03*
D13*
X-26000000Y-17500000D03*
X-26000000Y-9500000D03*
D12*
X-26000000Y-11500000D03*
X-26000000Y-13500000D03*
X-26000000Y-5500000D03*
X-26000000Y-3500000D03*
D13*
X-26000000Y-1500000D03*
X-26000000Y6500000D03*
D12*
X-26000000Y4500000D03*
X-26000000Y2500000D03*
D11*
X-16500000Y-45311510D03*
X-22500000Y-45311510D03*
D14*
X-16500000Y-48561510D03*
X-20000000Y-48561510D03*
X-23200000Y-48561510D03*
X-16500000Y-42061510D03*
X-20000000Y-42061510D03*
X-23200000Y-42061510D03*
X-23200000Y-32061510D03*
X-20000000Y-32061510D03*
X-16500000Y-32061510D03*
X-23200000Y-38561510D03*
X-20000000Y-38561510D03*
X-16500000Y-38561510D03*
D11*
X-22500000Y-35311510D03*
X-16500000Y-35311510D03*
X-16500000Y-45311510D03*
X-22500000Y-45311510D03*
D14*
X-23200000Y-22061510D03*
X-20000000Y-22061510D03*
X-16500000Y-22061510D03*
X-23200000Y-28561510D03*
X-20000000Y-28561510D03*
X-16500000Y-28561510D03*
D11*
X-22500000Y-25311510D03*
X-16500000Y-25311510D03*
X-16500000Y-15311510D03*
X-22500000Y-15311510D03*
D14*
X-16500000Y-18561510D03*
X-20000000Y-18561510D03*
X-23200000Y-18561510D03*
X-16500000Y-12061510D03*
X-20000000Y-12061510D03*
X-23200000Y-12061510D03*
D11*
X-22500000Y-15311510D03*
X-16500000Y-15311510D03*
X-16500000Y-25311510D03*
X-22500000Y-25311510D03*
X-22500000Y-35311510D03*
X-16500000Y-35311510D03*
D15*
X-17500000Y-56350000D03*
D16*
X-15000000Y-61000000D03*
X-21000000Y-61000000D03*
D17*
X8370000Y-5270000D03*
D18*
X8370000Y-2730000D03*
X10910000Y-5270000D03*
X10910000Y-2730000D03*
X13450000Y-5270000D03*
X13450000Y-2730000D03*
X15990000Y-5270000D03*
X15990000Y-2730000D03*
X18530000Y-5270000D03*
X18530000Y-2730000D03*
X21070000Y-5270000D03*
X21070000Y-2730000D03*
X23610000Y-5270000D03*
X23610000Y-2730000D03*
X26150000Y-5270000D03*
X26150000Y-2730000D03*
X28690000Y-5270000D03*
X28690000Y-2730000D03*
X31230000Y-5270000D03*
X31230000Y-2730000D03*
X33770000Y-5270000D03*
X33770000Y-2730000D03*
X36310000Y-5270000D03*
X36310000Y-2730000D03*
X38850000Y-5270000D03*
X38850000Y-2730000D03*
X41390000Y-5270000D03*
X41390000Y-2730000D03*
X43930000Y-5270000D03*
X43930000Y-2730000D03*
X46470000Y-5270000D03*
X46470000Y-2730000D03*
X49010000Y-5270000D03*
X49010000Y-2730000D03*
X51550000Y-5270000D03*
X51550000Y-2730000D03*
X54090000Y-5270000D03*
X54090000Y-2730000D03*
X56630000Y-5270000D03*
X56630000Y-2730000D03*
D19*
X20500000Y-62500000D03*
D20*
X20500000Y-58700000D03*
X-1250000Y-62800000D03*
D19*
X-1250000Y-59000000D03*
D21*
X8749300Y-49000000D03*
X7250700Y-49000000D03*
X7250700Y-44000000D03*
X8749300Y-44000000D03*
X8749300Y-39000000D03*
X7250700Y-39000000D03*
X7250700Y-34000000D03*
X8749300Y-34000000D03*
X8749300Y-29000000D03*
X7250700Y-29000000D03*
X8749300Y-24000000D03*
X7250700Y-24000000D03*
X7250700Y-19000000D03*
X8749300Y-19000000D03*
X7250700Y-14000000D03*
X8749300Y-14000000D03*
D22*
X44000000Y-11000000D03*
X42000000Y-11000000D03*
X40000000Y-11000000D03*
X38000000Y-11000000D03*
X36000000Y-11000000D03*
X34000000Y-11000000D03*
X32000000Y-11000000D03*
X30000000Y-11000000D03*
X15000000Y500000D03*
X40000000Y-51000000D03*
X40000000Y-46500000D03*
X40000000Y-41000000D03*
X40000000Y-36000000D03*
X40000000Y-31000000D03*
X40000000Y-26000000D03*
X40000000Y-21000000D03*
X40000000Y-16000000D03*
X28000000Y-50000000D03*
X28000000Y-45000000D03*
X28000000Y-40000000D03*
X28000000Y-35000000D03*
X28000000Y-30000000D03*
X28000000Y-25000000D03*
X28000000Y-20000000D03*
X28000000Y-15000000D03*
X25500000Y-50000000D03*
X25500000Y-45000000D03*
X25500000Y-40000000D03*
X25500000Y-35000000D03*
X25500000Y-30000000D03*
X25500000Y-25000000D03*
X25500000Y-20000000D03*
X25500000Y-15000000D03*
X17000000Y-16000000D03*
X17000000Y-21000000D03*
X17000000Y-26000000D03*
X17000000Y-31000000D03*
X17000000Y-51000000D03*
X17000000Y-45999996D03*
X17000000Y-41000016D03*
X17000000Y-36000000D03*
X-22750000Y-37000000D03*
X0Y-48000000D03*
X0Y-44000000D03*
X0Y-39000000D03*
X0Y-34000000D03*
X0Y-29000000D03*
X0Y-19000000D03*
X0Y-24000000D03*
X1500000Y-14000000D03*
X-1500000Y-4500000D03*
X-2500000Y-7500000D03*
X-2500000Y-14000000D03*
X-2500000Y-21000000D03*
X-2500000Y-28500000D03*
X-3000000Y-35000000D03*
X-3000000Y-38000000D03*
X-2500000Y-43000000D03*
X-3000000Y-50000000D03*
D23*
X-19500000Y-50500000D03*
X10000000Y-49000000D03*
X-20000000Y-40000000D03*
X10000000Y-44000000D03*
X10000000Y-39000000D03*
X10000000Y-34000000D03*
X-10857683Y-21728769D03*
X-14500000Y-43000000D03*
X10000000Y-29000000D03*
D22*
X-9825010Y-14725961D03*
D23*
X-12824990Y-36500000D03*
X10000000Y-24000000D03*
X-13076368Y-20371758D03*
X-12500000Y-7800011D03*
X10000000Y-19000000D03*
X6000000Y-48000000D03*
X6000000Y-44000000D03*
X6000000Y-39000000D03*
X6000000Y-34000000D03*
X6000000Y-29000000D03*
X6000000Y-24000000D03*
X6000000Y-19000000D03*
X6000000Y-14000000D03*
X27000000Y3000000D03*
X30000000Y3000000D03*
X32000000Y3000000D03*
X34000000Y3000000D03*
X36000000Y3000000D03*
X-13699968Y-19745661D03*
X-14500000Y-41500000D03*
X38000000Y3000000D03*
X-12250000Y-13000000D03*
X-12750000Y-31750000D03*
X40000000Y3000000D03*
X-17785605Y3750000D03*
X-13500000Y-2250000D03*
X-9000000Y-22500000D03*
X-10602305Y-6102305D03*
X-11324990Y-14000000D03*
X10000000Y-14000000D03*
X42000000Y3000000D03*
X-17500000Y-1250000D03*
X-18000000Y-11500000D03*
D24*
X36000000Y-11000000D02*
X35000000Y-11000000D01*
X34000000Y-11000000D02*
X35000000Y-11000000D01*
X32000000Y-11000000D02*
X31000000Y-11000000D01*
X28000000Y-15000000D02*
X28000000Y-16000000D01*
X17000000Y-16000000D02*
X17500000Y-16500000D01*
X15500000Y-52500000D02*
X17000000Y-51000000D01*
X16550001Y-46449995D02*
X17000000Y-45999996D01*
X15500000Y-47499996D02*
X16550001Y-46449995D01*
X15500000Y-47500000D02*
X15500000Y-47499996D01*
X16550001Y-41450015D02*
X17000000Y-41000016D01*
X15500000Y-42500000D02*
X15500016Y-42500000D01*
X15500016Y-42500000D02*
X16550001Y-41450015D01*
X-23200000Y-38561510D02*
X-23200000Y-37450000D01*
X-23200000Y-37450000D02*
X-22750000Y-37000000D01*
X-26000000Y-45500000D02*
X-25111510Y-45500000D01*
X-25111510Y-45500000D02*
X-23200000Y-47411510D01*
X-23200000Y-47411510D02*
X-23200000Y-48561510D01*
X-23200000Y-38561510D02*
X-23200000Y-42061510D01*
X-26000000Y-29500000D02*
X-24138490Y-29500000D01*
X-24138490Y-29500000D02*
X-23200000Y-28561510D01*
X-26000000Y-21500000D02*
X-23761510Y-21500000D01*
X-23761510Y-21500000D02*
X-23200000Y-22061510D01*
X-23200000Y-18561510D02*
X-23200000Y-22061510D01*
X-23200000Y-12061510D02*
X-23200000Y-13211510D01*
X-23200000Y-13211510D02*
X-23750001Y-13761511D01*
X-23750001Y-13761511D02*
X-23750001Y-16861509D01*
X-23750001Y-16861509D02*
X-23200000Y-17411510D01*
X-23200000Y-17411510D02*
X-23200000Y-18561510D01*
D25*
X-1250000Y-51500000D02*
X-1250000Y-49000000D01*
X-1250000Y-49000000D02*
X-1250000Y-45000000D01*
D24*
X0Y-48000000D02*
X-1000000Y-49000000D01*
X-1000000Y-49000000D02*
X-1250000Y-49000000D01*
D25*
X-1250000Y-45000000D02*
X-1250000Y-44000000D01*
D24*
X0Y-44000000D02*
X-1000000Y-45000000D01*
X-1000000Y-45000000D02*
X-1250000Y-45000000D01*
D25*
X-1250000Y-44000000D02*
X-1250000Y-40000000D01*
X-1250000Y-40000000D02*
X-1250000Y-39000000D01*
D24*
X0Y-39000000D02*
X-1000000Y-40000000D01*
X-1000000Y-40000000D02*
X-1250000Y-40000000D01*
D25*
X-1250000Y-36000000D02*
X-1250000Y-35500000D01*
X-1250000Y-35500000D02*
X-1250000Y-30000000D01*
D24*
X0Y-34000000D02*
X-1250000Y-35250000D01*
X-1250000Y-35250000D02*
X-1250000Y-35500000D01*
X-1000000Y-30000000D02*
X-1250000Y-30000000D01*
D25*
X-1250000Y-30000000D02*
X-1250000Y-29500000D01*
D24*
X0Y-29000000D02*
X-1000000Y-30000000D01*
X-449999Y-19449999D02*
X0Y-19000000D01*
X-1250000Y-20000000D02*
X-1000000Y-20000000D01*
X-1000000Y-20000000D02*
X-449999Y-19449999D01*
D25*
X-1250000Y-29500000D02*
X-1250000Y-25500000D01*
X-1250000Y-25500000D02*
X-1250000Y-22000000D01*
D24*
X0Y-24000000D02*
X-1250000Y-25250000D01*
X-1250000Y-25250000D02*
X-1250000Y-25500000D01*
D25*
X-1250000Y-22000000D02*
X-1250000Y-20000000D01*
X-1250000Y-20000000D02*
X-1250000Y-17000000D01*
D24*
X1500000Y-14000000D02*
X-250000Y-14000000D01*
X-250000Y-14000000D02*
X-1250000Y-15000000D01*
D25*
X-1500000Y-5136396D02*
X-1500000Y-4500000D01*
X-1500000Y-8750000D02*
X-1500000Y-5136396D01*
X-1250000Y-9000000D02*
X-1500000Y-8750000D01*
D24*
X-2500000Y-7500000D02*
X-1250000Y-8750000D01*
X-1250000Y-8750000D02*
X-1250000Y-9000000D01*
D25*
X-1250000Y-17000000D02*
X-1250000Y-15000000D01*
X-1250000Y-15000000D02*
X-1250000Y-9000000D01*
D24*
X-2500000Y-14000000D02*
X-1500000Y-15000000D01*
X-1500000Y-15000000D02*
X-1250000Y-15000000D01*
X-2500000Y-21000000D02*
X-1500000Y-22000000D01*
X-1500000Y-22000000D02*
X-1250000Y-22000000D01*
X-2500000Y-28500000D02*
X-1500000Y-29500000D01*
X-1500000Y-29500000D02*
X-1250000Y-29500000D01*
D25*
X-1250000Y-38000000D02*
X-1250000Y-36000000D01*
D24*
X-3000000Y-35000000D02*
X-2250000Y-35000000D01*
X-2250000Y-35000000D02*
X-1250000Y-36000000D01*
D25*
X-1250000Y-39000000D02*
X-1250000Y-38000000D01*
D24*
X-3000000Y-38000000D02*
X-2250000Y-38000000D01*
X-2250000Y-38000000D02*
X-1250000Y-39000000D01*
X-2500000Y-43000000D02*
X-1500000Y-44000000D01*
X-1500000Y-44000000D02*
X-1250000Y-44000000D01*
D25*
X-1250000Y-59000000D02*
X-1250000Y-51500000D01*
D24*
X-3000000Y-50000000D02*
X-1500000Y-51500000D01*
X-1500000Y-51500000D02*
X-1250000Y-51500000D01*
X-20000000Y-48561510D02*
X-20000000Y-50000000D01*
X-20000000Y-50000000D02*
X-19500000Y-50500000D01*
D26*
X8749300Y-49000000D02*
X10000000Y-49000000D01*
D24*
X-20000000Y-38561510D02*
X-20000000Y-40000000D01*
D26*
X8749300Y-44000000D02*
X10000000Y-44000000D01*
D24*
X-24500000Y-30500000D02*
X-26000000Y-32000000D01*
X-26000000Y-32000000D02*
X-26000000Y-33500000D01*
X-20788490Y-30500000D02*
X-24500000Y-30500000D01*
X-20000000Y-28561510D02*
X-20000000Y-29711510D01*
X-20000000Y-29711510D02*
X-20788490Y-30500000D01*
D26*
X8749300Y-39000000D02*
X10000000Y-39000000D01*
D24*
X-20000000Y-18561510D02*
X-20000000Y-19711510D01*
X-20000000Y-19711510D02*
X-21500000Y-21211510D01*
X-21500000Y-21211510D02*
X-21500000Y-22761512D01*
X-21500000Y-22761512D02*
X-22738488Y-24000000D01*
X-22738488Y-24000000D02*
X-24250000Y-24000000D01*
X-24250000Y-24000000D02*
X-25750000Y-25500000D01*
X-25750000Y-25500000D02*
X-26000000Y-25500000D01*
D26*
X8749300Y-34000000D02*
X10000000Y-34000000D01*
D24*
X-10857683Y-39357683D02*
X-10857683Y-22153033D01*
X-14500000Y-43000000D02*
X-10857683Y-39357683D01*
X-10857683Y-22153033D02*
X-10857683Y-21728769D01*
D26*
X8749300Y-29000000D02*
X10000000Y-29000000D01*
D24*
X-12824990Y-36500000D02*
X-11999999Y-35675009D01*
X-11424989Y-21238177D02*
X-11424989Y-16325940D01*
X-11999999Y-21813187D02*
X-11424989Y-21238177D01*
X-11999999Y-35675009D02*
X-11999999Y-21813187D01*
X-11424989Y-16325940D02*
X-10275009Y-15175960D01*
X-10275009Y-15175960D02*
X-9825010Y-14725961D01*
D26*
X8749300Y-24000000D02*
X10000000Y-24000000D01*
D24*
X-12949966Y-19385659D02*
X-12949966Y-20245356D01*
X-13000000Y-19335625D02*
X-12949966Y-19385659D01*
X-13000000Y-8300011D02*
X-13000000Y-19335625D01*
X-12500000Y-7800011D02*
X-13000000Y-8300011D01*
X-12949966Y-20245356D02*
X-13076368Y-20371758D01*
D26*
X8749300Y-19000000D02*
X10000000Y-19000000D01*
X6000000Y-48000000D02*
X6250700Y-48000000D01*
X6250700Y-48000000D02*
X7250700Y-49000000D01*
X6000000Y-44000000D02*
X7250700Y-44000000D01*
X6000000Y-39000000D02*
X7250700Y-39000000D01*
X6000000Y-34000000D02*
X7250700Y-34000000D01*
X6000000Y-29000000D02*
X7250700Y-29000000D01*
X6000000Y-24000000D02*
X7250700Y-24000000D01*
X6000000Y-19000000D02*
X7250700Y-19000000D01*
X6000000Y-14000000D02*
X7250700Y-14000000D01*
X27000000Y3000000D02*
X26000000Y3000000D01*
X-13000000Y3000000D02*
X27000000Y3000000D01*
X-13000000Y3000000D02*
X-14374977Y1625023D01*
X-14374977Y1625023D02*
X-14374977Y-38936487D01*
X-14374977Y-38936487D02*
X-15000000Y-39561510D01*
X-16500000Y-41061510D02*
X-15000000Y-39561510D01*
X-16500000Y-42061510D02*
X-16500000Y-41061510D01*
X-18000000Y-48061510D02*
X-18000000Y-44561510D01*
X-18000000Y-44561510D02*
X-16500000Y-43061510D01*
X-16500000Y-43061510D02*
X-16500000Y-42061510D01*
X-16500000Y-48561510D02*
X-17500000Y-48561510D01*
X-17500000Y-48561510D02*
X-18000000Y-48061510D01*
X-26000000Y-51500000D02*
X-18438490Y-51500000D01*
X-18438490Y-51500000D02*
X-16500000Y-49561510D01*
X-16500000Y-49561510D02*
X-16500000Y-48561510D01*
X27000064Y3999936D02*
X29000064Y3999936D01*
X29000064Y3999936D02*
X30000000Y3000000D01*
X-16500000Y-31061510D02*
X-14874988Y-29436498D01*
X-14874988Y-29436498D02*
X-14874988Y2417890D01*
X-14874988Y2417890D02*
X-13292942Y3999936D01*
X-13292942Y3999936D02*
X27000064Y3999936D01*
X-16500000Y-32061510D02*
X-16500000Y-31061510D01*
X-18000000Y-38061510D02*
X-18000000Y-34561510D01*
X-18000000Y-34561510D02*
X-16500000Y-33061510D01*
X-16500000Y-33061510D02*
X-16500000Y-32061510D01*
X-17500000Y-38561510D02*
X-18000000Y-38061510D01*
X-21924999Y-41924999D02*
X-20936509Y-40936509D01*
X-20936509Y-40936509D02*
X-19874999Y-40936509D01*
X-19874999Y-40936509D02*
X-17500000Y-38561510D01*
X-17500000Y-38561510D02*
X-16500000Y-38561510D01*
X-26000000Y-43500000D02*
X-22193488Y-43500000D01*
X-22193488Y-43500000D02*
X-21924999Y-43231511D01*
X-21924999Y-43231511D02*
X-21924999Y-41924999D01*
X-16500000Y-22061510D02*
X-16500000Y-21061510D01*
X-15374998Y2625000D02*
X-13500052Y4499946D01*
X-16500000Y-21061510D02*
X-15374998Y-19936508D01*
X31000000Y4000000D02*
X32000000Y3000000D01*
X-15374998Y-19936508D02*
X-15374998Y2625000D01*
X-13500052Y4499946D02*
X30500054Y4499946D01*
X30500054Y4499946D02*
X31000000Y4000000D01*
X-16500000Y-28561510D02*
X-16500000Y-27561510D01*
X-16500000Y-27561510D02*
X-17625001Y-26436509D01*
X-17625001Y-26436509D02*
X-17625001Y-24186511D01*
X-17625001Y-24186511D02*
X-16500000Y-23061510D01*
X-16500000Y-23061510D02*
X-16500000Y-22061510D01*
X-18000000Y-32236512D02*
X-18000000Y-31061510D01*
X-18000000Y-31061510D02*
X-16500000Y-29561510D01*
X-16500000Y-29561510D02*
X-16500000Y-28561510D01*
X-24250000Y-34000000D02*
X-19763488Y-34000000D01*
X-19763488Y-34000000D02*
X-18000000Y-32236512D01*
X-26000000Y-35500000D02*
X-25750000Y-35500000D01*
X-25750000Y-35500000D02*
X-24250000Y-34000000D01*
X32000042Y4999958D02*
X33700001Y3299999D01*
X-14121406Y4999958D02*
X32000042Y4999958D01*
X-16500000Y2621364D02*
X-14121406Y4999958D01*
X33700001Y3299999D02*
X34000000Y3000000D01*
X-16500000Y-12061510D02*
X-16500000Y2621364D01*
X-16500000Y-19561510D02*
X-16500000Y-18561510D01*
X-18186511Y-23186511D02*
X-18186511Y-21248021D01*
X-21436511Y-26436511D02*
X-18186511Y-23186511D01*
X-24686511Y-26436511D02*
X-21436511Y-26436511D01*
X-25750000Y-27500000D02*
X-24686511Y-26436511D01*
X-26000000Y-27500000D02*
X-25750000Y-27500000D01*
X-18186511Y-21248021D02*
X-16500000Y-19561510D01*
X-16500000Y-18561510D02*
X-16500000Y-17561510D01*
X-16500000Y-17561510D02*
X-17625001Y-16436509D01*
X-17625001Y-16436509D02*
X-17625001Y-14186511D01*
X-17625001Y-14186511D02*
X-16500000Y-13061510D01*
X-16500000Y-13061510D02*
X-16500000Y-12061510D01*
X35700001Y3299999D02*
X36000000Y3000000D01*
X33500032Y5499968D02*
X35700001Y3299999D01*
X-14328520Y5499968D02*
X33500032Y5499968D01*
X-18175002Y1653486D02*
X-14328520Y5499968D01*
X-18175002Y-4591510D02*
X-18175002Y1653486D01*
X-24475001Y-10891509D02*
X-18175002Y-4591510D01*
X-24475001Y-18225001D02*
X-24475001Y-10891509D01*
X-25750000Y-19500000D02*
X-24475001Y-18225001D01*
X-26000000Y-19500000D02*
X-25750000Y-19500000D01*
X-13500000Y-40500000D02*
X-13500000Y-20947128D01*
X-14500000Y-41500000D02*
X-13500000Y-40500000D01*
X-13751369Y-19797062D02*
X-13699968Y-19745661D01*
X-13751369Y-20695759D02*
X-13751369Y-19797062D01*
X-13500000Y-20947128D02*
X-13751369Y-20695759D01*
X16000000Y5999979D02*
X35000021Y5999979D01*
X35000021Y5999979D02*
X37000000Y4000000D01*
X37000000Y4000000D02*
X38000000Y3000000D01*
X-18675012Y1860598D02*
X-14535631Y5999979D01*
X-14535631Y5999979D02*
X-11464391Y5999979D01*
X-11464391Y5999979D02*
X16000000Y5999979D01*
X-26000000Y-11500000D02*
X-18675013Y-4175013D01*
X-18675013Y-4175013D02*
X-18675012Y1860598D01*
X-12000000Y-13250000D02*
X-12250000Y-13000000D01*
X-12000000Y-15750000D02*
X-12000000Y-15500000D01*
X-12000000Y-21000000D02*
X-12000000Y-15750000D01*
X-12000000Y-15750000D02*
X-12000000Y-13250000D01*
X-12750000Y-21750000D02*
X-12000000Y-21000000D01*
X-12750000Y-31750000D02*
X-12750000Y-21750000D01*
X16000000Y5999979D02*
X16414223Y5999979D01*
X-15035615Y6499990D02*
X-17785605Y3750000D01*
X40000000Y3000000D02*
X36500011Y6499989D01*
X36500011Y6499989D02*
X-15035615Y6499990D01*
X-15035615Y6499990D02*
X-24185605Y-2650000D01*
X-24185605Y-2650000D02*
X-24900000Y-2650000D01*
X-24900000Y-2650000D02*
X-25750000Y-3500000D01*
X-25750000Y-3500000D02*
X-26000000Y-3500000D01*
X-9000000Y-6750000D02*
X-13500000Y-2250000D01*
X-9000000Y-22500000D02*
X-9000000Y-6750000D01*
D24*
X-11324990Y-6824990D02*
X-10902304Y-6402304D01*
X-10902304Y-6402304D02*
X-10602305Y-6102305D01*
X-11324990Y-14000000D02*
X-11324990Y-6824990D01*
D26*
X8749300Y-14000000D02*
X10000000Y-14000000D01*
X-26000000Y4500000D02*
X-18500000Y4500000D01*
X-18500000Y4500000D02*
X-16000000Y7000000D01*
X-16000000Y7000000D02*
X31585756Y7000000D01*
X31585756Y7000000D02*
X31585777Y7000021D01*
X31585777Y7000021D02*
X32414224Y7000020D01*
X32414224Y7000020D02*
X32414244Y7000000D01*
X32414244Y7000000D02*
X38000000Y7000000D01*
X38000000Y7000000D02*
X41700001Y3299999D01*
X41700001Y3299999D02*
X42000000Y3000000D01*
X-17500000Y-11000000D02*
X-17500000Y-1250000D01*
X-18000000Y-11500000D02*
X-17500000Y-11000000D01*
D27*
G36*
X64873000Y-785198D02*
X64620744Y-1162725D01*
X64563143Y-1301789D01*
X64518463Y-1409654D01*
X64328162Y-2366363D01*
X64328162Y-2394311D01*
X64237313Y-2174439D01*
X63330336Y-1265877D01*
X62144706Y-773561D01*
X60860926Y-772441D01*
X59674439Y-1262687D01*
X58765877Y-2169664D01*
X58273561Y-3355294D01*
X58272441Y-4639074D01*
X58762687Y-5825561D01*
X59669664Y-6734123D01*
X60855294Y-7226439D01*
X62139074Y-7227559D01*
X63325561Y-6737313D01*
X64234123Y-5830336D01*
X64315000Y-5635562D01*
X64315000Y-51362456D01*
X64237313Y-51174439D01*
X63330336Y-50265877D01*
X62144706Y-49773561D01*
X60860926Y-49772441D01*
X59674439Y-50262687D01*
X58765877Y-51169664D01*
X58273561Y-52355294D01*
X58272441Y-53639074D01*
X58762687Y-54825561D01*
X59669664Y-55734123D01*
X60855294Y-56226439D01*
X62139074Y-56227559D01*
X63325561Y-55737313D01*
X64234123Y-54830336D01*
X64315000Y-54635562D01*
X64315000Y-55000000D01*
X64328162Y-55066170D01*
X64328162Y-55133637D01*
X64518463Y-56090346D01*
X64560830Y-56192627D01*
X64620744Y-56337275D01*
X64873000Y-56714802D01*
X64873000Y-65265000D01*
X-25000000Y-65265000D01*
X-25091950Y-65283290D01*
X-25689435Y-65164443D01*
X-26273911Y-64773908D01*
X-26664443Y-64189435D01*
X-26783290Y-63591950D01*
X-26765000Y-63500000D01*
X-26765000Y-59693480D01*
X-22635000Y-59693480D01*
X-22635000Y-62306520D01*
X-22510543Y-62932207D01*
X-22156120Y-63462640D01*
X-21625687Y-63817063D01*
X-21000000Y-63941520D01*
X-20374313Y-63817063D01*
X-19843880Y-63462640D01*
X-19489457Y-62932207D01*
X-19365000Y-62306520D01*
X-19365000Y-61127000D01*
X-16635000Y-61127000D01*
X-16635000Y-62377000D01*
X-16461942Y-62993020D01*
X-16066317Y-63495922D01*
X-15508355Y-63809144D01*
X-15380434Y-63840124D01*
X-15127000Y-63720777D01*
X-15127000Y-61127000D01*
X-14873000Y-61127000D01*
X-14873000Y-63720777D01*
X-14619566Y-63840124D01*
X-14491645Y-63809144D01*
X-14295468Y-63699016D01*
X-1969410Y-63699016D01*
X-1913729Y-63929611D01*
X-1430922Y-64097622D01*
X-920572Y-64068083D01*
X-586271Y-63929611D01*
X-530590Y-63699016D01*
X-1250000Y-62979605D01*
X-1969410Y-63699016D01*
X-14295468Y-63699016D01*
X-13933683Y-63495922D01*
X-13538058Y-62993020D01*
X-13433007Y-62619078D01*
X-2547622Y-62619078D01*
X-2518083Y-63129428D01*
X-2379611Y-63463729D01*
X-2149016Y-63519410D01*
X-1429605Y-62800000D01*
X-1070395Y-62800000D01*
X-350984Y-63519410D01*
X-120389Y-63463729D01*
X47622Y-62980922D01*
X18083Y-62470572D01*
X-120389Y-62136271D01*
X-350984Y-62080590D01*
X-1070395Y-62800000D01*
X-1429605Y-62800000D01*
X-2149016Y-62080590D01*
X-2379611Y-62136271D01*
X-2547622Y-62619078D01*
X-13433007Y-62619078D01*
X-13365000Y-62377000D01*
X-13365000Y-61900984D01*
X-1969410Y-61900984D01*
X-1250000Y-62620395D01*
X-530590Y-61900984D01*
X-542900Y-61850000D01*
X19202560Y-61850000D01*
X19202560Y-63150000D01*
X19251843Y-63397765D01*
X19392191Y-63607809D01*
X19602235Y-63748157D01*
X19850000Y-63797440D01*
X21150000Y-63797440D01*
X21397765Y-63748157D01*
X21607809Y-63607809D01*
X21748157Y-63397765D01*
X21797440Y-63150000D01*
X21797440Y-61850000D01*
X21748157Y-61602235D01*
X21607809Y-61392191D01*
X21397765Y-61251843D01*
X21150000Y-61202560D01*
X19850000Y-61202560D01*
X19602235Y-61251843D01*
X19392191Y-61392191D01*
X19251843Y-61602235D01*
X19202560Y-61850000D01*
X-542900Y-61850000D01*
X-586271Y-61670389D01*
X-1069078Y-61502378D01*
X-1579428Y-61531917D01*
X-1913729Y-61670389D01*
X-1969410Y-61900984D01*
X-13365000Y-61900984D01*
X-13365000Y-61127000D01*
X-14873000Y-61127000D01*
X-15127000Y-61127000D01*
X-16635000Y-61127000D01*
X-19365000Y-61127000D01*
X-19365000Y-59693480D01*
X-19379019Y-59623000D01*
X-16635000Y-59623000D01*
X-16635000Y-60873000D01*
X-15127000Y-60873000D01*
X-15127000Y-58279223D01*
X-14873000Y-58279223D01*
X-14873000Y-60873000D01*
X-13365000Y-60873000D01*
X-13365000Y-59623000D01*
X-13538058Y-59006980D01*
X-13933683Y-58504078D01*
X-14491645Y-58190856D01*
X-14619566Y-58159876D01*
X-14873000Y-58279223D01*
X-15127000Y-58279223D01*
X-15380434Y-58159876D01*
X-15508355Y-58190856D01*
X-16066317Y-58504078D01*
X-16461942Y-59006980D01*
X-16635000Y-59623000D01*
X-19379019Y-59623000D01*
X-19489457Y-59067793D01*
X-19843880Y-58537360D01*
X-20374313Y-58182937D01*
X-21000000Y-58058480D01*
X-21625687Y-58182937D01*
X-22156120Y-58537360D01*
X-22510543Y-59067793D01*
X-22635000Y-59693480D01*
X-26765000Y-59693480D01*
X-26765000Y-56350000D01*
X-20186623Y-56350000D01*
X-20062166Y-56975687D01*
X-19707743Y-57506120D01*
X-19177310Y-57860543D01*
X-18551623Y-57985000D01*
X-16448377Y-57985000D01*
X-15822690Y-57860543D01*
X-15292257Y-57506120D01*
X-14937834Y-56975687D01*
X-14920606Y-56889074D01*
X-12727559Y-56889074D01*
X-12237313Y-58075561D01*
X-11330336Y-58984123D01*
X-10144706Y-59476439D01*
X-8860926Y-59477559D01*
X-7674439Y-58987313D01*
X-6765877Y-58080336D01*
X-6273561Y-56894706D01*
X-6272441Y-55610926D01*
X-6762687Y-54424439D01*
X-7669664Y-53515877D01*
X-8855294Y-53023561D01*
X-10139074Y-53022441D01*
X-11325561Y-53512687D01*
X-12234123Y-54419664D01*
X-12726439Y-55605294D01*
X-12727559Y-56889074D01*
X-14920606Y-56889074D01*
X-14813377Y-56350000D01*
X-14937834Y-55724313D01*
X-15292257Y-55193880D01*
X-15822690Y-54839457D01*
X-16448377Y-54715000D01*
X-18551623Y-54715000D01*
X-19177310Y-54839457D01*
X-19707743Y-55193880D01*
X-20062166Y-55724313D01*
X-20186623Y-56350000D01*
X-26765000Y-56350000D01*
X-26765000Y-54632109D01*
X-26751707Y-54640991D01*
X-26279093Y-54735000D01*
X-25720907Y-54735000D01*
X-25248293Y-54640991D01*
X-24847630Y-54373277D01*
X-24579916Y-53972614D01*
X-24485907Y-53500000D01*
X-24579916Y-53027386D01*
X-24847630Y-52626723D01*
X-25037285Y-52500000D01*
X-24847630Y-52373277D01*
X-24771941Y-52260000D01*
X-18438490Y-52260000D01*
X-18147651Y-52202148D01*
X-17901089Y-52037401D01*
X-15962599Y-50098911D01*
X-15869080Y-49958950D01*
X-15750000Y-49958950D01*
X-15502235Y-49909667D01*
X-15292191Y-49769319D01*
X-15151843Y-49559275D01*
X-15102560Y-49311510D01*
X-15102560Y-47811510D01*
X-15151843Y-47563745D01*
X-15292191Y-47353701D01*
X-15502235Y-47213353D01*
X-15750000Y-47164070D01*
X-17240000Y-47164070D01*
X-17240000Y-46503891D01*
X-16776702Y-46696269D01*
X-16225715Y-46696750D01*
X-15716485Y-46486341D01*
X-15326539Y-46097074D01*
X-15115241Y-45588212D01*
X-15114760Y-45037225D01*
X-15325169Y-44527995D01*
X-15714436Y-44138049D01*
X-16223298Y-43926751D01*
X-16290380Y-43926692D01*
X-15962599Y-43598911D01*
X-15869080Y-43458950D01*
X-15750000Y-43458950D01*
X-15502235Y-43409667D01*
X-15376982Y-43325975D01*
X-15293117Y-43528943D01*
X-15030327Y-43792192D01*
X-14686799Y-43934838D01*
X-14314833Y-43935162D01*
X-13971057Y-43793117D01*
X-13707808Y-43530327D01*
X-13607222Y-43288090D01*
X-10267249Y-39948117D01*
X-10191667Y-39835000D01*
X-10086244Y-39677224D01*
X-10022683Y-39357683D01*
X-10022683Y-35214873D01*
X-4085188Y-35214873D01*
X-3920354Y-35613800D01*
X-3615405Y-35919282D01*
X-3216767Y-36084811D01*
X-2785127Y-36085188D01*
X-2474167Y-35956701D01*
X-2335000Y-36095868D01*
X-2335000Y-37130400D01*
X-2384595Y-37080718D01*
X-2783233Y-36915189D01*
X-3214873Y-36914812D01*
X-3613800Y-37079646D01*
X-3919282Y-37384595D01*
X-4084811Y-37783233D01*
X-4085188Y-38214873D01*
X-3920354Y-38613800D01*
X-3615405Y-38919282D01*
X-3216767Y-39084811D01*
X-2785127Y-39085188D01*
X-2474167Y-38956701D01*
X-2335000Y-39095868D01*
X-2335000Y-41915144D01*
X-2714873Y-41914812D01*
X-3113800Y-42079646D01*
X-3419282Y-42384595D01*
X-3584811Y-42783233D01*
X-3585188Y-43214873D01*
X-3420354Y-43613800D01*
X-3115405Y-43919282D01*
X-2716767Y-44084811D01*
X-2595951Y-44084917D01*
X-2335000Y-44345868D01*
X-2335000Y-49130400D01*
X-2384595Y-49080718D01*
X-2783233Y-48915189D01*
X-3214873Y-48914812D01*
X-3613800Y-49079646D01*
X-3919282Y-49384595D01*
X-4084811Y-49783233D01*
X-4085188Y-50214873D01*
X-3920354Y-50613800D01*
X-3615405Y-50919282D01*
X-3216767Y-51084811D01*
X-3095951Y-51084917D01*
X-2335000Y-51845868D01*
X-2335000Y-57876950D01*
X-2357809Y-57892191D01*
X-2498157Y-58102235D01*
X-2547440Y-58350000D01*
X-2547440Y-59650000D01*
X-2498157Y-59897765D01*
X-2357809Y-60107809D01*
X-2147765Y-60248157D01*
X-1900000Y-60297440D01*
X-600000Y-60297440D01*
X-352235Y-60248157D01*
X-142191Y-60107809D01*
X-1843Y-59897765D01*
X47440Y-59650000D01*
X47440Y-59599016D01*
X19780590Y-59599016D01*
X19836271Y-59829611D01*
X20319078Y-59997622D01*
X20829428Y-59968083D01*
X21163729Y-59829611D01*
X21219410Y-59599016D01*
X20500000Y-58879605D01*
X19780590Y-59599016D01*
X47440Y-59599016D01*
X47440Y-58519078D01*
X19202378Y-58519078D01*
X19231917Y-59029428D01*
X19370389Y-59363729D01*
X19600984Y-59419410D01*
X20320395Y-58700000D01*
X20679605Y-58700000D01*
X21399016Y-59419410D01*
X21629611Y-59363729D01*
X21797622Y-58880922D01*
X21768083Y-58370572D01*
X21629611Y-58036271D01*
X21399016Y-57980590D01*
X20679605Y-58700000D01*
X20320395Y-58700000D01*
X19600984Y-57980590D01*
X19370389Y-58036271D01*
X19202378Y-58519078D01*
X47440Y-58519078D01*
X47440Y-58350000D01*
X-1843Y-58102235D01*
X-142191Y-57892191D01*
X-165000Y-57876950D01*
X-165000Y-57800984D01*
X19780590Y-57800984D01*
X20500000Y-58520395D01*
X21219410Y-57800984D01*
X21163729Y-57570389D01*
X20680922Y-57402378D01*
X20170572Y-57431917D01*
X19836271Y-57570389D01*
X19780590Y-57800984D01*
X-165000Y-57800984D01*
X-165000Y-56889074D01*
X29272441Y-56889074D01*
X29762687Y-58075561D01*
X30669664Y-58984123D01*
X31855294Y-59476439D01*
X33139074Y-59477559D01*
X34325561Y-58987313D01*
X35234123Y-58080336D01*
X35726439Y-56894706D01*
X35727559Y-55610926D01*
X35237313Y-54424439D01*
X34330336Y-53515877D01*
X33144706Y-53023561D01*
X31860926Y-53022441D01*
X30674439Y-53512687D01*
X29765877Y-54419664D01*
X29273561Y-55605294D01*
X29272441Y-56889074D01*
X-165000Y-56889074D01*
X-165000Y-53639074D01*
X272441Y-53639074D01*
X762687Y-54825561D01*
X1669664Y-55734123D01*
X2855294Y-56226439D01*
X4139074Y-56227559D01*
X5325561Y-55737313D01*
X6234123Y-54830336D01*
X6726439Y-53644706D01*
X6727559Y-52360926D01*
X6237313Y-51174439D01*
X5330336Y-50265877D01*
X4144706Y-49773561D01*
X2860926Y-49772441D01*
X1674439Y-50262687D01*
X765877Y-51169664D01*
X273561Y-52355294D01*
X272441Y-53639074D01*
X-165000Y-53639074D01*
X-165000Y-49345868D01*
X95784Y-49085084D01*
X214873Y-49085188D01*
X613800Y-48920354D01*
X919282Y-48615405D01*
X1084811Y-48216767D01*
X1084838Y-48185167D01*
X5064838Y-48185167D01*
X5206883Y-48528943D01*
X5469673Y-48792192D01*
X5813201Y-48934838D01*
X6110995Y-48935097D01*
X6204480Y-49028582D01*
X6204480Y-49398780D01*
X6253763Y-49646545D01*
X6394111Y-49856589D01*
X6604155Y-49996937D01*
X6851920Y-50046220D01*
X7649480Y-50046220D01*
X7897245Y-49996937D01*
X8000000Y-49928278D01*
X8102755Y-49996937D01*
X8350520Y-50046220D01*
X9148080Y-50046220D01*
X9395845Y-49996937D01*
X9605889Y-49856589D01*
X9609987Y-49850456D01*
X9813201Y-49934838D01*
X10185167Y-49935162D01*
X10528943Y-49793117D01*
X10792192Y-49530327D01*
X10934838Y-49186799D01*
X10935162Y-48814833D01*
X10793117Y-48471057D01*
X10530327Y-48207808D01*
X10186799Y-48065162D01*
X9814833Y-48064838D01*
X9609953Y-48149493D01*
X9605889Y-48143411D01*
X9395845Y-48003063D01*
X9148080Y-47953780D01*
X8350520Y-47953780D01*
X8102755Y-48003063D01*
X8000000Y-48071722D01*
X7897245Y-48003063D01*
X7649480Y-47953780D01*
X7279282Y-47953780D01*
X6788101Y-47462599D01*
X6777809Y-47455722D01*
X6530327Y-47207808D01*
X6186799Y-47065162D01*
X5814833Y-47064838D01*
X5471057Y-47206883D01*
X5207808Y-47469673D01*
X5065162Y-47813201D01*
X5064838Y-48185167D01*
X1084838Y-48185167D01*
X1085188Y-47785127D01*
X920354Y-47386200D01*
X615405Y-47080718D01*
X216767Y-46915189D01*
X-165000Y-46914856D01*
X-165000Y-45345868D01*
X95784Y-45085084D01*
X214873Y-45085188D01*
X613800Y-44920354D01*
X919282Y-44615405D01*
X1084811Y-44216767D01*
X1084838Y-44185167D01*
X5064838Y-44185167D01*
X5206883Y-44528943D01*
X5469673Y-44792192D01*
X5813201Y-44934838D01*
X6185167Y-44935162D01*
X6390047Y-44850507D01*
X6394111Y-44856589D01*
X6604155Y-44996937D01*
X6851920Y-45046220D01*
X7649480Y-45046220D01*
X7897245Y-44996937D01*
X8000000Y-44928278D01*
X8102755Y-44996937D01*
X8350520Y-45046220D01*
X9148080Y-45046220D01*
X9395845Y-44996937D01*
X9605889Y-44856589D01*
X9609987Y-44850456D01*
X9813201Y-44934838D01*
X10185167Y-44935162D01*
X10528943Y-44793117D01*
X10792192Y-44530327D01*
X10934838Y-44186799D01*
X10935162Y-43814833D01*
X10793117Y-43471057D01*
X10530327Y-43207808D01*
X10186799Y-43065162D01*
X9814833Y-43064838D01*
X9609953Y-43149493D01*
X9605889Y-43143411D01*
X9395845Y-43003063D01*
X9148080Y-42953780D01*
X8350520Y-42953780D01*
X8102755Y-43003063D01*
X8000000Y-43071722D01*
X7897245Y-43003063D01*
X7649480Y-42953780D01*
X6851920Y-42953780D01*
X6604155Y-43003063D01*
X6394111Y-43143411D01*
X6390013Y-43149544D01*
X6186799Y-43065162D01*
X5814833Y-43064838D01*
X5471057Y-43206883D01*
X5207808Y-43469673D01*
X5065162Y-43813201D01*
X5064838Y-44185167D01*
X1084838Y-44185167D01*
X1085188Y-43785127D01*
X920354Y-43386200D01*
X615405Y-43080718D01*
X216767Y-42915189D01*
X-165000Y-42914856D01*
X-165000Y-40345868D01*
X95784Y-40085084D01*
X214873Y-40085188D01*
X613800Y-39920354D01*
X919282Y-39615405D01*
X1084811Y-39216767D01*
X1084838Y-39185167D01*
X5064838Y-39185167D01*
X5206883Y-39528943D01*
X5469673Y-39792192D01*
X5813201Y-39934838D01*
X6185167Y-39935162D01*
X6390047Y-39850507D01*
X6394111Y-39856589D01*
X6604155Y-39996937D01*
X6851920Y-40046220D01*
X7649480Y-40046220D01*
X7897245Y-39996937D01*
X8000000Y-39928278D01*
X8102755Y-39996937D01*
X8350520Y-40046220D01*
X9148080Y-40046220D01*
X9395845Y-39996937D01*
X9605889Y-39856589D01*
X9609987Y-39850456D01*
X9813201Y-39934838D01*
X10185167Y-39935162D01*
X10528943Y-39793117D01*
X10792192Y-39530327D01*
X10934838Y-39186799D01*
X10935162Y-38814833D01*
X10793117Y-38471057D01*
X10530327Y-38207808D01*
X10186799Y-38065162D01*
X9814833Y-38064838D01*
X9609953Y-38149493D01*
X9605889Y-38143411D01*
X9395845Y-38003063D01*
X9148080Y-37953780D01*
X8350520Y-37953780D01*
X8102755Y-38003063D01*
X8000000Y-38071722D01*
X7897245Y-38003063D01*
X7649480Y-37953780D01*
X6851920Y-37953780D01*
X6604155Y-38003063D01*
X6394111Y-38143411D01*
X6390013Y-38149544D01*
X6186799Y-38065162D01*
X5814833Y-38064838D01*
X5471057Y-38206883D01*
X5207808Y-38469673D01*
X5065162Y-38813201D01*
X5064838Y-39185167D01*
X1084838Y-39185167D01*
X1085188Y-38785127D01*
X920354Y-38386200D01*
X615405Y-38080718D01*
X216767Y-37915189D01*
X-165000Y-37914856D01*
X-165000Y-35345868D01*
X95784Y-35085084D01*
X214873Y-35085188D01*
X613800Y-34920354D01*
X919282Y-34615405D01*
X1084811Y-34216767D01*
X1084838Y-34185167D01*
X5064838Y-34185167D01*
X5206883Y-34528943D01*
X5469673Y-34792192D01*
X5813201Y-34934838D01*
X6185167Y-34935162D01*
X6390047Y-34850507D01*
X6394111Y-34856589D01*
X6604155Y-34996937D01*
X6851920Y-35046220D01*
X7649480Y-35046220D01*
X7897245Y-34996937D01*
X8000000Y-34928278D01*
X8102755Y-34996937D01*
X8350520Y-35046220D01*
X9148080Y-35046220D01*
X9395845Y-34996937D01*
X9605889Y-34856589D01*
X9609987Y-34850456D01*
X9813201Y-34934838D01*
X10185167Y-34935162D01*
X10528943Y-34793117D01*
X10792192Y-34530327D01*
X10934838Y-34186799D01*
X10935162Y-33814833D01*
X10793117Y-33471057D01*
X10530327Y-33207808D01*
X10186799Y-33065162D01*
X9814833Y-33064838D01*
X9609953Y-33149493D01*
X9605889Y-33143411D01*
X9395845Y-33003063D01*
X9148080Y-32953780D01*
X8350520Y-32953780D01*
X8102755Y-33003063D01*
X8000000Y-33071722D01*
X7897245Y-33003063D01*
X7649480Y-32953780D01*
X6851920Y-32953780D01*
X6604155Y-33003063D01*
X6394111Y-33143411D01*
X6390013Y-33149544D01*
X6186799Y-33065162D01*
X5814833Y-33064838D01*
X5471057Y-33206883D01*
X5207808Y-33469673D01*
X5065162Y-33813201D01*
X5064838Y-34185167D01*
X1084838Y-34185167D01*
X1085188Y-33785127D01*
X920354Y-33386200D01*
X615405Y-33080718D01*
X216767Y-32915189D01*
X-165000Y-32914856D01*
X-165000Y-30345868D01*
X95784Y-30085084D01*
X214873Y-30085188D01*
X613800Y-29920354D01*
X919282Y-29615405D01*
X1084811Y-29216767D01*
X1084838Y-29185167D01*
X5064838Y-29185167D01*
X5206883Y-29528943D01*
X5469673Y-29792192D01*
X5813201Y-29934838D01*
X6185167Y-29935162D01*
X6390047Y-29850507D01*
X6394111Y-29856589D01*
X6604155Y-29996937D01*
X6851920Y-30046220D01*
X7649480Y-30046220D01*
X7897245Y-29996937D01*
X8000000Y-29928278D01*
X8102755Y-29996937D01*
X8350520Y-30046220D01*
X9148080Y-30046220D01*
X9395845Y-29996937D01*
X9605889Y-29856589D01*
X9609987Y-29850456D01*
X9813201Y-29934838D01*
X10185167Y-29935162D01*
X10528943Y-29793117D01*
X10792192Y-29530327D01*
X10934838Y-29186799D01*
X10935162Y-28814833D01*
X10793117Y-28471057D01*
X10530327Y-28207808D01*
X10186799Y-28065162D01*
X9814833Y-28064838D01*
X9609953Y-28149493D01*
X9605889Y-28143411D01*
X9395845Y-28003063D01*
X9148080Y-27953780D01*
X8350520Y-27953780D01*
X8102755Y-28003063D01*
X8000000Y-28071722D01*
X7897245Y-28003063D01*
X7649480Y-27953780D01*
X6851920Y-27953780D01*
X6604155Y-28003063D01*
X6394111Y-28143411D01*
X6390013Y-28149544D01*
X6186799Y-28065162D01*
X5814833Y-28064838D01*
X5471057Y-28206883D01*
X5207808Y-28469673D01*
X5065162Y-28813201D01*
X5064838Y-29185167D01*
X1084838Y-29185167D01*
X1085188Y-28785127D01*
X920354Y-28386200D01*
X615405Y-28080718D01*
X216767Y-27915189D01*
X-165000Y-27914856D01*
X-165000Y-25345868D01*
X95784Y-25085084D01*
X214873Y-25085188D01*
X613800Y-24920354D01*
X919282Y-24615405D01*
X1084811Y-24216767D01*
X1084838Y-24185167D01*
X5064838Y-24185167D01*
X5206883Y-24528943D01*
X5469673Y-24792192D01*
X5813201Y-24934838D01*
X6185167Y-24935162D01*
X6390047Y-24850507D01*
X6394111Y-24856589D01*
X6604155Y-24996937D01*
X6851920Y-25046220D01*
X7649480Y-25046220D01*
X7897245Y-24996937D01*
X8000000Y-24928278D01*
X8102755Y-24996937D01*
X8350520Y-25046220D01*
X9148080Y-25046220D01*
X9395845Y-24996937D01*
X9605889Y-24856589D01*
X9609987Y-24850456D01*
X9813201Y-24934838D01*
X10185167Y-24935162D01*
X10528943Y-24793117D01*
X10792192Y-24530327D01*
X10934838Y-24186799D01*
X10935162Y-23814833D01*
X10793117Y-23471057D01*
X10530327Y-23207808D01*
X10186799Y-23065162D01*
X9814833Y-23064838D01*
X9609953Y-23149493D01*
X9605889Y-23143411D01*
X9395845Y-23003063D01*
X9148080Y-22953780D01*
X8350520Y-22953780D01*
X8102755Y-23003063D01*
X8000000Y-23071722D01*
X7897245Y-23003063D01*
X7649480Y-22953780D01*
X6851920Y-22953780D01*
X6604155Y-23003063D01*
X6394111Y-23143411D01*
X6390013Y-23149544D01*
X6186799Y-23065162D01*
X5814833Y-23064838D01*
X5471057Y-23206883D01*
X5207808Y-23469673D01*
X5065162Y-23813201D01*
X5064838Y-24185167D01*
X1084838Y-24185167D01*
X1085188Y-23785127D01*
X920354Y-23386200D01*
X615405Y-23080718D01*
X216767Y-22915189D01*
X-165000Y-22914856D01*
X-165000Y-20345868D01*
X95784Y-20085084D01*
X214873Y-20085188D01*
X613800Y-19920354D01*
X919282Y-19615405D01*
X1084811Y-19216767D01*
X1084838Y-19185167D01*
X5064838Y-19185167D01*
X5206883Y-19528943D01*
X5469673Y-19792192D01*
X5813201Y-19934838D01*
X6185167Y-19935162D01*
X6390047Y-19850507D01*
X6394111Y-19856589D01*
X6604155Y-19996937D01*
X6851920Y-20046220D01*
X7649480Y-20046220D01*
X7897245Y-19996937D01*
X8000000Y-19928278D01*
X8102755Y-19996937D01*
X8350520Y-20046220D01*
X9148080Y-20046220D01*
X9395845Y-19996937D01*
X9605889Y-19856589D01*
X9609987Y-19850456D01*
X9813201Y-19934838D01*
X10185167Y-19935162D01*
X10528943Y-19793117D01*
X10792192Y-19530327D01*
X10934838Y-19186799D01*
X10935162Y-18814833D01*
X10793117Y-18471057D01*
X10530327Y-18207808D01*
X10186799Y-18065162D01*
X9814833Y-18064838D01*
X9609953Y-18149493D01*
X9605889Y-18143411D01*
X9395845Y-18003063D01*
X9148080Y-17953780D01*
X8350520Y-17953780D01*
X8102755Y-18003063D01*
X8000000Y-18071722D01*
X7897245Y-18003063D01*
X7649480Y-17953780D01*
X6851920Y-17953780D01*
X6604155Y-18003063D01*
X6394111Y-18143411D01*
X6390013Y-18149544D01*
X6186799Y-18065162D01*
X5814833Y-18064838D01*
X5471057Y-18206883D01*
X5207808Y-18469673D01*
X5065162Y-18813201D01*
X5064838Y-19185167D01*
X1084838Y-19185167D01*
X1085188Y-18785127D01*
X920354Y-18386200D01*
X615405Y-18080718D01*
X216767Y-17915189D01*
X-165000Y-17914856D01*
X-165000Y-15095868D01*
X95868Y-14835000D01*
X800460Y-14835000D01*
X884595Y-14919282D01*
X1283233Y-15084811D01*
X1714873Y-15085188D01*
X2113800Y-14920354D01*
X2419282Y-14615405D01*
X2584811Y-14216767D01*
X2584838Y-14185167D01*
X5064838Y-14185167D01*
X5206883Y-14528943D01*
X5469673Y-14792192D01*
X5813201Y-14934838D01*
X6185167Y-14935162D01*
X6390047Y-14850507D01*
X6394111Y-14856589D01*
X6604155Y-14996937D01*
X6851920Y-15046220D01*
X7649480Y-15046220D01*
X7897245Y-14996937D01*
X8000000Y-14928278D01*
X8102755Y-14996937D01*
X8350520Y-15046220D01*
X9148080Y-15046220D01*
X9395845Y-14996937D01*
X9605889Y-14856589D01*
X9609987Y-14850456D01*
X9813201Y-14934838D01*
X10185167Y-14935162D01*
X10528943Y-14793117D01*
X10792192Y-14530327D01*
X10934838Y-14186799D01*
X10935162Y-13814833D01*
X10793117Y-13471057D01*
X10530327Y-13207808D01*
X10186799Y-13065162D01*
X9814833Y-13064838D01*
X9609953Y-13149493D01*
X9605889Y-13143411D01*
X9395845Y-13003063D01*
X9148080Y-12953780D01*
X8350520Y-12953780D01*
X8102755Y-13003063D01*
X8000000Y-13071722D01*
X7897245Y-13003063D01*
X7649480Y-12953780D01*
X6851920Y-12953780D01*
X6604155Y-13003063D01*
X6394111Y-13143411D01*
X6390013Y-13149544D01*
X6186799Y-13065162D01*
X5814833Y-13064838D01*
X5471057Y-13206883D01*
X5207808Y-13469673D01*
X5065162Y-13813201D01*
X5064838Y-14185167D01*
X2584838Y-14185167D01*
X2585188Y-13785127D01*
X2420354Y-13386200D01*
X2115405Y-13080718D01*
X1716767Y-12915189D01*
X1285127Y-12914812D01*
X886200Y-13079646D01*
X800697Y-13165000D01*
X-165000Y-13165000D01*
X-165000Y-9000000D01*
X-247591Y-8584788D01*
X-415000Y-8334242D01*
X-415000Y-4639074D01*
X272441Y-4639074D01*
X762687Y-5825561D01*
X1669664Y-6734123D01*
X2855294Y-7226439D01*
X4139074Y-7227559D01*
X5325561Y-6737313D01*
X6234123Y-5830336D01*
X6726439Y-4644706D01*
X6726646Y-4406400D01*
X6858960Y-4406400D01*
X6858960Y-6133600D01*
X6908243Y-6381365D01*
X7048591Y-6591409D01*
X7258635Y-6731757D01*
X7506400Y-6781040D01*
X9233600Y-6781040D01*
X9481365Y-6731757D01*
X9691409Y-6591409D01*
X9831757Y-6381365D01*
X9839441Y-6342733D01*
X9850330Y-6359029D01*
X10336511Y-6683885D01*
X10910000Y-6797959D01*
X11483489Y-6683885D01*
X11969670Y-6359029D01*
X12180000Y-6044248D01*
X12390330Y-6359029D01*
X12876511Y-6683885D01*
X13450000Y-6797959D01*
X14023489Y-6683885D01*
X14509670Y-6359029D01*
X14720000Y-6044248D01*
X14930330Y-6359029D01*
X15416511Y-6683885D01*
X15990000Y-6797959D01*
X16563489Y-6683885D01*
X17049670Y-6359029D01*
X17265664Y-6035772D01*
X17323179Y-6158490D01*
X17755053Y-6552688D01*
X18170974Y-6724958D01*
X18403000Y-6603817D01*
X18403000Y-5397000D01*
X18383000Y-5397000D01*
X18383000Y-5143000D01*
X18403000Y-5143000D01*
X18403000Y-5123000D01*
X18657000Y-5123000D01*
X18657000Y-5143000D01*
X18677000Y-5143000D01*
X18677000Y-5397000D01*
X18657000Y-5397000D01*
X18657000Y-6603817D01*
X18889026Y-6724958D01*
X19304947Y-6552688D01*
X19736821Y-6158490D01*
X19794336Y-6035772D01*
X20010330Y-6359029D01*
X20496511Y-6683885D01*
X21070000Y-6797959D01*
X21643489Y-6683885D01*
X22129670Y-6359029D01*
X22340000Y-6044248D01*
X22550330Y-6359029D01*
X23036511Y-6683885D01*
X23610000Y-6797959D01*
X24183489Y-6683885D01*
X24669670Y-6359029D01*
X24880000Y-6044248D01*
X25090330Y-6359029D01*
X25576511Y-6683885D01*
X26150000Y-6797959D01*
X26723489Y-6683885D01*
X27209670Y-6359029D01*
X27420000Y-6044248D01*
X27630330Y-6359029D01*
X28116511Y-6683885D01*
X28690000Y-6797959D01*
X29263489Y-6683885D01*
X29749670Y-6359029D01*
X29960000Y-6044248D01*
X30170330Y-6359029D01*
X30656511Y-6683885D01*
X31230000Y-6797959D01*
X31803489Y-6683885D01*
X32289670Y-6359029D01*
X32500000Y-6044248D01*
X32710330Y-6359029D01*
X33196511Y-6683885D01*
X33770000Y-6797959D01*
X34343489Y-6683885D01*
X34829670Y-6359029D01*
X35040000Y-6044248D01*
X35250330Y-6359029D01*
X35736511Y-6683885D01*
X36310000Y-6797959D01*
X36883489Y-6683885D01*
X37369670Y-6359029D01*
X37585664Y-6035772D01*
X37643179Y-6158490D01*
X38075053Y-6552688D01*
X38490974Y-6724958D01*
X38723000Y-6603817D01*
X38723000Y-5397000D01*
X38703000Y-5397000D01*
X38703000Y-5143000D01*
X38723000Y-5143000D01*
X38723000Y-5123000D01*
X38977000Y-5123000D01*
X38977000Y-5143000D01*
X38997000Y-5143000D01*
X38997000Y-5397000D01*
X38977000Y-5397000D01*
X38977000Y-6603817D01*
X39209026Y-6724958D01*
X39624947Y-6552688D01*
X40056821Y-6158490D01*
X40114336Y-6035772D01*
X40330330Y-6359029D01*
X40816511Y-6683885D01*
X41390000Y-6797959D01*
X41963489Y-6683885D01*
X42449670Y-6359029D01*
X42660000Y-6044248D01*
X42870330Y-6359029D01*
X43356511Y-6683885D01*
X43930000Y-6797959D01*
X44503489Y-6683885D01*
X44989670Y-6359029D01*
X45200000Y-6044248D01*
X45410330Y-6359029D01*
X45896511Y-6683885D01*
X46470000Y-6797959D01*
X47043489Y-6683885D01*
X47529670Y-6359029D01*
X47740000Y-6044248D01*
X47950330Y-6359029D01*
X48436511Y-6683885D01*
X49010000Y-6797959D01*
X49583489Y-6683885D01*
X50069670Y-6359029D01*
X50280000Y-6044248D01*
X50490330Y-6359029D01*
X50976511Y-6683885D01*
X51550000Y-6797959D01*
X52123489Y-6683885D01*
X52609670Y-6359029D01*
X52820000Y-6044248D01*
X53030330Y-6359029D01*
X53516511Y-6683885D01*
X54090000Y-6797959D01*
X54663489Y-6683885D01*
X55149670Y-6359029D01*
X55365664Y-6035772D01*
X55423179Y-6158490D01*
X55855053Y-6552688D01*
X56270974Y-6724958D01*
X56503000Y-6603817D01*
X56503000Y-5397000D01*
X56757000Y-5397000D01*
X56757000Y-6603817D01*
X56989026Y-6724958D01*
X57404947Y-6552688D01*
X57836821Y-6158490D01*
X58084968Y-5629027D01*
X57964469Y-5397000D01*
X56757000Y-5397000D01*
X56503000Y-5397000D01*
X56483000Y-5397000D01*
X56483000Y-5143000D01*
X56503000Y-5143000D01*
X56503000Y-5123000D01*
X56757000Y-5123000D01*
X56757000Y-5143000D01*
X57964469Y-5143000D01*
X58084968Y-4910973D01*
X57836821Y-4381510D01*
X57418839Y-3999992D01*
X57689670Y-3819029D01*
X58014526Y-3332848D01*
X58128600Y-2759359D01*
X58128600Y-2700641D01*
X58014526Y-2127152D01*
X57689670Y-1640971D01*
X57203489Y-1316115D01*
X56630000Y-1202041D01*
X56056511Y-1316115D01*
X55570330Y-1640971D01*
X55360000Y-1955752D01*
X55149670Y-1640971D01*
X54663489Y-1316115D01*
X54090000Y-1202041D01*
X53516511Y-1316115D01*
X53030330Y-1640971D01*
X52820000Y-1955752D01*
X52609670Y-1640971D01*
X52123489Y-1316115D01*
X51550000Y-1202041D01*
X50976511Y-1316115D01*
X50490330Y-1640971D01*
X50274336Y-1964228D01*
X50216821Y-1841510D01*
X49784947Y-1447312D01*
X49369026Y-1275042D01*
X49137000Y-1396183D01*
X49137000Y-2603000D01*
X49157000Y-2603000D01*
X49157000Y-2857000D01*
X49137000Y-2857000D01*
X49137000Y-2877000D01*
X48883000Y-2877000D01*
X48883000Y-2857000D01*
X48863000Y-2857000D01*
X48863000Y-2603000D01*
X48883000Y-2603000D01*
X48883000Y-1396183D01*
X48650974Y-1275042D01*
X48235053Y-1447312D01*
X47803179Y-1841510D01*
X47745664Y-1964228D01*
X47529670Y-1640971D01*
X47043489Y-1316115D01*
X46470000Y-1202041D01*
X45896511Y-1316115D01*
X45410330Y-1640971D01*
X45194336Y-1964228D01*
X45136821Y-1841510D01*
X44704947Y-1447312D01*
X44289026Y-1275042D01*
X44057000Y-1396183D01*
X44057000Y-2603000D01*
X44077000Y-2603000D01*
X44077000Y-2857000D01*
X44057000Y-2857000D01*
X44057000Y-2877000D01*
X43803000Y-2877000D01*
X43803000Y-2857000D01*
X43783000Y-2857000D01*
X43783000Y-2603000D01*
X43803000Y-2603000D01*
X43803000Y-1396183D01*
X43570974Y-1275042D01*
X43155053Y-1447312D01*
X42723179Y-1841510D01*
X42665664Y-1964228D01*
X42449670Y-1640971D01*
X41963489Y-1316115D01*
X41390000Y-1202041D01*
X40816511Y-1316115D01*
X40330330Y-1640971D01*
X40120000Y-1955752D01*
X39909670Y-1640971D01*
X39423489Y-1316115D01*
X38850000Y-1202041D01*
X38276511Y-1316115D01*
X37790330Y-1640971D01*
X37580000Y-1955752D01*
X37369670Y-1640971D01*
X36883489Y-1316115D01*
X36310000Y-1202041D01*
X35736511Y-1316115D01*
X35250330Y-1640971D01*
X35040000Y-1955752D01*
X34829670Y-1640971D01*
X34343489Y-1316115D01*
X33770000Y-1202041D01*
X33196511Y-1316115D01*
X32710330Y-1640971D01*
X32494336Y-1964228D01*
X32436821Y-1841510D01*
X32004947Y-1447312D01*
X31589026Y-1275042D01*
X31357000Y-1396183D01*
X31357000Y-2603000D01*
X31377000Y-2603000D01*
X31377000Y-2857000D01*
X31357000Y-2857000D01*
X31357000Y-2877000D01*
X31103000Y-2877000D01*
X31103000Y-2857000D01*
X31083000Y-2857000D01*
X31083000Y-2603000D01*
X31103000Y-2603000D01*
X31103000Y-1396183D01*
X30870974Y-1275042D01*
X30455053Y-1447312D01*
X30023179Y-1841510D01*
X29965664Y-1964228D01*
X29749670Y-1640971D01*
X29263489Y-1316115D01*
X28690000Y-1202041D01*
X28116511Y-1316115D01*
X27630330Y-1640971D01*
X27420000Y-1955752D01*
X27209670Y-1640971D01*
X26723489Y-1316115D01*
X26150000Y-1202041D01*
X25576511Y-1316115D01*
X25090330Y-1640971D01*
X24874336Y-1964228D01*
X24816821Y-1841510D01*
X24384947Y-1447312D01*
X23969026Y-1275042D01*
X23737000Y-1396183D01*
X23737000Y-2603000D01*
X23757000Y-2603000D01*
X23757000Y-2857000D01*
X23737000Y-2857000D01*
X23737000Y-2877000D01*
X23483000Y-2877000D01*
X23483000Y-2857000D01*
X23463000Y-2857000D01*
X23463000Y-2603000D01*
X23483000Y-2603000D01*
X23483000Y-1396183D01*
X23250974Y-1275042D01*
X22835053Y-1447312D01*
X22403179Y-1841510D01*
X22345664Y-1964228D01*
X22129670Y-1640971D01*
X21643489Y-1316115D01*
X21070000Y-1202041D01*
X20496511Y-1316115D01*
X20010330Y-1640971D01*
X19800000Y-1955752D01*
X19589670Y-1640971D01*
X19103489Y-1316115D01*
X18530000Y-1202041D01*
X17956511Y-1316115D01*
X17470330Y-1640971D01*
X17260000Y-1955752D01*
X17049670Y-1640971D01*
X16563489Y-1316115D01*
X15990000Y-1202041D01*
X15416511Y-1316115D01*
X14930330Y-1640971D01*
X14714336Y-1964228D01*
X14656821Y-1841510D01*
X14224947Y-1447312D01*
X13809026Y-1275042D01*
X13577000Y-1396183D01*
X13577000Y-2603000D01*
X13597000Y-2603000D01*
X13597000Y-2857000D01*
X13577000Y-2857000D01*
X13577000Y-2877000D01*
X13323000Y-2877000D01*
X13323000Y-2857000D01*
X13303000Y-2857000D01*
X13303000Y-2603000D01*
X13323000Y-2603000D01*
X13323000Y-1396183D01*
X13090974Y-1275042D01*
X12675053Y-1447312D01*
X12243179Y-1841510D01*
X12185664Y-1964228D01*
X11969670Y-1640971D01*
X11483489Y-1316115D01*
X10910000Y-1202041D01*
X10336511Y-1316115D01*
X9850330Y-1640971D01*
X9640000Y-1955752D01*
X9429670Y-1640971D01*
X8943489Y-1316115D01*
X8370000Y-1202041D01*
X7796511Y-1316115D01*
X7310330Y-1640971D01*
X6985474Y-2127152D01*
X6871400Y-2700641D01*
X6871400Y-2759359D01*
X6985474Y-3332848D01*
X7297904Y-3800432D01*
X7258635Y-3808243D01*
X7048591Y-3948591D01*
X6908243Y-4158635D01*
X6858960Y-4406400D01*
X6726646Y-4406400D01*
X6727559Y-3360926D01*
X6237313Y-2174439D01*
X5330336Y-1265877D01*
X4144706Y-773561D01*
X2860926Y-772441D01*
X1674439Y-1262687D01*
X765877Y-2169664D01*
X273561Y-3355294D01*
X272441Y-4639074D01*
X-415000Y-4639074D01*
X-415000Y-4500000D01*
X-414812Y-4285127D01*
X-579646Y-3886200D01*
X-884595Y-3580718D01*
X-1283233Y-3415189D01*
X-1714873Y-3414812D01*
X-2113800Y-3579646D01*
X-2419282Y-3884595D01*
X-2584811Y-4283233D01*
X-2585188Y-4714873D01*
X-2585000Y-4715328D01*
X-2585000Y-6414925D01*
X-2714873Y-6414812D01*
X-3113800Y-6579646D01*
X-3419282Y-6884595D01*
X-3584811Y-7283233D01*
X-3585188Y-7714873D01*
X-3420354Y-8113800D01*
X-3115405Y-8419282D01*
X-2716767Y-8584811D01*
X-2595951Y-8584917D01*
X-2585000Y-8595868D01*
X-2585000Y-8750000D01*
X-2502409Y-9165212D01*
X-2335365Y-9415211D01*
X-2335000Y-9415757D01*
X-2335000Y-12915144D01*
X-2714873Y-12914812D01*
X-3113800Y-13079646D01*
X-3419282Y-13384595D01*
X-3584811Y-13783233D01*
X-3585188Y-14214873D01*
X-3420354Y-14613800D01*
X-3115405Y-14919282D01*
X-2716767Y-15084811D01*
X-2595951Y-15084917D01*
X-2335000Y-15345868D01*
X-2335000Y-19915144D01*
X-2714873Y-19914812D01*
X-3113800Y-20079646D01*
X-3419282Y-20384595D01*
X-3584811Y-20783233D01*
X-3585188Y-21214873D01*
X-3420354Y-21613800D01*
X-3115405Y-21919282D01*
X-2716767Y-22084811D01*
X-2595951Y-22084917D01*
X-2335000Y-22345868D01*
X-2335000Y-27415144D01*
X-2714873Y-27414812D01*
X-3113800Y-27579646D01*
X-3419282Y-27884595D01*
X-3584811Y-28283233D01*
X-3585188Y-28714873D01*
X-3420354Y-29113800D01*
X-3115405Y-29419282D01*
X-2716767Y-29584811D01*
X-2595951Y-29584917D01*
X-2335000Y-29845868D01*
X-2335000Y-34130400D01*
X-2384595Y-34080718D01*
X-2783233Y-33915189D01*
X-3214873Y-33914812D01*
X-3613800Y-34079646D01*
X-3919282Y-34384595D01*
X-4084811Y-34783233D01*
X-4085188Y-35214873D01*
X-10022683Y-35214873D01*
X-10022683Y-22156003D01*
X-9922845Y-21915568D01*
X-9922521Y-21543602D01*
X-10064566Y-21199826D01*
X-10327356Y-20936577D01*
X-10589989Y-20827522D01*
X-10589989Y-16671808D01*
X-9760000Y-15841819D01*
X-9760000Y-21937537D01*
X-9792192Y-21969673D01*
X-9934838Y-22313201D01*
X-9935162Y-22685167D01*
X-9793117Y-23028943D01*
X-9530327Y-23292192D01*
X-9186799Y-23434838D01*
X-8814833Y-23435162D01*
X-8471057Y-23293117D01*
X-8207808Y-23030327D01*
X-8065162Y-22686799D01*
X-8064838Y-22314833D01*
X-8206883Y-21971057D01*
X-8240000Y-21937882D01*
X-8240000Y-6750000D01*
X-8297852Y-6459161D01*
X-8462599Y-6212599D01*
X-11092187Y-3583011D01*
X-10144706Y-3976439D01*
X-8860926Y-3977559D01*
X-7674439Y-3487313D01*
X-6765877Y-2580336D01*
X-6273561Y-1394706D01*
X-6272441Y-110926D01*
X-6762687Y1075561D01*
X-7669664Y1984123D01*
X-8285885Y2240000D01*
X26437537Y2240000D01*
X26469673Y2207808D01*
X26813201Y2065162D01*
X27185167Y2064838D01*
X27528943Y2206883D01*
X27792192Y2469673D01*
X27934838Y2813201D01*
X27935162Y3185167D01*
X27912532Y3239936D01*
X28685262Y3239936D01*
X29064878Y2860320D01*
X29064838Y2814833D01*
X29206883Y2471057D01*
X29469673Y2207808D01*
X29813201Y2065162D01*
X30185167Y2064838D01*
X30528943Y2206883D01*
X30792192Y2469673D01*
X30934838Y2813201D01*
X30934992Y2990206D01*
X31064878Y2860320D01*
X31064838Y2814833D01*
X31206883Y2471057D01*
X31469673Y2207808D01*
X31813201Y2065162D01*
X32185167Y2064838D01*
X32528943Y2206883D01*
X32792192Y2469673D01*
X32934838Y2813201D01*
X32934992Y2990206D01*
X33064878Y2860320D01*
X33064838Y2814833D01*
X33206883Y2471057D01*
X33469673Y2207808D01*
X33813201Y2065162D01*
X34185167Y2064838D01*
X34528943Y2206883D01*
X34792192Y2469673D01*
X34934838Y2813201D01*
X34934992Y2990206D01*
X35064878Y2860320D01*
X35064838Y2814833D01*
X35206883Y2471057D01*
X35469673Y2207808D01*
X35813201Y2065162D01*
X36185167Y2064838D01*
X36528943Y2206883D01*
X36792192Y2469673D01*
X36934838Y2813201D01*
X36934992Y2990206D01*
X37064878Y2860320D01*
X37064838Y2814833D01*
X37206883Y2471057D01*
X37469673Y2207808D01*
X37813201Y2065162D01*
X38185167Y2064838D01*
X38528943Y2206883D01*
X38792192Y2469673D01*
X38934838Y2813201D01*
X38934992Y2990206D01*
X39064878Y2860320D01*
X39064838Y2814833D01*
X39206883Y2471057D01*
X39469673Y2207808D01*
X39813201Y2065162D01*
X40185167Y2064838D01*
X40528943Y2206883D01*
X40792192Y2469673D01*
X40934838Y2813201D01*
X40934992Y2990206D01*
X41064878Y2860320D01*
X41064838Y2814833D01*
X41206883Y2471057D01*
X41469673Y2207808D01*
X41813201Y2065162D01*
X42185167Y2064838D01*
X42528943Y2206883D01*
X42792192Y2469673D01*
X42934838Y2813201D01*
X42935162Y3185167D01*
X42793117Y3528943D01*
X42530327Y3792192D01*
X42377000Y3855859D01*
X42377000Y8250000D01*
X42374016Y8265000D01*
X64873000Y8265000D01*
X64873000Y-785198D01*
X64873000Y-785198D01*
G37*
X64873000Y-785198D02*
X64620744Y-1162725D01*
X64563143Y-1301789D01*
X64518463Y-1409654D01*
X64328162Y-2366363D01*
X64328162Y-2394311D01*
X64237313Y-2174439D01*
X63330336Y-1265877D01*
X62144706Y-773561D01*
X60860926Y-772441D01*
X59674439Y-1262687D01*
X58765877Y-2169664D01*
X58273561Y-3355294D01*
X58272441Y-4639074D01*
X58762687Y-5825561D01*
X59669664Y-6734123D01*
X60855294Y-7226439D01*
X62139074Y-7227559D01*
X63325561Y-6737313D01*
X64234123Y-5830336D01*
X64315000Y-5635562D01*
X64315000Y-51362456D01*
X64237313Y-51174439D01*
X63330336Y-50265877D01*
X62144706Y-49773561D01*
X60860926Y-49772441D01*
X59674439Y-50262687D01*
X58765877Y-51169664D01*
X58273561Y-52355294D01*
X58272441Y-53639074D01*
X58762687Y-54825561D01*
X59669664Y-55734123D01*
X60855294Y-56226439D01*
X62139074Y-56227559D01*
X63325561Y-55737313D01*
X64234123Y-54830336D01*
X64315000Y-54635562D01*
X64315000Y-55000000D01*
X64328162Y-55066170D01*
X64328162Y-55133637D01*
X64518463Y-56090346D01*
X64560830Y-56192627D01*
X64620744Y-56337275D01*
X64873000Y-56714802D01*
X64873000Y-65265000D01*
X-25000000Y-65265000D01*
X-25091950Y-65283290D01*
X-25689435Y-65164443D01*
X-26273911Y-64773908D01*
X-26664443Y-64189435D01*
X-26783290Y-63591950D01*
X-26765000Y-63500000D01*
X-26765000Y-59693480D01*
X-22635000Y-59693480D01*
X-22635000Y-62306520D01*
X-22510543Y-62932207D01*
X-22156120Y-63462640D01*
X-21625687Y-63817063D01*
X-21000000Y-63941520D01*
X-20374313Y-63817063D01*
X-19843880Y-63462640D01*
X-19489457Y-62932207D01*
X-19365000Y-62306520D01*
X-19365000Y-61127000D01*
X-16635000Y-61127000D01*
X-16635000Y-62377000D01*
X-16461942Y-62993020D01*
X-16066317Y-63495922D01*
X-15508355Y-63809144D01*
X-15380434Y-63840124D01*
X-15127000Y-63720777D01*
X-15127000Y-61127000D01*
X-14873000Y-61127000D01*
X-14873000Y-63720777D01*
X-14619566Y-63840124D01*
X-14491645Y-63809144D01*
X-14295468Y-63699016D01*
X-1969410Y-63699016D01*
X-1913729Y-63929611D01*
X-1430922Y-64097622D01*
X-920572Y-64068083D01*
X-586271Y-63929611D01*
X-530590Y-63699016D01*
X-1250000Y-62979605D01*
X-1969410Y-63699016D01*
X-14295468Y-63699016D01*
X-13933683Y-63495922D01*
X-13538058Y-62993020D01*
X-13433007Y-62619078D01*
X-2547622Y-62619078D01*
X-2518083Y-63129428D01*
X-2379611Y-63463729D01*
X-2149016Y-63519410D01*
X-1429605Y-62800000D01*
X-1070395Y-62800000D01*
X-350984Y-63519410D01*
X-120389Y-63463729D01*
X47622Y-62980922D01*
X18083Y-62470572D01*
X-120389Y-62136271D01*
X-350984Y-62080590D01*
X-1070395Y-62800000D01*
X-1429605Y-62800000D01*
X-2149016Y-62080590D01*
X-2379611Y-62136271D01*
X-2547622Y-62619078D01*
X-13433007Y-62619078D01*
X-13365000Y-62377000D01*
X-13365000Y-61900984D01*
X-1969410Y-61900984D01*
X-1250000Y-62620395D01*
X-530590Y-61900984D01*
X-542900Y-61850000D01*
X19202560Y-61850000D01*
X19202560Y-63150000D01*
X19251843Y-63397765D01*
X19392191Y-63607809D01*
X19602235Y-63748157D01*
X19850000Y-63797440D01*
X21150000Y-63797440D01*
X21397765Y-63748157D01*
X21607809Y-63607809D01*
X21748157Y-63397765D01*
X21797440Y-63150000D01*
X21797440Y-61850000D01*
X21748157Y-61602235D01*
X21607809Y-61392191D01*
X21397765Y-61251843D01*
X21150000Y-61202560D01*
X19850000Y-61202560D01*
X19602235Y-61251843D01*
X19392191Y-61392191D01*
X19251843Y-61602235D01*
X19202560Y-61850000D01*
X-542900Y-61850000D01*
X-586271Y-61670389D01*
X-1069078Y-61502378D01*
X-1579428Y-61531917D01*
X-1913729Y-61670389D01*
X-1969410Y-61900984D01*
X-13365000Y-61900984D01*
X-13365000Y-61127000D01*
X-14873000Y-61127000D01*
X-15127000Y-61127000D01*
X-16635000Y-61127000D01*
X-19365000Y-61127000D01*
X-19365000Y-59693480D01*
X-19379019Y-59623000D01*
X-16635000Y-59623000D01*
X-16635000Y-60873000D01*
X-15127000Y-60873000D01*
X-15127000Y-58279223D01*
X-14873000Y-58279223D01*
X-14873000Y-60873000D01*
X-13365000Y-60873000D01*
X-13365000Y-59623000D01*
X-13538058Y-59006980D01*
X-13933683Y-58504078D01*
X-14491645Y-58190856D01*
X-14619566Y-58159876D01*
X-14873000Y-58279223D01*
X-15127000Y-58279223D01*
X-15380434Y-58159876D01*
X-15508355Y-58190856D01*
X-16066317Y-58504078D01*
X-16461942Y-59006980D01*
X-16635000Y-59623000D01*
X-19379019Y-59623000D01*
X-19489457Y-59067793D01*
X-19843880Y-58537360D01*
X-20374313Y-58182937D01*
X-21000000Y-58058480D01*
X-21625687Y-58182937D01*
X-22156120Y-58537360D01*
X-22510543Y-59067793D01*
X-22635000Y-59693480D01*
X-26765000Y-59693480D01*
X-26765000Y-56350000D01*
X-20186623Y-56350000D01*
X-20062166Y-56975687D01*
X-19707743Y-57506120D01*
X-19177310Y-57860543D01*
X-18551623Y-57985000D01*
X-16448377Y-57985000D01*
X-15822690Y-57860543D01*
X-15292257Y-57506120D01*
X-14937834Y-56975687D01*
X-14920606Y-56889074D01*
X-12727559Y-56889074D01*
X-12237313Y-58075561D01*
X-11330336Y-58984123D01*
X-10144706Y-59476439D01*
X-8860926Y-59477559D01*
X-7674439Y-58987313D01*
X-6765877Y-58080336D01*
X-6273561Y-56894706D01*
X-6272441Y-55610926D01*
X-6762687Y-54424439D01*
X-7669664Y-53515877D01*
X-8855294Y-53023561D01*
X-10139074Y-53022441D01*
X-11325561Y-53512687D01*
X-12234123Y-54419664D01*
X-12726439Y-55605294D01*
X-12727559Y-56889074D01*
X-14920606Y-56889074D01*
X-14813377Y-56350000D01*
X-14937834Y-55724313D01*
X-15292257Y-55193880D01*
X-15822690Y-54839457D01*
X-16448377Y-54715000D01*
X-18551623Y-54715000D01*
X-19177310Y-54839457D01*
X-19707743Y-55193880D01*
X-20062166Y-55724313D01*
X-20186623Y-56350000D01*
X-26765000Y-56350000D01*
X-26765000Y-54632109D01*
X-26751707Y-54640991D01*
X-26279093Y-54735000D01*
X-25720907Y-54735000D01*
X-25248293Y-54640991D01*
X-24847630Y-54373277D01*
X-24579916Y-53972614D01*
X-24485907Y-53500000D01*
X-24579916Y-53027386D01*
X-24847630Y-52626723D01*
X-25037285Y-52500000D01*
X-24847630Y-52373277D01*
X-24771941Y-52260000D01*
X-18438490Y-52260000D01*
X-18147651Y-52202148D01*
X-17901089Y-52037401D01*
X-15962599Y-50098911D01*
X-15869080Y-49958950D01*
X-15750000Y-49958950D01*
X-15502235Y-49909667D01*
X-15292191Y-49769319D01*
X-15151843Y-49559275D01*
X-15102560Y-49311510D01*
X-15102560Y-47811510D01*
X-15151843Y-47563745D01*
X-15292191Y-47353701D01*
X-15502235Y-47213353D01*
X-15750000Y-47164070D01*
X-17240000Y-47164070D01*
X-17240000Y-46503891D01*
X-16776702Y-46696269D01*
X-16225715Y-46696750D01*
X-15716485Y-46486341D01*
X-15326539Y-46097074D01*
X-15115241Y-45588212D01*
X-15114760Y-45037225D01*
X-15325169Y-44527995D01*
X-15714436Y-44138049D01*
X-16223298Y-43926751D01*
X-16290380Y-43926692D01*
X-15962599Y-43598911D01*
X-15869080Y-43458950D01*
X-15750000Y-43458950D01*
X-15502235Y-43409667D01*
X-15376982Y-43325975D01*
X-15293117Y-43528943D01*
X-15030327Y-43792192D01*
X-14686799Y-43934838D01*
X-14314833Y-43935162D01*
X-13971057Y-43793117D01*
X-13707808Y-43530327D01*
X-13607222Y-43288090D01*
X-10267249Y-39948117D01*
X-10191667Y-39835000D01*
X-10086244Y-39677224D01*
X-10022683Y-39357683D01*
X-10022683Y-35214873D01*
X-4085188Y-35214873D01*
X-3920354Y-35613800D01*
X-3615405Y-35919282D01*
X-3216767Y-36084811D01*
X-2785127Y-36085188D01*
X-2474167Y-35956701D01*
X-2335000Y-36095868D01*
X-2335000Y-37130400D01*
X-2384595Y-37080718D01*
X-2783233Y-36915189D01*
X-3214873Y-36914812D01*
X-3613800Y-37079646D01*
X-3919282Y-37384595D01*
X-4084811Y-37783233D01*
X-4085188Y-38214873D01*
X-3920354Y-38613800D01*
X-3615405Y-38919282D01*
X-3216767Y-39084811D01*
X-2785127Y-39085188D01*
X-2474167Y-38956701D01*
X-2335000Y-39095868D01*
X-2335000Y-41915144D01*
X-2714873Y-41914812D01*
X-3113800Y-42079646D01*
X-3419282Y-42384595D01*
X-3584811Y-42783233D01*
X-3585188Y-43214873D01*
X-3420354Y-43613800D01*
X-3115405Y-43919282D01*
X-2716767Y-44084811D01*
X-2595951Y-44084917D01*
X-2335000Y-44345868D01*
X-2335000Y-49130400D01*
X-2384595Y-49080718D01*
X-2783233Y-48915189D01*
X-3214873Y-48914812D01*
X-3613800Y-49079646D01*
X-3919282Y-49384595D01*
X-4084811Y-49783233D01*
X-4085188Y-50214873D01*
X-3920354Y-50613800D01*
X-3615405Y-50919282D01*
X-3216767Y-51084811D01*
X-3095951Y-51084917D01*
X-2335000Y-51845868D01*
X-2335000Y-57876950D01*
X-2357809Y-57892191D01*
X-2498157Y-58102235D01*
X-2547440Y-58350000D01*
X-2547440Y-59650000D01*
X-2498157Y-59897765D01*
X-2357809Y-60107809D01*
X-2147765Y-60248157D01*
X-1900000Y-60297440D01*
X-600000Y-60297440D01*
X-352235Y-60248157D01*
X-142191Y-60107809D01*
X-1843Y-59897765D01*
X47440Y-59650000D01*
X47440Y-59599016D01*
X19780590Y-59599016D01*
X19836271Y-59829611D01*
X20319078Y-59997622D01*
X20829428Y-59968083D01*
X21163729Y-59829611D01*
X21219410Y-59599016D01*
X20500000Y-58879605D01*
X19780590Y-59599016D01*
X47440Y-59599016D01*
X47440Y-58519078D01*
X19202378Y-58519078D01*
X19231917Y-59029428D01*
X19370389Y-59363729D01*
X19600984Y-59419410D01*
X20320395Y-58700000D01*
X20679605Y-58700000D01*
X21399016Y-59419410D01*
X21629611Y-59363729D01*
X21797622Y-58880922D01*
X21768083Y-58370572D01*
X21629611Y-58036271D01*
X21399016Y-57980590D01*
X20679605Y-58700000D01*
X20320395Y-58700000D01*
X19600984Y-57980590D01*
X19370389Y-58036271D01*
X19202378Y-58519078D01*
X47440Y-58519078D01*
X47440Y-58350000D01*
X-1843Y-58102235D01*
X-142191Y-57892191D01*
X-165000Y-57876950D01*
X-165000Y-57800984D01*
X19780590Y-57800984D01*
X20500000Y-58520395D01*
X21219410Y-57800984D01*
X21163729Y-57570389D01*
X20680922Y-57402378D01*
X20170572Y-57431917D01*
X19836271Y-57570389D01*
X19780590Y-57800984D01*
X-165000Y-57800984D01*
X-165000Y-56889074D01*
X29272441Y-56889074D01*
X29762687Y-58075561D01*
X30669664Y-58984123D01*
X31855294Y-59476439D01*
X33139074Y-59477559D01*
X34325561Y-58987313D01*
X35234123Y-58080336D01*
X35726439Y-56894706D01*
X35727559Y-55610926D01*
X35237313Y-54424439D01*
X34330336Y-53515877D01*
X33144706Y-53023561D01*
X31860926Y-53022441D01*
X30674439Y-53512687D01*
X29765877Y-54419664D01*
X29273561Y-55605294D01*
X29272441Y-56889074D01*
X-165000Y-56889074D01*
X-165000Y-53639074D01*
X272441Y-53639074D01*
X762687Y-54825561D01*
X1669664Y-55734123D01*
X2855294Y-56226439D01*
X4139074Y-56227559D01*
X5325561Y-55737313D01*
X6234123Y-54830336D01*
X6726439Y-53644706D01*
X6727559Y-52360926D01*
X6237313Y-51174439D01*
X5330336Y-50265877D01*
X4144706Y-49773561D01*
X2860926Y-49772441D01*
X1674439Y-50262687D01*
X765877Y-51169664D01*
X273561Y-52355294D01*
X272441Y-53639074D01*
X-165000Y-53639074D01*
X-165000Y-49345868D01*
X95784Y-49085084D01*
X214873Y-49085188D01*
X613800Y-48920354D01*
X919282Y-48615405D01*
X1084811Y-48216767D01*
X1084838Y-48185167D01*
X5064838Y-48185167D01*
X5206883Y-48528943D01*
X5469673Y-48792192D01*
X5813201Y-48934838D01*
X6110995Y-48935097D01*
X6204480Y-49028582D01*
X6204480Y-49398780D01*
X6253763Y-49646545D01*
X6394111Y-49856589D01*
X6604155Y-49996937D01*
X6851920Y-50046220D01*
X7649480Y-50046220D01*
X7897245Y-49996937D01*
X8000000Y-49928278D01*
X8102755Y-49996937D01*
X8350520Y-50046220D01*
X9148080Y-50046220D01*
X9395845Y-49996937D01*
X9605889Y-49856589D01*
X9609987Y-49850456D01*
X9813201Y-49934838D01*
X10185167Y-49935162D01*
X10528943Y-49793117D01*
X10792192Y-49530327D01*
X10934838Y-49186799D01*
X10935162Y-48814833D01*
X10793117Y-48471057D01*
X10530327Y-48207808D01*
X10186799Y-48065162D01*
X9814833Y-48064838D01*
X9609953Y-48149493D01*
X9605889Y-48143411D01*
X9395845Y-48003063D01*
X9148080Y-47953780D01*
X8350520Y-47953780D01*
X8102755Y-48003063D01*
X8000000Y-48071722D01*
X7897245Y-48003063D01*
X7649480Y-47953780D01*
X7279282Y-47953780D01*
X6788101Y-47462599D01*
X6777809Y-47455722D01*
X6530327Y-47207808D01*
X6186799Y-47065162D01*
X5814833Y-47064838D01*
X5471057Y-47206883D01*
X5207808Y-47469673D01*
X5065162Y-47813201D01*
X5064838Y-48185167D01*
X1084838Y-48185167D01*
X1085188Y-47785127D01*
X920354Y-47386200D01*
X615405Y-47080718D01*
X216767Y-46915189D01*
X-165000Y-46914856D01*
X-165000Y-45345868D01*
X95784Y-45085084D01*
X214873Y-45085188D01*
X613800Y-44920354D01*
X919282Y-44615405D01*
X1084811Y-44216767D01*
X1084838Y-44185167D01*
X5064838Y-44185167D01*
X5206883Y-44528943D01*
X5469673Y-44792192D01*
X5813201Y-44934838D01*
X6185167Y-44935162D01*
X6390047Y-44850507D01*
X6394111Y-44856589D01*
X6604155Y-44996937D01*
X6851920Y-45046220D01*
X7649480Y-45046220D01*
X7897245Y-44996937D01*
X8000000Y-44928278D01*
X8102755Y-44996937D01*
X8350520Y-45046220D01*
X9148080Y-45046220D01*
X9395845Y-44996937D01*
X9605889Y-44856589D01*
X9609987Y-44850456D01*
X9813201Y-44934838D01*
X10185167Y-44935162D01*
X10528943Y-44793117D01*
X10792192Y-44530327D01*
X10934838Y-44186799D01*
X10935162Y-43814833D01*
X10793117Y-43471057D01*
X10530327Y-43207808D01*
X10186799Y-43065162D01*
X9814833Y-43064838D01*
X9609953Y-43149493D01*
X9605889Y-43143411D01*
X9395845Y-43003063D01*
X9148080Y-42953780D01*
X8350520Y-42953780D01*
X8102755Y-43003063D01*
X8000000Y-43071722D01*
X7897245Y-43003063D01*
X7649480Y-42953780D01*
X6851920Y-42953780D01*
X6604155Y-43003063D01*
X6394111Y-43143411D01*
X6390013Y-43149544D01*
X6186799Y-43065162D01*
X5814833Y-43064838D01*
X5471057Y-43206883D01*
X5207808Y-43469673D01*
X5065162Y-43813201D01*
X5064838Y-44185167D01*
X1084838Y-44185167D01*
X1085188Y-43785127D01*
X920354Y-43386200D01*
X615405Y-43080718D01*
X216767Y-42915189D01*
X-165000Y-42914856D01*
X-165000Y-40345868D01*
X95784Y-40085084D01*
X214873Y-40085188D01*
X613800Y-39920354D01*
X919282Y-39615405D01*
X1084811Y-39216767D01*
X1084838Y-39185167D01*
X5064838Y-39185167D01*
X5206883Y-39528943D01*
X5469673Y-39792192D01*
X5813201Y-39934838D01*
X6185167Y-39935162D01*
X6390047Y-39850507D01*
X6394111Y-39856589D01*
X6604155Y-39996937D01*
X6851920Y-40046220D01*
X7649480Y-40046220D01*
X7897245Y-39996937D01*
X8000000Y-39928278D01*
X8102755Y-39996937D01*
X8350520Y-40046220D01*
X9148080Y-40046220D01*
X9395845Y-39996937D01*
X9605889Y-39856589D01*
X9609987Y-39850456D01*
X9813201Y-39934838D01*
X10185167Y-39935162D01*
X10528943Y-39793117D01*
X10792192Y-39530327D01*
X10934838Y-39186799D01*
X10935162Y-38814833D01*
X10793117Y-38471057D01*
X10530327Y-38207808D01*
X10186799Y-38065162D01*
X9814833Y-38064838D01*
X9609953Y-38149493D01*
X9605889Y-38143411D01*
X9395845Y-38003063D01*
X9148080Y-37953780D01*
X8350520Y-37953780D01*
X8102755Y-38003063D01*
X8000000Y-38071722D01*
X7897245Y-38003063D01*
X7649480Y-37953780D01*
X6851920Y-37953780D01*
X6604155Y-38003063D01*
X6394111Y-38143411D01*
X6390013Y-38149544D01*
X6186799Y-38065162D01*
X5814833Y-38064838D01*
X5471057Y-38206883D01*
X5207808Y-38469673D01*
X5065162Y-38813201D01*
X5064838Y-39185167D01*
X1084838Y-39185167D01*
X1085188Y-38785127D01*
X920354Y-38386200D01*
X615405Y-38080718D01*
X216767Y-37915189D01*
X-165000Y-37914856D01*
X-165000Y-35345868D01*
X95784Y-35085084D01*
X214873Y-35085188D01*
X613800Y-34920354D01*
X919282Y-34615405D01*
X1084811Y-34216767D01*
X1084838Y-34185167D01*
X5064838Y-34185167D01*
X5206883Y-34528943D01*
X5469673Y-34792192D01*
X5813201Y-34934838D01*
X6185167Y-34935162D01*
X6390047Y-34850507D01*
X6394111Y-34856589D01*
X6604155Y-34996937D01*
X6851920Y-35046220D01*
X7649480Y-35046220D01*
X7897245Y-34996937D01*
X8000000Y-34928278D01*
X8102755Y-34996937D01*
X8350520Y-35046220D01*
X9148080Y-35046220D01*
X9395845Y-34996937D01*
X9605889Y-34856589D01*
X9609987Y-34850456D01*
X9813201Y-34934838D01*
X10185167Y-34935162D01*
X10528943Y-34793117D01*
X10792192Y-34530327D01*
X10934838Y-34186799D01*
X10935162Y-33814833D01*
X10793117Y-33471057D01*
X10530327Y-33207808D01*
X10186799Y-33065162D01*
X9814833Y-33064838D01*
X9609953Y-33149493D01*
X9605889Y-33143411D01*
X9395845Y-33003063D01*
X9148080Y-32953780D01*
X8350520Y-32953780D01*
X8102755Y-33003063D01*
X8000000Y-33071722D01*
X7897245Y-33003063D01*
X7649480Y-32953780D01*
X6851920Y-32953780D01*
X6604155Y-33003063D01*
X6394111Y-33143411D01*
X6390013Y-33149544D01*
X6186799Y-33065162D01*
X5814833Y-33064838D01*
X5471057Y-33206883D01*
X5207808Y-33469673D01*
X5065162Y-33813201D01*
X5064838Y-34185167D01*
X1084838Y-34185167D01*
X1085188Y-33785127D01*
X920354Y-33386200D01*
X615405Y-33080718D01*
X216767Y-32915189D01*
X-165000Y-32914856D01*
X-165000Y-30345868D01*
X95784Y-30085084D01*
X214873Y-30085188D01*
X613800Y-29920354D01*
X919282Y-29615405D01*
X1084811Y-29216767D01*
X1084838Y-29185167D01*
X5064838Y-29185167D01*
X5206883Y-29528943D01*
X5469673Y-29792192D01*
X5813201Y-29934838D01*
X6185167Y-29935162D01*
X6390047Y-29850507D01*
X6394111Y-29856589D01*
X6604155Y-29996937D01*
X6851920Y-30046220D01*
X7649480Y-30046220D01*
X7897245Y-29996937D01*
X8000000Y-29928278D01*
X8102755Y-29996937D01*
X8350520Y-30046220D01*
X9148080Y-30046220D01*
X9395845Y-29996937D01*
X9605889Y-29856589D01*
X9609987Y-29850456D01*
X9813201Y-29934838D01*
X10185167Y-29935162D01*
X10528943Y-29793117D01*
X10792192Y-29530327D01*
X10934838Y-29186799D01*
X10935162Y-28814833D01*
X10793117Y-28471057D01*
X10530327Y-28207808D01*
X10186799Y-28065162D01*
X9814833Y-28064838D01*
X9609953Y-28149493D01*
X9605889Y-28143411D01*
X9395845Y-28003063D01*
X9148080Y-27953780D01*
X8350520Y-27953780D01*
X8102755Y-28003063D01*
X8000000Y-28071722D01*
X7897245Y-28003063D01*
X7649480Y-27953780D01*
X6851920Y-27953780D01*
X6604155Y-28003063D01*
X6394111Y-28143411D01*
X6390013Y-28149544D01*
X6186799Y-28065162D01*
X5814833Y-28064838D01*
X5471057Y-28206883D01*
X5207808Y-28469673D01*
X5065162Y-28813201D01*
X5064838Y-29185167D01*
X1084838Y-29185167D01*
X1085188Y-28785127D01*
X920354Y-28386200D01*
X615405Y-28080718D01*
X216767Y-27915189D01*
X-165000Y-27914856D01*
X-165000Y-25345868D01*
X95784Y-25085084D01*
X214873Y-25085188D01*
X613800Y-24920354D01*
X919282Y-24615405D01*
X1084811Y-24216767D01*
X1084838Y-24185167D01*
X5064838Y-24185167D01*
X5206883Y-24528943D01*
X5469673Y-24792192D01*
X5813201Y-24934838D01*
X6185167Y-24935162D01*
X6390047Y-24850507D01*
X6394111Y-24856589D01*
X6604155Y-24996937D01*
X6851920Y-25046220D01*
X7649480Y-25046220D01*
X7897245Y-24996937D01*
X8000000Y-24928278D01*
X8102755Y-24996937D01*
X8350520Y-25046220D01*
X9148080Y-25046220D01*
X9395845Y-24996937D01*
X9605889Y-24856589D01*
X9609987Y-24850456D01*
X9813201Y-24934838D01*
X10185167Y-24935162D01*
X10528943Y-24793117D01*
X10792192Y-24530327D01*
X10934838Y-24186799D01*
X10935162Y-23814833D01*
X10793117Y-23471057D01*
X10530327Y-23207808D01*
X10186799Y-23065162D01*
X9814833Y-23064838D01*
X9609953Y-23149493D01*
X9605889Y-23143411D01*
X9395845Y-23003063D01*
X9148080Y-22953780D01*
X8350520Y-22953780D01*
X8102755Y-23003063D01*
X8000000Y-23071722D01*
X7897245Y-23003063D01*
X7649480Y-22953780D01*
X6851920Y-22953780D01*
X6604155Y-23003063D01*
X6394111Y-23143411D01*
X6390013Y-23149544D01*
X6186799Y-23065162D01*
X5814833Y-23064838D01*
X5471057Y-23206883D01*
X5207808Y-23469673D01*
X5065162Y-23813201D01*
X5064838Y-24185167D01*
X1084838Y-24185167D01*
X1085188Y-23785127D01*
X920354Y-23386200D01*
X615405Y-23080718D01*
X216767Y-22915189D01*
X-165000Y-22914856D01*
X-165000Y-20345868D01*
X95784Y-20085084D01*
X214873Y-20085188D01*
X613800Y-19920354D01*
X919282Y-19615405D01*
X1084811Y-19216767D01*
X1084838Y-19185167D01*
X5064838Y-19185167D01*
X5206883Y-19528943D01*
X5469673Y-19792192D01*
X5813201Y-19934838D01*
X6185167Y-19935162D01*
X6390047Y-19850507D01*
X6394111Y-19856589D01*
X6604155Y-19996937D01*
X6851920Y-20046220D01*
X7649480Y-20046220D01*
X7897245Y-19996937D01*
X8000000Y-19928278D01*
X8102755Y-19996937D01*
X8350520Y-20046220D01*
X9148080Y-20046220D01*
X9395845Y-19996937D01*
X9605889Y-19856589D01*
X9609987Y-19850456D01*
X9813201Y-19934838D01*
X10185167Y-19935162D01*
X10528943Y-19793117D01*
X10792192Y-19530327D01*
X10934838Y-19186799D01*
X10935162Y-18814833D01*
X10793117Y-18471057D01*
X10530327Y-18207808D01*
X10186799Y-18065162D01*
X9814833Y-18064838D01*
X9609953Y-18149493D01*
X9605889Y-18143411D01*
X9395845Y-18003063D01*
X9148080Y-17953780D01*
X8350520Y-17953780D01*
X8102755Y-18003063D01*
X8000000Y-18071722D01*
X7897245Y-18003063D01*
X7649480Y-17953780D01*
X6851920Y-17953780D01*
X6604155Y-18003063D01*
X6394111Y-18143411D01*
X6390013Y-18149544D01*
X6186799Y-18065162D01*
X5814833Y-18064838D01*
X5471057Y-18206883D01*
X5207808Y-18469673D01*
X5065162Y-18813201D01*
X5064838Y-19185167D01*
X1084838Y-19185167D01*
X1085188Y-18785127D01*
X920354Y-18386200D01*
X615405Y-18080718D01*
X216767Y-17915189D01*
X-165000Y-17914856D01*
X-165000Y-15095868D01*
X95868Y-14835000D01*
X800460Y-14835000D01*
X884595Y-14919282D01*
X1283233Y-15084811D01*
X1714873Y-15085188D01*
X2113800Y-14920354D01*
X2419282Y-14615405D01*
X2584811Y-14216767D01*
X2584838Y-14185167D01*
X5064838Y-14185167D01*
X5206883Y-14528943D01*
X5469673Y-14792192D01*
X5813201Y-14934838D01*
X6185167Y-14935162D01*
X6390047Y-14850507D01*
X6394111Y-14856589D01*
X6604155Y-14996937D01*
X6851920Y-15046220D01*
X7649480Y-15046220D01*
X7897245Y-14996937D01*
X8000000Y-14928278D01*
X8102755Y-14996937D01*
X8350520Y-15046220D01*
X9148080Y-15046220D01*
X9395845Y-14996937D01*
X9605889Y-14856589D01*
X9609987Y-14850456D01*
X9813201Y-14934838D01*
X10185167Y-14935162D01*
X10528943Y-14793117D01*
X10792192Y-14530327D01*
X10934838Y-14186799D01*
X10935162Y-13814833D01*
X10793117Y-13471057D01*
X10530327Y-13207808D01*
X10186799Y-13065162D01*
X9814833Y-13064838D01*
X9609953Y-13149493D01*
X9605889Y-13143411D01*
X9395845Y-13003063D01*
X9148080Y-12953780D01*
X8350520Y-12953780D01*
X8102755Y-13003063D01*
X8000000Y-13071722D01*
X7897245Y-13003063D01*
X7649480Y-12953780D01*
X6851920Y-12953780D01*
X6604155Y-13003063D01*
X6394111Y-13143411D01*
X6390013Y-13149544D01*
X6186799Y-13065162D01*
X5814833Y-13064838D01*
X5471057Y-13206883D01*
X5207808Y-13469673D01*
X5065162Y-13813201D01*
X5064838Y-14185167D01*
X2584838Y-14185167D01*
X2585188Y-13785127D01*
X2420354Y-13386200D01*
X2115405Y-13080718D01*
X1716767Y-12915189D01*
X1285127Y-12914812D01*
X886200Y-13079646D01*
X800697Y-13165000D01*
X-165000Y-13165000D01*
X-165000Y-9000000D01*
X-247591Y-8584788D01*
X-415000Y-8334242D01*
X-415000Y-4639074D01*
X272441Y-4639074D01*
X762687Y-5825561D01*
X1669664Y-6734123D01*
X2855294Y-7226439D01*
X4139074Y-7227559D01*
X5325561Y-6737313D01*
X6234123Y-5830336D01*
X6726439Y-4644706D01*
X6726646Y-4406400D01*
X6858960Y-4406400D01*
X6858960Y-6133600D01*
X6908243Y-6381365D01*
X7048591Y-6591409D01*
X7258635Y-6731757D01*
X7506400Y-6781040D01*
X9233600Y-6781040D01*
X9481365Y-6731757D01*
X9691409Y-6591409D01*
X9831757Y-6381365D01*
X9839441Y-6342733D01*
X9850330Y-6359029D01*
X10336511Y-6683885D01*
X10910000Y-6797959D01*
X11483489Y-6683885D01*
X11969670Y-6359029D01*
X12180000Y-6044248D01*
X12390330Y-6359029D01*
X12876511Y-6683885D01*
X13450000Y-6797959D01*
X14023489Y-6683885D01*
X14509670Y-6359029D01*
X14720000Y-6044248D01*
X14930330Y-6359029D01*
X15416511Y-6683885D01*
X15990000Y-6797959D01*
X16563489Y-6683885D01*
X17049670Y-6359029D01*
X17265664Y-6035772D01*
X17323179Y-6158490D01*
X17755053Y-6552688D01*
X18170974Y-6724958D01*
X18403000Y-6603817D01*
X18403000Y-5397000D01*
X18383000Y-5397000D01*
X18383000Y-5143000D01*
X18403000Y-5143000D01*
X18403000Y-5123000D01*
X18657000Y-5123000D01*
X18657000Y-5143000D01*
X18677000Y-5143000D01*
X18677000Y-5397000D01*
X18657000Y-5397000D01*
X18657000Y-6603817D01*
X18889026Y-6724958D01*
X19304947Y-6552688D01*
X19736821Y-6158490D01*
X19794336Y-6035772D01*
X20010330Y-6359029D01*
X20496511Y-6683885D01*
X21070000Y-6797959D01*
X21643489Y-6683885D01*
X22129670Y-6359029D01*
X22340000Y-6044248D01*
X22550330Y-6359029D01*
X23036511Y-6683885D01*
X23610000Y-6797959D01*
X24183489Y-6683885D01*
X24669670Y-6359029D01*
X24880000Y-6044248D01*
X25090330Y-6359029D01*
X25576511Y-6683885D01*
X26150000Y-6797959D01*
X26723489Y-6683885D01*
X27209670Y-6359029D01*
X27420000Y-6044248D01*
X27630330Y-6359029D01*
X28116511Y-6683885D01*
X28690000Y-6797959D01*
X29263489Y-6683885D01*
X29749670Y-6359029D01*
X29960000Y-6044248D01*
X30170330Y-6359029D01*
X30656511Y-6683885D01*
X31230000Y-6797959D01*
X31803489Y-6683885D01*
X32289670Y-6359029D01*
X32500000Y-6044248D01*
X32710330Y-6359029D01*
X33196511Y-6683885D01*
X33770000Y-6797959D01*
X34343489Y-6683885D01*
X34829670Y-6359029D01*
X35040000Y-6044248D01*
X35250330Y-6359029D01*
X35736511Y-6683885D01*
X36310000Y-6797959D01*
X36883489Y-6683885D01*
X37369670Y-6359029D01*
X37585664Y-6035772D01*
X37643179Y-6158490D01*
X38075053Y-6552688D01*
X38490974Y-6724958D01*
X38723000Y-6603817D01*
X38723000Y-5397000D01*
X38703000Y-5397000D01*
X38703000Y-5143000D01*
X38723000Y-5143000D01*
X38723000Y-5123000D01*
X38977000Y-5123000D01*
X38977000Y-5143000D01*
X38997000Y-5143000D01*
X38997000Y-5397000D01*
X38977000Y-5397000D01*
X38977000Y-6603817D01*
X39209026Y-6724958D01*
X39624947Y-6552688D01*
X40056821Y-6158490D01*
X40114336Y-6035772D01*
X40330330Y-6359029D01*
X40816511Y-6683885D01*
X41390000Y-6797959D01*
X41963489Y-6683885D01*
X42449670Y-6359029D01*
X42660000Y-6044248D01*
X42870330Y-6359029D01*
X43356511Y-6683885D01*
X43930000Y-6797959D01*
X44503489Y-6683885D01*
X44989670Y-6359029D01*
X45200000Y-6044248D01*
X45410330Y-6359029D01*
X45896511Y-6683885D01*
X46470000Y-6797959D01*
X47043489Y-6683885D01*
X47529670Y-6359029D01*
X47740000Y-6044248D01*
X47950330Y-6359029D01*
X48436511Y-6683885D01*
X49010000Y-6797959D01*
X49583489Y-6683885D01*
X50069670Y-6359029D01*
X50280000Y-6044248D01*
X50490330Y-6359029D01*
X50976511Y-6683885D01*
X51550000Y-6797959D01*
X52123489Y-6683885D01*
X52609670Y-6359029D01*
X52820000Y-6044248D01*
X53030330Y-6359029D01*
X53516511Y-6683885D01*
X54090000Y-6797959D01*
X54663489Y-6683885D01*
X55149670Y-6359029D01*
X55365664Y-6035772D01*
X55423179Y-6158490D01*
X55855053Y-6552688D01*
X56270974Y-6724958D01*
X56503000Y-6603817D01*
X56503000Y-5397000D01*
X56757000Y-5397000D01*
X56757000Y-6603817D01*
X56989026Y-6724958D01*
X57404947Y-6552688D01*
X57836821Y-6158490D01*
X58084968Y-5629027D01*
X57964469Y-5397000D01*
X56757000Y-5397000D01*
X56503000Y-5397000D01*
X56483000Y-5397000D01*
X56483000Y-5143000D01*
X56503000Y-5143000D01*
X56503000Y-5123000D01*
X56757000Y-5123000D01*
X56757000Y-5143000D01*
X57964469Y-5143000D01*
X58084968Y-4910973D01*
X57836821Y-4381510D01*
X57418839Y-3999992D01*
X57689670Y-3819029D01*
X58014526Y-3332848D01*
X58128600Y-2759359D01*
X58128600Y-2700641D01*
X58014526Y-2127152D01*
X57689670Y-1640971D01*
X57203489Y-1316115D01*
X56630000Y-1202041D01*
X56056511Y-1316115D01*
X55570330Y-1640971D01*
X55360000Y-1955752D01*
X55149670Y-1640971D01*
X54663489Y-1316115D01*
X54090000Y-1202041D01*
X53516511Y-1316115D01*
X53030330Y-1640971D01*
X52820000Y-1955752D01*
X52609670Y-1640971D01*
X52123489Y-1316115D01*
X51550000Y-1202041D01*
X50976511Y-1316115D01*
X50490330Y-1640971D01*
X50274336Y-1964228D01*
X50216821Y-1841510D01*
X49784947Y-1447312D01*
X49369026Y-1275042D01*
X49137000Y-1396183D01*
X49137000Y-2603000D01*
X49157000Y-2603000D01*
X49157000Y-2857000D01*
X49137000Y-2857000D01*
X49137000Y-2877000D01*
X48883000Y-2877000D01*
X48883000Y-2857000D01*
X48863000Y-2857000D01*
X48863000Y-2603000D01*
X48883000Y-2603000D01*
X48883000Y-1396183D01*
X48650974Y-1275042D01*
X48235053Y-1447312D01*
X47803179Y-1841510D01*
X47745664Y-1964228D01*
X47529670Y-1640971D01*
X47043489Y-1316115D01*
X46470000Y-1202041D01*
X45896511Y-1316115D01*
X45410330Y-1640971D01*
X45194336Y-1964228D01*
X45136821Y-1841510D01*
X44704947Y-1447312D01*
X44289026Y-1275042D01*
X44057000Y-1396183D01*
X44057000Y-2603000D01*
X44077000Y-2603000D01*
X44077000Y-2857000D01*
X44057000Y-2857000D01*
X44057000Y-2877000D01*
X43803000Y-2877000D01*
X43803000Y-2857000D01*
X43783000Y-2857000D01*
X43783000Y-2603000D01*
X43803000Y-2603000D01*
X43803000Y-1396183D01*
X43570974Y-1275042D01*
X43155053Y-1447312D01*
X42723179Y-1841510D01*
X42665664Y-1964228D01*
X42449670Y-1640971D01*
X41963489Y-1316115D01*
X41390000Y-1202041D01*
X40816511Y-1316115D01*
X40330330Y-1640971D01*
X40120000Y-1955752D01*
X39909670Y-1640971D01*
X39423489Y-1316115D01*
X38850000Y-1202041D01*
X38276511Y-1316115D01*
X37790330Y-1640971D01*
X37580000Y-1955752D01*
X37369670Y-1640971D01*
X36883489Y-1316115D01*
X36310000Y-1202041D01*
X35736511Y-1316115D01*
X35250330Y-1640971D01*
X35040000Y-1955752D01*
X34829670Y-1640971D01*
X34343489Y-1316115D01*
X33770000Y-1202041D01*
X33196511Y-1316115D01*
X32710330Y-1640971D01*
X32494336Y-1964228D01*
X32436821Y-1841510D01*
X32004947Y-1447312D01*
X31589026Y-1275042D01*
X31357000Y-1396183D01*
X31357000Y-2603000D01*
X31377000Y-2603000D01*
X31377000Y-2857000D01*
X31357000Y-2857000D01*
X31357000Y-2877000D01*
X31103000Y-2877000D01*
X31103000Y-2857000D01*
X31083000Y-2857000D01*
X31083000Y-2603000D01*
X31103000Y-2603000D01*
X31103000Y-1396183D01*
X30870974Y-1275042D01*
X30455053Y-1447312D01*
X30023179Y-1841510D01*
X29965664Y-1964228D01*
X29749670Y-1640971D01*
X29263489Y-1316115D01*
X28690000Y-1202041D01*
X28116511Y-1316115D01*
X27630330Y-1640971D01*
X27420000Y-1955752D01*
X27209670Y-1640971D01*
X26723489Y-1316115D01*
X26150000Y-1202041D01*
X25576511Y-1316115D01*
X25090330Y-1640971D01*
X24874336Y-1964228D01*
X24816821Y-1841510D01*
X24384947Y-1447312D01*
X23969026Y-1275042D01*
X23737000Y-1396183D01*
X23737000Y-2603000D01*
X23757000Y-2603000D01*
X23757000Y-2857000D01*
X23737000Y-2857000D01*
X23737000Y-2877000D01*
X23483000Y-2877000D01*
X23483000Y-2857000D01*
X23463000Y-2857000D01*
X23463000Y-2603000D01*
X23483000Y-2603000D01*
X23483000Y-1396183D01*
X23250974Y-1275042D01*
X22835053Y-1447312D01*
X22403179Y-1841510D01*
X22345664Y-1964228D01*
X22129670Y-1640971D01*
X21643489Y-1316115D01*
X21070000Y-1202041D01*
X20496511Y-1316115D01*
X20010330Y-1640971D01*
X19800000Y-1955752D01*
X19589670Y-1640971D01*
X19103489Y-1316115D01*
X18530000Y-1202041D01*
X17956511Y-1316115D01*
X17470330Y-1640971D01*
X17260000Y-1955752D01*
X17049670Y-1640971D01*
X16563489Y-1316115D01*
X15990000Y-1202041D01*
X15416511Y-1316115D01*
X14930330Y-1640971D01*
X14714336Y-1964228D01*
X14656821Y-1841510D01*
X14224947Y-1447312D01*
X13809026Y-1275042D01*
X13577000Y-1396183D01*
X13577000Y-2603000D01*
X13597000Y-2603000D01*
X13597000Y-2857000D01*
X13577000Y-2857000D01*
X13577000Y-2877000D01*
X13323000Y-2877000D01*
X13323000Y-2857000D01*
X13303000Y-2857000D01*
X13303000Y-2603000D01*
X13323000Y-2603000D01*
X13323000Y-1396183D01*
X13090974Y-1275042D01*
X12675053Y-1447312D01*
X12243179Y-1841510D01*
X12185664Y-1964228D01*
X11969670Y-1640971D01*
X11483489Y-1316115D01*
X10910000Y-1202041D01*
X10336511Y-1316115D01*
X9850330Y-1640971D01*
X9640000Y-1955752D01*
X9429670Y-1640971D01*
X8943489Y-1316115D01*
X8370000Y-1202041D01*
X7796511Y-1316115D01*
X7310330Y-1640971D01*
X6985474Y-2127152D01*
X6871400Y-2700641D01*
X6871400Y-2759359D01*
X6985474Y-3332848D01*
X7297904Y-3800432D01*
X7258635Y-3808243D01*
X7048591Y-3948591D01*
X6908243Y-4158635D01*
X6858960Y-4406400D01*
X6726646Y-4406400D01*
X6727559Y-3360926D01*
X6237313Y-2174439D01*
X5330336Y-1265877D01*
X4144706Y-773561D01*
X2860926Y-772441D01*
X1674439Y-1262687D01*
X765877Y-2169664D01*
X273561Y-3355294D01*
X272441Y-4639074D01*
X-415000Y-4639074D01*
X-415000Y-4500000D01*
X-414812Y-4285127D01*
X-579646Y-3886200D01*
X-884595Y-3580718D01*
X-1283233Y-3415189D01*
X-1714873Y-3414812D01*
X-2113800Y-3579646D01*
X-2419282Y-3884595D01*
X-2584811Y-4283233D01*
X-2585188Y-4714873D01*
X-2585000Y-4715328D01*
X-2585000Y-6414925D01*
X-2714873Y-6414812D01*
X-3113800Y-6579646D01*
X-3419282Y-6884595D01*
X-3584811Y-7283233D01*
X-3585188Y-7714873D01*
X-3420354Y-8113800D01*
X-3115405Y-8419282D01*
X-2716767Y-8584811D01*
X-2595951Y-8584917D01*
X-2585000Y-8595868D01*
X-2585000Y-8750000D01*
X-2502409Y-9165212D01*
X-2335365Y-9415211D01*
X-2335000Y-9415757D01*
X-2335000Y-12915144D01*
X-2714873Y-12914812D01*
X-3113800Y-13079646D01*
X-3419282Y-13384595D01*
X-3584811Y-13783233D01*
X-3585188Y-14214873D01*
X-3420354Y-14613800D01*
X-3115405Y-14919282D01*
X-2716767Y-15084811D01*
X-2595951Y-15084917D01*
X-2335000Y-15345868D01*
X-2335000Y-19915144D01*
X-2714873Y-19914812D01*
X-3113800Y-20079646D01*
X-3419282Y-20384595D01*
X-3584811Y-20783233D01*
X-3585188Y-21214873D01*
X-3420354Y-21613800D01*
X-3115405Y-21919282D01*
X-2716767Y-22084811D01*
X-2595951Y-22084917D01*
X-2335000Y-22345868D01*
X-2335000Y-27415144D01*
X-2714873Y-27414812D01*
X-3113800Y-27579646D01*
X-3419282Y-27884595D01*
X-3584811Y-28283233D01*
X-3585188Y-28714873D01*
X-3420354Y-29113800D01*
X-3115405Y-29419282D01*
X-2716767Y-29584811D01*
X-2595951Y-29584917D01*
X-2335000Y-29845868D01*
X-2335000Y-34130400D01*
X-2384595Y-34080718D01*
X-2783233Y-33915189D01*
X-3214873Y-33914812D01*
X-3613800Y-34079646D01*
X-3919282Y-34384595D01*
X-4084811Y-34783233D01*
X-4085188Y-35214873D01*
X-10022683Y-35214873D01*
X-10022683Y-22156003D01*
X-9922845Y-21915568D01*
X-9922521Y-21543602D01*
X-10064566Y-21199826D01*
X-10327356Y-20936577D01*
X-10589989Y-20827522D01*
X-10589989Y-16671808D01*
X-9760000Y-15841819D01*
X-9760000Y-21937537D01*
X-9792192Y-21969673D01*
X-9934838Y-22313201D01*
X-9935162Y-22685167D01*
X-9793117Y-23028943D01*
X-9530327Y-23292192D01*
X-9186799Y-23434838D01*
X-8814833Y-23435162D01*
X-8471057Y-23293117D01*
X-8207808Y-23030327D01*
X-8065162Y-22686799D01*
X-8064838Y-22314833D01*
X-8206883Y-21971057D01*
X-8240000Y-21937882D01*
X-8240000Y-6750000D01*
X-8297852Y-6459161D01*
X-8462599Y-6212599D01*
X-11092187Y-3583011D01*
X-10144706Y-3976439D01*
X-8860926Y-3977559D01*
X-7674439Y-3487313D01*
X-6765877Y-2580336D01*
X-6273561Y-1394706D01*
X-6272441Y-110926D01*
X-6762687Y1075561D01*
X-7669664Y1984123D01*
X-8285885Y2240000D01*
X26437537Y2240000D01*
X26469673Y2207808D01*
X26813201Y2065162D01*
X27185167Y2064838D01*
X27528943Y2206883D01*
X27792192Y2469673D01*
X27934838Y2813201D01*
X27935162Y3185167D01*
X27912532Y3239936D01*
X28685262Y3239936D01*
X29064878Y2860320D01*
X29064838Y2814833D01*
X29206883Y2471057D01*
X29469673Y2207808D01*
X29813201Y2065162D01*
X30185167Y2064838D01*
X30528943Y2206883D01*
X30792192Y2469673D01*
X30934838Y2813201D01*
X30934992Y2990206D01*
X31064878Y2860320D01*
X31064838Y2814833D01*
X31206883Y2471057D01*
X31469673Y2207808D01*
X31813201Y2065162D01*
X32185167Y2064838D01*
X32528943Y2206883D01*
X32792192Y2469673D01*
X32934838Y2813201D01*
X32934992Y2990206D01*
X33064878Y2860320D01*
X33064838Y2814833D01*
X33206883Y2471057D01*
X33469673Y2207808D01*
X33813201Y2065162D01*
X34185167Y2064838D01*
X34528943Y2206883D01*
X34792192Y2469673D01*
X34934838Y2813201D01*
X34934992Y2990206D01*
X35064878Y2860320D01*
X35064838Y2814833D01*
X35206883Y2471057D01*
X35469673Y2207808D01*
X35813201Y2065162D01*
X36185167Y2064838D01*
X36528943Y2206883D01*
X36792192Y2469673D01*
X36934838Y2813201D01*
X36934992Y2990206D01*
X37064878Y2860320D01*
X37064838Y2814833D01*
X37206883Y2471057D01*
X37469673Y2207808D01*
X37813201Y2065162D01*
X38185167Y2064838D01*
X38528943Y2206883D01*
X38792192Y2469673D01*
X38934838Y2813201D01*
X38934992Y2990206D01*
X39064878Y2860320D01*
X39064838Y2814833D01*
X39206883Y2471057D01*
X39469673Y2207808D01*
X39813201Y2065162D01*
X40185167Y2064838D01*
X40528943Y2206883D01*
X40792192Y2469673D01*
X40934838Y2813201D01*
X40934992Y2990206D01*
X41064878Y2860320D01*
X41064838Y2814833D01*
X41206883Y2471057D01*
X41469673Y2207808D01*
X41813201Y2065162D01*
X42185167Y2064838D01*
X42528943Y2206883D01*
X42792192Y2469673D01*
X42934838Y2813201D01*
X42935162Y3185167D01*
X42793117Y3528943D01*
X42530327Y3792192D01*
X42377000Y3855859D01*
X42377000Y8250000D01*
X42374016Y8265000D01*
X64873000Y8265000D01*
X64873000Y-785198D01*
M02*
