M48
METRIC,TZ
T1C0.300
T2C0.600
T3C0.700
T4C0.800
T5C1.016
T6C1.500
T7C2.750
%
G90
G05
T1
X-20000Y-40000
X-19500Y-50500
X-18000Y-11500
X-17786Y3750
X-17500Y-1250
X-14500Y-41500
X-14500Y-43000
X-13700Y-19746
X-13500Y-2250
X-13076Y-20372
X-12825Y-36500
X-12750Y-31750
X-12500Y-7800
X-12250Y-13000
X-11325Y-14000
X-10858Y-21729
X-10602Y-6102
X-9000Y-22500
X6000Y-14000
X6000Y-19000
X6000Y-24000
X6000Y-29000
X6000Y-34000
X6000Y-39000
X6000Y-44000
X6000Y-48000
X10000Y-14000
X10000Y-19000
X10000Y-24000
X10000Y-29000
X10000Y-34000
X10000Y-39000
X10000Y-44000
X10000Y-49000
X27000Y3000
X30000Y3000
X32000Y3000
X34000Y3000
X36000Y3000
X38000Y3000
X40000Y3000
X42000Y3000
T2
X-22750Y-37000
X-9825Y-14726
X-3000Y-35000
X-3000Y-38000
X-3000Y-50000
X-2500Y-7500
X-2500Y-14000
X-2500Y-21000
X-2500Y-28500
X-2500Y-43000
X-1500Y-4500
X0Y-19000
X0Y-24000
X0Y-29000
X0Y-34000
X0Y-39000
X0Y-44000
X0Y-48000
X1500Y-14000
X15000Y500
X17000Y-16000
X17000Y-21000
X17000Y-26000
X17000Y-31000
X17000Y-36000
X17000Y-41000
X17000Y-46000
X17000Y-51000
X25500Y-15000
X25500Y-20000
X25500Y-25000
X25500Y-30000
X25500Y-35000
X25500Y-40000
X25500Y-45000
X25500Y-50000
X28000Y-15000
X28000Y-20000
X28000Y-25000
X28000Y-30000
X28000Y-35000
X28000Y-40000
X28000Y-45000
X28000Y-50000
X30000Y-11000
X32000Y-11000
X34000Y-11000
X36000Y-11000
X38000Y-11000
X40000Y-11000
X40000Y-16000
X40000Y-21000
X40000Y-26000
X40000Y-31000
X40000Y-36000
X40000Y-41000
X40000Y-46500
X40000Y-51000
X42000Y-11000
X44000Y-11000
T3
X-26000Y-29500
X-26000Y6500
X-26000Y4500
X-26000Y2500
X-26000Y-1500
X-26000Y-41500
X-26000Y-43500
X-26000Y-45500
X-26000Y-49500
X-26000Y-51500
X-26000Y-53500
X-26000Y-33500
X-26000Y-35500
X-26000Y-37500
X-26000Y-25500
X-26000Y-27500
X-26000Y-17500
X-26000Y-19500
X-26000Y-21500
X-26000Y-9500
X-26000Y-11500
X-26000Y-13500
X-26000Y-3500
X-26000Y-5500
T4
X20500Y-58700
X20500Y-62500
X-1250Y-59000
X-1250Y-62800
T5
X8370Y-2730
X8370Y-5270
X10910Y-2730
X10910Y-5270
X13450Y-2730
X13450Y-5270
X15990Y-2730
X15990Y-5270
X18530Y-2730
X18530Y-5270
X21070Y-2730
X21070Y-5270
X23610Y-2730
X23610Y-5270
X26150Y-2730
X26150Y-5270
X28690Y-2730
X28690Y-5270
X31230Y-2730
X31230Y-5270
X33770Y-2730
X33770Y-5270
X36310Y-2730
X36310Y-5270
X38850Y-2730
X38850Y-5270
X41390Y-2730
X41390Y-5270
X43930Y-2730
X43930Y-5270
X46470Y-2730
X46470Y-5270
X49010Y-2730
X49010Y-5270
X51550Y-2730
X51550Y-5270
X54090Y-2730
X54090Y-5270
X56630Y-2730
X56630Y-5270
T6
X-22500Y-35312
X-16500Y-35312
X-22500Y-25312
X-16500Y-25312
X-22500Y-15312
X-16500Y-15312
X-22500Y-45312
X-16500Y-45312
X-22500Y-35312
X-16500Y-35312
X-22500Y-45312
X-16500Y-45312
X-22500Y-15312
X-16500Y-15312
X84000Y4250
X-22500Y-25312
X-16500Y-25312
X90000Y4250
T7
X61500Y-53000
X61500Y-4000
X3500Y-53000
X3500Y-4000
X-9500Y-750
X-9500Y-56250
X32500Y-56250
T4
X-21000Y-59900G85X-21000Y-62100
G05
X-18350Y-56350G85X-16650Y-56350
G05
X-15000Y-59900G85X-15000Y-62100
G05
T0
M30
