G04 #@! TF.GenerationSoftware,KiCad,Pcbnew,(2017-06-12 revision 19d5cc754)-master*
G04 #@! TF.CreationDate,2017-12-09T12:00:16+01:00*
G04 #@! TF.ProjectId,RPi_Hat,5250695F4861742E6B696361645F7063,rev?*
G04 #@! TF.FileFunction,Paste,Bot*
G04 #@! TF.FilePolarity,Positive*
%FSLAX46Y46*%
G04 Gerber Fmt 4.6, Leading zero omitted, Abs format (unit mm)*
G04 Created by KiCad (PCBNEW (2017-06-12 revision 19d5cc754)-master) date 2017 December 09, Saturday 12:00:16*
%MOMM*%
%LPD*%
G01*
G04 APERTURE LIST*
%ADD10C,0.100000*%
%ADD11R,1.250000X1.000000*%
%ADD12R,0.900000X0.500000*%
%ADD13R,1.000000X1.250000*%
%ADD14R,1.500000X1.500000*%
%ADD15R,1.300000X1.500000*%
%ADD16R,0.910000X1.220000*%
%ADD17R,2.499360X2.301240*%
%ADD18R,0.800100X0.800100*%
%ADD19R,0.500000X0.900000*%
G04 APERTURE END LIST*
D10*
D11*
X77500000Y5000000D03*
X77500000Y7000000D03*
D12*
X38000000Y-9750000D03*
X38000000Y-8250000D03*
X40000000Y-8250000D03*
X40000000Y-9750000D03*
X44000000Y-9750000D03*
X44000000Y-8250000D03*
X32000000Y1750000D03*
X32000000Y250000D03*
X36000000Y1750000D03*
X36000000Y250000D03*
X38000000Y1750000D03*
X38000000Y250000D03*
X42000000Y250000D03*
X42000000Y1750000D03*
X28000000Y250000D03*
X28000000Y1750000D03*
X30000000Y1750000D03*
X30000000Y250000D03*
X34000000Y250000D03*
X34000000Y1750000D03*
X40000000Y1750000D03*
X40000000Y250000D03*
X42000000Y-8250000D03*
X42000000Y-9750000D03*
X36000000Y-9750000D03*
X36000000Y-8250000D03*
X32000000Y-8250000D03*
X32000000Y-9750000D03*
X30000000Y-9750000D03*
X30000000Y-8250000D03*
X34000000Y-8250000D03*
X34000000Y-9750000D03*
D13*
X11500000Y500000D03*
X13500000Y500000D03*
D14*
X90700000Y7500000D03*
X87500000Y7500000D03*
X84000000Y7500000D03*
X90700000Y1000000D03*
X87500000Y1000000D03*
X84000000Y1000000D03*
D15*
X33000000Y-50770000D03*
X33000000Y-48230000D03*
X42000000Y-48230000D03*
X42000000Y-50770000D03*
X42000000Y-45770000D03*
X42000000Y-43230000D03*
X33000000Y-43230000D03*
X33000000Y-45770000D03*
X33000000Y-40770000D03*
X33000000Y-38230000D03*
X42000000Y-38230000D03*
X42000000Y-40770000D03*
X42000000Y-35770000D03*
X42000000Y-33230000D03*
X33000000Y-33230000D03*
X33000000Y-35770000D03*
X33000000Y-30770000D03*
X33000000Y-28230000D03*
X42000000Y-28230000D03*
X42000000Y-30770000D03*
X42000000Y-25770000D03*
X42000000Y-23230000D03*
X33000000Y-23230000D03*
X33000000Y-25770000D03*
X33000000Y-20770000D03*
X33000000Y-18230000D03*
X42000000Y-18230000D03*
X42000000Y-20770000D03*
X42000000Y-15770000D03*
X42000000Y-13230000D03*
X33000000Y-13230000D03*
X33000000Y-15770000D03*
D14*
X-16500000Y-42061510D03*
X-20000000Y-42061510D03*
X-23200000Y-42061510D03*
X-16500000Y-48561510D03*
X-20000000Y-48561510D03*
X-23200000Y-48561510D03*
X-23200000Y-18561510D03*
X-20000000Y-18561510D03*
X-16500000Y-18561510D03*
X-23200000Y-12061510D03*
X-20000000Y-12061510D03*
X-16500000Y-12061510D03*
X-16500000Y-22061510D03*
X-20000000Y-22061510D03*
X-23200000Y-22061510D03*
X-16500000Y-28561510D03*
X-20000000Y-28561510D03*
X-23200000Y-28561510D03*
X-23200000Y-38561510D03*
X-20000000Y-38561510D03*
X-16500000Y-38561510D03*
X-23200000Y-32061510D03*
X-20000000Y-32061510D03*
X-16500000Y-32061510D03*
D16*
X24135000Y-50000000D03*
X20865000Y-50000000D03*
X24135000Y-45000000D03*
X20865000Y-45000000D03*
X20865000Y-40000000D03*
X24135000Y-40000000D03*
X24135000Y-35000000D03*
X20865000Y-35000000D03*
X24135000Y-30000000D03*
X20865000Y-30000000D03*
X20865000Y-25000000D03*
X24135000Y-25000000D03*
X20865000Y-20000000D03*
X24135000Y-20000000D03*
X20865000Y-15000000D03*
X24135000Y-15000000D03*
D17*
X-5351160Y-50000000D03*
X-9648840Y-50000000D03*
X-5351160Y-42500000D03*
X-9648840Y-42500000D03*
X-9648840Y-35000000D03*
X-5351160Y-35000000D03*
X-9648840Y-27500000D03*
X-5351160Y-27500000D03*
X-5351160Y-20000000D03*
X-9648840Y-20000000D03*
X-5351160Y-12500000D03*
X-9648840Y-12500000D03*
X-19648840Y-5000000D03*
X-15351160Y-5000000D03*
X-19648840Y2500000D03*
X-15351160Y2500000D03*
D16*
X11635000Y-60000000D03*
X8365000Y-60000000D03*
D18*
X15000000Y-50998220D03*
X15950000Y-48999240D03*
X14050000Y-48999240D03*
X14050000Y-43999240D03*
X15950000Y-43999240D03*
X15000000Y-45998220D03*
X14050000Y-38999240D03*
X15950000Y-38999240D03*
X15000000Y-40998220D03*
X14050000Y-33999240D03*
X15950000Y-33999240D03*
X15000000Y-35998220D03*
X15000000Y-30998220D03*
X15950000Y-28999240D03*
X14050000Y-28999240D03*
X15000000Y-25998220D03*
X15950000Y-23999240D03*
X14050000Y-23999240D03*
X14050000Y-18999240D03*
X15950000Y-18999240D03*
X15000000Y-20998220D03*
X15000000Y-15998220D03*
X15950000Y-13999240D03*
X14050000Y-13999240D03*
D19*
X44250000Y-50500000D03*
X45750000Y-50500000D03*
X44250000Y-45500000D03*
X45750000Y-45500000D03*
X44250000Y-40500000D03*
X45750000Y-40500000D03*
X44250000Y-35500000D03*
X45750000Y-35500000D03*
X44250000Y-30500000D03*
X45750000Y-30500000D03*
X44250000Y-25500000D03*
X45750000Y-25500000D03*
X44250000Y-20500000D03*
X45750000Y-20500000D03*
X44250000Y-15500000D03*
X45750000Y-15500000D03*
X30750000Y-50000000D03*
X29250000Y-50000000D03*
X30750000Y-45000000D03*
X29250000Y-45000000D03*
X30750000Y-40000000D03*
X29250000Y-40000000D03*
X30750000Y-35000000D03*
X29250000Y-35000000D03*
X30750000Y-30000000D03*
X29250000Y-30000000D03*
X30750000Y-25000000D03*
X29250000Y-25000000D03*
X30750000Y-20000000D03*
X29250000Y-20000000D03*
X30750000Y-15000000D03*
X29250000Y-15000000D03*
X3750000Y-48000000D03*
X2250000Y-48000000D03*
X2250000Y-44000000D03*
X3750000Y-44000000D03*
X2250000Y-39000000D03*
X3750000Y-39000000D03*
X3750000Y-34000000D03*
X2250000Y-34000000D03*
X3750000Y-29000000D03*
X2250000Y-29000000D03*
X3750000Y-24000000D03*
X2250000Y-24000000D03*
X2250000Y-19000000D03*
X3750000Y-19000000D03*
X2250000Y-14000000D03*
X3750000Y-14000000D03*
M02*
