G04 #@! TF.GenerationSoftware,KiCad,Pcbnew,(2017-06-12 revision 19d5cc754)-master*
G04 #@! TF.CreationDate,2017-12-09T12:00:16+01:00*
G04 #@! TF.ProjectId,RPi_Hat,5250695F4861742E6B696361645F7063,rev?*
G04 #@! TF.FileFunction,Legend,Top*
G04 #@! TF.FilePolarity,Positive*
%FSLAX46Y46*%
G04 Gerber Fmt 4.6, Leading zero omitted, Abs format (unit mm)*
G04 Created by KiCad (PCBNEW (2017-06-12 revision 19d5cc754)-master) date 2017 December 09, Saturday 12:00:16*
%MOMM*%
%LPD*%
G01*
G04 APERTURE LIST*
%ADD10C,0.100000*%
%ADD11C,0.300000*%
%ADD12C,0.010000*%
%ADD13C,0.150000*%
%ADD14C,0.127000*%
%ADD15C,0.101600*%
G04 APERTURE END LIST*
D10*
D11*
X40587857Y-58903571D02*
X40873571Y-58903571D01*
X41016428Y-58975000D01*
X41159285Y-59117857D01*
X41230714Y-59403571D01*
X41230714Y-59903571D01*
X41159285Y-60189285D01*
X41016428Y-60332142D01*
X40873571Y-60403571D01*
X40587857Y-60403571D01*
X40445000Y-60332142D01*
X40302142Y-60189285D01*
X40230714Y-59903571D01*
X40230714Y-59403571D01*
X40302142Y-59117857D01*
X40445000Y-58975000D01*
X40587857Y-58903571D01*
X42516428Y-60332142D02*
X42373571Y-60403571D01*
X42087857Y-60403571D01*
X41945000Y-60332142D01*
X41873571Y-60260714D01*
X41802142Y-60117857D01*
X41802142Y-59689285D01*
X41873571Y-59546428D01*
X41945000Y-59475000D01*
X42087857Y-59403571D01*
X42373571Y-59403571D01*
X42516428Y-59475000D01*
X42945000Y-59403571D02*
X43516428Y-59403571D01*
X43159285Y-58903571D02*
X43159285Y-60189285D01*
X43230714Y-60332142D01*
X43373571Y-60403571D01*
X43516428Y-60403571D01*
X44659285Y-60403571D02*
X44659285Y-59617857D01*
X44587857Y-59475000D01*
X44445000Y-59403571D01*
X44159285Y-59403571D01*
X44016428Y-59475000D01*
X44659285Y-60332142D02*
X44516428Y-60403571D01*
X44159285Y-60403571D01*
X44016428Y-60332142D01*
X43945000Y-60189285D01*
X43945000Y-60046428D01*
X44016428Y-59903571D01*
X44159285Y-59832142D01*
X44516428Y-59832142D01*
X44659285Y-59760714D01*
X45373571Y-59403571D02*
X45373571Y-60403571D01*
X45373571Y-59546428D02*
X45445000Y-59475000D01*
X45587857Y-59403571D01*
X45802142Y-59403571D01*
X45945000Y-59475000D01*
X46016428Y-59617857D01*
X46016428Y-60403571D01*
X46730714Y-60403571D02*
X46730714Y-59403571D01*
X46730714Y-58903571D02*
X46659285Y-58975000D01*
X46730714Y-59046428D01*
X46802142Y-58975000D01*
X46730714Y-58903571D01*
X46730714Y-59046428D01*
X47373571Y-60332142D02*
X47516428Y-60403571D01*
X47802142Y-60403571D01*
X47945000Y-60332142D01*
X48016428Y-60189285D01*
X48016428Y-60117857D01*
X47945000Y-59975000D01*
X47802142Y-59903571D01*
X47587857Y-59903571D01*
X47445000Y-59832142D01*
X47373571Y-59689285D01*
X47373571Y-59617857D01*
X47445000Y-59475000D01*
X47587857Y-59403571D01*
X47802142Y-59403571D01*
X47945000Y-59475000D01*
X50516428Y-58903571D02*
X49802142Y-58903571D01*
X49730714Y-59617857D01*
X49802142Y-59546428D01*
X49945000Y-59475000D01*
X50302142Y-59475000D01*
X50445000Y-59546428D01*
X50516428Y-59617857D01*
X50587857Y-59760714D01*
X50587857Y-60117857D01*
X50516428Y-60260714D01*
X50445000Y-60332142D01*
X50302142Y-60403571D01*
X49945000Y-60403571D01*
X49802142Y-60332142D01*
X49730714Y-60260714D01*
X53230714Y-60403571D02*
X52730714Y-59689285D01*
X52373571Y-60403571D02*
X52373571Y-58903571D01*
X52945000Y-58903571D01*
X53087857Y-58975000D01*
X53159285Y-59046428D01*
X53230714Y-59189285D01*
X53230714Y-59403571D01*
X53159285Y-59546428D01*
X53087857Y-59617857D01*
X52945000Y-59689285D01*
X52373571Y-59689285D01*
X54516428Y-60403571D02*
X54516428Y-59617857D01*
X54445000Y-59475000D01*
X54302142Y-59403571D01*
X54016428Y-59403571D01*
X53873571Y-59475000D01*
X54516428Y-60332142D02*
X54373571Y-60403571D01*
X54016428Y-60403571D01*
X53873571Y-60332142D01*
X53802142Y-60189285D01*
X53802142Y-60046428D01*
X53873571Y-59903571D01*
X54016428Y-59832142D01*
X54373571Y-59832142D01*
X54516428Y-59760714D01*
X55873571Y-60332142D02*
X55730714Y-60403571D01*
X55445000Y-60403571D01*
X55302142Y-60332142D01*
X55230714Y-60260714D01*
X55159285Y-60117857D01*
X55159285Y-59689285D01*
X55230714Y-59546428D01*
X55302142Y-59475000D01*
X55445000Y-59403571D01*
X55730714Y-59403571D01*
X55873571Y-59475000D01*
X56516428Y-60403571D02*
X56516428Y-58903571D01*
X56659285Y-59832142D02*
X57087857Y-60403571D01*
X57087857Y-59403571D02*
X56516428Y-59975000D01*
X58873571Y-60403571D02*
X58873571Y-58903571D01*
X59373571Y-59975000D01*
X59873571Y-58903571D01*
X59873571Y-60403571D01*
X60873571Y-58903571D02*
X61159285Y-58903571D01*
X61302142Y-58975000D01*
X61444999Y-59117857D01*
X61516428Y-59403571D01*
X61516428Y-59903571D01*
X61444999Y-60189285D01*
X61302142Y-60332142D01*
X61159285Y-60403571D01*
X60873571Y-60403571D01*
X60730714Y-60332142D01*
X60587857Y-60189285D01*
X60516428Y-59903571D01*
X60516428Y-59403571D01*
X60587857Y-59117857D01*
X60730714Y-58975000D01*
X60873571Y-58903571D01*
X62087857Y-60332142D02*
X62302142Y-60403571D01*
X62659285Y-60403571D01*
X62802142Y-60332142D01*
X62873571Y-60260714D01*
X62944999Y-60117857D01*
X62944999Y-59975000D01*
X62873571Y-59832142D01*
X62802142Y-59760714D01*
X62659285Y-59689285D01*
X62373571Y-59617857D01*
X62230714Y-59546428D01*
X62159285Y-59475000D01*
X62087857Y-59332142D01*
X62087857Y-59189285D01*
X62159285Y-59046428D01*
X62230714Y-58975000D01*
X62373571Y-58903571D01*
X62730714Y-58903571D01*
X62944999Y-58975000D01*
X64087857Y-59617857D02*
X63587857Y-59617857D01*
X63587857Y-60403571D02*
X63587857Y-58903571D01*
X64302142Y-58903571D01*
X64873571Y-59617857D02*
X65373571Y-59617857D01*
X65587857Y-60403571D02*
X64873571Y-60403571D01*
X64873571Y-58903571D01*
X65587857Y-58903571D01*
X66016428Y-58903571D02*
X66873571Y-58903571D01*
X66445000Y-60403571D02*
X66445000Y-58903571D01*
X69159285Y-60403571D02*
X69159285Y-58903571D01*
X69159285Y-60332142D02*
X69016428Y-60403571D01*
X68730714Y-60403571D01*
X68587857Y-60332142D01*
X68516428Y-60260714D01*
X68445000Y-60117857D01*
X68445000Y-59689285D01*
X68516428Y-59546428D01*
X68587857Y-59475000D01*
X68730714Y-59403571D01*
X69016428Y-59403571D01*
X69159285Y-59475000D01*
X69873571Y-60403571D02*
X69873571Y-59403571D01*
X69873571Y-59689285D02*
X69945000Y-59546428D01*
X70016428Y-59475000D01*
X70159285Y-59403571D01*
X70302142Y-59403571D01*
X70802142Y-60403571D02*
X70802142Y-59403571D01*
X70802142Y-58903571D02*
X70730714Y-58975000D01*
X70802142Y-59046428D01*
X70873571Y-58975000D01*
X70802142Y-58903571D01*
X70802142Y-59046428D01*
X71373571Y-59403571D02*
X71730714Y-60403571D01*
X72087857Y-59403571D01*
X73230714Y-60332142D02*
X73087857Y-60403571D01*
X72802142Y-60403571D01*
X72659285Y-60332142D01*
X72587857Y-60189285D01*
X72587857Y-59617857D01*
X72659285Y-59475000D01*
X72802142Y-59403571D01*
X73087857Y-59403571D01*
X73230714Y-59475000D01*
X73302142Y-59617857D01*
X73302142Y-59760714D01*
X72587857Y-59903571D01*
X73945000Y-60403571D02*
X73945000Y-59403571D01*
X73945000Y-59689285D02*
X74016428Y-59546428D01*
X74087857Y-59475000D01*
X74230714Y-59403571D01*
X74373571Y-59403571D01*
X76016428Y-60403571D02*
X76016428Y-58903571D01*
X76016428Y-59475000D02*
X76159285Y-59403571D01*
X76444999Y-59403571D01*
X76587857Y-59475000D01*
X76659285Y-59546428D01*
X76730714Y-59689285D01*
X76730714Y-60117857D01*
X76659285Y-60260714D01*
X76587857Y-60332142D01*
X76444999Y-60403571D01*
X76159285Y-60403571D01*
X76016428Y-60332142D01*
X77587857Y-60403571D02*
X77444999Y-60332142D01*
X77373571Y-60260714D01*
X77302142Y-60117857D01*
X77302142Y-59689285D01*
X77373571Y-59546428D01*
X77444999Y-59475000D01*
X77587857Y-59403571D01*
X77802142Y-59403571D01*
X77944999Y-59475000D01*
X78016428Y-59546428D01*
X78087857Y-59689285D01*
X78087857Y-60117857D01*
X78016428Y-60260714D01*
X77944999Y-60332142D01*
X77802142Y-60403571D01*
X77587857Y-60403571D01*
X79373571Y-60403571D02*
X79373571Y-59617857D01*
X79302142Y-59475000D01*
X79159285Y-59403571D01*
X78873571Y-59403571D01*
X78730714Y-59475000D01*
X79373571Y-60332142D02*
X79230714Y-60403571D01*
X78873571Y-60403571D01*
X78730714Y-60332142D01*
X78659285Y-60189285D01*
X78659285Y-60046428D01*
X78730714Y-59903571D01*
X78873571Y-59832142D01*
X79230714Y-59832142D01*
X79373571Y-59760714D01*
X80087857Y-60403571D02*
X80087857Y-59403571D01*
X80087857Y-59689285D02*
X80159285Y-59546428D01*
X80230714Y-59475000D01*
X80373571Y-59403571D01*
X80516428Y-59403571D01*
X81659285Y-60403571D02*
X81659285Y-58903571D01*
X81659285Y-60332142D02*
X81516428Y-60403571D01*
X81230714Y-60403571D01*
X81087857Y-60332142D01*
X81016428Y-60260714D01*
X80944999Y-60117857D01*
X80944999Y-59689285D01*
X81016428Y-59546428D01*
X81087857Y-59475000D01*
X81230714Y-59403571D01*
X81516428Y-59403571D01*
X81659285Y-59475000D01*
X83373571Y-59403571D02*
X83730714Y-60403571D01*
X84087857Y-59403571D01*
X85444999Y-60403571D02*
X84587857Y-60403571D01*
X85016428Y-60403571D02*
X85016428Y-58903571D01*
X84873571Y-59117857D01*
X84730714Y-59260714D01*
X84587857Y-59332142D01*
X86087857Y-60260714D02*
X86159285Y-60332142D01*
X86087857Y-60403571D01*
X86016428Y-60332142D01*
X86087857Y-60260714D01*
X86087857Y-60403571D01*
X87087857Y-58903571D02*
X87230714Y-58903571D01*
X87373571Y-58975000D01*
X87444999Y-59046428D01*
X87516428Y-59189285D01*
X87587857Y-59475000D01*
X87587857Y-59832142D01*
X87516428Y-60117857D01*
X87444999Y-60260714D01*
X87373571Y-60332142D01*
X87230714Y-60403571D01*
X87087857Y-60403571D01*
X86944999Y-60332142D01*
X86873571Y-60260714D01*
X86802142Y-60117857D01*
X86730714Y-59832142D01*
X86730714Y-59475000D01*
X86802142Y-59189285D01*
X86873571Y-59046428D01*
X86944999Y-58975000D01*
X87087857Y-58903571D01*
X88230714Y-60260714D02*
X88302142Y-60332142D01*
X88230714Y-60403571D01*
X88159285Y-60332142D01*
X88230714Y-60260714D01*
X88230714Y-60403571D01*
X40302142Y-62953571D02*
X40302142Y-61953571D01*
X40302142Y-62239285D02*
X40373571Y-62096428D01*
X40445000Y-62025000D01*
X40587857Y-61953571D01*
X40730714Y-61953571D01*
X41873571Y-62953571D02*
X41873571Y-62167857D01*
X41802142Y-62025000D01*
X41659285Y-61953571D01*
X41373571Y-61953571D01*
X41230714Y-62025000D01*
X41873571Y-62882142D02*
X41730714Y-62953571D01*
X41373571Y-62953571D01*
X41230714Y-62882142D01*
X41159285Y-62739285D01*
X41159285Y-62596428D01*
X41230714Y-62453571D01*
X41373571Y-62382142D01*
X41730714Y-62382142D01*
X41873571Y-62310714D01*
X43230714Y-62882142D02*
X43087857Y-62953571D01*
X42802142Y-62953571D01*
X42659285Y-62882142D01*
X42587857Y-62810714D01*
X42516428Y-62667857D01*
X42516428Y-62239285D01*
X42587857Y-62096428D01*
X42659285Y-62025000D01*
X42802142Y-61953571D01*
X43087857Y-61953571D01*
X43230714Y-62025000D01*
X43873571Y-62953571D02*
X43873571Y-61453571D01*
X44016428Y-62382142D02*
X44445000Y-62953571D01*
X44445000Y-61953571D02*
X43873571Y-62525000D01*
X45016428Y-62882142D02*
X45159285Y-62953571D01*
X45445000Y-62953571D01*
X45587857Y-62882142D01*
X45659285Y-62739285D01*
X45659285Y-62667857D01*
X45587857Y-62525000D01*
X45445000Y-62453571D01*
X45230714Y-62453571D01*
X45087857Y-62382142D01*
X45016428Y-62239285D01*
X45016428Y-62167857D01*
X45087857Y-62025000D01*
X45230714Y-61953571D01*
X45445000Y-61953571D01*
X45587857Y-62025000D01*
X46302142Y-62810714D02*
X46373571Y-62882142D01*
X46302142Y-62953571D01*
X46230714Y-62882142D01*
X46302142Y-62810714D01*
X46302142Y-62953571D01*
X47230714Y-62953571D02*
X47087857Y-62882142D01*
X47016428Y-62810714D01*
X46945000Y-62667857D01*
X46945000Y-62239285D01*
X47016428Y-62096428D01*
X47087857Y-62025000D01*
X47230714Y-61953571D01*
X47445000Y-61953571D01*
X47587857Y-62025000D01*
X47659285Y-62096428D01*
X47730714Y-62239285D01*
X47730714Y-62667857D01*
X47659285Y-62810714D01*
X47587857Y-62882142D01*
X47445000Y-62953571D01*
X47230714Y-62953571D01*
X49016428Y-62882142D02*
X48873571Y-62953571D01*
X48587857Y-62953571D01*
X48445000Y-62882142D01*
X48373571Y-62810714D01*
X48302142Y-62667857D01*
X48302142Y-62239285D01*
X48373571Y-62096428D01*
X48445000Y-62025000D01*
X48587857Y-61953571D01*
X48873571Y-61953571D01*
X49016428Y-62025000D01*
X49445000Y-61953571D02*
X50016428Y-61953571D01*
X49659285Y-61453571D02*
X49659285Y-62739285D01*
X49730714Y-62882142D01*
X49873571Y-62953571D01*
X50016428Y-62953571D01*
X51159285Y-62953571D02*
X51159285Y-62167857D01*
X51087857Y-62025000D01*
X50945000Y-61953571D01*
X50659285Y-61953571D01*
X50516428Y-62025000D01*
X51159285Y-62882142D02*
X51016428Y-62953571D01*
X50659285Y-62953571D01*
X50516428Y-62882142D01*
X50445000Y-62739285D01*
X50445000Y-62596428D01*
X50516428Y-62453571D01*
X50659285Y-62382142D01*
X51016428Y-62382142D01*
X51159285Y-62310714D01*
X51873571Y-61953571D02*
X51873571Y-62953571D01*
X51873571Y-62096428D02*
X51945000Y-62025000D01*
X52087857Y-61953571D01*
X52302142Y-61953571D01*
X52445000Y-62025000D01*
X52516428Y-62167857D01*
X52516428Y-62953571D01*
X53230714Y-62953571D02*
X53230714Y-61953571D01*
X53230714Y-61453571D02*
X53159285Y-61525000D01*
X53230714Y-61596428D01*
X53302142Y-61525000D01*
X53230714Y-61453571D01*
X53230714Y-61596428D01*
X53873571Y-62882142D02*
X54016428Y-62953571D01*
X54302142Y-62953571D01*
X54445000Y-62882142D01*
X54516428Y-62739285D01*
X54516428Y-62667857D01*
X54445000Y-62525000D01*
X54302142Y-62453571D01*
X54087857Y-62453571D01*
X53945000Y-62382142D01*
X53873571Y-62239285D01*
X53873571Y-62167857D01*
X53945000Y-62025000D01*
X54087857Y-61953571D01*
X54302142Y-61953571D01*
X54445000Y-62025000D01*
X55159285Y-62810714D02*
X55230714Y-62882142D01*
X55159285Y-62953571D01*
X55087857Y-62882142D01*
X55159285Y-62810714D01*
X55159285Y-62953571D01*
X56087857Y-62953571D02*
X55945000Y-62882142D01*
X55873571Y-62810714D01*
X55802142Y-62667857D01*
X55802142Y-62239285D01*
X55873571Y-62096428D01*
X55945000Y-62025000D01*
X56087857Y-61953571D01*
X56302142Y-61953571D01*
X56445000Y-62025000D01*
X56516428Y-62096428D01*
X56587857Y-62239285D01*
X56587857Y-62667857D01*
X56516428Y-62810714D01*
X56445000Y-62882142D01*
X56302142Y-62953571D01*
X56087857Y-62953571D01*
X57230714Y-62953571D02*
X57230714Y-61953571D01*
X57230714Y-62239285D02*
X57302142Y-62096428D01*
X57373571Y-62025000D01*
X57516428Y-61953571D01*
X57659285Y-61953571D01*
X58802142Y-61953571D02*
X58802142Y-63167857D01*
X58730714Y-63310714D01*
X58659285Y-63382142D01*
X58516428Y-63453571D01*
X58302142Y-63453571D01*
X58159285Y-63382142D01*
X58802142Y-62882142D02*
X58659285Y-62953571D01*
X58373571Y-62953571D01*
X58230714Y-62882142D01*
X58159285Y-62810714D01*
X58087857Y-62667857D01*
X58087857Y-62239285D01*
X58159285Y-62096428D01*
X58230714Y-62025000D01*
X58373571Y-61953571D01*
X58659285Y-61953571D01*
X58802142Y-62025000D01*
X-20000000Y7321428D02*
X-21142857Y6892857D01*
X-20000000Y6464285D01*
X-19285714Y6892857D02*
X-18142857Y6892857D01*
X-16285714Y6321428D02*
X-16285714Y7321428D01*
X-16285714Y7178571D02*
X-16214285Y7250000D01*
X-16071428Y7321428D01*
X-15857142Y7321428D01*
X-15714285Y7250000D01*
X-15642857Y7107142D01*
X-15642857Y6321428D01*
X-15642857Y7107142D02*
X-15571428Y7250000D01*
X-15428571Y7321428D01*
X-15214285Y7321428D01*
X-15071428Y7250000D01*
X-15000000Y7107142D01*
X-15000000Y6321428D01*
X-14071428Y6321428D02*
X-14214285Y6392857D01*
X-14285714Y6464285D01*
X-14357142Y6607142D01*
X-14357142Y7035714D01*
X-14285714Y7178571D01*
X-14214285Y7250000D01*
X-14071428Y7321428D01*
X-13857142Y7321428D01*
X-13714285Y7250000D01*
X-13642857Y7178571D01*
X-13571428Y7035714D01*
X-13571428Y6607142D01*
X-13642857Y6464285D01*
X-13714285Y6392857D01*
X-13857142Y6321428D01*
X-14071428Y6321428D01*
X-12285714Y7321428D02*
X-12285714Y6321428D01*
X-12928571Y7321428D02*
X-12928571Y6535714D01*
X-12857142Y6392857D01*
X-12714285Y6321428D01*
X-12500000Y6321428D01*
X-12357142Y6392857D01*
X-12285714Y6464285D01*
X-11571428Y7321428D02*
X-11571428Y6321428D01*
X-11571428Y7178571D02*
X-11500000Y7250000D01*
X-11357142Y7321428D01*
X-11142857Y7321428D01*
X-11000000Y7250000D01*
X-10928571Y7107142D01*
X-10928571Y6321428D01*
X-10428571Y7321428D02*
X-9857142Y7321428D01*
X-10214285Y7821428D02*
X-10214285Y6535714D01*
X-10142857Y6392857D01*
X-10000000Y6321428D01*
X-9857142Y6321428D01*
X-8214285Y6321428D02*
X-8214285Y7821428D01*
X-7642857Y7821428D01*
X-7500000Y7750000D01*
X-7428571Y7678571D01*
X-7357142Y7535714D01*
X-7357142Y7321428D01*
X-7428571Y7178571D01*
X-7500000Y7107142D01*
X-7642857Y7035714D01*
X-8214285Y7035714D01*
X-6714285Y6321428D02*
X-6714285Y7821428D01*
X-6714285Y7107142D02*
X-5857142Y7107142D01*
X-5857142Y6321428D02*
X-5857142Y7821428D01*
X-3357142Y6392857D02*
X-3500000Y6321428D01*
X-3785714Y6321428D01*
X-3928571Y6392857D01*
X-4000000Y6464285D01*
X-4071428Y6607142D01*
X-4071428Y7035714D01*
X-4000000Y7178571D01*
X-3928571Y7250000D01*
X-3785714Y7321428D01*
X-3500000Y7321428D01*
X-3357142Y7250000D01*
X-2500000Y6321428D02*
X-2642857Y6392857D01*
X-2714285Y6464285D01*
X-2785714Y6607142D01*
X-2785714Y7035714D01*
X-2714285Y7178571D01*
X-2642857Y7250000D01*
X-2500000Y7321428D01*
X-2285714Y7321428D01*
X-2142857Y7250000D01*
X-2071428Y7178571D01*
X-2000000Y7035714D01*
X-2000000Y6607142D01*
X-2071428Y6464285D01*
X-2142857Y6392857D01*
X-2285714Y6321428D01*
X-2500000Y6321428D01*
X-1357142Y7321428D02*
X-1357142Y6321428D01*
X-1357142Y7178571D02*
X-1285714Y7250000D01*
X-1142857Y7321428D01*
X-928571Y7321428D01*
X-785714Y7250000D01*
X-714285Y7107142D01*
X-714285Y6321428D01*
X0Y7321428D02*
X0Y6321428D01*
X0Y7178571D02*
X71428Y7250000D01*
X214285Y7321428D01*
X428571Y7321428D01*
X571428Y7250000D01*
X642857Y7107142D01*
X642857Y6321428D01*
X1928571Y6392857D02*
X1785714Y6321428D01*
X1499999Y6321428D01*
X1357142Y6392857D01*
X1285714Y6535714D01*
X1285714Y7107142D01*
X1357142Y7250000D01*
X1499999Y7321428D01*
X1785714Y7321428D01*
X1928571Y7250000D01*
X1999999Y7107142D01*
X1999999Y6964285D01*
X1285714Y6821428D01*
X3285714Y6392857D02*
X3142857Y6321428D01*
X2857142Y6321428D01*
X2714285Y6392857D01*
X2642857Y6464285D01*
X2571428Y6607142D01*
X2571428Y7035714D01*
X2642857Y7178571D01*
X2714285Y7250000D01*
X2857142Y7321428D01*
X3142857Y7321428D01*
X3285714Y7250000D01*
X3714285Y7321428D02*
X4285714Y7321428D01*
X3928571Y7821428D02*
X3928571Y6535714D01*
X3999999Y6392857D01*
X4142857Y6321428D01*
X4285714Y6321428D01*
X4999999Y6321428D02*
X4857142Y6392857D01*
X4785714Y6464285D01*
X4714285Y6607142D01*
X4714285Y7035714D01*
X4785714Y7178571D01*
X4857142Y7250000D01*
X4999999Y7321428D01*
X5214285Y7321428D01*
X5357142Y7250000D01*
X5428571Y7178571D01*
X5499999Y7035714D01*
X5499999Y6607142D01*
X5428571Y6464285D01*
X5357142Y6392857D01*
X5214285Y6321428D01*
X4999999Y6321428D01*
X6142857Y6321428D02*
X6142857Y7321428D01*
X6142857Y7035714D02*
X6214285Y7178571D01*
X6285714Y7250000D01*
X6428571Y7321428D01*
X6571428Y7321428D01*
X7000000Y6392857D02*
X7142857Y6321428D01*
X7428571Y6321428D01*
X7571428Y6392857D01*
X7642857Y6535714D01*
X7642857Y6607142D01*
X7571428Y6750000D01*
X7428571Y6821428D01*
X7214285Y6821428D01*
X7071428Y6892857D01*
X7000000Y7035714D01*
X7000000Y7107142D01*
X7071428Y7250000D01*
X7214285Y7321428D01*
X7428571Y7321428D01*
X7571428Y7250000D01*
X9642857Y6321428D02*
X9499999Y6392857D01*
X9428571Y6464285D01*
X9357142Y6607142D01*
X9357142Y7035714D01*
X9428571Y7178571D01*
X9499999Y7250000D01*
X9642857Y7321428D01*
X9857142Y7321428D01*
X9999999Y7250000D01*
X10071428Y7178571D01*
X10142857Y7035714D01*
X10142857Y6607142D01*
X10071428Y6464285D01*
X9999999Y6392857D01*
X9857142Y6321428D01*
X9642857Y6321428D01*
X10785714Y7321428D02*
X10785714Y6321428D01*
X10785714Y7178571D02*
X10857142Y7250000D01*
X10999999Y7321428D01*
X11214285Y7321428D01*
X11357142Y7250000D01*
X11428571Y7107142D01*
X11428571Y6321428D01*
X13071428Y7321428D02*
X13642857Y7321428D01*
X13285714Y7821428D02*
X13285714Y6535714D01*
X13357142Y6392857D01*
X13500000Y6321428D01*
X13642857Y6321428D01*
X14142857Y6321428D02*
X14142857Y7821428D01*
X14785714Y6321428D02*
X14785714Y7107142D01*
X14714285Y7250000D01*
X14571428Y7321428D01*
X14357142Y7321428D01*
X14214285Y7250000D01*
X14142857Y7178571D01*
X15500000Y6321428D02*
X15500000Y7321428D01*
X15500000Y7821428D02*
X15428571Y7750000D01*
X15500000Y7678571D01*
X15571428Y7750000D01*
X15500000Y7821428D01*
X15500000Y7678571D01*
X16142857Y6392857D02*
X16285714Y6321428D01*
X16571428Y6321428D01*
X16714285Y6392857D01*
X16785714Y6535714D01*
X16785714Y6607142D01*
X16714285Y6750000D01*
X16571428Y6821428D01*
X16357142Y6821428D01*
X16214285Y6892857D01*
X16142857Y7035714D01*
X16142857Y7107142D01*
X16214285Y7250000D01*
X16357142Y7321428D01*
X16571428Y7321428D01*
X16714285Y7250000D01*
X18500000Y6392857D02*
X18642857Y6321428D01*
X18928571Y6321428D01*
X19071428Y6392857D01*
X19142857Y6535714D01*
X19142857Y6607142D01*
X19071428Y6750000D01*
X18928571Y6821428D01*
X18714285Y6821428D01*
X18571428Y6892857D01*
X18500000Y7035714D01*
X18500000Y7107142D01*
X18571428Y7250000D01*
X18714285Y7321428D01*
X18928571Y7321428D01*
X19071428Y7250000D01*
X19785714Y6321428D02*
X19785714Y7321428D01*
X19785714Y7821428D02*
X19714285Y7750000D01*
X19785714Y7678571D01*
X19857142Y7750000D01*
X19785714Y7821428D01*
X19785714Y7678571D01*
X21142857Y6321428D02*
X21142857Y7821428D01*
X21142857Y6392857D02*
X21000000Y6321428D01*
X20714285Y6321428D01*
X20571428Y6392857D01*
X20500000Y6464285D01*
X20428571Y6607142D01*
X20428571Y7035714D01*
X20500000Y7178571D01*
X20571428Y7250000D01*
X20714285Y7321428D01*
X21000000Y7321428D01*
X21142857Y7250000D01*
X22428571Y6392857D02*
X22285714Y6321428D01*
X22000000Y6321428D01*
X21857142Y6392857D01*
X21785714Y6535714D01*
X21785714Y7107142D01*
X21857142Y7250000D01*
X22000000Y7321428D01*
X22285714Y7321428D01*
X22428571Y7250000D01*
X22500000Y7107142D01*
X22500000Y6964285D01*
X21785714Y6821428D01*
X23142857Y6464285D02*
X23214285Y6392857D01*
X23142857Y6321428D01*
X23071428Y6392857D01*
X23142857Y6464285D01*
X23142857Y6321428D01*
X23142857Y6892857D02*
X23071428Y7750000D01*
X23142857Y7821428D01*
X23214285Y7750000D01*
X23142857Y6892857D01*
X23142857Y7821428D01*
D12*
G36*
X52250720Y-21748368D02*
X52317120Y-21660479D01*
X52413679Y-21608155D01*
X52531431Y-21605497D01*
X52608742Y-21633718D01*
X52679675Y-21689125D01*
X52743565Y-21767501D01*
X52781961Y-21843052D01*
X52784272Y-21879148D01*
X52770767Y-21913640D01*
X52747017Y-21973280D01*
X52669915Y-22087095D01*
X52561955Y-22147510D01*
X52441531Y-22149711D01*
X52327037Y-22088888D01*
X52322139Y-22084425D01*
X52244263Y-21974441D01*
X52223446Y-21857723D01*
X52250720Y-21748368D01*
X52250720Y-21748368D01*
G37*
X52250720Y-21748368D02*
X52317120Y-21660479D01*
X52413679Y-21608155D01*
X52531431Y-21605497D01*
X52608742Y-21633718D01*
X52679675Y-21689125D01*
X52743565Y-21767501D01*
X52781961Y-21843052D01*
X52784272Y-21879148D01*
X52770767Y-21913640D01*
X52747017Y-21973280D01*
X52669915Y-22087095D01*
X52561955Y-22147510D01*
X52441531Y-22149711D01*
X52327037Y-22088888D01*
X52322139Y-22084425D01*
X52244263Y-21974441D01*
X52223446Y-21857723D01*
X52250720Y-21748368D01*
G36*
X53954460Y-21642587D02*
X54207707Y-21638642D01*
X54438538Y-21633824D01*
X54636520Y-21628449D01*
X54791221Y-21622833D01*
X54892208Y-21617293D01*
X54927429Y-21613091D01*
X54957806Y-21616831D01*
X54976812Y-21660610D01*
X54988195Y-21757240D01*
X54992473Y-21835502D01*
X55003088Y-22075433D01*
X54865473Y-22098174D01*
X54783259Y-22105954D01*
X54649015Y-22112073D01*
X54474897Y-22116558D01*
X54273060Y-22119434D01*
X54055660Y-22120726D01*
X53834852Y-22120459D01*
X53622793Y-22118660D01*
X53431639Y-22115352D01*
X53273544Y-22110562D01*
X53160665Y-22104314D01*
X53105158Y-22096635D01*
X53101673Y-22094501D01*
X53089002Y-22046004D01*
X53072756Y-21949254D01*
X53060920Y-21860926D01*
X53035920Y-21654565D01*
X53954460Y-21642587D01*
X53954460Y-21642587D01*
G37*
X53954460Y-21642587D02*
X54207707Y-21638642D01*
X54438538Y-21633824D01*
X54636520Y-21628449D01*
X54791221Y-21622833D01*
X54892208Y-21617293D01*
X54927429Y-21613091D01*
X54957806Y-21616831D01*
X54976812Y-21660610D01*
X54988195Y-21757240D01*
X54992473Y-21835502D01*
X55003088Y-22075433D01*
X54865473Y-22098174D01*
X54783259Y-22105954D01*
X54649015Y-22112073D01*
X54474897Y-22116558D01*
X54273060Y-22119434D01*
X54055660Y-22120726D01*
X53834852Y-22120459D01*
X53622793Y-22118660D01*
X53431639Y-22115352D01*
X53273544Y-22110562D01*
X53160665Y-22104314D01*
X53105158Y-22096635D01*
X53101673Y-22094501D01*
X53089002Y-22046004D01*
X53072756Y-21949254D01*
X53060920Y-21860926D01*
X53035920Y-21654565D01*
X53954460Y-21642587D01*
G36*
X53041928Y-23213208D02*
X53084506Y-23040182D01*
X53161365Y-22911197D01*
X53278233Y-22813827D01*
X53331577Y-22783929D01*
X53389316Y-22756453D01*
X53447576Y-22735932D01*
X53517659Y-22721357D01*
X53610867Y-22711719D01*
X53738500Y-22706009D01*
X53911860Y-22703216D01*
X54142249Y-22702332D01*
X54245689Y-22702286D01*
X55000000Y-22702286D01*
X55000000Y-23174001D01*
X53595455Y-23174001D01*
X53494648Y-23267425D01*
X53438967Y-23325094D01*
X53411345Y-23381516D01*
X53405372Y-23461571D01*
X53413816Y-23581139D01*
X53434427Y-23725020D01*
X53470683Y-23822559D01*
X53528195Y-23895928D01*
X53563155Y-23928998D01*
X53599792Y-23953591D01*
X53649146Y-23971317D01*
X53722261Y-23983781D01*
X53830178Y-23992590D01*
X53983939Y-23999352D01*
X54194587Y-24005674D01*
X54302228Y-24008572D01*
X54981858Y-24026715D01*
X54992587Y-24271643D01*
X55003316Y-24516572D01*
X53040572Y-24516572D01*
X53040572Y-24298858D01*
X53044695Y-24183913D01*
X53055412Y-24104802D01*
X53067786Y-24080588D01*
X53119376Y-24062732D01*
X53145598Y-24047993D01*
X53170887Y-24016810D01*
X53159425Y-23964484D01*
X53111109Y-23878281D01*
X53066712Y-23794419D01*
X53041055Y-23706041D01*
X53029664Y-23589720D01*
X53027905Y-23442696D01*
X53041928Y-23213208D01*
X53041928Y-23213208D01*
G37*
X53041928Y-23213208D02*
X53084506Y-23040182D01*
X53161365Y-22911197D01*
X53278233Y-22813827D01*
X53331577Y-22783929D01*
X53389316Y-22756453D01*
X53447576Y-22735932D01*
X53517659Y-22721357D01*
X53610867Y-22711719D01*
X53738500Y-22706009D01*
X53911860Y-22703216D01*
X54142249Y-22702332D01*
X54245689Y-22702286D01*
X55000000Y-22702286D01*
X55000000Y-23174001D01*
X53595455Y-23174001D01*
X53494648Y-23267425D01*
X53438967Y-23325094D01*
X53411345Y-23381516D01*
X53405372Y-23461571D01*
X53413816Y-23581139D01*
X53434427Y-23725020D01*
X53470683Y-23822559D01*
X53528195Y-23895928D01*
X53563155Y-23928998D01*
X53599792Y-23953591D01*
X53649146Y-23971317D01*
X53722261Y-23983781D01*
X53830178Y-23992590D01*
X53983939Y-23999352D01*
X54194587Y-24005674D01*
X54302228Y-24008572D01*
X54981858Y-24026715D01*
X54992587Y-24271643D01*
X55003316Y-24516572D01*
X53040572Y-24516572D01*
X53040572Y-24298858D01*
X53044695Y-24183913D01*
X53055412Y-24104802D01*
X53067786Y-24080588D01*
X53119376Y-24062732D01*
X53145598Y-24047993D01*
X53170887Y-24016810D01*
X53159425Y-23964484D01*
X53111109Y-23878281D01*
X53066712Y-23794419D01*
X53041055Y-23706041D01*
X53029664Y-23589720D01*
X53027905Y-23442696D01*
X53041928Y-23213208D01*
G36*
X53029836Y-20215539D02*
X53038551Y-20052306D01*
X53050571Y-19924892D01*
X53053259Y-19906138D01*
X53072016Y-19807736D01*
X53102184Y-19754274D01*
X53164779Y-19725062D01*
X53258602Y-19703959D01*
X53365071Y-19688318D01*
X53434099Y-19690177D01*
X53448624Y-19699157D01*
X53449910Y-19747535D01*
X53444279Y-19849618D01*
X53432884Y-19986990D01*
X53426572Y-20051604D01*
X53414264Y-20214536D01*
X53410289Y-20365994D01*
X53415119Y-20479757D01*
X53418438Y-20503055D01*
X53442415Y-20590750D01*
X53483511Y-20627281D01*
X53550688Y-20634001D01*
X53612176Y-20622438D01*
X53665995Y-20581335D01*
X53717985Y-20501065D01*
X53773987Y-20372003D01*
X53839845Y-20184523D01*
X53858986Y-20126000D01*
X53897549Y-20014891D01*
X53930145Y-19934874D01*
X53945569Y-19908286D01*
X53978769Y-19867504D01*
X54028744Y-19793932D01*
X54030726Y-19790824D01*
X54127302Y-19690660D01*
X54265842Y-19606491D01*
X54415738Y-19554486D01*
X54495343Y-19545429D01*
X54639764Y-19576722D01*
X54787719Y-19661130D01*
X54915642Y-19784444D01*
X54935579Y-19810875D01*
X54973563Y-19873075D01*
X54998436Y-19943303D01*
X55013336Y-20039059D01*
X55021403Y-20177844D01*
X55024615Y-20307245D01*
X55026007Y-20473495D01*
X55024170Y-20618308D01*
X55019514Y-20722659D01*
X55014898Y-20761001D01*
X54993318Y-20843793D01*
X54962134Y-20952512D01*
X54956989Y-20969643D01*
X54928554Y-21050650D01*
X54892014Y-21090744D01*
X54824054Y-21104305D01*
X54736381Y-21105715D01*
X54556949Y-21105715D01*
X54580561Y-20951501D01*
X54593172Y-20845662D01*
X54606870Y-20693426D01*
X54619418Y-20520887D01*
X54624010Y-20445033D01*
X54643848Y-20092780D01*
X54543659Y-20067634D01*
X54463030Y-20065018D01*
X54394550Y-20106829D01*
X54332295Y-20200786D01*
X54270339Y-20354608D01*
X54232675Y-20472737D01*
X54190899Y-20600188D01*
X54153086Y-20695245D01*
X54126125Y-20741058D01*
X54122200Y-20742858D01*
X54094107Y-20771729D01*
X54091650Y-20788215D01*
X54069054Y-20848322D01*
X54027456Y-20908889D01*
X53894674Y-21029507D01*
X53737017Y-21093879D01*
X53573897Y-21110751D01*
X53380071Y-21092116D01*
X53232115Y-21027983D01*
X53126614Y-20913819D01*
X53060150Y-20745091D01*
X53029306Y-20517266D01*
X53026156Y-20384050D01*
X53029836Y-20215539D01*
X53029836Y-20215539D01*
G37*
X53029836Y-20215539D02*
X53038551Y-20052306D01*
X53050571Y-19924892D01*
X53053259Y-19906138D01*
X53072016Y-19807736D01*
X53102184Y-19754274D01*
X53164779Y-19725062D01*
X53258602Y-19703959D01*
X53365071Y-19688318D01*
X53434099Y-19690177D01*
X53448624Y-19699157D01*
X53449910Y-19747535D01*
X53444279Y-19849618D01*
X53432884Y-19986990D01*
X53426572Y-20051604D01*
X53414264Y-20214536D01*
X53410289Y-20365994D01*
X53415119Y-20479757D01*
X53418438Y-20503055D01*
X53442415Y-20590750D01*
X53483511Y-20627281D01*
X53550688Y-20634001D01*
X53612176Y-20622438D01*
X53665995Y-20581335D01*
X53717985Y-20501065D01*
X53773987Y-20372003D01*
X53839845Y-20184523D01*
X53858986Y-20126000D01*
X53897549Y-20014891D01*
X53930145Y-19934874D01*
X53945569Y-19908286D01*
X53978769Y-19867504D01*
X54028744Y-19793932D01*
X54030726Y-19790824D01*
X54127302Y-19690660D01*
X54265842Y-19606491D01*
X54415738Y-19554486D01*
X54495343Y-19545429D01*
X54639764Y-19576722D01*
X54787719Y-19661130D01*
X54915642Y-19784444D01*
X54935579Y-19810875D01*
X54973563Y-19873075D01*
X54998436Y-19943303D01*
X55013336Y-20039059D01*
X55021403Y-20177844D01*
X55024615Y-20307245D01*
X55026007Y-20473495D01*
X55024170Y-20618308D01*
X55019514Y-20722659D01*
X55014898Y-20761001D01*
X54993318Y-20843793D01*
X54962134Y-20952512D01*
X54956989Y-20969643D01*
X54928554Y-21050650D01*
X54892014Y-21090744D01*
X54824054Y-21104305D01*
X54736381Y-21105715D01*
X54556949Y-21105715D01*
X54580561Y-20951501D01*
X54593172Y-20845662D01*
X54606870Y-20693426D01*
X54619418Y-20520887D01*
X54624010Y-20445033D01*
X54643848Y-20092780D01*
X54543659Y-20067634D01*
X54463030Y-20065018D01*
X54394550Y-20106829D01*
X54332295Y-20200786D01*
X54270339Y-20354608D01*
X54232675Y-20472737D01*
X54190899Y-20600188D01*
X54153086Y-20695245D01*
X54126125Y-20741058D01*
X54122200Y-20742858D01*
X54094107Y-20771729D01*
X54091650Y-20788215D01*
X54069054Y-20848322D01*
X54027456Y-20908889D01*
X53894674Y-21029507D01*
X53737017Y-21093879D01*
X53573897Y-21110751D01*
X53380071Y-21092116D01*
X53232115Y-21027983D01*
X53126614Y-20913819D01*
X53060150Y-20745091D01*
X53029306Y-20517266D01*
X53026156Y-20384050D01*
X53029836Y-20215539D01*
G36*
X53029736Y-25830046D02*
X53055096Y-25621901D01*
X53104436Y-25459101D01*
X53185794Y-25311880D01*
X53282753Y-25209106D01*
X53421457Y-25123423D01*
X53428841Y-25119662D01*
X53481951Y-25098792D01*
X53554208Y-25083324D01*
X53656089Y-25072528D01*
X53798073Y-25065673D01*
X53990637Y-25062029D01*
X54244260Y-25060866D01*
X54272484Y-25060858D01*
X55000000Y-25060858D01*
X55000000Y-25276769D01*
X54993747Y-25413299D01*
X54972750Y-25492595D01*
X54942372Y-25524931D01*
X54910246Y-25552121D01*
X54910916Y-25594225D01*
X54946579Y-25672275D01*
X54960515Y-25698553D01*
X55006061Y-25807589D01*
X55027943Y-25933023D01*
X55031345Y-26094463D01*
X55026600Y-26235684D01*
X55018987Y-26357794D01*
X55010507Y-26431948D01*
X54961787Y-26537264D01*
X54865725Y-26650045D01*
X54742659Y-26751557D01*
X54612926Y-26823070D01*
X54570344Y-26837375D01*
X54470529Y-26856142D01*
X54470529Y-26349996D01*
X54541636Y-26332680D01*
X54591839Y-26308806D01*
X54620448Y-26272909D01*
X54633501Y-26206707D01*
X54637036Y-26091914D01*
X54637143Y-26043493D01*
X54633168Y-25899406D01*
X54617658Y-25805117D01*
X54585235Y-25738112D01*
X54555500Y-25701722D01*
X54478813Y-25639125D01*
X54383019Y-25586931D01*
X54292143Y-25555399D01*
X54230206Y-25554786D01*
X54222942Y-25559725D01*
X54208738Y-25610455D01*
X54201894Y-25712519D01*
X54201658Y-25845134D01*
X54207278Y-25987517D01*
X54218001Y-26118885D01*
X54233076Y-26218456D01*
X54248365Y-26262077D01*
X54345486Y-26334433D01*
X54470529Y-26349996D01*
X54470529Y-26856142D01*
X54448283Y-26860325D01*
X54339584Y-26850584D01*
X54248721Y-26823799D01*
X54083173Y-26742846D01*
X53959148Y-26623169D01*
X53873322Y-26457964D01*
X53822371Y-26240428D01*
X53802971Y-25963757D01*
X53802572Y-25910564D01*
X53800051Y-25725306D01*
X53788481Y-25604961D01*
X53761851Y-25541934D01*
X53714152Y-25528630D01*
X53639373Y-25557456D01*
X53559612Y-25603548D01*
X53475344Y-25681681D01*
X53425627Y-25796366D01*
X53410127Y-25953982D01*
X53428508Y-26160908D01*
X53480436Y-26423524D01*
X53510189Y-26544289D01*
X53532356Y-26641681D01*
X53541170Y-26704300D01*
X53539610Y-26714772D01*
X53500313Y-26716707D01*
X53412771Y-26708927D01*
X53350206Y-26700800D01*
X53249520Y-26683577D01*
X53189372Y-26656124D01*
X53149291Y-26599933D01*
X53108811Y-26496493D01*
X53101485Y-26475889D01*
X53052860Y-26281405D01*
X53028967Y-26058002D01*
X53029736Y-25830046D01*
X53029736Y-25830046D01*
G37*
X53029736Y-25830046D02*
X53055096Y-25621901D01*
X53104436Y-25459101D01*
X53185794Y-25311880D01*
X53282753Y-25209106D01*
X53421457Y-25123423D01*
X53428841Y-25119662D01*
X53481951Y-25098792D01*
X53554208Y-25083324D01*
X53656089Y-25072528D01*
X53798073Y-25065673D01*
X53990637Y-25062029D01*
X54244260Y-25060866D01*
X54272484Y-25060858D01*
X55000000Y-25060858D01*
X55000000Y-25276769D01*
X54993747Y-25413299D01*
X54972750Y-25492595D01*
X54942372Y-25524931D01*
X54910246Y-25552121D01*
X54910916Y-25594225D01*
X54946579Y-25672275D01*
X54960515Y-25698553D01*
X55006061Y-25807589D01*
X55027943Y-25933023D01*
X55031345Y-26094463D01*
X55026600Y-26235684D01*
X55018987Y-26357794D01*
X55010507Y-26431948D01*
X54961787Y-26537264D01*
X54865725Y-26650045D01*
X54742659Y-26751557D01*
X54612926Y-26823070D01*
X54570344Y-26837375D01*
X54470529Y-26856142D01*
X54470529Y-26349996D01*
X54541636Y-26332680D01*
X54591839Y-26308806D01*
X54620448Y-26272909D01*
X54633501Y-26206707D01*
X54637036Y-26091914D01*
X54637143Y-26043493D01*
X54633168Y-25899406D01*
X54617658Y-25805117D01*
X54585235Y-25738112D01*
X54555500Y-25701722D01*
X54478813Y-25639125D01*
X54383019Y-25586931D01*
X54292143Y-25555399D01*
X54230206Y-25554786D01*
X54222942Y-25559725D01*
X54208738Y-25610455D01*
X54201894Y-25712519D01*
X54201658Y-25845134D01*
X54207278Y-25987517D01*
X54218001Y-26118885D01*
X54233076Y-26218456D01*
X54248365Y-26262077D01*
X54345486Y-26334433D01*
X54470529Y-26349996D01*
X54470529Y-26856142D01*
X54448283Y-26860325D01*
X54339584Y-26850584D01*
X54248721Y-26823799D01*
X54083173Y-26742846D01*
X53959148Y-26623169D01*
X53873322Y-26457964D01*
X53822371Y-26240428D01*
X53802971Y-25963757D01*
X53802572Y-25910564D01*
X53800051Y-25725306D01*
X53788481Y-25604961D01*
X53761851Y-25541934D01*
X53714152Y-25528630D01*
X53639373Y-25557456D01*
X53559612Y-25603548D01*
X53475344Y-25681681D01*
X53425627Y-25796366D01*
X53410127Y-25953982D01*
X53428508Y-26160908D01*
X53480436Y-26423524D01*
X53510189Y-26544289D01*
X53532356Y-26641681D01*
X53541170Y-26704300D01*
X53539610Y-26714772D01*
X53500313Y-26716707D01*
X53412771Y-26708927D01*
X53350206Y-26700800D01*
X53249520Y-26683577D01*
X53189372Y-26656124D01*
X53149291Y-26599933D01*
X53108811Y-26496493D01*
X53101485Y-26475889D01*
X53052860Y-26281405D01*
X53028967Y-26058002D01*
X53029736Y-25830046D01*
G36*
X52288081Y-27739907D02*
X52309696Y-27679961D01*
X52323929Y-27671547D01*
X52378793Y-27669945D01*
X52486888Y-27667261D01*
X52628891Y-27663968D01*
X52695858Y-27662476D01*
X53022429Y-27655286D01*
X53033359Y-27445039D01*
X53043235Y-27323514D01*
X53062483Y-27254143D01*
X53099617Y-27216512D01*
X53135507Y-27200110D01*
X53244101Y-27173371D01*
X53331562Y-27165429D01*
X53387184Y-27168344D01*
X53419388Y-27187826D01*
X53435774Y-27239981D01*
X53443942Y-27340914D01*
X53447128Y-27410358D01*
X53457858Y-27655286D01*
X53911429Y-27654635D01*
X54138522Y-27649894D01*
X54326239Y-27637101D01*
X54461117Y-27617354D01*
X54501072Y-27606464D01*
X54579997Y-27575331D01*
X54620371Y-27538334D01*
X54635112Y-27472682D01*
X54637143Y-27366419D01*
X54645207Y-27243501D01*
X54679370Y-27172187D01*
X54754589Y-27138812D01*
X54885820Y-27129714D01*
X54896333Y-27129639D01*
X54961376Y-27138835D01*
X55002872Y-27175571D01*
X55025713Y-27252353D01*
X55034790Y-27381684D01*
X55035675Y-27485897D01*
X55027115Y-27650631D01*
X54998987Y-27768918D01*
X54960921Y-27843606D01*
X54883158Y-27929059D01*
X54771456Y-28012446D01*
X54716603Y-28043177D01*
X54642166Y-28076299D01*
X54565224Y-28100062D01*
X54471145Y-28116413D01*
X54345298Y-28127303D01*
X54173052Y-28134678D01*
X53994856Y-28139295D01*
X53443284Y-28151589D01*
X53432428Y-28337666D01*
X53423239Y-28447578D01*
X53402501Y-28506756D01*
X53355513Y-28536965D01*
X53285053Y-28555868D01*
X53160629Y-28576310D01*
X53086659Y-28558191D01*
X53050784Y-28490895D01*
X53040646Y-28363807D01*
X53040572Y-28345854D01*
X53040572Y-28145143D01*
X52681947Y-28145143D01*
X52517714Y-28144192D01*
X52411898Y-28139315D01*
X52350349Y-28127476D01*
X52318918Y-28105639D01*
X52303454Y-28070768D01*
X52301442Y-28063500D01*
X52282673Y-27954011D01*
X52278647Y-27838702D01*
X52288081Y-27739907D01*
X52288081Y-27739907D01*
G37*
X52288081Y-27739907D02*
X52309696Y-27679961D01*
X52323929Y-27671547D01*
X52378793Y-27669945D01*
X52486888Y-27667261D01*
X52628891Y-27663968D01*
X52695858Y-27662476D01*
X53022429Y-27655286D01*
X53033359Y-27445039D01*
X53043235Y-27323514D01*
X53062483Y-27254143D01*
X53099617Y-27216512D01*
X53135507Y-27200110D01*
X53244101Y-27173371D01*
X53331562Y-27165429D01*
X53387184Y-27168344D01*
X53419388Y-27187826D01*
X53435774Y-27239981D01*
X53443942Y-27340914D01*
X53447128Y-27410358D01*
X53457858Y-27655286D01*
X53911429Y-27654635D01*
X54138522Y-27649894D01*
X54326239Y-27637101D01*
X54461117Y-27617354D01*
X54501072Y-27606464D01*
X54579997Y-27575331D01*
X54620371Y-27538334D01*
X54635112Y-27472682D01*
X54637143Y-27366419D01*
X54645207Y-27243501D01*
X54679370Y-27172187D01*
X54754589Y-27138812D01*
X54885820Y-27129714D01*
X54896333Y-27129639D01*
X54961376Y-27138835D01*
X55002872Y-27175571D01*
X55025713Y-27252353D01*
X55034790Y-27381684D01*
X55035675Y-27485897D01*
X55027115Y-27650631D01*
X54998987Y-27768918D01*
X54960921Y-27843606D01*
X54883158Y-27929059D01*
X54771456Y-28012446D01*
X54716603Y-28043177D01*
X54642166Y-28076299D01*
X54565224Y-28100062D01*
X54471145Y-28116413D01*
X54345298Y-28127303D01*
X54173052Y-28134678D01*
X53994856Y-28139295D01*
X53443284Y-28151589D01*
X53432428Y-28337666D01*
X53423239Y-28447578D01*
X53402501Y-28506756D01*
X53355513Y-28536965D01*
X53285053Y-28555868D01*
X53160629Y-28576310D01*
X53086659Y-28558191D01*
X53050784Y-28490895D01*
X53040646Y-28363807D01*
X53040572Y-28345854D01*
X53040572Y-28145143D01*
X52681947Y-28145143D01*
X52517714Y-28144192D01*
X52411898Y-28139315D01*
X52350349Y-28127476D01*
X52318918Y-28105639D01*
X52303454Y-28070768D01*
X52301442Y-28063500D01*
X52282673Y-27954011D01*
X52278647Y-27838702D01*
X52288081Y-27739907D01*
G36*
X53020843Y-29310848D02*
X53023283Y-29288143D01*
X53056450Y-29085759D01*
X53102997Y-28945663D01*
X53170880Y-28857777D01*
X53268059Y-28812019D01*
X53402490Y-28798311D01*
X53410021Y-28798286D01*
X53485785Y-28804554D01*
X53507167Y-28837145D01*
X53496713Y-28898072D01*
X53436122Y-29190311D01*
X53410113Y-29425723D01*
X53418928Y-29611410D01*
X53462809Y-29754478D01*
X53529105Y-29849190D01*
X53658320Y-29938693D01*
X53825290Y-29990327D01*
X54012207Y-30005698D01*
X54201262Y-29986409D01*
X54374646Y-29934064D01*
X54514551Y-29850267D01*
X54595099Y-29753172D01*
X54616469Y-29673491D01*
X54630071Y-29544716D01*
X54635837Y-29389563D01*
X54633695Y-29230748D01*
X54623576Y-29090988D01*
X54605411Y-28992999D01*
X54597496Y-28973434D01*
X54578358Y-28897032D01*
X54620299Y-28847637D01*
X54726676Y-28822780D01*
X54807847Y-28818740D01*
X54979545Y-28816429D01*
X55005824Y-28961572D01*
X55024583Y-29120160D01*
X55032617Y-29312342D01*
X55030556Y-29515887D01*
X55019028Y-29708563D01*
X54998663Y-29868140D01*
X54977758Y-29953329D01*
X54873737Y-30155481D01*
X54716541Y-30312037D01*
X54569449Y-30399285D01*
X54478798Y-30437511D01*
X54385566Y-30461480D01*
X54269468Y-30474108D01*
X54110221Y-30478311D01*
X54020286Y-30478238D01*
X53756975Y-30465423D01*
X53550242Y-30426465D01*
X53387049Y-30355720D01*
X53254357Y-30247542D01*
X53139501Y-30096875D01*
X53095111Y-29990944D01*
X53057684Y-29835954D01*
X53030587Y-29655326D01*
X53017185Y-29472484D01*
X53020843Y-29310848D01*
X53020843Y-29310848D01*
G37*
X53020843Y-29310848D02*
X53023283Y-29288143D01*
X53056450Y-29085759D01*
X53102997Y-28945663D01*
X53170880Y-28857777D01*
X53268059Y-28812019D01*
X53402490Y-28798311D01*
X53410021Y-28798286D01*
X53485785Y-28804554D01*
X53507167Y-28837145D01*
X53496713Y-28898072D01*
X53436122Y-29190311D01*
X53410113Y-29425723D01*
X53418928Y-29611410D01*
X53462809Y-29754478D01*
X53529105Y-29849190D01*
X53658320Y-29938693D01*
X53825290Y-29990327D01*
X54012207Y-30005698D01*
X54201262Y-29986409D01*
X54374646Y-29934064D01*
X54514551Y-29850267D01*
X54595099Y-29753172D01*
X54616469Y-29673491D01*
X54630071Y-29544716D01*
X54635837Y-29389563D01*
X54633695Y-29230748D01*
X54623576Y-29090988D01*
X54605411Y-28992999D01*
X54597496Y-28973434D01*
X54578358Y-28897032D01*
X54620299Y-28847637D01*
X54726676Y-28822780D01*
X54807847Y-28818740D01*
X54979545Y-28816429D01*
X55005824Y-28961572D01*
X55024583Y-29120160D01*
X55032617Y-29312342D01*
X55030556Y-29515887D01*
X55019028Y-29708563D01*
X54998663Y-29868140D01*
X54977758Y-29953329D01*
X54873737Y-30155481D01*
X54716541Y-30312037D01*
X54569449Y-30399285D01*
X54478798Y-30437511D01*
X54385566Y-30461480D01*
X54269468Y-30474108D01*
X54110221Y-30478311D01*
X54020286Y-30478238D01*
X53756975Y-30465423D01*
X53550242Y-30426465D01*
X53387049Y-30355720D01*
X53254357Y-30247542D01*
X53139501Y-30096875D01*
X53095111Y-29990944D01*
X53057684Y-29835954D01*
X53030587Y-29655326D01*
X53017185Y-29472484D01*
X53020843Y-29310848D01*
G36*
X53030867Y-31688795D02*
X53042461Y-31564911D01*
X53067745Y-31463525D01*
X53111240Y-31359674D01*
X53123712Y-31333996D01*
X53251288Y-31141782D01*
X53420715Y-31002103D01*
X53636540Y-30912603D01*
X53903310Y-30870926D01*
X54024796Y-30867118D01*
X54311052Y-30888374D01*
X54545147Y-30955461D01*
X54733591Y-31071498D01*
X54882893Y-31239603D01*
X54917618Y-31294802D01*
X54964800Y-31383411D01*
X54995256Y-31468777D01*
X55013311Y-31571921D01*
X55023290Y-31713866D01*
X55027236Y-31827645D01*
X55028649Y-32028918D01*
X55018602Y-32174128D01*
X54995602Y-32279096D01*
X54981091Y-32316394D01*
X54855414Y-32529533D01*
X54691795Y-32686929D01*
X54580290Y-32754676D01*
X54491091Y-32796084D01*
X54404429Y-32822477D01*
X54300072Y-32837101D01*
X54157786Y-32843203D01*
X54022812Y-32844143D01*
X53968156Y-32843463D01*
X53968156Y-32388918D01*
X54167813Y-32382505D01*
X54353279Y-32339044D01*
X54505602Y-32258314D01*
X54566018Y-32200815D01*
X54605901Y-32132935D01*
X54627400Y-32036767D01*
X54634664Y-31892025D01*
X54634782Y-31864429D01*
X54628559Y-31722732D01*
X54611957Y-31610563D01*
X54590632Y-31553274D01*
X54464409Y-31445949D01*
X54288814Y-31376159D01*
X54078484Y-31347238D01*
X53848055Y-31362520D01*
X53795863Y-31372198D01*
X53627887Y-31422004D01*
X53516269Y-31497034D01*
X53451532Y-31609843D01*
X53424196Y-31772982D01*
X53421572Y-31867924D01*
X53430755Y-32048691D01*
X53458044Y-32162367D01*
X53473573Y-32188076D01*
X53602083Y-32291482D01*
X53773261Y-32358503D01*
X53968156Y-32388918D01*
X53968156Y-32843463D01*
X53838666Y-32841850D01*
X53708090Y-32833103D01*
X53612171Y-32815101D01*
X53532001Y-32785042D01*
X53494143Y-32765824D01*
X53306441Y-32640159D01*
X53171541Y-32489134D01*
X53084006Y-32302172D01*
X53038398Y-32068698D01*
X53028444Y-31860139D01*
X53030867Y-31688795D01*
X53030867Y-31688795D01*
G37*
X53030867Y-31688795D02*
X53042461Y-31564911D01*
X53067745Y-31463525D01*
X53111240Y-31359674D01*
X53123712Y-31333996D01*
X53251288Y-31141782D01*
X53420715Y-31002103D01*
X53636540Y-30912603D01*
X53903310Y-30870926D01*
X54024796Y-30867118D01*
X54311052Y-30888374D01*
X54545147Y-30955461D01*
X54733591Y-31071498D01*
X54882893Y-31239603D01*
X54917618Y-31294802D01*
X54964800Y-31383411D01*
X54995256Y-31468777D01*
X55013311Y-31571921D01*
X55023290Y-31713866D01*
X55027236Y-31827645D01*
X55028649Y-32028918D01*
X55018602Y-32174128D01*
X54995602Y-32279096D01*
X54981091Y-32316394D01*
X54855414Y-32529533D01*
X54691795Y-32686929D01*
X54580290Y-32754676D01*
X54491091Y-32796084D01*
X54404429Y-32822477D01*
X54300072Y-32837101D01*
X54157786Y-32843203D01*
X54022812Y-32844143D01*
X53968156Y-32843463D01*
X53968156Y-32388918D01*
X54167813Y-32382505D01*
X54353279Y-32339044D01*
X54505602Y-32258314D01*
X54566018Y-32200815D01*
X54605901Y-32132935D01*
X54627400Y-32036767D01*
X54634664Y-31892025D01*
X54634782Y-31864429D01*
X54628559Y-31722732D01*
X54611957Y-31610563D01*
X54590632Y-31553274D01*
X54464409Y-31445949D01*
X54288814Y-31376159D01*
X54078484Y-31347238D01*
X53848055Y-31362520D01*
X53795863Y-31372198D01*
X53627887Y-31422004D01*
X53516269Y-31497034D01*
X53451532Y-31609843D01*
X53424196Y-31772982D01*
X53421572Y-31867924D01*
X53430755Y-32048691D01*
X53458044Y-32162367D01*
X53473573Y-32188076D01*
X53602083Y-32291482D01*
X53773261Y-32358503D01*
X53968156Y-32388918D01*
X53968156Y-32843463D01*
X53838666Y-32841850D01*
X53708090Y-32833103D01*
X53612171Y-32815101D01*
X53532001Y-32785042D01*
X53494143Y-32765824D01*
X53306441Y-32640159D01*
X53171541Y-32489134D01*
X53084006Y-32302172D01*
X53038398Y-32068698D01*
X53028444Y-31860139D01*
X53030867Y-31688795D01*
G36*
X56045325Y-36311291D02*
X56080784Y-36237465D01*
X56143514Y-36178760D01*
X56275350Y-36105332D01*
X56398813Y-36103809D01*
X56515873Y-36174265D01*
X56535355Y-36193486D01*
X56612509Y-36318153D01*
X56632739Y-36457424D01*
X56594572Y-36588380D01*
X56563588Y-36632194D01*
X56450175Y-36713540D01*
X56317048Y-36735132D01*
X56187031Y-36695185D01*
X56144881Y-36664965D01*
X56073553Y-36584095D01*
X56043493Y-36484986D01*
X56039263Y-36421541D01*
X56045325Y-36311291D01*
X56045325Y-36311291D01*
G37*
X56045325Y-36311291D02*
X56080784Y-36237465D01*
X56143514Y-36178760D01*
X56275350Y-36105332D01*
X56398813Y-36103809D01*
X56515873Y-36174265D01*
X56535355Y-36193486D01*
X56612509Y-36318153D01*
X56632739Y-36457424D01*
X56594572Y-36588380D01*
X56563588Y-36632194D01*
X56450175Y-36713540D01*
X56317048Y-36735132D01*
X56187031Y-36695185D01*
X56144881Y-36664965D01*
X56073553Y-36584095D01*
X56043493Y-36484986D01*
X56039263Y-36421541D01*
X56045325Y-36311291D01*
G36*
X51662098Y-33953389D02*
X51727020Y-33879970D01*
X51855635Y-33791260D01*
X51986404Y-33769888D01*
X52106223Y-33813483D01*
X52201987Y-33919674D01*
X52227097Y-33970473D01*
X52258244Y-34076886D01*
X52245544Y-34163623D01*
X52237729Y-34182225D01*
X52219939Y-34241294D01*
X52231039Y-34301402D01*
X52277796Y-34384305D01*
X52319490Y-34445128D01*
X52422807Y-34589382D01*
X52507426Y-34700442D01*
X52594484Y-34805773D01*
X52618598Y-34833842D01*
X52675563Y-34903894D01*
X52756686Y-35008508D01*
X52834665Y-35112000D01*
X52983138Y-35307867D01*
X53166374Y-35542058D01*
X53351683Y-35774215D01*
X53424291Y-35820880D01*
X53512423Y-35837715D01*
X53614449Y-35850881D01*
X53686640Y-35878003D01*
X53714883Y-35885047D01*
X53759291Y-35875448D01*
X53826829Y-35845234D01*
X53924463Y-35790434D01*
X54059159Y-35707075D01*
X54237882Y-35591185D01*
X54467600Y-35438792D01*
X54529790Y-35397217D01*
X54740422Y-35255548D01*
X54930372Y-35126426D01*
X55091497Y-35015498D01*
X55215658Y-34928408D01*
X55294712Y-34870801D01*
X55320524Y-34848929D01*
X55362297Y-34824032D01*
X55384024Y-34821715D01*
X55430743Y-34806169D01*
X55435970Y-34794500D01*
X55465230Y-34763947D01*
X55541574Y-34709555D01*
X55648730Y-34642879D01*
X55653143Y-34640286D01*
X55761140Y-34573374D01*
X55838936Y-34518311D01*
X55870261Y-34486653D01*
X55870316Y-34486072D01*
X55900169Y-34461502D01*
X55922262Y-34458858D01*
X55976516Y-34442601D01*
X55985762Y-34431643D01*
X56020218Y-34399420D01*
X56099017Y-34340960D01*
X56205187Y-34268846D01*
X56206501Y-34267987D01*
X56324036Y-34184930D01*
X56388935Y-34120168D01*
X56413668Y-34059937D01*
X56415143Y-34037728D01*
X56433875Y-33938323D01*
X56475688Y-33841419D01*
X56564616Y-33753851D01*
X56685914Y-33710839D01*
X56814259Y-33715343D01*
X56924329Y-33770328D01*
X56941286Y-33786945D01*
X57005816Y-33875430D01*
X57049666Y-33968502D01*
X57066951Y-34047010D01*
X57051790Y-34091803D01*
X57036233Y-34096001D01*
X57001994Y-34126093D01*
X56986014Y-34165463D01*
X56929181Y-34251657D01*
X56824451Y-34305315D01*
X56692096Y-34318801D01*
X56613262Y-34305905D01*
X56537133Y-34289210D01*
X56474715Y-34291057D01*
X56405579Y-34317955D01*
X56309300Y-34376412D01*
X56233715Y-34426841D01*
X56120739Y-34505291D01*
X56033836Y-34569924D01*
X55988587Y-34609039D01*
X55985762Y-34613072D01*
X55943990Y-34637969D01*
X55922262Y-34640286D01*
X55875544Y-34655832D01*
X55870316Y-34667501D01*
X55841056Y-34698054D01*
X55764713Y-34752446D01*
X55657557Y-34819122D01*
X55653143Y-34821715D01*
X55545147Y-34888627D01*
X55467350Y-34943690D01*
X55436026Y-34975348D01*
X55435970Y-34975929D01*
X55406117Y-35000499D01*
X55384024Y-35003143D01*
X55329771Y-35019400D01*
X55320524Y-35030358D01*
X55287978Y-35057585D01*
X55203737Y-35118437D01*
X55076769Y-35206708D01*
X54916043Y-35316192D01*
X54730527Y-35440683D01*
X54655286Y-35490707D01*
X54411445Y-35652867D01*
X54221602Y-35780865D01*
X54079024Y-35880268D01*
X53976980Y-35956640D01*
X53908736Y-36015550D01*
X53867560Y-36062562D01*
X53846719Y-36103245D01*
X53839481Y-36143163D01*
X53838858Y-36165718D01*
X53806437Y-36300588D01*
X53719337Y-36400866D01*
X53592802Y-36451385D01*
X53548530Y-36454572D01*
X53401366Y-36424258D01*
X53296142Y-36339819D01*
X53240357Y-36211005D01*
X53240410Y-36053851D01*
X53247236Y-35994980D01*
X53242143Y-35939648D01*
X53219256Y-35877489D01*
X53172703Y-35798138D01*
X53096612Y-35691227D01*
X52985108Y-35546393D01*
X52871250Y-35402286D01*
X52803956Y-35316583D01*
X52705523Y-35190098D01*
X52588955Y-35039650D01*
X52467258Y-34882057D01*
X52353436Y-34734139D01*
X52260495Y-34612713D01*
X52246945Y-34594914D01*
X52159597Y-34484959D01*
X52095024Y-34422112D01*
X52035124Y-34393519D01*
X51961792Y-34386324D01*
X51953140Y-34386286D01*
X51803724Y-34355618D01*
X51696573Y-34267778D01*
X51639074Y-34129015D01*
X51637352Y-34119128D01*
X51632165Y-34026121D01*
X51662098Y-33953389D01*
X51662098Y-33953389D01*
G37*
X51662098Y-33953389D02*
X51727020Y-33879970D01*
X51855635Y-33791260D01*
X51986404Y-33769888D01*
X52106223Y-33813483D01*
X52201987Y-33919674D01*
X52227097Y-33970473D01*
X52258244Y-34076886D01*
X52245544Y-34163623D01*
X52237729Y-34182225D01*
X52219939Y-34241294D01*
X52231039Y-34301402D01*
X52277796Y-34384305D01*
X52319490Y-34445128D01*
X52422807Y-34589382D01*
X52507426Y-34700442D01*
X52594484Y-34805773D01*
X52618598Y-34833842D01*
X52675563Y-34903894D01*
X52756686Y-35008508D01*
X52834665Y-35112000D01*
X52983138Y-35307867D01*
X53166374Y-35542058D01*
X53351683Y-35774215D01*
X53424291Y-35820880D01*
X53512423Y-35837715D01*
X53614449Y-35850881D01*
X53686640Y-35878003D01*
X53714883Y-35885047D01*
X53759291Y-35875448D01*
X53826829Y-35845234D01*
X53924463Y-35790434D01*
X54059159Y-35707075D01*
X54237882Y-35591185D01*
X54467600Y-35438792D01*
X54529790Y-35397217D01*
X54740422Y-35255548D01*
X54930372Y-35126426D01*
X55091497Y-35015498D01*
X55215658Y-34928408D01*
X55294712Y-34870801D01*
X55320524Y-34848929D01*
X55362297Y-34824032D01*
X55384024Y-34821715D01*
X55430743Y-34806169D01*
X55435970Y-34794500D01*
X55465230Y-34763947D01*
X55541574Y-34709555D01*
X55648730Y-34642879D01*
X55653143Y-34640286D01*
X55761140Y-34573374D01*
X55838936Y-34518311D01*
X55870261Y-34486653D01*
X55870316Y-34486072D01*
X55900169Y-34461502D01*
X55922262Y-34458858D01*
X55976516Y-34442601D01*
X55985762Y-34431643D01*
X56020218Y-34399420D01*
X56099017Y-34340960D01*
X56205187Y-34268846D01*
X56206501Y-34267987D01*
X56324036Y-34184930D01*
X56388935Y-34120168D01*
X56413668Y-34059937D01*
X56415143Y-34037728D01*
X56433875Y-33938323D01*
X56475688Y-33841419D01*
X56564616Y-33753851D01*
X56685914Y-33710839D01*
X56814259Y-33715343D01*
X56924329Y-33770328D01*
X56941286Y-33786945D01*
X57005816Y-33875430D01*
X57049666Y-33968502D01*
X57066951Y-34047010D01*
X57051790Y-34091803D01*
X57036233Y-34096001D01*
X57001994Y-34126093D01*
X56986014Y-34165463D01*
X56929181Y-34251657D01*
X56824451Y-34305315D01*
X56692096Y-34318801D01*
X56613262Y-34305905D01*
X56537133Y-34289210D01*
X56474715Y-34291057D01*
X56405579Y-34317955D01*
X56309300Y-34376412D01*
X56233715Y-34426841D01*
X56120739Y-34505291D01*
X56033836Y-34569924D01*
X55988587Y-34609039D01*
X55985762Y-34613072D01*
X55943990Y-34637969D01*
X55922262Y-34640286D01*
X55875544Y-34655832D01*
X55870316Y-34667501D01*
X55841056Y-34698054D01*
X55764713Y-34752446D01*
X55657557Y-34819122D01*
X55653143Y-34821715D01*
X55545147Y-34888627D01*
X55467350Y-34943690D01*
X55436026Y-34975348D01*
X55435970Y-34975929D01*
X55406117Y-35000499D01*
X55384024Y-35003143D01*
X55329771Y-35019400D01*
X55320524Y-35030358D01*
X55287978Y-35057585D01*
X55203737Y-35118437D01*
X55076769Y-35206708D01*
X54916043Y-35316192D01*
X54730527Y-35440683D01*
X54655286Y-35490707D01*
X54411445Y-35652867D01*
X54221602Y-35780865D01*
X54079024Y-35880268D01*
X53976980Y-35956640D01*
X53908736Y-36015550D01*
X53867560Y-36062562D01*
X53846719Y-36103245D01*
X53839481Y-36143163D01*
X53838858Y-36165718D01*
X53806437Y-36300588D01*
X53719337Y-36400866D01*
X53592802Y-36451385D01*
X53548530Y-36454572D01*
X53401366Y-36424258D01*
X53296142Y-36339819D01*
X53240357Y-36211005D01*
X53240410Y-36053851D01*
X53247236Y-35994980D01*
X53242143Y-35939648D01*
X53219256Y-35877489D01*
X53172703Y-35798138D01*
X53096612Y-35691227D01*
X52985108Y-35546393D01*
X52871250Y-35402286D01*
X52803956Y-35316583D01*
X52705523Y-35190098D01*
X52588955Y-35039650D01*
X52467258Y-34882057D01*
X52353436Y-34734139D01*
X52260495Y-34612713D01*
X52246945Y-34594914D01*
X52159597Y-34484959D01*
X52095024Y-34422112D01*
X52035124Y-34393519D01*
X51961792Y-34386324D01*
X51953140Y-34386286D01*
X51803724Y-34355618D01*
X51696573Y-34267778D01*
X51639074Y-34129015D01*
X51637352Y-34119128D01*
X51632165Y-34026121D01*
X51662098Y-33953389D01*
G36*
X57345331Y-28363302D02*
X57386534Y-28333500D01*
X57403948Y-28335633D01*
X57450574Y-28380560D01*
X57458719Y-28446724D01*
X57429991Y-28490570D01*
X57371228Y-28492177D01*
X57350592Y-28478249D01*
X57329351Y-28422242D01*
X57345331Y-28363302D01*
X57345331Y-28363302D01*
G37*
X57345331Y-28363302D02*
X57386534Y-28333500D01*
X57403948Y-28335633D01*
X57450574Y-28380560D01*
X57458719Y-28446724D01*
X57429991Y-28490570D01*
X57371228Y-28492177D01*
X57350592Y-28478249D01*
X57329351Y-28422242D01*
X57345331Y-28363302D01*
G36*
X57599700Y-23615634D02*
X57619829Y-23609429D01*
X57645074Y-23598719D01*
X57619829Y-23565886D01*
X57579114Y-23494281D01*
X57585350Y-23427914D01*
X57634381Y-23392733D01*
X57647719Y-23391715D01*
X57699897Y-23410005D01*
X57700061Y-23441465D01*
X57704287Y-23513317D01*
X57770420Y-23568738D01*
X57888607Y-23602140D01*
X57996164Y-23609429D01*
X58115635Y-23614433D01*
X58176730Y-23631963D01*
X58193143Y-23663858D01*
X58179976Y-23691069D01*
X58132043Y-23707723D01*
X58036703Y-23716052D01*
X57884715Y-23718286D01*
X57730517Y-23715962D01*
X57636142Y-23707504D01*
X57588948Y-23690679D01*
X57576286Y-23663858D01*
X57599700Y-23615634D01*
X57599700Y-23615634D01*
G37*
X57599700Y-23615634D02*
X57619829Y-23609429D01*
X57645074Y-23598719D01*
X57619829Y-23565886D01*
X57579114Y-23494281D01*
X57585350Y-23427914D01*
X57634381Y-23392733D01*
X57647719Y-23391715D01*
X57699897Y-23410005D01*
X57700061Y-23441465D01*
X57704287Y-23513317D01*
X57770420Y-23568738D01*
X57888607Y-23602140D01*
X57996164Y-23609429D01*
X58115635Y-23614433D01*
X58176730Y-23631963D01*
X58193143Y-23663858D01*
X58179976Y-23691069D01*
X58132043Y-23707723D01*
X58036703Y-23716052D01*
X57884715Y-23718286D01*
X57730517Y-23715962D01*
X57636142Y-23707504D01*
X57588948Y-23690679D01*
X57576286Y-23663858D01*
X57599700Y-23615634D01*
G36*
X57606792Y-24038819D02*
X57686627Y-23937208D01*
X57798266Y-23874336D01*
X57924184Y-23857515D01*
X58046855Y-23894056D01*
X58114247Y-23947411D01*
X58179195Y-24062750D01*
X58194881Y-24199279D01*
X58161617Y-24329151D01*
X58109162Y-24401390D01*
X57989227Y-24471558D01*
X57867005Y-24481783D01*
X57867005Y-24357112D01*
X57964398Y-24349704D01*
X58046474Y-24297581D01*
X58074716Y-24254289D01*
X58087137Y-24150301D01*
X58033382Y-24050447D01*
X57962947Y-23992430D01*
X57880907Y-23978207D01*
X57792061Y-24014402D01*
X57720683Y-24085852D01*
X57692024Y-24161659D01*
X57709909Y-24258028D01*
X57775206Y-24324866D01*
X57867005Y-24357112D01*
X57867005Y-24481783D01*
X57859012Y-24482452D01*
X57736117Y-24441653D01*
X57638140Y-24356742D01*
X57582683Y-24235298D01*
X57576286Y-24171858D01*
X57606792Y-24038819D01*
X57606792Y-24038819D01*
G37*
X57606792Y-24038819D02*
X57686627Y-23937208D01*
X57798266Y-23874336D01*
X57924184Y-23857515D01*
X58046855Y-23894056D01*
X58114247Y-23947411D01*
X58179195Y-24062750D01*
X58194881Y-24199279D01*
X58161617Y-24329151D01*
X58109162Y-24401390D01*
X57989227Y-24471558D01*
X57867005Y-24481783D01*
X57867005Y-24357112D01*
X57964398Y-24349704D01*
X58046474Y-24297581D01*
X58074716Y-24254289D01*
X58087137Y-24150301D01*
X58033382Y-24050447D01*
X57962947Y-23992430D01*
X57880907Y-23978207D01*
X57792061Y-24014402D01*
X57720683Y-24085852D01*
X57692024Y-24161659D01*
X57709909Y-24258028D01*
X57775206Y-24324866D01*
X57867005Y-24357112D01*
X57867005Y-24481783D01*
X57859012Y-24482452D01*
X57736117Y-24441653D01*
X57638140Y-24356742D01*
X57582683Y-24235298D01*
X57576286Y-24171858D01*
X57606792Y-24038819D01*
G36*
X57426401Y-24708653D02*
X57485572Y-24698001D01*
X57556707Y-24680992D01*
X57576286Y-24625429D01*
X57598975Y-24566327D01*
X57630715Y-24552858D01*
X57675041Y-24583109D01*
X57685143Y-24625429D01*
X57697093Y-24672607D01*
X57745582Y-24693667D01*
X57832672Y-24698001D01*
X57954526Y-24687067D01*
X58049594Y-24658807D01*
X58101348Y-24620029D01*
X58101304Y-24587323D01*
X58110585Y-24557773D01*
X58136573Y-24552858D01*
X58178374Y-24581767D01*
X58194122Y-24648743D01*
X58183923Y-24724160D01*
X58147883Y-24778392D01*
X58135747Y-24784833D01*
X58068237Y-24797329D01*
X57957982Y-24805310D01*
X57881747Y-24806858D01*
X57762404Y-24811879D01*
X57701436Y-24829466D01*
X57685143Y-24861286D01*
X57664947Y-24909565D01*
X57647719Y-24915715D01*
X57603532Y-24886718D01*
X57589408Y-24861286D01*
X57540845Y-24818992D01*
X57481690Y-24806858D01*
X57411646Y-24787222D01*
X57394858Y-24752429D01*
X57426401Y-24708653D01*
X57426401Y-24708653D01*
G37*
X57426401Y-24708653D02*
X57485572Y-24698001D01*
X57556707Y-24680992D01*
X57576286Y-24625429D01*
X57598975Y-24566327D01*
X57630715Y-24552858D01*
X57675041Y-24583109D01*
X57685143Y-24625429D01*
X57697093Y-24672607D01*
X57745582Y-24693667D01*
X57832672Y-24698001D01*
X57954526Y-24687067D01*
X58049594Y-24658807D01*
X58101348Y-24620029D01*
X58101304Y-24587323D01*
X58110585Y-24557773D01*
X58136573Y-24552858D01*
X58178374Y-24581767D01*
X58194122Y-24648743D01*
X58183923Y-24724160D01*
X58147883Y-24778392D01*
X58135747Y-24784833D01*
X58068237Y-24797329D01*
X57957982Y-24805310D01*
X57881747Y-24806858D01*
X57762404Y-24811879D01*
X57701436Y-24829466D01*
X57685143Y-24861286D01*
X57664947Y-24909565D01*
X57647719Y-24915715D01*
X57603532Y-24886718D01*
X57589408Y-24861286D01*
X57540845Y-24818992D01*
X57481690Y-24806858D01*
X57411646Y-24787222D01*
X57394858Y-24752429D01*
X57426401Y-24708653D01*
G36*
X57597902Y-25147085D02*
X57645775Y-25064027D01*
X57648858Y-25060858D01*
X57709387Y-25017923D01*
X57795610Y-24995501D01*
X57929276Y-24988364D01*
X57950791Y-24988286D01*
X58180153Y-24988286D01*
X58185972Y-25199420D01*
X58182069Y-25328505D01*
X58164920Y-25422548D01*
X58148924Y-25453420D01*
X58082743Y-25485338D01*
X58003560Y-25496286D01*
X57999968Y-25495069D01*
X57999968Y-25380022D01*
X58046505Y-25366705D01*
X58062217Y-25354402D01*
X58112804Y-25294280D01*
X58109756Y-25225408D01*
X58083010Y-25167329D01*
X58022864Y-25110423D01*
X57974152Y-25097143D01*
X57919391Y-25125154D01*
X57902211Y-25194854D01*
X57924500Y-25284745D01*
X57953360Y-25333767D01*
X57999968Y-25380022D01*
X57999968Y-25495069D01*
X57910085Y-25464604D01*
X57851945Y-25370967D01*
X57830393Y-25217494D01*
X57830286Y-25203638D01*
X57817315Y-25119032D01*
X57779735Y-25102120D01*
X57721174Y-25151879D01*
X57692803Y-25233411D01*
X57696307Y-25333308D01*
X57702313Y-25424063D01*
X57678903Y-25458758D01*
X57668601Y-25460001D01*
X57613805Y-25429288D01*
X57583021Y-25352025D01*
X57577352Y-25250521D01*
X57597902Y-25147085D01*
X57597902Y-25147085D01*
G37*
X57597902Y-25147085D02*
X57645775Y-25064027D01*
X57648858Y-25060858D01*
X57709387Y-25017923D01*
X57795610Y-24995501D01*
X57929276Y-24988364D01*
X57950791Y-24988286D01*
X58180153Y-24988286D01*
X58185972Y-25199420D01*
X58182069Y-25328505D01*
X58164920Y-25422548D01*
X58148924Y-25453420D01*
X58082743Y-25485338D01*
X58003560Y-25496286D01*
X57999968Y-25495069D01*
X57999968Y-25380022D01*
X58046505Y-25366705D01*
X58062217Y-25354402D01*
X58112804Y-25294280D01*
X58109756Y-25225408D01*
X58083010Y-25167329D01*
X58022864Y-25110423D01*
X57974152Y-25097143D01*
X57919391Y-25125154D01*
X57902211Y-25194854D01*
X57924500Y-25284745D01*
X57953360Y-25333767D01*
X57999968Y-25380022D01*
X57999968Y-25495069D01*
X57910085Y-25464604D01*
X57851945Y-25370967D01*
X57830393Y-25217494D01*
X57830286Y-25203638D01*
X57817315Y-25119032D01*
X57779735Y-25102120D01*
X57721174Y-25151879D01*
X57692803Y-25233411D01*
X57696307Y-25333308D01*
X57702313Y-25424063D01*
X57678903Y-25458758D01*
X57668601Y-25460001D01*
X57613805Y-25429288D01*
X57583021Y-25352025D01*
X57577352Y-25250521D01*
X57597902Y-25147085D01*
G36*
X57333199Y-26103732D02*
X57378318Y-26082350D01*
X57476218Y-26076866D01*
X57482420Y-26076858D01*
X57642554Y-26076858D01*
X57603880Y-25974400D01*
X57581503Y-25831383D01*
X57624119Y-25709144D01*
X57726980Y-25620416D01*
X57872261Y-25581379D01*
X58019518Y-25602143D01*
X58127262Y-25665627D01*
X58173120Y-25745225D01*
X58192510Y-25856099D01*
X58183410Y-25964966D01*
X58149601Y-26033315D01*
X58124356Y-26069270D01*
X58149601Y-26076858D01*
X58184947Y-26107175D01*
X58193143Y-26149429D01*
X58188871Y-26180064D01*
X58168038Y-26200608D01*
X58118616Y-26213066D01*
X58028581Y-26219443D01*
X57898192Y-26221544D01*
X57898192Y-26076858D01*
X58011297Y-26051671D01*
X58072353Y-25975929D01*
X58084286Y-25895429D01*
X58068445Y-25806940D01*
X58040743Y-25757543D01*
X57959483Y-25720071D01*
X57853672Y-25720194D01*
X57759803Y-25756266D01*
X57742164Y-25771021D01*
X57690893Y-25862636D01*
X57699797Y-25956070D01*
X57759402Y-26032751D01*
X57860235Y-26074111D01*
X57898192Y-26076858D01*
X57898192Y-26221544D01*
X57885905Y-26221743D01*
X57757715Y-26222001D01*
X57573908Y-26221288D01*
X57450643Y-26217816D01*
X57375893Y-26209579D01*
X57337632Y-26194573D01*
X57323834Y-26170794D01*
X57322286Y-26149429D01*
X57333199Y-26103732D01*
X57333199Y-26103732D01*
G37*
X57333199Y-26103732D02*
X57378318Y-26082350D01*
X57476218Y-26076866D01*
X57482420Y-26076858D01*
X57642554Y-26076858D01*
X57603880Y-25974400D01*
X57581503Y-25831383D01*
X57624119Y-25709144D01*
X57726980Y-25620416D01*
X57872261Y-25581379D01*
X58019518Y-25602143D01*
X58127262Y-25665627D01*
X58173120Y-25745225D01*
X58192510Y-25856099D01*
X58183410Y-25964966D01*
X58149601Y-26033315D01*
X58124356Y-26069270D01*
X58149601Y-26076858D01*
X58184947Y-26107175D01*
X58193143Y-26149429D01*
X58188871Y-26180064D01*
X58168038Y-26200608D01*
X58118616Y-26213066D01*
X58028581Y-26219443D01*
X57898192Y-26221544D01*
X57898192Y-26076858D01*
X58011297Y-26051671D01*
X58072353Y-25975929D01*
X58084286Y-25895429D01*
X58068445Y-25806940D01*
X58040743Y-25757543D01*
X57959483Y-25720071D01*
X57853672Y-25720194D01*
X57759803Y-25756266D01*
X57742164Y-25771021D01*
X57690893Y-25862636D01*
X57699797Y-25956070D01*
X57759402Y-26032751D01*
X57860235Y-26074111D01*
X57898192Y-26076858D01*
X57898192Y-26221544D01*
X57885905Y-26221743D01*
X57757715Y-26222001D01*
X57573908Y-26221288D01*
X57450643Y-26217816D01*
X57375893Y-26209579D01*
X57337632Y-26194573D01*
X57323834Y-26170794D01*
X57322286Y-26149429D01*
X57333199Y-26103732D01*
G36*
X57582091Y-26404247D02*
X57609024Y-26382667D01*
X57671358Y-26371573D01*
X57783370Y-26367564D01*
X57880814Y-26367143D01*
X58185343Y-26367143D01*
X58188403Y-26584571D01*
X58186546Y-26710584D01*
X58172034Y-26786350D01*
X58138151Y-26833949D01*
X58105038Y-26858628D01*
X58016328Y-26892836D01*
X57899233Y-26908225D01*
X57775747Y-26906010D01*
X57667864Y-26887407D01*
X57597578Y-26853630D01*
X57583050Y-26829786D01*
X57585419Y-26795395D01*
X57618815Y-26776125D01*
X57697925Y-26767823D01*
X57807680Y-26766286D01*
X57972433Y-26754422D01*
X58070394Y-26717925D01*
X58103509Y-26655442D01*
X58079933Y-26576723D01*
X58045085Y-26540071D01*
X57978592Y-26520118D01*
X57863049Y-26512696D01*
X57810867Y-26512286D01*
X57683643Y-26510000D01*
X57612859Y-26499827D01*
X57582439Y-26476794D01*
X57576286Y-26439715D01*
X57582091Y-26404247D01*
X57582091Y-26404247D01*
G37*
X57582091Y-26404247D02*
X57609024Y-26382667D01*
X57671358Y-26371573D01*
X57783370Y-26367564D01*
X57880814Y-26367143D01*
X58185343Y-26367143D01*
X58188403Y-26584571D01*
X58186546Y-26710584D01*
X58172034Y-26786350D01*
X58138151Y-26833949D01*
X58105038Y-26858628D01*
X58016328Y-26892836D01*
X57899233Y-26908225D01*
X57775747Y-26906010D01*
X57667864Y-26887407D01*
X57597578Y-26853630D01*
X57583050Y-26829786D01*
X57585419Y-26795395D01*
X57618815Y-26776125D01*
X57697925Y-26767823D01*
X57807680Y-26766286D01*
X57972433Y-26754422D01*
X58070394Y-26717925D01*
X58103509Y-26655442D01*
X58079933Y-26576723D01*
X58045085Y-26540071D01*
X57978592Y-26520118D01*
X57863049Y-26512696D01*
X57810867Y-26512286D01*
X57683643Y-26510000D01*
X57612859Y-26499827D01*
X57582439Y-26476794D01*
X57576286Y-26439715D01*
X57582091Y-26404247D01*
G36*
X57590997Y-27117208D02*
X57629534Y-27034139D01*
X57683500Y-27003284D01*
X57703175Y-27007122D01*
X57737185Y-27041484D01*
X57720765Y-27094099D01*
X57686746Y-27215228D01*
X57720771Y-27317429D01*
X57777344Y-27369311D01*
X57883552Y-27405153D01*
X57981899Y-27384581D01*
X58056316Y-27321417D01*
X58090730Y-27229481D01*
X58069071Y-27122593D01*
X58067599Y-27119707D01*
X58038328Y-27048549D01*
X58050884Y-27014653D01*
X58065196Y-27007528D01*
X58130604Y-27012930D01*
X58174655Y-27081359D01*
X58192899Y-27205269D01*
X58193143Y-27224481D01*
X58182006Y-27338672D01*
X58139500Y-27415105D01*
X58097536Y-27453081D01*
X57970365Y-27515897D01*
X57837732Y-27522309D01*
X57716793Y-27479419D01*
X57624703Y-27394332D01*
X57578617Y-27274149D01*
X57576286Y-27237264D01*
X57590997Y-27117208D01*
X57590997Y-27117208D01*
G37*
X57590997Y-27117208D02*
X57629534Y-27034139D01*
X57683500Y-27003284D01*
X57703175Y-27007122D01*
X57737185Y-27041484D01*
X57720765Y-27094099D01*
X57686746Y-27215228D01*
X57720771Y-27317429D01*
X57777344Y-27369311D01*
X57883552Y-27405153D01*
X57981899Y-27384581D01*
X58056316Y-27321417D01*
X58090730Y-27229481D01*
X58069071Y-27122593D01*
X58067599Y-27119707D01*
X58038328Y-27048549D01*
X58050884Y-27014653D01*
X58065196Y-27007528D01*
X58130604Y-27012930D01*
X58174655Y-27081359D01*
X58192899Y-27205269D01*
X58193143Y-27224481D01*
X58182006Y-27338672D01*
X58139500Y-27415105D01*
X58097536Y-27453081D01*
X57970365Y-27515897D01*
X57837732Y-27522309D01*
X57716793Y-27479419D01*
X57624703Y-27394332D01*
X57578617Y-27274149D01*
X57576286Y-27237264D01*
X57590997Y-27117208D01*
G36*
X57600862Y-28074834D02*
X57617516Y-28064876D01*
X57638477Y-28034977D01*
X57612207Y-27976615D01*
X57582238Y-27870426D01*
X57607528Y-27764078D01*
X57679445Y-27685393D01*
X57706662Y-27672146D01*
X57796125Y-27651956D01*
X57922118Y-27639309D01*
X57995934Y-27637143D01*
X58110433Y-27640370D01*
X58169769Y-27654288D01*
X58191222Y-27685256D01*
X58193143Y-27709715D01*
X58185826Y-27748915D01*
X58153207Y-27770809D01*
X58079283Y-27780299D01*
X57956147Y-27782286D01*
X57819915Y-27786431D01*
X57740367Y-27801231D01*
X57701967Y-27830238D01*
X57696373Y-27841647D01*
X57689158Y-27926376D01*
X57744669Y-27985030D01*
X57865431Y-28019337D01*
X57970130Y-28028946D01*
X58094215Y-28037904D01*
X58161881Y-28053442D01*
X58189276Y-28081472D01*
X58193143Y-28110589D01*
X58186988Y-28145068D01*
X58159092Y-28166132D01*
X58095312Y-28177030D01*
X57981504Y-28181010D01*
X57884715Y-28181429D01*
X57728571Y-28178812D01*
X57633059Y-28169651D01*
X57586387Y-28151979D01*
X57576286Y-28130024D01*
X57600862Y-28074834D01*
X57600862Y-28074834D01*
G37*
X57600862Y-28074834D02*
X57617516Y-28064876D01*
X57638477Y-28034977D01*
X57612207Y-27976615D01*
X57582238Y-27870426D01*
X57607528Y-27764078D01*
X57679445Y-27685393D01*
X57706662Y-27672146D01*
X57796125Y-27651956D01*
X57922118Y-27639309D01*
X57995934Y-27637143D01*
X58110433Y-27640370D01*
X58169769Y-27654288D01*
X58191222Y-27685256D01*
X58193143Y-27709715D01*
X58185826Y-27748915D01*
X58153207Y-27770809D01*
X58079283Y-27780299D01*
X57956147Y-27782286D01*
X57819915Y-27786431D01*
X57740367Y-27801231D01*
X57701967Y-27830238D01*
X57696373Y-27841647D01*
X57689158Y-27926376D01*
X57744669Y-27985030D01*
X57865431Y-28019337D01*
X57970130Y-28028946D01*
X58094215Y-28037904D01*
X58161881Y-28053442D01*
X58189276Y-28081472D01*
X58193143Y-28110589D01*
X58186988Y-28145068D01*
X58159092Y-28166132D01*
X58095312Y-28177030D01*
X57981504Y-28181010D01*
X57884715Y-28181429D01*
X57728571Y-28178812D01*
X57633059Y-28169651D01*
X57586387Y-28151979D01*
X57576286Y-28130024D01*
X57600862Y-28074834D01*
G36*
X57589454Y-28390075D02*
X57637386Y-28373420D01*
X57732726Y-28365092D01*
X57884715Y-28362858D01*
X58038913Y-28365181D01*
X58133287Y-28373640D01*
X58180482Y-28390465D01*
X58193143Y-28417286D01*
X58179976Y-28444498D01*
X58132043Y-28461152D01*
X58036703Y-28469480D01*
X57884715Y-28471715D01*
X57730517Y-28469391D01*
X57636142Y-28460932D01*
X57588948Y-28444108D01*
X57576286Y-28417286D01*
X57589454Y-28390075D01*
X57589454Y-28390075D01*
G37*
X57589454Y-28390075D02*
X57637386Y-28373420D01*
X57732726Y-28365092D01*
X57884715Y-28362858D01*
X58038913Y-28365181D01*
X58133287Y-28373640D01*
X58180482Y-28390465D01*
X58193143Y-28417286D01*
X58179976Y-28444498D01*
X58132043Y-28461152D01*
X58036703Y-28469480D01*
X57884715Y-28471715D01*
X57730517Y-28469391D01*
X57636142Y-28460932D01*
X57588948Y-28444108D01*
X57576286Y-28417286D01*
X57589454Y-28390075D01*
G36*
X57600862Y-29308548D02*
X57617516Y-29298591D01*
X57637639Y-29267831D01*
X57609890Y-29206618D01*
X57581763Y-29102928D01*
X57608472Y-28998737D01*
X57679930Y-28921396D01*
X57721755Y-28903248D01*
X57811109Y-28887815D01*
X57936085Y-28877006D01*
X58002643Y-28874475D01*
X58114551Y-28875657D01*
X58171687Y-28888956D01*
X58191625Y-28920732D01*
X58193143Y-28943429D01*
X58184349Y-28985614D01*
X58146431Y-29007446D01*
X58062091Y-29015310D01*
X57996540Y-29016001D01*
X57838313Y-29021965D01*
X57741068Y-29042298D01*
X57694010Y-29080655D01*
X57685143Y-29121483D01*
X57707552Y-29199726D01*
X57780122Y-29247301D01*
X57910866Y-29268208D01*
X57982686Y-29270001D01*
X58101806Y-29272833D01*
X58165282Y-29285200D01*
X58189948Y-29312905D01*
X58193143Y-29342572D01*
X58187404Y-29377858D01*
X58160725Y-29399412D01*
X58098916Y-29410572D01*
X57987788Y-29414677D01*
X57884715Y-29415143D01*
X57728571Y-29412526D01*
X57633059Y-29403365D01*
X57586387Y-29385694D01*
X57576286Y-29363739D01*
X57600862Y-29308548D01*
X57600862Y-29308548D01*
G37*
X57600862Y-29308548D02*
X57617516Y-29298591D01*
X57637639Y-29267831D01*
X57609890Y-29206618D01*
X57581763Y-29102928D01*
X57608472Y-28998737D01*
X57679930Y-28921396D01*
X57721755Y-28903248D01*
X57811109Y-28887815D01*
X57936085Y-28877006D01*
X58002643Y-28874475D01*
X58114551Y-28875657D01*
X58171687Y-28888956D01*
X58191625Y-28920732D01*
X58193143Y-28943429D01*
X58184349Y-28985614D01*
X58146431Y-29007446D01*
X58062091Y-29015310D01*
X57996540Y-29016001D01*
X57838313Y-29021965D01*
X57741068Y-29042298D01*
X57694010Y-29080655D01*
X57685143Y-29121483D01*
X57707552Y-29199726D01*
X57780122Y-29247301D01*
X57910866Y-29268208D01*
X57982686Y-29270001D01*
X58101806Y-29272833D01*
X58165282Y-29285200D01*
X58189948Y-29312905D01*
X58193143Y-29342572D01*
X58187404Y-29377858D01*
X58160725Y-29399412D01*
X58098916Y-29410572D01*
X57987788Y-29414677D01*
X57884715Y-29415143D01*
X57728571Y-29412526D01*
X57633059Y-29403365D01*
X57586387Y-29385694D01*
X57576286Y-29363739D01*
X57600862Y-29308548D01*
G36*
X57606793Y-29696431D02*
X57684109Y-29596815D01*
X57786923Y-29534345D01*
X57846780Y-29524001D01*
X57896420Y-29527939D01*
X57924068Y-29550693D01*
X57936148Y-29608668D01*
X57939085Y-29718268D01*
X57939143Y-29759858D01*
X57945323Y-29903239D01*
X57965258Y-29977286D01*
X58001047Y-29984291D01*
X58054785Y-29926549D01*
X58070454Y-29903514D01*
X58109619Y-29820337D01*
X58098780Y-29742530D01*
X58088972Y-29719366D01*
X58064288Y-29633510D01*
X58076610Y-29583765D01*
X58119803Y-29584046D01*
X58141945Y-29599253D01*
X58176291Y-29666298D01*
X58192481Y-29784571D01*
X58193143Y-29817893D01*
X58186939Y-29931948D01*
X58161145Y-30000912D01*
X58104990Y-30051727D01*
X58097722Y-30056564D01*
X57992566Y-30100850D01*
X57875306Y-30119086D01*
X57801258Y-30100013D01*
X57801258Y-29995715D01*
X57818573Y-29963270D01*
X57828957Y-29881184D01*
X57830286Y-29832429D01*
X57824518Y-29735031D01*
X57809925Y-29676622D01*
X57801258Y-29669143D01*
X57741019Y-29700269D01*
X57696051Y-29773530D01*
X57685143Y-29832429D01*
X57707277Y-29917140D01*
X57759374Y-29980376D01*
X57801258Y-29995715D01*
X57801258Y-30100013D01*
X57747140Y-30086072D01*
X57644167Y-29999401D01*
X57584373Y-29877629D01*
X57576286Y-29810613D01*
X57606793Y-29696431D01*
X57606793Y-29696431D01*
G37*
X57606793Y-29696431D02*
X57684109Y-29596815D01*
X57786923Y-29534345D01*
X57846780Y-29524001D01*
X57896420Y-29527939D01*
X57924068Y-29550693D01*
X57936148Y-29608668D01*
X57939085Y-29718268D01*
X57939143Y-29759858D01*
X57945323Y-29903239D01*
X57965258Y-29977286D01*
X58001047Y-29984291D01*
X58054785Y-29926549D01*
X58070454Y-29903514D01*
X58109619Y-29820337D01*
X58098780Y-29742530D01*
X58088972Y-29719366D01*
X58064288Y-29633510D01*
X58076610Y-29583765D01*
X58119803Y-29584046D01*
X58141945Y-29599253D01*
X58176291Y-29666298D01*
X58192481Y-29784571D01*
X58193143Y-29817893D01*
X58186939Y-29931948D01*
X58161145Y-30000912D01*
X58104990Y-30051727D01*
X58097722Y-30056564D01*
X57992566Y-30100850D01*
X57875306Y-30119086D01*
X57801258Y-30100013D01*
X57801258Y-29995715D01*
X57818573Y-29963270D01*
X57828957Y-29881184D01*
X57830286Y-29832429D01*
X57824518Y-29735031D01*
X57809925Y-29676622D01*
X57801258Y-29669143D01*
X57741019Y-29700269D01*
X57696051Y-29773530D01*
X57685143Y-29832429D01*
X57707277Y-29917140D01*
X57759374Y-29980376D01*
X57801258Y-29995715D01*
X57801258Y-30100013D01*
X57747140Y-30086072D01*
X57644167Y-29999401D01*
X57584373Y-29877629D01*
X57576286Y-29810613D01*
X57606793Y-29696431D01*
G36*
X57606792Y-31150819D02*
X57686627Y-31049208D01*
X57798266Y-30986336D01*
X57924184Y-30969515D01*
X58046855Y-31006056D01*
X58114247Y-31059411D01*
X58179195Y-31174750D01*
X58194881Y-31311279D01*
X58161617Y-31441151D01*
X58109162Y-31513390D01*
X57989227Y-31583558D01*
X57875363Y-31593084D01*
X57875363Y-31477928D01*
X57968872Y-31460092D01*
X58043462Y-31390242D01*
X58091489Y-31312327D01*
X58090423Y-31244178D01*
X58076161Y-31207944D01*
X58014937Y-31132292D01*
X57950801Y-31097559D01*
X57842693Y-31098243D01*
X57757107Y-31146687D01*
X57704031Y-31225107D01*
X57693456Y-31315719D01*
X57735369Y-31400738D01*
X57765789Y-31426943D01*
X57875363Y-31477928D01*
X57875363Y-31593084D01*
X57859012Y-31594452D01*
X57736117Y-31553653D01*
X57638140Y-31468742D01*
X57582683Y-31347298D01*
X57576286Y-31283858D01*
X57606792Y-31150819D01*
X57606792Y-31150819D01*
G37*
X57606792Y-31150819D02*
X57686627Y-31049208D01*
X57798266Y-30986336D01*
X57924184Y-30969515D01*
X58046855Y-31006056D01*
X58114247Y-31059411D01*
X58179195Y-31174750D01*
X58194881Y-31311279D01*
X58161617Y-31441151D01*
X58109162Y-31513390D01*
X57989227Y-31583558D01*
X57875363Y-31593084D01*
X57875363Y-31477928D01*
X57968872Y-31460092D01*
X58043462Y-31390242D01*
X58091489Y-31312327D01*
X58090423Y-31244178D01*
X58076161Y-31207944D01*
X58014937Y-31132292D01*
X57950801Y-31097559D01*
X57842693Y-31098243D01*
X57757107Y-31146687D01*
X57704031Y-31225107D01*
X57693456Y-31315719D01*
X57735369Y-31400738D01*
X57765789Y-31426943D01*
X57875363Y-31477928D01*
X57875363Y-31593084D01*
X57859012Y-31594452D01*
X57736117Y-31553653D01*
X57638140Y-31468742D01*
X57582683Y-31347298D01*
X57576286Y-31283858D01*
X57606792Y-31150819D01*
G36*
X57603541Y-30721779D02*
X57621643Y-30710846D01*
X57648804Y-30686616D01*
X57621643Y-30646136D01*
X57579601Y-30553790D01*
X57587480Y-30439166D01*
X57641856Y-30329192D01*
X57665351Y-30302494D01*
X57782177Y-30230019D01*
X57917557Y-30211085D01*
X58046294Y-30245977D01*
X58114247Y-30297411D01*
X58169358Y-30392895D01*
X58192891Y-30510299D01*
X58182045Y-30619475D01*
X58149601Y-30677886D01*
X58138237Y-30704589D01*
X58179790Y-30717963D01*
X58276601Y-30721429D01*
X58386838Y-30727980D01*
X58438611Y-30750432D01*
X58447143Y-30775858D01*
X58436226Y-30799324D01*
X58396073Y-30815111D01*
X58315581Y-30824607D01*
X58183649Y-30829199D01*
X58011715Y-30830286D01*
X57886750Y-30829264D01*
X57886750Y-30707293D01*
X57984518Y-30691142D01*
X58060669Y-30628183D01*
X58073868Y-30604289D01*
X58089345Y-30496992D01*
X58037205Y-30404748D01*
X57956534Y-30351627D01*
X57854648Y-30339353D01*
X57760056Y-30380978D01*
X57697303Y-30461107D01*
X57685143Y-30521858D01*
X57714924Y-30617957D01*
X57789506Y-30681334D01*
X57886750Y-30707293D01*
X57886750Y-30829264D01*
X57822085Y-30828735D01*
X57694400Y-30823247D01*
X57618081Y-30812576D01*
X57582552Y-30795471D01*
X57576286Y-30778881D01*
X57603541Y-30721779D01*
X57603541Y-30721779D01*
G37*
X57603541Y-30721779D02*
X57621643Y-30710846D01*
X57648804Y-30686616D01*
X57621643Y-30646136D01*
X57579601Y-30553790D01*
X57587480Y-30439166D01*
X57641856Y-30329192D01*
X57665351Y-30302494D01*
X57782177Y-30230019D01*
X57917557Y-30211085D01*
X58046294Y-30245977D01*
X58114247Y-30297411D01*
X58169358Y-30392895D01*
X58192891Y-30510299D01*
X58182045Y-30619475D01*
X58149601Y-30677886D01*
X58138237Y-30704589D01*
X58179790Y-30717963D01*
X58276601Y-30721429D01*
X58386838Y-30727980D01*
X58438611Y-30750432D01*
X58447143Y-30775858D01*
X58436226Y-30799324D01*
X58396073Y-30815111D01*
X58315581Y-30824607D01*
X58183649Y-30829199D01*
X58011715Y-30830286D01*
X57886750Y-30829264D01*
X57886750Y-30707293D01*
X57984518Y-30691142D01*
X58060669Y-30628183D01*
X58073868Y-30604289D01*
X58089345Y-30496992D01*
X58037205Y-30404748D01*
X57956534Y-30351627D01*
X57854648Y-30339353D01*
X57760056Y-30380978D01*
X57697303Y-30461107D01*
X57685143Y-30521858D01*
X57714924Y-30617957D01*
X57789506Y-30681334D01*
X57886750Y-30707293D01*
X57886750Y-30829264D01*
X57822085Y-30828735D01*
X57694400Y-30823247D01*
X57618081Y-30812576D01*
X57582552Y-30795471D01*
X57576286Y-30778881D01*
X57603541Y-30721779D01*
D13*
X-28300000Y-52500000D02*
X-27800000Y-52500000D01*
X-27800000Y-52600000D02*
X-28300000Y-52600000D01*
X-27800000Y-52400000D02*
X-27800000Y-52600000D01*
X-28300000Y-52400000D02*
X-27800000Y-52400000D01*
X-28300000Y-50500000D02*
X-27800000Y-50500000D01*
X-27800000Y-50600000D02*
X-28300000Y-50600000D01*
X-27800000Y-50400000D02*
X-27800000Y-50600000D01*
X-28300000Y-50400000D02*
X-27800000Y-50400000D01*
X-24200000Y-49200000D02*
X-24200000Y-48900000D01*
X-24100000Y-48900000D02*
X-24300000Y-48900000D01*
X-24100000Y-49200000D02*
X-24100000Y-48900000D01*
X-24300000Y-49200000D02*
X-24100000Y-49200000D01*
X-26800000Y-54950000D02*
X-26800000Y-55450000D01*
X-25500000Y-54950000D02*
X-25500000Y-55450000D01*
X-26800000Y-47550000D02*
X-26800000Y-48050000D01*
X-25500000Y-47550000D02*
X-25500000Y-48050000D01*
X-24800000Y-53000000D02*
X-24300000Y-53000000D01*
X-24800000Y-54950000D02*
X-24800000Y-53000000D01*
X-28300000Y-54950000D02*
X-24800000Y-54950000D01*
X-28300000Y-48050000D02*
X-28300000Y-54950000D01*
X-24800000Y-48050000D02*
X-28300000Y-48050000D01*
X-24800000Y-50000000D02*
X-24800000Y-48050000D01*
X-24300000Y-50000000D02*
X-24800000Y-50000000D01*
X-28800000Y-55450000D02*
X-28800000Y-47550000D01*
X-24300000Y-55450000D02*
X-28800000Y-55450000D01*
X-24300000Y-47550000D02*
X-24300000Y-55450000D01*
X-28800000Y-47550000D02*
X-24300000Y-47550000D01*
X-28800000Y-39550000D02*
X-24300000Y-39550000D01*
X-24300000Y-39550000D02*
X-24300000Y-47450000D01*
X-24300000Y-47450000D02*
X-28800000Y-47450000D01*
X-28800000Y-47450000D02*
X-28800000Y-39550000D01*
X-24300000Y-42000000D02*
X-24800000Y-42000000D01*
X-24800000Y-42000000D02*
X-24800000Y-40050000D01*
X-24800000Y-40050000D02*
X-28300000Y-40050000D01*
X-28300000Y-40050000D02*
X-28300000Y-46950000D01*
X-28300000Y-46950000D02*
X-24800000Y-46950000D01*
X-24800000Y-46950000D02*
X-24800000Y-45000000D01*
X-24800000Y-45000000D02*
X-24300000Y-45000000D01*
X-25500000Y-39550000D02*
X-25500000Y-40050000D01*
X-26800000Y-39550000D02*
X-26800000Y-40050000D01*
X-25500000Y-46950000D02*
X-25500000Y-47450000D01*
X-26800000Y-46950000D02*
X-26800000Y-47450000D01*
X-24300000Y-41200000D02*
X-24100000Y-41200000D01*
X-24100000Y-41200000D02*
X-24100000Y-40900000D01*
X-24100000Y-40900000D02*
X-24300000Y-40900000D01*
X-24200000Y-41200000D02*
X-24200000Y-40900000D01*
X-28300000Y-42400000D02*
X-27800000Y-42400000D01*
X-27800000Y-42400000D02*
X-27800000Y-42600000D01*
X-27800000Y-42600000D02*
X-28300000Y-42600000D01*
X-28300000Y-42500000D02*
X-27800000Y-42500000D01*
X-28300000Y-44400000D02*
X-27800000Y-44400000D01*
X-27800000Y-44400000D02*
X-27800000Y-44600000D01*
X-27800000Y-44600000D02*
X-28300000Y-44600000D01*
X-28300000Y-44500000D02*
X-27800000Y-44500000D01*
X-28300000Y-36500000D02*
X-27800000Y-36500000D01*
X-27800000Y-36600000D02*
X-28300000Y-36600000D01*
X-27800000Y-36400000D02*
X-27800000Y-36600000D01*
X-28300000Y-36400000D02*
X-27800000Y-36400000D01*
X-28300000Y-34500000D02*
X-27800000Y-34500000D01*
X-27800000Y-34600000D02*
X-28300000Y-34600000D01*
X-27800000Y-34400000D02*
X-27800000Y-34600000D01*
X-28300000Y-34400000D02*
X-27800000Y-34400000D01*
X-24200000Y-33200000D02*
X-24200000Y-32900000D01*
X-24100000Y-32900000D02*
X-24300000Y-32900000D01*
X-24100000Y-33200000D02*
X-24100000Y-32900000D01*
X-24300000Y-33200000D02*
X-24100000Y-33200000D01*
X-26800000Y-38950000D02*
X-26800000Y-39450000D01*
X-25500000Y-38950000D02*
X-25500000Y-39450000D01*
X-26800000Y-31550000D02*
X-26800000Y-32050000D01*
X-25500000Y-31550000D02*
X-25500000Y-32050000D01*
X-24800000Y-37000000D02*
X-24300000Y-37000000D01*
X-24800000Y-38950000D02*
X-24800000Y-37000000D01*
X-28300000Y-38950000D02*
X-24800000Y-38950000D01*
X-28300000Y-32050000D02*
X-28300000Y-38950000D01*
X-24800000Y-32050000D02*
X-28300000Y-32050000D01*
X-24800000Y-34000000D02*
X-24800000Y-32050000D01*
X-24300000Y-34000000D02*
X-24800000Y-34000000D01*
X-28800000Y-39450000D02*
X-28800000Y-31550000D01*
X-24300000Y-39450000D02*
X-28800000Y-39450000D01*
X-24300000Y-31550000D02*
X-24300000Y-39450000D01*
X-28800000Y-31550000D02*
X-24300000Y-31550000D01*
X-28800000Y-23550000D02*
X-24300000Y-23550000D01*
X-24300000Y-23550000D02*
X-24300000Y-31450000D01*
X-24300000Y-31450000D02*
X-28800000Y-31450000D01*
X-28800000Y-31450000D02*
X-28800000Y-23550000D01*
X-24300000Y-26000000D02*
X-24800000Y-26000000D01*
X-24800000Y-26000000D02*
X-24800000Y-24050000D01*
X-24800000Y-24050000D02*
X-28300000Y-24050000D01*
X-28300000Y-24050000D02*
X-28300000Y-30950000D01*
X-28300000Y-30950000D02*
X-24800000Y-30950000D01*
X-24800000Y-30950000D02*
X-24800000Y-29000000D01*
X-24800000Y-29000000D02*
X-24300000Y-29000000D01*
X-25500000Y-23550000D02*
X-25500000Y-24050000D01*
X-26800000Y-23550000D02*
X-26800000Y-24050000D01*
X-25500000Y-30950000D02*
X-25500000Y-31450000D01*
X-26800000Y-30950000D02*
X-26800000Y-31450000D01*
X-24300000Y-25200000D02*
X-24100000Y-25200000D01*
X-24100000Y-25200000D02*
X-24100000Y-24900000D01*
X-24100000Y-24900000D02*
X-24300000Y-24900000D01*
X-24200000Y-25200000D02*
X-24200000Y-24900000D01*
X-28300000Y-26400000D02*
X-27800000Y-26400000D01*
X-27800000Y-26400000D02*
X-27800000Y-26600000D01*
X-27800000Y-26600000D02*
X-28300000Y-26600000D01*
X-28300000Y-26500000D02*
X-27800000Y-26500000D01*
X-28300000Y-28400000D02*
X-27800000Y-28400000D01*
X-27800000Y-28400000D02*
X-27800000Y-28600000D01*
X-27800000Y-28600000D02*
X-28300000Y-28600000D01*
X-28300000Y-28500000D02*
X-27800000Y-28500000D01*
X-28300000Y-20500000D02*
X-27800000Y-20500000D01*
X-27800000Y-20600000D02*
X-28300000Y-20600000D01*
X-27800000Y-20400000D02*
X-27800000Y-20600000D01*
X-28300000Y-20400000D02*
X-27800000Y-20400000D01*
X-28300000Y-18500000D02*
X-27800000Y-18500000D01*
X-27800000Y-18600000D02*
X-28300000Y-18600000D01*
X-27800000Y-18400000D02*
X-27800000Y-18600000D01*
X-28300000Y-18400000D02*
X-27800000Y-18400000D01*
X-24200000Y-17200000D02*
X-24200000Y-16900000D01*
X-24100000Y-16900000D02*
X-24300000Y-16900000D01*
X-24100000Y-17200000D02*
X-24100000Y-16900000D01*
X-24300000Y-17200000D02*
X-24100000Y-17200000D01*
X-26800000Y-22950000D02*
X-26800000Y-23450000D01*
X-25500000Y-22950000D02*
X-25500000Y-23450000D01*
X-26800000Y-15550000D02*
X-26800000Y-16050000D01*
X-25500000Y-15550000D02*
X-25500000Y-16050000D01*
X-24800000Y-21000000D02*
X-24300000Y-21000000D01*
X-24800000Y-22950000D02*
X-24800000Y-21000000D01*
X-28300000Y-22950000D02*
X-24800000Y-22950000D01*
X-28300000Y-16050000D02*
X-28300000Y-22950000D01*
X-24800000Y-16050000D02*
X-28300000Y-16050000D01*
X-24800000Y-18000000D02*
X-24800000Y-16050000D01*
X-24300000Y-18000000D02*
X-24800000Y-18000000D01*
X-28800000Y-23450000D02*
X-28800000Y-15550000D01*
X-24300000Y-23450000D02*
X-28800000Y-23450000D01*
X-24300000Y-15550000D02*
X-24300000Y-23450000D01*
X-28800000Y-15550000D02*
X-24300000Y-15550000D01*
X-28800000Y-7550000D02*
X-24300000Y-7550000D01*
X-24300000Y-7550000D02*
X-24300000Y-15450000D01*
X-24300000Y-15450000D02*
X-28800000Y-15450000D01*
X-28800000Y-15450000D02*
X-28800000Y-7550000D01*
X-24300000Y-10000000D02*
X-24800000Y-10000000D01*
X-24800000Y-10000000D02*
X-24800000Y-8050000D01*
X-24800000Y-8050000D02*
X-28300000Y-8050000D01*
X-28300000Y-8050000D02*
X-28300000Y-14950000D01*
X-28300000Y-14950000D02*
X-24800000Y-14950000D01*
X-24800000Y-14950000D02*
X-24800000Y-13000000D01*
X-24800000Y-13000000D02*
X-24300000Y-13000000D01*
X-25500000Y-7550000D02*
X-25500000Y-8050000D01*
X-26800000Y-7550000D02*
X-26800000Y-8050000D01*
X-25500000Y-14950000D02*
X-25500000Y-15450000D01*
X-26800000Y-14950000D02*
X-26800000Y-15450000D01*
X-24300000Y-9200000D02*
X-24100000Y-9200000D01*
X-24100000Y-9200000D02*
X-24100000Y-8900000D01*
X-24100000Y-8900000D02*
X-24300000Y-8900000D01*
X-24200000Y-9200000D02*
X-24200000Y-8900000D01*
X-28300000Y-10400000D02*
X-27800000Y-10400000D01*
X-27800000Y-10400000D02*
X-27800000Y-10600000D01*
X-27800000Y-10600000D02*
X-28300000Y-10600000D01*
X-28300000Y-10500000D02*
X-27800000Y-10500000D01*
X-28300000Y-12400000D02*
X-27800000Y-12400000D01*
X-27800000Y-12400000D02*
X-27800000Y-12600000D01*
X-27800000Y-12600000D02*
X-28300000Y-12600000D01*
X-28300000Y-12500000D02*
X-27800000Y-12500000D01*
X-28300000Y-4500000D02*
X-27800000Y-4500000D01*
X-27800000Y-4600000D02*
X-28300000Y-4600000D01*
X-27800000Y-4400000D02*
X-27800000Y-4600000D01*
X-28300000Y-4400000D02*
X-27800000Y-4400000D01*
X-28300000Y-2500000D02*
X-27800000Y-2500000D01*
X-27800000Y-2600000D02*
X-28300000Y-2600000D01*
X-27800000Y-2400000D02*
X-27800000Y-2600000D01*
X-28300000Y-2400000D02*
X-27800000Y-2400000D01*
X-24200000Y-1200000D02*
X-24200000Y-900000D01*
X-24100000Y-900000D02*
X-24300000Y-900000D01*
X-24100000Y-1200000D02*
X-24100000Y-900000D01*
X-24300000Y-1200000D02*
X-24100000Y-1200000D01*
X-26800000Y-6950000D02*
X-26800000Y-7450000D01*
X-25500000Y-6950000D02*
X-25500000Y-7450000D01*
X-26800000Y450000D02*
X-26800000Y-50000D01*
X-25500000Y450000D02*
X-25500000Y-50000D01*
X-24800000Y-5000000D02*
X-24300000Y-5000000D01*
X-24800000Y-6950000D02*
X-24800000Y-5000000D01*
X-28300000Y-6950000D02*
X-24800000Y-6950000D01*
X-28300000Y-50000D02*
X-28300000Y-6950000D01*
X-24800000Y-50000D02*
X-28300000Y-50000D01*
X-24800000Y-2000000D02*
X-24800000Y-50000D01*
X-24300000Y-2000000D02*
X-24800000Y-2000000D01*
X-28800000Y-7450000D02*
X-28800000Y450000D01*
X-24300000Y-7450000D02*
X-28800000Y-7450000D01*
X-24300000Y450000D02*
X-24300000Y-7450000D01*
X-28800000Y450000D02*
X-24300000Y450000D01*
X-28800000Y8450000D02*
X-24300000Y8450000D01*
X-24300000Y8450000D02*
X-24300000Y550000D01*
X-24300000Y550000D02*
X-28800000Y550000D01*
X-28800000Y550000D02*
X-28800000Y8450000D01*
X-24300000Y6000000D02*
X-24800000Y6000000D01*
X-24800000Y6000000D02*
X-24800000Y7950000D01*
X-24800000Y7950000D02*
X-28300000Y7950000D01*
X-28300000Y7950000D02*
X-28300000Y1050000D01*
X-28300000Y1050000D02*
X-24800000Y1050000D01*
X-24800000Y1050000D02*
X-24800000Y3000000D01*
X-24800000Y3000000D02*
X-24300000Y3000000D01*
X-25500000Y8450000D02*
X-25500000Y7950000D01*
X-26800000Y8450000D02*
X-26800000Y7950000D01*
X-25500000Y1050000D02*
X-25500000Y550000D01*
X-26800000Y1050000D02*
X-26800000Y550000D01*
X-24300000Y6800000D02*
X-24100000Y6800000D01*
X-24100000Y6800000D02*
X-24100000Y7100000D01*
X-24100000Y7100000D02*
X-24300000Y7100000D01*
X-24200000Y6800000D02*
X-24200000Y7100000D01*
X-28300000Y5600000D02*
X-27800000Y5600000D01*
X-27800000Y5600000D02*
X-27800000Y5400000D01*
X-27800000Y5400000D02*
X-28300000Y5400000D01*
X-28300000Y5500000D02*
X-27800000Y5500000D01*
X-28300000Y3600000D02*
X-27800000Y3600000D01*
X-27800000Y3600000D02*
X-27800000Y3400000D01*
X-27800000Y3400000D02*
X-28300000Y3400000D01*
X-28300000Y3500000D02*
X-27800000Y3500000D01*
D14*
X-15500000Y-48311510D02*
X-13500000Y-48311510D01*
X-21000000Y-42311510D02*
X-22000000Y-42311510D01*
X-19102120Y-48311250D02*
X-17600980Y-48311250D01*
X-25000000Y-48311510D02*
X-24000000Y-48311510D01*
X-27500000Y-47811510D02*
X-24986920Y-47811510D01*
X-21000000Y-48311510D02*
X-22000000Y-48311510D01*
X-15500000Y-42311510D02*
X-13500000Y-42311510D01*
X-19001140Y-42311510D02*
X-17500000Y-42311510D01*
X-25000000Y-42311510D02*
X-24000000Y-42311510D01*
X-25000000Y-42311510D02*
X-25000000Y-48311510D01*
X-13500000Y-42311770D02*
X-13500000Y-48311250D01*
X-27500000Y-42811510D02*
X-24986920Y-42811510D01*
X-27500000Y-42811510D02*
X-27500000Y-47811510D01*
X-27500000Y-32811510D02*
X-27500000Y-37811510D01*
X-27500000Y-32811510D02*
X-24986920Y-32811510D01*
X-13500000Y-32311770D02*
X-13500000Y-38311250D01*
X-25000000Y-32311510D02*
X-25000000Y-38311510D01*
X-25000000Y-32311510D02*
X-24000000Y-32311510D01*
X-19001140Y-32311510D02*
X-17500000Y-32311510D01*
X-15500000Y-32311510D02*
X-13500000Y-32311510D01*
X-21000000Y-38311510D02*
X-22000000Y-38311510D01*
X-27500000Y-37811510D02*
X-24986920Y-37811510D01*
X-25000000Y-38311510D02*
X-24000000Y-38311510D01*
X-19102120Y-38311250D02*
X-17600980Y-38311250D01*
X-21000000Y-32311510D02*
X-22000000Y-32311510D01*
X-15500000Y-38311510D02*
X-13500000Y-38311510D01*
X-27500000Y-22811510D02*
X-27500000Y-27811510D01*
X-27500000Y-22811510D02*
X-24986920Y-22811510D01*
X-13500000Y-22311770D02*
X-13500000Y-28311250D01*
X-25000000Y-22311510D02*
X-25000000Y-28311510D01*
X-25000000Y-22311510D02*
X-24000000Y-22311510D01*
X-19001140Y-22311510D02*
X-17500000Y-22311510D01*
X-15500000Y-22311510D02*
X-13500000Y-22311510D01*
X-21000000Y-28311510D02*
X-22000000Y-28311510D01*
X-27500000Y-27811510D02*
X-24986920Y-27811510D01*
X-25000000Y-28311510D02*
X-24000000Y-28311510D01*
X-19102120Y-28311250D02*
X-17600980Y-28311250D01*
X-21000000Y-22311510D02*
X-22000000Y-22311510D01*
X-15500000Y-28311510D02*
X-13500000Y-28311510D01*
X-15500000Y-18311510D02*
X-13500000Y-18311510D01*
X-21000000Y-12311510D02*
X-22000000Y-12311510D01*
X-19102120Y-18311250D02*
X-17600980Y-18311250D01*
X-25000000Y-18311510D02*
X-24000000Y-18311510D01*
X-27500000Y-17811510D02*
X-24986920Y-17811510D01*
X-21000000Y-18311510D02*
X-22000000Y-18311510D01*
X-15500000Y-12311510D02*
X-13500000Y-12311510D01*
X-19001140Y-12311510D02*
X-17500000Y-12311510D01*
X-25000000Y-12311510D02*
X-24000000Y-12311510D01*
X-25000000Y-12311510D02*
X-25000000Y-18311510D01*
X-13500000Y-12311770D02*
X-13500000Y-18311250D01*
X-27500000Y-12811510D02*
X-24986920Y-12811510D01*
X-27500000Y-12811510D02*
X-27500000Y-17811510D01*
D13*
X57900000Y-1460000D02*
X7100000Y-1460000D01*
X9640000Y-6540000D02*
X57900000Y-6540000D01*
X57900000Y-1460000D02*
X57900000Y-6540000D01*
X7100000Y-1460000D02*
X7100000Y-4000000D01*
X6820000Y-5270000D02*
X6820000Y-6820000D01*
X7100000Y-4000000D02*
X9640000Y-4000000D01*
X9640000Y-4000000D02*
X9640000Y-6540000D01*
X6820000Y-6820000D02*
X8370000Y-6820000D01*
X16501000Y-60525000D02*
X24499000Y-60525000D01*
X16506000Y-60385000D02*
X24494000Y-60385000D01*
X16516000Y-60245000D02*
X24484000Y-60245000D01*
X16531000Y-60105000D02*
X24469000Y-60105000D01*
X16551000Y-59965000D02*
X24449000Y-59965000D01*
X16576000Y-59825000D02*
X24424000Y-59825000D01*
X16606000Y-59685000D02*
X20327000Y-59685000D01*
X20673000Y-59685000D02*
X24394000Y-59685000D01*
X16642000Y-59545000D02*
X19965000Y-59545000D01*
X21035000Y-59545000D02*
X24358000Y-59545000D01*
X16683000Y-59405000D02*
X19791000Y-59405000D01*
X21209000Y-59405000D02*
X24317000Y-59405000D01*
X16729000Y-59265000D02*
X19675000Y-59265000D01*
X21325000Y-59265000D02*
X24271000Y-59265000D01*
X16782000Y-59125000D02*
X19595000Y-59125000D01*
X21405000Y-59125000D02*
X24218000Y-59125000D01*
X16841000Y-58985000D02*
X19541000Y-58985000D01*
X21459000Y-58985000D02*
X24159000Y-58985000D01*
X16906000Y-58845000D02*
X19511000Y-58845000D01*
X21489000Y-58845000D02*
X24094000Y-58845000D01*
X16977000Y-58705000D02*
X19500000Y-58705000D01*
X21500000Y-58705000D02*
X24023000Y-58705000D01*
X17056000Y-58565000D02*
X19509000Y-58565000D01*
X21491000Y-58565000D02*
X23944000Y-58565000D01*
X17143000Y-58425000D02*
X19539000Y-58425000D01*
X21461000Y-58425000D02*
X23857000Y-58425000D01*
X17238000Y-58285000D02*
X19590000Y-58285000D01*
X21410000Y-58285000D02*
X23762000Y-58285000D01*
X17342000Y-58145000D02*
X19668000Y-58145000D01*
X21332000Y-58145000D02*
X23658000Y-58145000D01*
X17456000Y-58005000D02*
X19781000Y-58005000D01*
X21219000Y-58005000D02*
X23544000Y-58005000D01*
X17581000Y-57865000D02*
X19950000Y-57865000D01*
X21050000Y-57865000D02*
X23419000Y-57865000D01*
X17719000Y-57725000D02*
X20278000Y-57725000D01*
X20722000Y-57725000D02*
X23281000Y-57725000D01*
X17871000Y-57585000D02*
X23129000Y-57585000D01*
X18041000Y-57445000D02*
X22959000Y-57445000D01*
X18232000Y-57305000D02*
X22768000Y-57305000D01*
X18450000Y-57165000D02*
X22550000Y-57165000D01*
X18706000Y-57025000D02*
X22294000Y-57025000D01*
X19017000Y-56885000D02*
X21983000Y-56885000D01*
X19433000Y-56745000D02*
X21567000Y-56745000D01*
X20300000Y-56605000D02*
X20700000Y-56605000D01*
X21500000Y-58700000D02*
G75*
G03X21500000Y-58700000I-1000000J0D01*
G01*
X24537500Y-60600000D02*
G75*
G03X24537500Y-60600000I-4037500J0D01*
G01*
X2787500Y-60900000D02*
G75*
G03X2787500Y-60900000I-4037500J0D01*
G01*
X-250000Y-62800000D02*
G75*
G03X-250000Y-62800000I-1000000J0D01*
G01*
X-1050000Y-64895000D02*
X-1450000Y-64895000D01*
X-183000Y-64755000D02*
X-2317000Y-64755000D01*
X233000Y-64615000D02*
X-2733000Y-64615000D01*
X544000Y-64475000D02*
X-3044000Y-64475000D01*
X800000Y-64335000D02*
X-3300000Y-64335000D01*
X1018000Y-64195000D02*
X-3518000Y-64195000D01*
X1209000Y-64055000D02*
X-3709000Y-64055000D01*
X1379000Y-63915000D02*
X-3879000Y-63915000D01*
X-1472000Y-63775000D02*
X-4031000Y-63775000D01*
X1531000Y-63775000D02*
X-1028000Y-63775000D01*
X-1800000Y-63635000D02*
X-4169000Y-63635000D01*
X1669000Y-63635000D02*
X-700000Y-63635000D01*
X-1969000Y-63495000D02*
X-4294000Y-63495000D01*
X1794000Y-63495000D02*
X-531000Y-63495000D01*
X-2082000Y-63355000D02*
X-4408000Y-63355000D01*
X1908000Y-63355000D02*
X-418000Y-63355000D01*
X-2160000Y-63215000D02*
X-4512000Y-63215000D01*
X2012000Y-63215000D02*
X-340000Y-63215000D01*
X-2211000Y-63075000D02*
X-4607000Y-63075000D01*
X2107000Y-63075000D02*
X-289000Y-63075000D01*
X-2241000Y-62935000D02*
X-4694000Y-62935000D01*
X2194000Y-62935000D02*
X-259000Y-62935000D01*
X-2250000Y-62795000D02*
X-4773000Y-62795000D01*
X2273000Y-62795000D02*
X-250000Y-62795000D01*
X-2239000Y-62655000D02*
X-4844000Y-62655000D01*
X2344000Y-62655000D02*
X-261000Y-62655000D01*
X-2209000Y-62515000D02*
X-4909000Y-62515000D01*
X2409000Y-62515000D02*
X-291000Y-62515000D01*
X-2155000Y-62375000D02*
X-4968000Y-62375000D01*
X2468000Y-62375000D02*
X-345000Y-62375000D01*
X-2075000Y-62235000D02*
X-5021000Y-62235000D01*
X2521000Y-62235000D02*
X-425000Y-62235000D01*
X-1959000Y-62095000D02*
X-5067000Y-62095000D01*
X2567000Y-62095000D02*
X-541000Y-62095000D01*
X-1785000Y-61955000D02*
X-5108000Y-61955000D01*
X2608000Y-61955000D02*
X-715000Y-61955000D01*
X-1423000Y-61815000D02*
X-5144000Y-61815000D01*
X2644000Y-61815000D02*
X-1077000Y-61815000D01*
X2674000Y-61675000D02*
X-5174000Y-61675000D01*
X2699000Y-61535000D02*
X-5199000Y-61535000D01*
X2719000Y-61395000D02*
X-5219000Y-61395000D01*
X2734000Y-61255000D02*
X-5234000Y-61255000D01*
X2744000Y-61115000D02*
X-5244000Y-61115000D01*
X2749000Y-60975000D02*
X-5249000Y-60975000D01*
X8000000Y-48750000D02*
X8250000Y-49000000D01*
X8000000Y-49250000D02*
X8000000Y-48750000D01*
X8250000Y-49000000D02*
X8000000Y-49250000D01*
X8250000Y-49250000D02*
X8250000Y-48750000D01*
X8200000Y-49000000D02*
X7750000Y-49000000D01*
X9100000Y-49550000D02*
X7200000Y-49550000D01*
X9100000Y-48450000D02*
X7200000Y-48450000D01*
X9100000Y-43450000D02*
X7200000Y-43450000D01*
X9100000Y-44550000D02*
X7200000Y-44550000D01*
X8200000Y-44000000D02*
X7750000Y-44000000D01*
X8250000Y-44250000D02*
X8250000Y-43750000D01*
X8250000Y-44000000D02*
X8000000Y-44250000D01*
X8000000Y-44250000D02*
X8000000Y-43750000D01*
X8000000Y-43750000D02*
X8250000Y-44000000D01*
X8000000Y-38750000D02*
X8250000Y-39000000D01*
X8000000Y-39250000D02*
X8000000Y-38750000D01*
X8250000Y-39000000D02*
X8000000Y-39250000D01*
X8250000Y-39250000D02*
X8250000Y-38750000D01*
X8200000Y-39000000D02*
X7750000Y-39000000D01*
X9100000Y-39550000D02*
X7200000Y-39550000D01*
X9100000Y-38450000D02*
X7200000Y-38450000D01*
X9100000Y-33450000D02*
X7200000Y-33450000D01*
X9100000Y-34550000D02*
X7200000Y-34550000D01*
X8200000Y-34000000D02*
X7750000Y-34000000D01*
X8250000Y-34250000D02*
X8250000Y-33750000D01*
X8250000Y-34000000D02*
X8000000Y-34250000D01*
X8000000Y-34250000D02*
X8000000Y-33750000D01*
X8000000Y-33750000D02*
X8250000Y-34000000D01*
X8000000Y-28750000D02*
X8250000Y-29000000D01*
X8000000Y-29250000D02*
X8000000Y-28750000D01*
X8250000Y-29000000D02*
X8000000Y-29250000D01*
X8250000Y-29250000D02*
X8250000Y-28750000D01*
X8200000Y-29000000D02*
X7750000Y-29000000D01*
X9100000Y-29550000D02*
X7200000Y-29550000D01*
X9100000Y-28450000D02*
X7200000Y-28450000D01*
X8000000Y-23750000D02*
X8250000Y-24000000D01*
X8000000Y-24250000D02*
X8000000Y-23750000D01*
X8250000Y-24000000D02*
X8000000Y-24250000D01*
X8250000Y-24250000D02*
X8250000Y-23750000D01*
X8200000Y-24000000D02*
X7750000Y-24000000D01*
X9100000Y-24550000D02*
X7200000Y-24550000D01*
X9100000Y-23450000D02*
X7200000Y-23450000D01*
X9100000Y-18450000D02*
X7200000Y-18450000D01*
X9100000Y-19550000D02*
X7200000Y-19550000D01*
X8200000Y-19000000D02*
X7750000Y-19000000D01*
X8250000Y-19250000D02*
X8250000Y-18750000D01*
X8250000Y-19000000D02*
X8000000Y-19250000D01*
X8000000Y-19250000D02*
X8000000Y-18750000D01*
X8000000Y-18750000D02*
X8250000Y-19000000D01*
X9100000Y-13450000D02*
X7200000Y-13450000D01*
X9100000Y-14550000D02*
X7200000Y-14550000D01*
X8200000Y-14000000D02*
X7750000Y-14000000D01*
X8250000Y-14250000D02*
X8250000Y-13750000D01*
X8250000Y-14000000D02*
X8000000Y-14250000D01*
X8000000Y-14250000D02*
X8000000Y-13750000D01*
X8000000Y-13750000D02*
X8250000Y-14000000D01*
X-23780311Y-54985881D02*
X-23066025Y-54985881D01*
X-22923168Y-55033500D01*
X-22827930Y-55128738D01*
X-22780311Y-55271596D01*
X-22780311Y-55366834D01*
X-22780311Y-53985881D02*
X-22780311Y-54557310D01*
X-22780311Y-54271596D02*
X-23780311Y-54271596D01*
X-23637453Y-54366834D01*
X-23542215Y-54462072D01*
X-23494596Y-54557310D01*
X-22780311Y-53033500D02*
X-22780311Y-53604929D01*
X-22780311Y-53319215D02*
X-23780311Y-53319215D01*
X-23637453Y-53414453D01*
X-23542215Y-53509691D01*
X-23494596Y-53604929D01*
X-23722811Y-9985881D02*
X-23008525Y-9985881D01*
X-22865668Y-10033500D01*
X-22770430Y-10128738D01*
X-22722811Y-10271596D01*
X-22722811Y-10366834D01*
X-22722811Y-8985881D02*
X-22722811Y-9557310D01*
X-22722811Y-9271596D02*
X-23722811Y-9271596D01*
X-23579953Y-9366834D01*
X-23484715Y-9462072D01*
X-23437096Y-9557310D01*
X-23722811Y-8128738D02*
X-23722811Y-8319215D01*
X-23675192Y-8414453D01*
X-23627572Y-8462072D01*
X-23484715Y-8557310D01*
X-23294239Y-8604929D01*
X-22913287Y-8604929D01*
X-22818049Y-8557310D01*
X-22770430Y-8509691D01*
X-22722811Y-8414453D01*
X-22722811Y-8223977D01*
X-22770430Y-8128738D01*
X-22818049Y-8081119D01*
X-22913287Y-8033500D01*
X-23151382Y-8033500D01*
X-23246620Y-8081119D01*
X-23294239Y-8128738D01*
X-23341858Y-8223977D01*
X-23341858Y-8414453D01*
X-23294239Y-8509691D01*
X-23246620Y-8557310D01*
X-23151382Y-8604929D01*
X-23722811Y-1985881D02*
X-23008525Y-1985881D01*
X-22865668Y-2033500D01*
X-22770430Y-2128738D01*
X-22722811Y-2271596D01*
X-22722811Y-2366834D01*
X-22722811Y-985881D02*
X-22722811Y-1557310D01*
X-22722811Y-1271596D02*
X-23722811Y-1271596D01*
X-23579953Y-1366834D01*
X-23484715Y-1462072D01*
X-23437096Y-1557310D01*
X-23722811Y-652548D02*
X-23722811Y14118D01*
X-22722811Y-414453D01*
X-23780311Y6190476D02*
X-23066025Y6190476D01*
X-22923168Y6142857D01*
X-22827930Y6047619D01*
X-22780311Y5904761D01*
X-22780311Y5809523D01*
X-22780311Y7190476D02*
X-22780311Y6619047D01*
X-22780311Y6904761D02*
X-23780311Y6904761D01*
X-23637453Y6809523D01*
X-23542215Y6714285D01*
X-23494596Y6619047D01*
X-23351739Y7761904D02*
X-23399358Y7666666D01*
X-23446977Y7619047D01*
X-23542215Y7571428D01*
X-23589834Y7571428D01*
X-23685072Y7619047D01*
X-23732692Y7666666D01*
X-23780311Y7761904D01*
X-23780311Y7952380D01*
X-23732692Y8047619D01*
X-23685072Y8095238D01*
X-23589834Y8142857D01*
X-23542215Y8142857D01*
X-23446977Y8095238D01*
X-23399358Y8047619D01*
X-23351739Y7952380D01*
X-23351739Y7761904D01*
X-23304120Y7666666D01*
X-23256501Y7619047D01*
X-23161263Y7571428D01*
X-22970787Y7571428D01*
X-22875549Y7619047D01*
X-22827930Y7666666D01*
X-22780311Y7761904D01*
X-22780311Y7952380D01*
X-22827930Y8047619D01*
X-22875549Y8095238D01*
X-22970787Y8142857D01*
X-23161263Y8142857D01*
X-23256501Y8095238D01*
X-23304120Y8047619D01*
X-23351739Y7952380D01*
D15*
X-12296333Y-42824676D02*
X-12296333Y-43459676D01*
X-12338666Y-43586676D01*
X-12423333Y-43671343D01*
X-12550333Y-43713676D01*
X-12635000Y-43713676D01*
X-11957666Y-42824676D02*
X-11407333Y-42824676D01*
X-11703666Y-43163343D01*
X-11576666Y-43163343D01*
X-11492000Y-43205676D01*
X-11449666Y-43248010D01*
X-11407333Y-43332676D01*
X-11407333Y-43544343D01*
X-11449666Y-43629010D01*
X-11492000Y-43671343D01*
X-11576666Y-43713676D01*
X-11830666Y-43713676D01*
X-11915333Y-43671343D01*
X-11957666Y-43629010D01*
X-12296333Y-32824676D02*
X-12296333Y-33459676D01*
X-12338666Y-33586676D01*
X-12423333Y-33671343D01*
X-12550333Y-33713676D01*
X-12635000Y-33713676D01*
X-11492000Y-33121010D02*
X-11492000Y-33713676D01*
X-11703666Y-32782343D02*
X-11915333Y-33417343D01*
X-11365000Y-33417343D01*
X-12296333Y-22824676D02*
X-12296333Y-23459676D01*
X-12338666Y-23586676D01*
X-12423333Y-23671343D01*
X-12550333Y-23713676D01*
X-12635000Y-23713676D01*
X-11449666Y-22824676D02*
X-11873000Y-22824676D01*
X-11915333Y-23248010D01*
X-11873000Y-23205676D01*
X-11788333Y-23163343D01*
X-11576666Y-23163343D01*
X-11492000Y-23205676D01*
X-11449666Y-23248010D01*
X-11407333Y-23332676D01*
X-11407333Y-23544343D01*
X-11449666Y-23629010D01*
X-11492000Y-23671343D01*
X-11576666Y-23713676D01*
X-11788333Y-23713676D01*
X-11873000Y-23671343D01*
X-11915333Y-23629010D01*
X-12296333Y-12824676D02*
X-12296333Y-13459676D01*
X-12338666Y-13586676D01*
X-12423333Y-13671343D01*
X-12550333Y-13713676D01*
X-12635000Y-13713676D01*
X-11492000Y-12824676D02*
X-11661333Y-12824676D01*
X-11746000Y-12867010D01*
X-11788333Y-12909343D01*
X-11873000Y-13036343D01*
X-11915333Y-13205676D01*
X-11915333Y-13544343D01*
X-11873000Y-13629010D01*
X-11830666Y-13671343D01*
X-11746000Y-13713676D01*
X-11576666Y-13713676D01*
X-11492000Y-13671343D01*
X-11449666Y-13629010D01*
X-11407333Y-13544343D01*
X-11407333Y-13332676D01*
X-11449666Y-13248010D01*
X-11492000Y-13205676D01*
X-11576666Y-13163343D01*
X-11746000Y-13163343D01*
X-11830666Y-13205676D01*
X-11873000Y-13248010D01*
X-11915333Y-13332676D01*
D13*
X7822380Y-9476714D02*
X8536666Y-9476714D01*
X8679523Y-9524333D01*
X8774761Y-9619571D01*
X8822380Y-9762428D01*
X8822380Y-9857666D01*
X7822380Y-9095761D02*
X7822380Y-8476714D01*
X8203333Y-8810047D01*
X8203333Y-8667190D01*
X8250952Y-8571952D01*
X8298571Y-8524333D01*
X8393809Y-8476714D01*
X8631904Y-8476714D01*
X8727142Y-8524333D01*
X8774761Y-8571952D01*
X8822380Y-8667190D01*
X8822380Y-8952904D01*
X8774761Y-9048142D01*
X8727142Y-9095761D01*
X7822380Y-7857666D02*
X7822380Y-7762428D01*
X7870000Y-7667190D01*
X7917619Y-7619571D01*
X8012857Y-7571952D01*
X8203333Y-7524333D01*
X8441428Y-7524333D01*
X8631904Y-7571952D01*
X8727142Y-7619571D01*
X8774761Y-7667190D01*
X8822380Y-7762428D01*
X8822380Y-7857666D01*
X8774761Y-7952904D01*
X8727142Y-8000523D01*
X8631904Y-8048142D01*
X8441428Y-8095761D01*
X8203333Y-8095761D01*
X8012857Y-8048142D01*
X7917619Y-8000523D01*
X7870000Y-7952904D01*
X7822380Y-7857666D01*
X7822380Y-6905285D02*
X7822380Y-6810047D01*
X7870000Y-6714809D01*
X7917619Y-6667190D01*
X8012857Y-6619571D01*
X8203333Y-6571952D01*
X8441428Y-6571952D01*
X8631904Y-6619571D01*
X8727142Y-6667190D01*
X8774761Y-6714809D01*
X8822380Y-6810047D01*
X8822380Y-6905285D01*
X8774761Y-7000523D01*
X8727142Y-7048142D01*
X8631904Y-7095761D01*
X8441428Y-7143380D01*
X8203333Y-7143380D01*
X8012857Y-7095761D01*
X7917619Y-7048142D01*
X7870000Y-7000523D01*
X7822380Y-6905285D01*
X15557142Y-60766666D02*
X15604761Y-60814285D01*
X15652380Y-60957142D01*
X15652380Y-61052380D01*
X15604761Y-61195238D01*
X15509523Y-61290476D01*
X15414285Y-61338095D01*
X15223809Y-61385714D01*
X15080952Y-61385714D01*
X14890476Y-61338095D01*
X14795238Y-61290476D01*
X14700000Y-61195238D01*
X14652380Y-61052380D01*
X14652380Y-60957142D01*
X14700000Y-60814285D01*
X14747619Y-60766666D01*
X15652380Y-59814285D02*
X15652380Y-60385714D01*
X15652380Y-60100000D02*
X14652380Y-60100000D01*
X14795238Y-60195238D01*
X14890476Y-60290476D01*
X14938095Y-60385714D01*
X4407142Y-61066666D02*
X4454761Y-61114285D01*
X4502380Y-61257142D01*
X4502380Y-61352380D01*
X4454761Y-61495238D01*
X4359523Y-61590476D01*
X4264285Y-61638095D01*
X4073809Y-61685714D01*
X3930952Y-61685714D01*
X3740476Y-61638095D01*
X3645238Y-61590476D01*
X3550000Y-61495238D01*
X3502380Y-61352380D01*
X3502380Y-61257142D01*
X3550000Y-61114285D01*
X3597619Y-61066666D01*
X3597619Y-60685714D02*
X3550000Y-60638095D01*
X3502380Y-60542857D01*
X3502380Y-60304761D01*
X3550000Y-60209523D01*
X3597619Y-60161904D01*
X3692857Y-60114285D01*
X3788095Y-60114285D01*
X3930952Y-60161904D01*
X4502380Y-60733333D01*
X4502380Y-60114285D01*
X6785714Y-50952380D02*
X6785714Y-49952380D01*
X7023809Y-49952380D01*
X7166666Y-50000000D01*
X7261904Y-50095238D01*
X7309523Y-50190476D01*
X7357142Y-50380952D01*
X7357142Y-50523809D01*
X7309523Y-50714285D01*
X7261904Y-50809523D01*
X7166666Y-50904761D01*
X7023809Y-50952380D01*
X6785714Y-50952380D01*
X8309523Y-50952380D02*
X7738095Y-50952380D01*
X8023809Y-50952380D02*
X8023809Y-49952380D01*
X7928571Y-50095238D01*
X7833333Y-50190476D01*
X7738095Y-50238095D01*
X8642857Y-49952380D02*
X9309523Y-49952380D01*
X8880952Y-50952380D01*
X6785714Y-45952380D02*
X6785714Y-44952380D01*
X7023809Y-44952380D01*
X7166666Y-45000000D01*
X7261904Y-45095238D01*
X7309523Y-45190476D01*
X7357142Y-45380952D01*
X7357142Y-45523809D01*
X7309523Y-45714285D01*
X7261904Y-45809523D01*
X7166666Y-45904761D01*
X7023809Y-45952380D01*
X6785714Y-45952380D01*
X8309523Y-45952380D02*
X7738095Y-45952380D01*
X8023809Y-45952380D02*
X8023809Y-44952380D01*
X7928571Y-45095238D01*
X7833333Y-45190476D01*
X7738095Y-45238095D01*
X8880952Y-45380952D02*
X8785714Y-45333333D01*
X8738095Y-45285714D01*
X8690476Y-45190476D01*
X8690476Y-45142857D01*
X8738095Y-45047619D01*
X8785714Y-45000000D01*
X8880952Y-44952380D01*
X9071428Y-44952380D01*
X9166666Y-45000000D01*
X9214285Y-45047619D01*
X9261904Y-45142857D01*
X9261904Y-45190476D01*
X9214285Y-45285714D01*
X9166666Y-45333333D01*
X9071428Y-45380952D01*
X8880952Y-45380952D01*
X8785714Y-45428571D01*
X8738095Y-45476190D01*
X8690476Y-45571428D01*
X8690476Y-45761904D01*
X8738095Y-45857142D01*
X8785714Y-45904761D01*
X8880952Y-45952380D01*
X9071428Y-45952380D01*
X9166666Y-45904761D01*
X9214285Y-45857142D01*
X9261904Y-45761904D01*
X9261904Y-45571428D01*
X9214285Y-45476190D01*
X9166666Y-45428571D01*
X9071428Y-45380952D01*
X6785714Y-40952380D02*
X6785714Y-39952380D01*
X7023809Y-39952380D01*
X7166666Y-40000000D01*
X7261904Y-40095238D01*
X7309523Y-40190476D01*
X7357142Y-40380952D01*
X7357142Y-40523809D01*
X7309523Y-40714285D01*
X7261904Y-40809523D01*
X7166666Y-40904761D01*
X7023809Y-40952380D01*
X6785714Y-40952380D01*
X8309523Y-40952380D02*
X7738095Y-40952380D01*
X8023809Y-40952380D02*
X8023809Y-39952380D01*
X7928571Y-40095238D01*
X7833333Y-40190476D01*
X7738095Y-40238095D01*
X8785714Y-40952380D02*
X8976190Y-40952380D01*
X9071428Y-40904761D01*
X9119047Y-40857142D01*
X9214285Y-40714285D01*
X9261904Y-40523809D01*
X9261904Y-40142857D01*
X9214285Y-40047619D01*
X9166666Y-40000000D01*
X9071428Y-39952380D01*
X8880952Y-39952380D01*
X8785714Y-40000000D01*
X8738095Y-40047619D01*
X8690476Y-40142857D01*
X8690476Y-40380952D01*
X8738095Y-40476190D01*
X8785714Y-40523809D01*
X8880952Y-40571428D01*
X9071428Y-40571428D01*
X9166666Y-40523809D01*
X9214285Y-40476190D01*
X9261904Y-40380952D01*
X6785714Y-35952380D02*
X6785714Y-34952380D01*
X7023809Y-34952380D01*
X7166666Y-35000000D01*
X7261904Y-35095238D01*
X7309523Y-35190476D01*
X7357142Y-35380952D01*
X7357142Y-35523809D01*
X7309523Y-35714285D01*
X7261904Y-35809523D01*
X7166666Y-35904761D01*
X7023809Y-35952380D01*
X6785714Y-35952380D01*
X7738095Y-35047619D02*
X7785714Y-35000000D01*
X7880952Y-34952380D01*
X8119047Y-34952380D01*
X8214285Y-35000000D01*
X8261904Y-35047619D01*
X8309523Y-35142857D01*
X8309523Y-35238095D01*
X8261904Y-35380952D01*
X7690476Y-35952380D01*
X8309523Y-35952380D01*
X8928571Y-34952380D02*
X9023809Y-34952380D01*
X9119047Y-35000000D01*
X9166666Y-35047619D01*
X9214285Y-35142857D01*
X9261904Y-35333333D01*
X9261904Y-35571428D01*
X9214285Y-35761904D01*
X9166666Y-35857142D01*
X9119047Y-35904761D01*
X9023809Y-35952380D01*
X8928571Y-35952380D01*
X8833333Y-35904761D01*
X8785714Y-35857142D01*
X8738095Y-35761904D01*
X8690476Y-35571428D01*
X8690476Y-35333333D01*
X8738095Y-35142857D01*
X8785714Y-35047619D01*
X8833333Y-35000000D01*
X8928571Y-34952380D01*
X6785714Y-30952380D02*
X6785714Y-29952380D01*
X7023809Y-29952380D01*
X7166666Y-30000000D01*
X7261904Y-30095238D01*
X7309523Y-30190476D01*
X7357142Y-30380952D01*
X7357142Y-30523809D01*
X7309523Y-30714285D01*
X7261904Y-30809523D01*
X7166666Y-30904761D01*
X7023809Y-30952380D01*
X6785714Y-30952380D01*
X7738095Y-30047619D02*
X7785714Y-30000000D01*
X7880952Y-29952380D01*
X8119047Y-29952380D01*
X8214285Y-30000000D01*
X8261904Y-30047619D01*
X8309523Y-30142857D01*
X8309523Y-30238095D01*
X8261904Y-30380952D01*
X7690476Y-30952380D01*
X8309523Y-30952380D01*
X9261904Y-30952380D02*
X8690476Y-30952380D01*
X8976190Y-30952380D02*
X8976190Y-29952380D01*
X8880952Y-30095238D01*
X8785714Y-30190476D01*
X8690476Y-30238095D01*
X6785714Y-25952380D02*
X6785714Y-24952380D01*
X7023809Y-24952380D01*
X7166666Y-25000000D01*
X7261904Y-25095238D01*
X7309523Y-25190476D01*
X7357142Y-25380952D01*
X7357142Y-25523809D01*
X7309523Y-25714285D01*
X7261904Y-25809523D01*
X7166666Y-25904761D01*
X7023809Y-25952380D01*
X6785714Y-25952380D01*
X7738095Y-25047619D02*
X7785714Y-25000000D01*
X7880952Y-24952380D01*
X8119047Y-24952380D01*
X8214285Y-25000000D01*
X8261904Y-25047619D01*
X8309523Y-25142857D01*
X8309523Y-25238095D01*
X8261904Y-25380952D01*
X7690476Y-25952380D01*
X8309523Y-25952380D01*
X8690476Y-25047619D02*
X8738095Y-25000000D01*
X8833333Y-24952380D01*
X9071428Y-24952380D01*
X9166666Y-25000000D01*
X9214285Y-25047619D01*
X9261904Y-25142857D01*
X9261904Y-25238095D01*
X9214285Y-25380952D01*
X8642857Y-25952380D01*
X9261904Y-25952380D01*
X6785714Y-20952380D02*
X6785714Y-19952380D01*
X7023809Y-19952380D01*
X7166666Y-20000000D01*
X7261904Y-20095238D01*
X7309523Y-20190476D01*
X7357142Y-20380952D01*
X7357142Y-20523809D01*
X7309523Y-20714285D01*
X7261904Y-20809523D01*
X7166666Y-20904761D01*
X7023809Y-20952380D01*
X6785714Y-20952380D01*
X7738095Y-20047619D02*
X7785714Y-20000000D01*
X7880952Y-19952380D01*
X8119047Y-19952380D01*
X8214285Y-20000000D01*
X8261904Y-20047619D01*
X8309523Y-20142857D01*
X8309523Y-20238095D01*
X8261904Y-20380952D01*
X7690476Y-20952380D01*
X8309523Y-20952380D01*
X8642857Y-19952380D02*
X9261904Y-19952380D01*
X8928571Y-20333333D01*
X9071428Y-20333333D01*
X9166666Y-20380952D01*
X9214285Y-20428571D01*
X9261904Y-20523809D01*
X9261904Y-20761904D01*
X9214285Y-20857142D01*
X9166666Y-20904761D01*
X9071428Y-20952380D01*
X8785714Y-20952380D01*
X8690476Y-20904761D01*
X8642857Y-20857142D01*
X6785714Y-15952380D02*
X6785714Y-14952380D01*
X7023809Y-14952380D01*
X7166666Y-15000000D01*
X7261904Y-15095238D01*
X7309523Y-15190476D01*
X7357142Y-15380952D01*
X7357142Y-15523809D01*
X7309523Y-15714285D01*
X7261904Y-15809523D01*
X7166666Y-15904761D01*
X7023809Y-15952380D01*
X6785714Y-15952380D01*
X7738095Y-15047619D02*
X7785714Y-15000000D01*
X7880952Y-14952380D01*
X8119047Y-14952380D01*
X8214285Y-15000000D01*
X8261904Y-15047619D01*
X8309523Y-15142857D01*
X8309523Y-15238095D01*
X8261904Y-15380952D01*
X7690476Y-15952380D01*
X8309523Y-15952380D01*
X9166666Y-15285714D02*
X9166666Y-15952380D01*
X8928571Y-14904761D02*
X8690476Y-15619047D01*
X9309523Y-15619047D01*
M02*
