G04 #@! TF.GenerationSoftware,KiCad,Pcbnew,(2017-06-12 revision 19d5cc754)-master*
G04 #@! TF.CreationDate,2017-12-09T12:00:16+01:00*
G04 #@! TF.ProjectId,RPi_Hat,5250695F4861742E6B696361645F7063,rev?*
G04 #@! TF.FileFunction,Paste,Top*
G04 #@! TF.FilePolarity,Positive*
%FSLAX46Y46*%
G04 Gerber Fmt 4.6, Leading zero omitted, Abs format (unit mm)*
G04 Created by KiCad (PCBNEW (2017-06-12 revision 19d5cc754)-master) date 2017 December 09, Saturday 12:00:16*
%MOMM*%
%LPD*%
G01*
G04 APERTURE LIST*
%ADD10C,0.100000*%
%ADD11R,1.500000X1.500000*%
%ADD12R,0.797560X0.797560*%
G04 APERTURE END LIST*
D10*
D11*
X-16500000Y-48561510D03*
X-20000000Y-48561510D03*
X-23200000Y-48561510D03*
X-16500000Y-42061510D03*
X-20000000Y-42061510D03*
X-23200000Y-42061510D03*
X-23200000Y-32061510D03*
X-20000000Y-32061510D03*
X-16500000Y-32061510D03*
X-23200000Y-38561510D03*
X-20000000Y-38561510D03*
X-16500000Y-38561510D03*
X-23200000Y-22061510D03*
X-20000000Y-22061510D03*
X-16500000Y-22061510D03*
X-23200000Y-28561510D03*
X-20000000Y-28561510D03*
X-16500000Y-28561510D03*
X-16500000Y-18561510D03*
X-20000000Y-18561510D03*
X-23200000Y-18561510D03*
X-16500000Y-12061510D03*
X-20000000Y-12061510D03*
X-23200000Y-12061510D03*
D12*
X8749300Y-49000000D03*
X7250700Y-49000000D03*
X7250700Y-44000000D03*
X8749300Y-44000000D03*
X8749300Y-39000000D03*
X7250700Y-39000000D03*
X7250700Y-34000000D03*
X8749300Y-34000000D03*
X8749300Y-29000000D03*
X7250700Y-29000000D03*
X8749300Y-24000000D03*
X7250700Y-24000000D03*
X7250700Y-19000000D03*
X8749300Y-19000000D03*
X7250700Y-14000000D03*
X8749300Y-14000000D03*
M02*
